<?xml version="1.0" encoding="UTF-8"?>
<svg id="Layer_1" xmlns="http://www.w3.org/2000/svg" version="1.1" viewBox="0 0 650 132">
  <!-- Generator: Adobe Illustrator 30.0.0, SVG Export Plug-In . SVG Version: 2.1.1 Build 123)  -->
  <defs>
    <style>
      .st0 {
        fill: #121212;
      }

      .st1 {
        fill: #ff4040;
      }
    </style>
  </defs>
  <path class="st0" d="M207.2,105.3l-6.1-15.4h-30.4l-5.8,15.4h-20.6l32.9-78.6h18.4l32.6,78.6h-21.1,0ZM186.1,47.7l-10,27h19.7l-9.8-27Z"/>
  <path class="st0" d="M266.7,106.9c-6.8,0-13.3-2.9-16.8-7.7h-.2v32.7h-18.2V50h17.3v6.8h.3c3.3-4.4,9.5-8.3,17.6-8.3,16.1,0,26.2,13.5,26.2,29s-9.6,29.4-26.3,29.4h0ZM262.3,63.3c-8.2,0-13.3,7.2-13.3,14.2s5.1,14.2,13.3,14.2,13-7.1,13-14.3-4.3-14.1-13-14.1h0Z"/>
  <path class="st0" d="M335.9,106.9c-6.8,0-13.3-2.9-16.8-7.7h-.2v32.7h-18.2V50h17.3v6.8h.3c3.3-4.4,9.5-8.3,17.6-8.3,16.1,0,26.2,13.5,26.2,29s-9.6,29.4-26.3,29.4h0ZM331.5,63.3c-8.2,0-13.3,7.2-13.3,14.2s5.1,14.2,13.3,14.2,13-7.1,13-14.3-4.3-14.1-13-14.1h0Z"/>
  <path class="st0" d="M370.1,105.3V21.4h18.4v83.9h-18.4Z"/>
  <path class="st0" d="M398.3,57.6c6.4-6.1,15.6-9.3,24.6-9.3,18.5,0,25.4,9.1,25.4,29.2v27.9h-16.6v-5.9h-.3c-2.8,4.6-9.1,7.2-15.6,7.2s-20.1-4.3-20.1-17.3,19.4-18.7,35.5-18.7v-.9c0-5.4-4.3-8-10-8s-10.3,2.6-13.6,5.7l-9.2-9.9ZM431.7,81.2h-2.3c-8,0-17,1-17,7.6s4.2,5.7,7.9,5.7c7.3,0,11.4-4.4,11.4-11.3v-1.9h0Z"/>
  <path class="st0" d="M494.5,105.3v-7.7h-.2c-2.5,4.9-8.9,9.2-16.6,9.2-14.9,0-20.1-11.5-20.1-22.6v-34.2h18.3v30c0,6.2,1.6,11.8,8.2,11.8s9.8-5.6,9.8-11.9v-29.9h18.2v55.3h-17.5Z"/>
  <path class="st0" d="M564.3,105.3v-7.2h-.2c-3.5,5.6-10.8,8.8-18.1,8.8-16.6,0-26.3-14-26.3-29.4s10-29,26.1-29,13.7,3.8,16.9,7.4h.2V21.4h18.2v83.9h-16.8ZM550.3,63.3c-8.7,0-13.1,7-13.1,14.1s4.4,14.3,13.1,14.3,13.3-7,13.3-14.2-5.1-14.2-13.3-14.2h0Z"/>
  <path class="st0" d="M619.3,107.1c-16.6,0-30.6-11.5-30.6-29.6s14-29.2,30.6-29.2,30.7,11.1,30.7,29.2-14,29.6-30.7,29.6ZM619.3,63.3c-8.5,0-13,7-13,14.1s4.5,14.3,13.1,14.3,13.1-7.2,13.1-14.3-4.7-14.1-13.2-14.1Z"/>
  <path class="st1" d="M117.4,6.1c-2.4-3.4-6.3-5.6-10.4-6-.8,0-1.7.1-2.4.5L2,59.8c-1.4.8-2.2,2.4-1.9,4,.4,2.5,1.2,4.9,2.4,7,0,0,0,.1,0,.2,1.3,2.1,2.9,4.1,4.9,5.6,1.3,1,3,1.1,4.4.3L98.3,27v99.9c0,1.6,1,3.1,2.5,3.7,2.4,1,4.9,1.4,7.4,1.4s5-.5,7.4-1.4c1.5-.6,2.5-2.1,2.5-3.7V8.4c0-.8-.3-1.6-.7-2.3h0Z"/>
  <path class="st1" d="M73.9,57.2c-.8,0-1.7,0-2.4.5l-53.1,30.7c-1.4.8-2.2,2.4-1.9,4,.4,2.5,1.2,4.9,2.4,7,0,0,0,.1,0,.2,1.3,2.1,2.9,4.1,4.9,5.6,1.3,1,3,1.1,4.4.3l36.9-21.3v42.7c0,1.6,1,3.1,2.5,3.7,2.4,1,4.9,1.4,7.4,1.4s5-.5,7.4-1.4c1.5-.6,2.5-2.1,2.5-3.7v-61.3c0-.8-.3-1.6-.7-2.3-2.4-3.4-6.3-5.6-10.4-6Z"/>
</svg>