<svg width="500" height="500" viewBox="0 0 500 500" fill="none" xmlns="http://www.w3.org/2000/svg">
<circle cx="247" cy="243" r="149" fill="#1D428A"/>
<path fill-rule="evenodd" clip-rule="evenodd" d="M253.694 76.5052L242.269 61.416H234.479V62.8953L236.334 64.2267V86.4167H242.269V71.4015L253.768 86.4167H259.703V61.416H253.768V76.5052H253.694ZM211.852 90.1151L228.989 87.0824L228.173 81.9787L217.194 83.9019L216.377 79.168L225.28 77.6147L224.909 75.3957L224.39 72.511L215.487 74.0643L214.671 69.5523L224.686 67.8511L225.131 62.4515L208.884 65.3362L207.549 65.5581L205.768 65.854L206.065 67.2594L207.994 68.2209L211.852 90.1151ZM183.364 99.4348L192.118 96.2543C200.279 93.2956 203.394 86.6386 200.947 79.7598C198.424 72.8808 191.747 69.8482 183.587 72.7329L175.871 75.5436L174.907 75.8395L172.903 76.5792L173.423 77.9845L175.945 78.7242L183.438 99.4348H183.364ZM182.474 78.7242L185.59 77.6147C188.78 76.4313 193.157 76.8751 195.011 81.9787C196.866 87.0085 193.824 90.189 190.634 91.2985L187.444 92.408L182.474 78.6502V78.7242ZM160.737 111.861L176.242 102.911L174.758 97.5117L163.482 104.021L153.763 87.2304L149.683 89.5233L148.273 90.4109L146.938 91.2246L147.68 92.482L149.683 92.7039L160.811 112.083L160.737 111.861ZM145.528 106.24C140.855 100.84 132.991 99.9526 126.833 105.352C120.676 110.752 120.453 118.592 125.127 123.918C129.801 129.317 137.664 130.279 143.822 124.879C150.054 119.48 150.276 111.565 145.528 106.24ZM130.023 119.702C127.13 116.373 127.13 112.231 130.394 109.42C133.584 106.61 137.813 107.127 140.706 110.456C143.6 113.71 143.6 118 140.335 120.811C137.071 123.622 132.842 122.956 130.023 119.702ZM120.156 127.395L115.26 133.681L113.925 135.308L111.847 137.971L115.779 141.004L119.711 136.048C120.898 138.415 120.527 141.3 118.895 143.297C116.224 146.699 111.996 146.921 108.583 144.185C105.096 141.522 104.354 137.38 107.025 133.978C107.396 133.46 107.915 133.015 108.435 132.572C109.102 132.054 109.918 131.61 110.809 131.388L112.812 128.8L115.408 125.545L115.557 125.397H115.186C110.734 124.732 106.283 126.507 103.464 129.983C103.242 130.205 103.019 130.427 102.871 130.723C97.8259 137.158 99.1612 144.924 104.799 149.289C110.438 153.652 118.302 153.061 123.346 146.699L123.866 146.034C126.982 141.966 127.352 136.418 124.756 131.98C124.533 131.536 124.311 131.167 124.014 130.797C123.272 129.761 122.382 128.874 121.417 128.06C120.972 127.764 120.601 127.542 120.305 127.32M289.823 80.2775L291.974 82.2746C293.829 83.9759 294.719 84.8634 294.348 86.1208C294.126 87.1564 292.79 87.6741 290.936 87.1564C288.339 86.2688 286.188 84.4936 284.778 82.2006L282.923 88.4878C284.926 90.3369 287.375 91.6684 289.971 92.334C294.793 93.7394 299.393 92.0382 300.803 87.3783C301.841 83.68 299.913 81.2391 297.167 78.7242L294.645 76.2833C293.458 75.1738 293.236 74.4341 293.458 73.6205C293.755 72.585 294.942 72.2151 296.574 72.585C298.948 73.3986 301.025 74.8779 302.509 76.8011L304.141 71.1056C302.286 69.4784 300.135 68.2209 297.687 67.5552C292.493 66.0759 288.265 68.3689 287.152 72.3631C286.188 75.1738 287.003 77.7626 289.674 80.2036" fill="#1D428A"/>
<path fill-rule="evenodd" clip-rule="evenodd" d="M310.596 99.7318L316.383 102.395L324.691 84.4947L331.814 87.8232L333.965 83.0893L313.934 73.7695L311.783 78.5034L318.905 81.7579L310.521 99.6578L310.596 99.7318ZM326.768 104.392L325.285 106.611L329.588 109.495L331.442 107.498L334.188 106.093L338.045 108.682L341.903 111.271L341.606 114.377L340.419 116.818L344.722 119.777L346.206 117.558L351.918 94.5541L348.951 92.557L346.577 91.0038L345.909 90.56L343.906 89.2285L343.09 90.486L343.758 92.1872L326.62 104.54L326.768 104.392ZM345.464 97.6608L343.164 106.241L340.716 104.614L338.268 102.986L345.39 97.6608H345.464ZM359.634 106.463L365.42 111.862L351.918 126.286L356.592 130.576L370.094 116.152L375.881 121.478L379.442 117.78L363.269 102.764L359.708 106.463H359.634ZM377.884 139.082L383.448 146.183L387.528 143.076L381.964 135.976L385.599 133.165L391.831 141.153L396.727 139.082L386.489 125.99L384.486 123.401L383.374 124.289V126.73L366.014 140.414L376.697 154.097L380.777 150.917L373.952 142.189L377.809 139.156L377.884 139.082Z" fill="#1D428A"/>
<path fill-rule="evenodd" clip-rule="evenodd" d="M345.241 145.147C319.202 119.184 283.889 104.539 247.018 104.539C170.827 104.613 108.139 167.115 108.139 243.005C108.139 279.766 122.828 314.974 148.868 340.936C174.907 366.899 210.22 381.544 247.091 381.544C323.282 381.544 385.896 319.042 385.896 243.153C385.896 206.465 371.207 171.183 345.167 145.221M154.135 150.546C178.765 126.064 212.15 112.306 246.944 112.306C319.053 112.306 378.329 171.405 378.329 243.3C378.329 261.792 374.397 279.988 366.83 296.852C350.88 291.453 335.226 285.461 319.87 278.656C317.866 277.769 315.789 276.881 313.86 275.993L307.925 273.183L304.883 271.778L301.916 270.372L295.981 267.414C293.978 266.452 292.049 265.417 290.12 264.307L287.153 262.754L284.259 261.2L278.473 258.02L272.761 254.691C257.478 245.815 242.863 235.904 228.99 224.883C222.09 219.409 215.34 213.713 208.96 207.648C205.769 204.616 202.653 201.51 199.612 198.329C198.87 197.515 198.128 196.775 197.386 195.888C196.644 195.074 195.976 194.261 195.235 193.373C194.493 192.485 193.751 191.746 193.157 190.858V190.71C192.861 181.094 192.712 175.325 192.712 175.325L186.11 173.772V182.574H180.546V173.328L173.498 175.029V178.358L170.308 180.133C170.382 182.87 170.456 186.494 170.53 190.71C167.859 195.37 138.778 245.446 116.967 260.904C116.151 254.987 115.706 248.996 115.706 243.005C115.557 208.314 129.43 174.955 154.135 150.546ZM326.695 307.355L313.193 307.799L302.139 279.322L304.29 280.358L310.299 283.391L316.383 286.275C316.976 286.571 317.57 286.793 318.089 287.089L326.62 307.355H326.695ZM323.43 289.529C328.846 292.044 334.41 294.337 339.9 296.63L344.426 306.69L330.849 307.133L323.43 289.456V289.529ZM308.964 307.948L295.091 308.391L280.699 267.71L283.443 269.263L286.411 270.89L292.346 274.145L296.872 276.585L308.964 307.948ZM291.085 308.539L278.769 308.909L260.816 255.357C263.561 257.132 266.306 258.907 269.125 260.609L274.912 264.159L275.728 264.603L291.159 308.539H291.085ZM274.615 309.131L261.707 309.575L240.341 241.303C245.237 244.928 250.356 248.478 255.401 251.954L274.615 309.057V309.131ZM257.626 309.723L245.163 310.092L219.791 224.809C221.571 226.362 223.426 227.915 225.207 229.395C228.397 232.057 231.661 234.646 234.999 237.161L257.626 309.648V309.723ZM241.157 310.24L227.358 310.684L197.015 202.767C199.612 205.725 202.357 208.536 205.176 211.347C208.143 214.306 211.111 217.116 214.153 219.927L241.083 310.24H241.157ZM223.352 310.832L211.407 311.202L194.716 247.886C194.196 231.54 193.751 216.451 193.38 204.32L223.277 310.832H223.352ZM207.401 311.35L197.089 311.646C196.422 296.557 195.828 280.728 195.309 265.417L207.401 311.35ZM353.105 320.448C352.215 321.631 351.325 322.889 350.36 324.072L197.609 321.039V319.56L353.105 320.448ZM348.58 306.616L345.093 298.775C350.88 301.142 356.741 303.361 362.527 305.433L362.157 306.098L348.58 306.616ZM186.11 210.829V218.891H180.026V226.362H186.11V234.425H180.026V241.895H186.11V256.984H180.026V264.455H186.11V279.988H180.026V287.459H186.11V311.941L180.472 312.163V198.255H186.036V203.285H179.952V210.755H186.11V210.903V210.829ZM127.205 296.852L144.342 239.306C152.651 228.137 160.218 216.376 166.895 204.172L136.181 313.421C132.769 308.095 129.801 302.548 127.205 296.778M124.757 291.157C121.715 283.464 119.415 275.55 117.931 267.414C125.202 261.496 131.804 254.765 137.739 247.516L124.757 291.157ZM170.53 205.651C170.53 217.264 170.308 231.17 170.085 246.037L152.429 313.125L140.262 313.495L170.605 205.651H170.53ZM169.714 262.827C169.269 279.47 168.676 296.557 167.785 312.533L156.509 312.903L169.714 262.754V262.827ZM146.271 327.104L166.969 327.844C166.598 334.205 166.153 340.197 165.559 345.818C161.554 342.638 157.77 339.235 154.135 335.685C151.39 332.948 148.719 330.063 146.271 327.104ZM247.091 374C230.993 374 215.043 371.115 199.983 365.345C199.389 356.395 198.796 345.67 198.202 333.91L186.184 329.842V359.058C184.255 358.097 182.4 356.987 180.546 355.878V328.14L186.184 328.362V328.584H192.267L203.321 328.954L341.607 333.835L339.974 335.537C315.344 360.168 281.885 374 247.018 373.851" fill="#FDB927"/>
<path fill-rule="evenodd" clip-rule="evenodd" d="M291.752 402.549L290.269 394.857L281.959 396.484L272.538 398.334L264.229 399.961L265.712 407.653L273.947 406.1L278.25 427.846L269.941 429.474L271.425 437.166L279.808 435.613L289.23 433.764L297.465 432.136L295.981 424.444L287.672 426.071L283.443 404.325L291.752 402.697V402.549ZM339.974 393.378C344.574 403.215 340.938 414.68 329.736 419.784C318.534 425.036 307.406 420.376 302.806 410.538C298.206 400.701 301.842 389.31 313.044 384.132C324.247 378.955 335.374 383.54 339.974 393.378ZM331.146 397.52C328.327 391.529 322.466 388.94 316.605 391.676C310.67 394.414 308.89 400.479 311.783 406.544C314.602 412.461 320.389 415.198 326.324 412.461C332.259 409.725 334.039 403.511 331.146 397.52ZM367.424 362.312C362.675 356.838 355.257 357.208 349.693 362.016L339.158 370.966L337.526 372.371L335.523 374.072L336.933 375.7L340.123 375.404L362.082 401.144L369.352 394.931L360.375 384.428L362.453 382.653L378.626 386.943L387.454 379.472L368.685 375.108C370.762 370.892 370.168 365.936 367.201 362.312M358.669 375.7L355.257 378.585L349.693 372.075L353.254 369.043C355.257 367.342 357.853 366.972 359.708 369.043C361.637 371.114 360.895 373.702 358.744 375.626M402.736 360.759C400.363 364.161 397.172 366.898 393.389 368.673L385.451 362.756C389.531 362.016 393.241 359.871 395.912 356.764C397.692 354.398 397.543 352.326 396.282 351.365C394.65 350.108 392.944 350.921 389.531 352.622L385.451 354.546C380.555 356.912 376.326 356.691 372.765 354.028C367.72 350.255 366.83 343.08 371.726 336.572C373.952 333.539 376.919 331.098 380.258 329.396L387.454 334.796C383.893 335.906 380.629 338.051 378.181 340.862C376.697 342.785 376.697 344.708 377.958 345.67C378.997 346.483 380.184 346.483 382.409 345.373L387.232 343.08C392.202 340.64 396.876 339.234 401.475 342.71C407.41 347.297 407.188 354.915 402.662 360.832M254.733 412.017C255.029 404.769 249.243 400.109 241.898 399.813L228.025 399.369H225.948L223.351 399.221V401.44L225.874 403.363L224.687 437.166L234.257 437.462L234.702 423.63H237.447L246.498 437.832L258.071 438.202L247.165 422.373C251.543 420.671 254.51 416.603 254.807 411.87M239.45 416.012L234.999 415.863L235.296 407.357L239.969 407.505C242.64 407.505 244.792 408.985 244.718 411.87C244.569 414.68 242.344 416.085 239.45 416.012ZM212.149 408.467C214.152 401.514 209.775 395.523 202.801 393.451L189.522 389.531L187.519 388.94L184.997 388.2L184.329 390.271L186.258 392.86L176.613 425.257L185.813 427.92L189.744 414.68L192.416 415.494L197.608 431.397L208.663 434.651L202.06 416.603C206.734 416.085 210.665 412.905 212.075 408.467M196.199 408.689L191.896 407.432L194.344 399.221L198.796 400.552C201.392 401.366 203.024 403.215 202.282 405.952C201.466 408.615 198.944 409.429 196.199 408.615" fill="#1D428A"/>
<path fill-rule="evenodd" clip-rule="evenodd" d="M167.191 378.289L163.853 376.366L162.517 375.552L159.773 373.925L158.66 375.848L159.55 377.919L134.697 398.334L132.62 401.884L139.445 405.878L142.042 402.624L146.122 400.257L152.131 403.807L158.14 407.358L157.992 412.018L156.434 415.79L163.259 419.784L165.337 416.234L171.939 380.878L167.191 378.289ZM155.915 397.372L152.131 395.153L162.443 386.351L159.773 399.591L155.989 397.372H155.915ZM144.49 363.644L142.116 361.054L140.484 362.534L140.781 365.197L120.305 373.999L133.584 351.661L129.43 347.149L106.135 358.54L118.599 335.462L111.477 327.622L110.586 326.66L108.954 328.066L109.399 331.764L93.1523 363.717L99.6808 370.818L115.334 364.309L107.545 379.251L114.073 386.351L151.686 371.336L144.564 363.57L144.49 363.644Z" fill="#1D428A"/>
</svg>
