<svg width="500" height="500" viewBox="0 0 500 500" fill="none" xmlns="http://www.w3.org/2000/svg">
<path d="M371.158 158.829C361.738 148.327 340.842 139.773 313.882 134.793C313.882 131.653 315.94 130.354 319.188 128.188C321.245 126.889 323.086 125.373 324.926 123.749C333.588 115.412 323.41 102.853 322.869 102.311L317.347 95.4903L318.646 104.152C319.621 110.107 317.347 112.272 310.851 116.928C310.093 117.469 309.335 118.011 308.685 118.769C309.227 114.113 308.902 109.349 307.711 104.693C307.17 101.77 305.654 98.955 303.597 96.7896L302.839 104.91C302.839 104.91 302.297 111.19 293.744 118.769C294.502 118.011 295.26 117.145 295.801 116.17C299.915 110.107 298.941 103.394 297.317 95.4903L296.992 93.8663C295.476 85.7459 297.75 80.5489 299.158 79.6827C300.457 78.0587 303.272 75.2436 303.272 75.2436C301.431 74.9188 299.591 74.9188 297.75 75.2436C292.553 76.0015 283.675 79.1414 283.891 86.2873C284.108 89.2106 284.866 92.2422 285.949 95.1655C286.923 97.9806 287.789 100.687 287.031 101.987C286.273 103.286 284.433 104.044 281.509 104.585C269.166 106.751 259.747 112.489 254.875 120.826C253.359 123.641 252.276 126.564 251.735 129.487C221.094 129.487 192.077 133.385 169.557 140.423C144.222 148.218 130.363 158.937 129.28 171.064C128.739 177.56 131.662 186.979 147.794 195.858L152.45 198.023L154.832 199.106C163.169 202.787 171.831 205.602 180.925 207.768C177.569 209.608 174.321 211.99 171.289 214.589C142.273 238.192 137.834 280.851 161.545 309.867C185.256 338.884 227.807 343.323 256.824 319.612C269.058 309.867 277.287 296.009 280.427 280.634C284.324 267.533 285.732 253.675 285.082 240.032C284.324 229.638 288.547 219.569 296.667 212.856C315.29 210.799 333.804 206.252 351.128 199.214L353.293 198.131L358.057 195.749C369.317 189.47 375.814 181.891 376.572 173.987C377.438 168.249 375.272 162.727 371.158 158.829ZM348.962 171.93C350.803 173.987 350.803 175.394 350.803 175.828C350.586 178.21 347.447 181.133 342.358 183.948C331.639 189.686 313.016 193.909 291.037 196.291C292.012 195.533 293.094 194.992 294.177 194.667H294.502C300.782 192.068 308.036 189.145 308.361 178.643C308.361 175.719 308.577 172.904 309.443 169.981C310.959 167.058 313.341 164.676 316.264 162.943L311.825 161.969H311.067C312.583 160.886 313.666 159.37 314.424 157.855C332.613 161.861 344.523 166.949 348.962 171.93ZM155.482 174.528C156.24 165.867 187.422 154.39 237.876 152.766C231.596 157.421 227.374 164.351 226.291 172.146L225.75 175.828C225.533 178.21 224.992 180.483 224.126 182.865C222.285 188.062 216.763 192.068 210.808 195.425C190.453 192.826 173.455 188.604 163.71 183.082C158.189 180.267 155.265 177.127 155.482 174.528Z" fill="#061922"/>
<path d="M190.561 381.001L199.223 345.705H185.04L176.27 381.001H190.561Z" fill="#061922"/>
<path d="M221.96 354.475L222.935 368.875H215.572L223.151 381.218H236.252L234.195 345.922H212.432L194.676 381.002H208.534L221.96 354.475Z" fill="#061922"/>
<path d="M188.721 413.483L185.689 425.501H199.223L207.885 390.312H194.459L191.103 403.955H181.142L184.498 390.312H170.964L162.303 425.501H175.728L178.543 413.483H188.721Z" fill="#061922"/>
<path d="M220.877 417.597L221.743 412.833H238.417L240.366 405.037H223.8L224.883 399.84H241.557L244.047 390.312H213.839L205.178 425.501H235.277L237.226 417.597H220.877Z" fill="#061922"/>
<path d="M306.846 381.001L315.616 345.705H301.324L292.662 381.001H306.846Z" fill="#061922"/>
<path d="M330.664 373.314C332.504 375.913 334.561 381.11 325.9 385.116C315.506 389.772 325.9 401.573 311.825 401.573H306.194L300.239 425.718H285.839L291.794 401.573H282.158L285.298 390.53H310.092C324.817 390.53 314.531 380.352 321.894 378.945C326.874 377.754 330.122 376.779 330.664 373.314Z" fill="#061922"/>
<path d="M151.584 364.003L149.31 345.705H131.662L123 381.001H136.101L140.865 362.595L143.463 381.001H151.151L161.869 362.595L157.863 381.001H169.99L178.76 345.705H161.761L151.8 364.003H151.584Z" fill="#061922"/>
<path d="M268.084 364.003L265.918 345.705H248.162L239.5 381.001H252.601L257.365 362.595H257.581L260.18 381.001H267.759L278.478 362.595L274.363 381.001H286.598L295.26 345.705H278.261L268.3 364.003H268.084Z" fill="#061922"/>
<path d="M266.026 398.973L267.001 413.373H259.638L267.217 425.716H280.318L278.261 390.42H256.823L239.283 425.716H253.142L266.026 398.973Z" fill="#061922"/>
<path d="M149.201 271.648C151.258 282.366 157.321 292.003 166.199 298.391C169.339 300.556 172.696 302.288 176.16 303.588C173.995 299.906 171.396 296.009 168.798 292.327C163.601 285.29 159.378 277.711 155.697 269.807C152.341 261.687 151.474 253.025 152.882 244.363C150.283 251.617 148.768 259.088 148.768 266.884C149.201 268.508 149.201 270.024 149.201 271.648Z" fill="#98002E"/>
<path d="M160.244 267.967C163.709 275.546 167.823 282.692 172.804 289.405C176.485 294.602 179.625 299.907 182.765 305.429C185.688 306.187 188.828 306.512 191.968 306.729C188.503 301.748 185.688 296.334 183.523 290.813C174.103 267.318 175.402 238.518 187.204 221.736C192.942 213.399 200.738 206.794 209.724 202.139C217.628 197.699 222.609 196.4 227.806 193.477C232.786 190.554 236.251 184.599 232.569 172.472C231.595 169.657 231.27 166.734 231.487 163.811C230.188 166.626 229.321 169.332 228.672 172.256C228.347 176.153 227.589 179.835 226.506 183.516C221.526 196.4 197.706 203.438 194.566 204.412C186.662 206.794 179.083 210.909 172.912 216.43C158.404 229.423 153.207 249.886 160.244 267.967Z" fill="#98002E"/>
<path d="M258.881 152.549C259.097 153.307 259.206 154.065 259.422 154.931C259.963 159.37 258.664 163.051 253.359 163.809C248.054 164.567 245.78 159.695 245.455 155.905C245.455 154.823 245.455 153.74 245.672 152.549H242.748C240.366 153.848 238.093 155.472 236.252 157.529C235.169 159.911 233.87 163.268 235.927 171.171C239.609 185.03 237.984 193.367 226.832 198.131C212.649 204.194 203.554 207.767 191.536 223.033C185.581 230.396 182.441 242.414 181.9 254.649C181.575 266.45 183.524 278.252 187.963 289.187C190.345 295.683 193.702 301.53 197.708 307.052C201.605 306.835 205.503 306.294 209.184 305.536C204.962 300.556 202.58 294.276 202.147 287.78C200.631 265.259 212.866 255.84 231.488 240.898L239.825 233.86C273.064 205.602 263.32 177.018 267.001 152.549C264.186 152.549 261.479 152.549 258.881 152.549Z" fill="#98002E"/>
<path d="M272.198 152.982C271.224 157.963 270.682 163.16 270.358 168.357C269.058 189.578 269.6 213.831 242.64 237.759L234.52 244.255C216.439 258.872 206.045 267.75 206.802 287.455C207.019 293.735 209.726 299.798 214.381 304.129C219.578 302.613 224.559 300.448 229.323 297.849C251.843 285.615 267.867 264.069 273.281 239.166C276.096 226.065 277.179 212.532 276.746 199.322C276.746 194.017 277.504 183.407 277.504 183.407C278.261 173.446 281.618 163.81 286.923 155.473C287.14 155.148 287.464 154.715 287.681 154.39C282.484 153.632 277.504 153.307 272.198 152.982Z" fill="#98002E"/>
<path d="M280.102 221.409C279.344 225.307 279.127 229.529 278.803 233.752C278.586 235.376 278.478 236.892 278.045 238.516L277.828 239.815C272.306 266.233 255.524 288.97 231.705 301.638C227.59 304.02 223.259 305.86 218.82 307.593C225.1 311.815 232.679 313.656 240.258 312.898C262.454 309.542 273.172 295.142 278.478 279.659C282.375 266.775 283.783 253.241 282.917 239.815C281.942 226.714 288.655 214.155 300.24 207.659C286.165 207.225 281.618 213.289 280.102 221.409Z" fill="#98002E"/>
<path d="M265.376 307.919C258.772 313.224 250.651 316.797 241.881 317.88C231.704 319.396 221.526 316.364 213.622 309.976L213.298 309.651C209.4 310.734 205.502 311.275 201.496 311.708C210.591 321.344 222.176 326.866 238.092 327.732H238.308C249.027 323.51 258.23 316.689 265.484 307.811L265.376 307.919Z" fill="#98002E"/>
<path d="M182.766 323.942C182.766 318.962 181.683 313.765 179.301 309.326C173.779 307.702 168.366 305.428 163.385 302.505C160.462 300.448 157.864 298.282 155.59 295.684C161.545 307.485 170.964 317.446 182.766 323.942Z" fill="#98002E"/>
<path d="M228.023 330.763C219.686 329.139 211.782 325.566 204.961 320.586C201.605 317.987 198.465 315.064 195.758 311.708C192.293 311.708 188.504 311.383 185.039 310.625C187.096 315.605 187.854 321.019 187.421 326.108C195.866 330.006 205.177 332.063 214.597 332.063C219.144 332.279 223.584 331.738 228.023 330.763Z" fill="#98002E"/>
<path d="M303.921 170.306C303.596 172.688 301.539 174.42 299.157 173.987C297.857 173.771 296.775 173.013 296.017 171.93C293.851 168.79 294.176 164.568 296.991 161.969C300.131 159.804 303.487 157.855 307.169 156.772C302.73 156.014 297.966 155.256 293.093 154.715L292.877 154.931L291.578 156.447C286.056 164.568 282.699 173.987 281.942 183.732L281.725 185.789C281.4 190.228 281.184 194.667 281.4 198.889V201.055C281.4 202.896 281.4 204.52 281.184 206.36C281.184 205.602 281.184 205.386 281.184 205.819C282.808 199.539 287.247 194.559 293.202 191.96C299.265 189.362 305.545 187.196 305.978 177.885C305.978 174.745 306.303 171.389 307.277 168.465C308.035 166.408 309.659 164.784 311.716 164.026C307.818 164.243 304.462 166.841 303.921 170.306Z" fill="#98002E"/>
<path d="M311.499 134.252C311.824 128.189 317.562 126.998 323.301 121.693C330.555 114.872 321.244 103.611 321.244 103.611C322.326 111.19 318.862 114.114 312.366 118.553C310.308 119.852 308.901 122.017 308.684 124.508C308.468 127.431 308.143 130.571 307.602 133.602L311.499 134.252Z" fill="#FAA21B"/>
<path d="M291.794 123.749C290.17 125.049 288.438 126.348 287.03 127.647C285.515 128.946 284.973 129.704 283.891 130.787C289.954 131.328 296.234 132.086 302.188 132.844C305.87 126.023 307.71 118.228 305.545 104.91C305.437 104.91 304.895 114.005 291.794 123.749Z" fill="#FAA21B"/>
<path d="M256.607 129.271C263.861 129.271 270.791 129.596 277.612 130.029L278.37 129.271C283.025 124.29 290.171 120.068 293.852 114.546C297.534 109.024 296.018 102.203 294.827 94.0828C292.445 79.8993 298.292 77.3008 298.292 77.3008C298.292 77.3008 286.273 78.9248 286.49 85.7459C286.815 94.949 296.234 103.827 281.834 106.426C265.918 109.349 256.174 117.902 253.9 129.163H256.499V129.271H256.607Z" fill="#FAA21B"/>
<path d="M256.606 132.951C190.344 132.302 135.126 149.409 133.285 171.279C132.527 179.941 140.323 188.062 154.181 194.774C164.575 199.43 175.186 202.895 186.338 205.277C188.936 204.194 191.535 203.111 194.242 202.137C197.923 201.054 201.496 199.755 204.96 198.239C186.446 195.424 171.396 191.418 162.085 186.437C155.264 182.756 151.583 178.642 151.908 174.095C153.207 159.478 199.547 148.001 255.523 148.651C311.499 149.192 355.782 161.752 354.375 176.368C354.05 180.266 350.26 184.164 343.981 187.412C332.396 193.475 311.716 198.347 286.597 200.513C285.622 201.812 284.973 203.111 284.432 204.41C295.908 200.188 309.009 206.468 309.009 206.468C309.55 206.684 310.092 206.792 310.525 207.226C324.925 205.06 339 200.729 352.101 194.883C364.66 188.603 372.239 181.349 372.997 173.445C375.271 151.791 322.976 133.709 256.606 132.951Z" fill="white"/>
</svg>
