<svg width="500" height="500" viewBox="0 0 500 500" fill="none" xmlns="http://www.w3.org/2000/svg">
<mask id="mask0_4357_27" style="mask-type:luminance" maskUnits="userSpaceOnUse" x="0" y="208" width="500" height="85">
<path d="M500 208H0V292.014H500V208Z" fill="white"/>
</mask>
<g mask="url(#mask0_4357_27)">
<path d="M123.328 208.01C123.328 208.01 123.367 208.087 123.396 208.097C126.388 209.166 126.888 210.196 125.79 213.19C124.593 216.417 123.337 219.614 122.17 222.841C121.748 224.017 121.081 224.512 119.786 224.503C110.938 224.464 102.07 224.182 93.2312 224.561C79.5468 225.144 69.8056 231.908 64.1652 244.242C62.8212 247.177 61.9876 250.345 60.928 253.406C58.8484 259.393 55.8172 264.768 50.8436 268.908C46.0468 272.893 40.416 274.972 34.2456 275.089C23.2392 275.303 12.2131 275.167 1.20659 275.148C0.804396 275.148 0.402196 274.836 0 274.671C0.196194 274.282 0.294291 273.768 0.6082 273.515C2.06984 272.329 3.59035 271.211 5.10104 270.084C28.1832 252.92 51.2852 235.747 74.3772 218.564C77.2808 216.407 80.1748 214.24 83.0784 212.082C85.668 210.158 88.4736 208.68 91.7304 208.175C91.8284 208.156 91.9168 208.068 92.0148 208C102.452 208 112.89 208 123.328 208V208.01Z" fill="#DB0332"/>
<path d="M45.8496 288.919C46.4284 288.715 46.9876 288.452 47.586 288.306C51.9712 287.208 56.0812 285.508 59.7012 282.796C68.412 276.294 74.4648 267.916 77.6628 257.576C78.8496 253.736 80.174 249.966 82.2828 246.496C85.0688 241.909 89.1204 239.217 94.5452 239.012C100.912 238.779 107.288 238.799 113.664 238.76C115.028 238.76 115.558 239.741 115.008 241.209C113.831 244.358 112.624 247.487 111.418 250.626C106.964 262.212 102.51 273.786 98.0472 285.372C96.9092 288.316 95.2316 289.482 92.0928 289.482C77.4076 289.482 62.7128 289.482 48.0276 289.482C47.3212 289.482 46.6248 289.385 45.9184 289.337C45.8988 289.201 45.8696 289.055 45.8496 288.919Z" fill="#295083"/>
<path d="M164.637 270.803H156.72C156.701 270.346 156.662 269.909 156.662 269.472C156.662 263.67 156.662 257.858 156.652 252.056C156.652 251.259 156.622 250.442 156.446 249.665C155.916 247.42 154.808 245.622 152.286 245.126C149.579 244.582 147.313 245.32 145.606 247.497C144.331 249.13 143.801 251.054 143.782 253.066C143.723 258.528 143.742 263.99 143.732 269.452C143.732 269.87 143.732 270.278 143.732 270.774H135.865V239.334H143.32V243.921C145.802 240.199 149.157 238.323 153.562 238.342C157.947 238.362 161.243 240.276 163.283 244.067C164.284 242.978 165.127 241.802 166.216 240.927C169.954 237.963 174.211 237.613 178.567 239.168C182.755 240.665 184.756 244.018 185.453 248.207C185.64 249.334 185.688 250.481 185.698 251.628C185.718 257.896 185.698 264.156 185.698 270.424C185.698 270.502 185.669 270.57 185.64 270.745H177.664C177.664 270.366 177.664 269.967 177.664 269.559C177.664 264.058 177.674 258.558 177.654 253.056C177.654 252.065 177.576 251.074 177.409 250.092C176.938 247.303 175.349 245.524 173.034 245.068C170.307 244.533 167.756 245.602 166.236 247.935C165.039 249.762 164.656 251.812 164.647 253.941C164.627 259.102 164.647 264.253 164.647 269.414C164.647 269.831 164.647 270.249 164.647 270.794L164.637 270.803Z" fill="#121212"/>
<path d="M228.223 271.823C219.924 271.823 213.009 266.604 211.39 258.703C209.251 248.245 215.814 239.44 226.34 238.478C232.549 237.914 238.053 239.489 242.094 244.406C246.185 249.383 246.832 255.107 244.694 261.035C242.565 266.925 238.043 270.22 231.941 271.503C231.451 271.609 230.95 271.678 230.45 271.717C229.753 271.775 229.057 271.785 228.223 271.823ZM228.459 244.854C225.231 244.854 222.808 246.049 221.101 248.469C218.443 252.24 218.512 258.032 221.258 261.725C224.427 265.982 230.813 266.478 234.609 262.756C237.709 259.723 238.563 254.32 236.571 250.063C234.982 246.661 232.294 244.854 228.449 244.854H228.459Z" fill="#121212"/>
<path d="M278.084 255.117C278.084 245.573 285.225 238.789 295.261 238.799C305.11 238.799 312.349 245.738 312.29 255.214C312.231 265.681 303.795 271.891 294.819 271.746C285.245 271.59 278.074 264.603 278.074 255.117H278.084ZM304.354 254.602C304.374 253.047 303.864 251.045 302.736 249.198C299.371 243.697 291.219 243.59 287.707 249.004C285.294 252.716 285.383 258.023 287.913 261.658C291.288 266.507 298.635 266.663 302.196 261.939C303.707 259.947 304.335 257.663 304.345 254.602H304.354Z" fill="#295083"/>
<path d="M419.504 271.824C411.084 271.707 404.276 266.527 402.756 258.703C400.756 248.382 407.268 240.043 417.156 238.974C422.424 238.401 427.244 239.47 431.284 242.969C435.492 246.604 437.1 251.375 436.58 256.75C435.836 264.389 430.92 269.715 423.396 271.338C422.12 271.61 420.808 271.669 419.512 271.824H419.504ZM428.732 254.651C428.656 254.126 428.604 253.125 428.34 252.173C427.32 248.45 425.112 245.797 421.092 245.185C417.364 244.621 414.116 245.7 412.088 249.014C409.616 253.037 409.616 257.265 412.068 261.279C415.392 266.721 423.28 266.79 426.86 261.512C428.164 259.578 428.692 257.421 428.732 254.651Z" fill="#295083"/>
<path d="M462.048 270.696C462.048 264.865 462.068 259.131 462.036 253.406C462.036 252.23 461.968 251.025 461.704 249.888C461.184 247.682 460.016 245.884 457.624 245.379C454.668 244.757 452.188 245.651 450.384 248.08C449.236 249.626 448.704 251.424 448.704 253.338C448.704 258.684 448.704 264.039 448.704 269.384C448.704 269.802 448.704 270.21 448.704 270.716H440.996V239.8H448.272V244.727C449.02 243.756 449.52 242.988 450.128 242.327C453.504 238.741 457.692 238.021 462.232 239.401C466.636 240.733 468.856 244.057 469.58 248.411C469.768 249.528 469.816 250.685 469.824 251.832C469.844 257.644 469.836 263.446 469.836 269.258V270.716H462.056L462.048 270.696Z" fill="#295083"/>
<path d="M337.415 239.713V241.239C337.415 246.438 337.395 251.628 337.424 256.828C337.424 257.926 337.483 259.053 337.699 260.132C338.18 262.543 339.249 264.574 341.927 265.167C344.86 265.818 347.273 264.875 349.078 262.543C350.393 260.842 350.854 258.83 350.863 256.731C350.883 251.57 350.863 246.419 350.863 241.258V239.713C352.747 239.713 354.542 239.713 356.337 239.713C357.841 239.713 358.594 240.464 358.594 241.968C358.594 251.094 358.574 260.229 358.613 269.355C358.613 270.512 358.309 270.891 357.112 270.813C355.494 270.706 353.865 270.755 352.247 270.803C351.491 270.823 351.197 270.57 351.227 269.822C351.266 268.617 351.236 267.402 351.236 265.973C350.285 267.081 349.579 268.053 348.715 268.869C345.36 272.018 341.329 272.397 337.159 271.124C333.108 269.89 330.901 266.838 330.057 262.815C329.812 261.629 329.694 260.395 329.685 259.18C329.645 253.183 329.665 247.187 329.665 241.19C329.665 239.723 329.665 239.723 331.205 239.723C333.206 239.723 335.207 239.723 337.395 239.723L337.415 239.713Z" fill="#295083"/>
<path d="M248.559 266.673C250.315 265.049 251.953 263.533 253.659 261.949C255.2 263.621 256.946 264.894 259.143 265.467C261.105 265.973 263.037 266.012 264.901 265.127C266.196 264.515 266.932 263.485 266.932 262.047C266.932 260.589 266.167 259.549 264.784 259.092C262.783 258.421 260.732 257.877 258.711 257.265C257.681 256.954 256.642 256.653 255.641 256.273C248.46 253.543 249.304 244.912 253.571 241.666C256.789 239.217 260.487 238.585 264.391 238.867C266.873 239.042 269.296 239.586 271.445 240.869C272.583 241.549 273.573 242.453 274.77 243.357C272.935 244.97 271.297 246.409 269.689 247.808C268.737 247.089 267.913 246.331 266.971 245.767C264.617 244.339 262.096 244.164 259.535 245.165C258.093 245.728 257.544 246.613 257.554 248.061C257.554 249.451 258.339 250.296 259.565 250.685C261.655 251.356 263.783 251.881 265.882 252.522C267.059 252.881 268.256 253.231 269.355 253.766C272.533 255.301 274.544 257.634 274.554 261.347C274.554 265.234 273.024 268.237 269.492 270.074C266.451 271.658 263.136 271.911 259.791 271.668C256.181 271.396 252.845 270.259 249.981 267.985C249.5 267.605 249.078 267.168 248.539 266.673H248.559Z" fill="#295083"/>
<path d="M473.828 266.643C475.516 265.079 477.172 263.543 478.704 262.124C480.124 263.096 481.36 264.145 482.784 264.855C484.904 265.924 487.2 266.196 489.512 265.38C491.232 264.777 492.124 263.669 492.172 262.143C492.22 260.676 491.448 259.558 489.68 258.946C487.796 258.295 485.844 257.828 483.924 257.265C483 256.993 482.068 256.74 481.176 256.39C478.056 255.165 475.888 253.144 475.612 249.616C475.34 245.962 476.596 243.017 479.764 240.995C482.704 239.129 486 238.614 489.416 238.847C491.976 239.022 494.476 239.557 496.704 240.879C497.832 241.549 498.824 242.463 500 243.357C498.148 244.98 496.508 246.418 495.008 247.73C493.724 246.875 492.624 245.962 491.368 245.33C489.152 244.232 486.824 244.261 484.552 245.262C483.324 245.806 482.764 246.729 482.804 248.08C482.844 249.363 483.5 250.209 484.628 250.597C486.484 251.229 488.384 251.705 490.268 252.279C491.592 252.677 492.956 253.017 494.212 253.571C497.4 254.991 499.628 257.167 499.776 260.899C499.94 265.02 498.412 268.237 494.604 270.103C490.868 271.94 486.876 272.067 482.844 271.328C479.636 270.745 476.74 269.452 474.348 267.187C474.18 267.032 474.052 266.857 473.836 266.624L473.828 266.643Z" fill="#295083"/>
<path d="M384.854 245.836C382.656 245.836 380.537 245.894 378.418 245.816C377.33 245.778 377.045 246.157 377.055 247.197C377.104 251.512 377.055 255.827 377.084 260.142C377.114 264.7 378.889 265.886 383.431 265.04C383.765 264.982 384.088 264.865 384.638 264.72V270.755C381.018 271.688 377.241 272.096 373.622 270.114C371.208 268.792 370.051 266.547 369.747 263.932C369.521 262.008 369.502 260.054 369.482 258.111C369.442 254.408 369.442 250.705 369.482 246.992C369.492 246.079 369.207 245.778 368.295 245.816C366.882 245.875 365.46 245.836 363.969 245.836V239.732H369.433V230.82H377.065C377.065 232.006 377.065 233.182 377.065 234.348C377.065 235.796 377.104 237.254 377.055 238.702C377.026 239.519 377.33 239.752 378.134 239.732C380.331 239.684 382.538 239.713 384.844 239.713V245.836H384.854Z" fill="#295083"/>
<path d="M323.611 270.725H315.979C315.959 270.336 315.92 269.967 315.92 269.598C315.92 256.04 315.92 242.492 315.891 228.934C315.891 227.943 316.136 227.583 317.176 227.622C319.03 227.69 320.884 227.651 322.738 227.641C323.395 227.641 323.709 227.816 323.709 228.545C323.689 242.482 323.689 256.419 323.679 270.356C323.679 270.434 323.65 270.502 323.611 270.725Z" fill="#295083"/>
<path d="M210.251 238.498V245.544C209.064 245.544 207.907 245.457 206.778 245.564C202.806 245.923 200.039 248.518 199.421 252.444C199.284 253.348 199.215 254.262 199.206 255.176C199.186 259.948 199.206 264.72 199.206 269.501C199.206 269.909 199.206 270.327 199.206 270.794H191.299V239.344H198.94V244.572C201.55 239.995 205.082 237.798 210.261 238.508L210.251 238.498Z" fill="#121212"/>
<path d="M390.396 270.794V239.723C392.78 239.723 395.095 239.703 397.4 239.752C397.616 239.752 397.891 240.111 398.009 240.364C398.117 240.588 398.048 240.889 398.048 241.151C398.048 250.549 398.028 259.938 398.068 269.336C398.068 270.444 397.832 270.891 396.596 270.823C394.566 270.706 392.525 270.794 390.396 270.794Z" fill="#295083"/>
<path d="M394.251 236.009C391.455 236.097 389.277 234.231 389.189 231.645C389.091 228.963 391.034 226.922 393.77 226.815C396.812 226.708 399.048 228.496 399.117 231.111C399.195 234.007 397.312 235.902 394.251 235.999V236.009Z" fill="#295083"/>
<path d="M308.791 286.986C307.692 285.392 306.681 283.934 305.681 282.466C305.593 282.486 305.514 282.515 305.426 282.535V289.484H303.66V279.22C304.837 278.929 305.74 279.016 306.387 280.29C307.025 281.543 307.908 282.671 308.801 284.031C309.654 282.739 310.537 281.602 311.184 280.348C311.793 279.172 312.626 278.9 313.892 279.211V289.484H312.214V282.506C312.126 282.466 312.028 282.418 311.939 282.379C310.909 283.886 309.889 285.382 308.791 286.996V286.986Z" fill="#DB0332"/>
<path d="M392.85 289.531H391.074V279.181C392.104 278.879 392.83 279.113 393.507 280.036C394.969 282.038 396.548 283.953 398.304 285.828V279.161H400.157V289.434C399.177 289.764 398.539 289.521 397.941 288.715C396.362 286.596 394.704 284.555 392.859 282.213V289.531H392.85Z" fill="#121212"/>
<path d="M357.132 289.715C353.954 289.715 351.59 287.422 351.59 284.331C351.59 281.241 354.071 278.84 357.22 278.869C360.369 278.908 362.704 281.241 362.685 284.341C362.665 287.422 360.301 289.706 357.122 289.706L357.132 289.715ZM360.683 284.37C360.693 282.213 359.241 280.667 357.191 280.638C355.121 280.609 353.62 282.135 353.611 284.283C353.611 286.401 355.111 288.025 357.122 288.054C359.153 288.083 360.683 286.508 360.693 284.38L360.683 284.37Z" fill="#121212"/>
<path d="M332.795 289.677C329.577 289.677 327.262 287.461 327.262 284.351C327.262 281.28 329.626 278.928 332.755 278.899C335.855 278.87 338.308 281.241 338.327 284.283C338.347 287.345 335.963 289.668 332.804 289.677H332.795ZM332.755 280.609C330.725 280.609 329.155 282.223 329.145 284.303C329.145 286.392 330.813 288.093 332.844 288.064C334.865 288.035 336.375 286.412 336.355 284.293C336.336 282.174 334.805 280.609 332.755 280.609Z" fill="#DB0332"/>
<path d="M374.406 279.133C376.093 279.133 377.722 278.997 379.311 279.162C382.038 279.453 383.853 281.543 383.902 284.196C383.951 286.898 382.273 289.026 379.537 289.386C377.879 289.6 376.172 289.425 374.406 289.425V279.133ZM376.241 287.812C378.301 287.889 380.302 288.171 381.499 286.111C382.244 284.828 382.087 283.108 381.155 282.029C379.801 280.464 378.036 280.717 376.241 280.872V287.812Z" fill="#121212"/>
<path d="M322.925 285.663C323.847 286.956 324.691 288.132 325.594 289.395C324.397 289.706 323.426 289.735 322.798 288.53C322.553 288.064 322.19 287.646 321.886 287.208C320.797 285.673 320.767 285.663 318.619 286.023V289.463H316.873V279.161C318.756 279.161 320.601 279.054 322.435 279.19C324.073 279.317 325.113 280.376 325.329 281.717C325.594 283.428 325.025 284.526 323.435 285.372C323.298 285.44 323.171 285.517 322.925 285.644V285.663ZM318.668 280.842V284.37C319.894 284.302 321.042 284.312 322.17 284.137C323.063 284.001 323.563 283.33 323.514 282.407C323.465 281.532 322.955 280.94 322.092 280.872C320.993 280.784 319.875 280.852 318.668 280.852V280.842Z" fill="#DB0332"/>
<path d="M412.644 280.416C412.312 280.814 411.968 281.212 411.752 281.465C410.596 281.164 409.584 280.746 408.552 280.668C407.004 280.552 405.856 281.543 405.328 283.117C404.808 284.672 405.328 286.441 406.552 287.355C407.692 288.2 409.82 288.385 410.792 287.481C411.232 287.073 411.192 286.169 411.428 285.314H408.652V283.749H413.056C413.056 285.12 413.076 286.451 413.036 287.773C413.036 288.026 412.8 288.336 412.584 288.492C410.684 289.824 408.584 290.125 406.424 289.328C404.384 288.579 403.424 286.937 403.18 284.828C402.924 282.641 404.228 280.328 406.28 279.395C408.416 278.423 411.144 278.841 412.656 280.416H412.644Z" fill="#121212"/>
<path d="M347.419 279.143H349.243V289.483H347.458V285.197H342.485V289.493H340.689V279.162H342.445V283.341H347.419V279.143Z" fill="#121212"/>
<path d="M422.721 280.23C422.337 280.764 422.053 281.163 421.817 281.474C420.837 281.163 419.953 280.774 419.033 280.619C418.265 280.492 417.413 280.638 417.177 281.571C416.921 282.582 417.697 282.903 418.453 283.156C419.257 283.418 420.101 283.583 420.885 283.875C422.545 284.487 423.161 285.439 422.993 286.994C422.849 288.365 421.757 289.414 420.201 289.628C418.229 289.9 416.453 289.434 414.805 288.044C415.165 287.597 415.521 287.169 415.677 286.985C417.009 287.373 418.149 287.801 419.325 288.015C420.129 288.161 420.925 287.811 421.093 286.907C421.257 285.993 420.533 285.663 419.797 285.439C418.873 285.158 417.941 284.905 417.041 284.594C415.853 284.186 415.245 283.311 415.197 282.077C415.149 280.833 415.825 279.764 417.041 279.287C419.053 278.5 420.877 278.957 422.721 280.22V280.23Z" fill="#121212"/>
<path d="M450.784 281.689C451.148 281.952 451.512 282.224 451.844 282.467C452.552 282.224 453.432 281.66 454.288 281.699C455.152 281.738 455.984 282.37 456.876 282.758C457.28 282.506 457.82 282.039 458.448 281.816C460.252 281.155 462.028 282.117 462.252 283.992C462.448 285.654 462.38 287.346 462.34 289.027C462.34 289.26 461.82 289.474 461.536 289.698L461.192 289.484C461.192 288.045 461.224 286.607 461.192 285.168C461.152 283.701 460.576 282.914 459.536 282.758C458.2 282.564 457.112 283.438 457.064 284.838C457.012 286.131 457.024 287.433 457.064 288.735C457.084 289.484 456.78 289.707 455.876 289.464C455.876 288.862 455.876 288.191 455.876 287.52C455.876 286.646 455.904 285.761 455.848 284.887C455.74 283.458 455.08 282.768 453.932 282.748C452.748 282.719 451.872 283.468 451.748 284.799C451.628 285.898 451.668 287.005 451.648 288.113C451.648 288.56 451.648 289.008 451.648 289.454C451.532 289.532 451.424 289.62 451.304 289.698C451.032 289.445 450.512 289.202 450.512 288.949C450.452 286.626 450.472 284.304 450.472 281.971C450.58 281.874 450.696 281.786 450.804 281.689H450.784Z" fill="#121212"/>
<path d="M287.737 289.434C286.805 289.794 286.295 289.512 286.089 288.676C285.707 287.131 284.745 286.519 283.166 286.81C282.833 286.869 282.469 286.869 282.126 286.81C280.272 286.509 278.928 286.956 278.447 288.988C278.369 289.298 277.731 289.483 277.359 289.716L277.074 289.406C277.398 288.686 277.702 287.967 278.035 287.248C279.193 284.711 280.341 282.175 281.538 279.658C281.675 279.376 282.038 279.094 282.342 279.036C282.587 278.996 283.039 279.23 283.146 279.453C284.706 282.758 286.217 286.082 287.737 289.415V289.434ZM284.755 285.722C283.931 283.895 283.195 282.272 282.362 280.435C281.508 282.33 280.782 283.944 280.017 285.654C280.439 285.683 280.674 285.722 280.9 285.722C282.097 285.722 283.293 285.722 284.755 285.722Z" fill="#121212"/>
<path d="M464.92 281.882H466.04C466.088 282.242 466.128 282.562 466.176 282.912C468.52 281.28 470.328 281.26 471.768 282.815C473.152 284.312 473.18 286.965 471.828 288.491C470.464 290.036 468.552 290.066 466.128 288.501V291.864C465.696 291.883 465.4 291.902 464.932 291.932V281.882H464.92ZM471.552 285.682C471.552 283.962 470.432 282.728 468.876 282.708C467.304 282.689 466.008 284.05 466.02 285.702C466.02 287.325 467.384 288.734 468.904 288.695C470.472 288.656 471.564 287.422 471.552 285.682Z" fill="#121212"/>
<path d="M365.018 289.493V279.133H366.784V287.831H372.316V289.493H365.018Z" fill="#121212"/>
<path d="M438.975 280.717C438.639 280.95 438.367 281.145 438.091 281.329C435.423 279.58 433.343 279.58 431.763 281.339C430.271 283.011 430.291 285.683 431.811 287.306C433.459 289.075 435.511 289.036 438.259 287.17C438.483 287.403 438.707 287.647 438.935 287.889C436.707 290.183 433.127 290.348 431.019 288.288C428.907 286.227 428.887 282.505 430.987 280.416C433.087 278.326 436.627 278.365 438.983 280.717H438.975Z" fill="#121212"/>
<path d="M481.177 289.832C480.597 289.463 480.225 289.22 480.017 289.084C478.889 289.278 477.753 289.628 476.625 289.608C475.261 289.589 474.369 288.549 474.337 287.334C474.309 286.11 475.113 285.07 476.477 284.895C477.605 284.749 478.761 284.866 479.929 284.866C480.273 282.98 478.637 282.319 475.485 283.204C475.073 282.747 474.877 282.271 475.713 282.106C476.673 281.911 477.693 281.707 478.653 281.804C480.381 281.979 481.185 282.922 481.233 284.613C481.285 286.022 481.253 287.432 481.253 288.85C481.253 289.035 481.225 289.23 481.185 289.842L481.177 289.832ZM477.849 285.672C477.665 285.702 477.205 285.721 476.761 285.838C476.017 286.032 475.417 286.537 475.613 287.295C475.753 287.82 476.329 288.549 476.781 288.608C477.585 288.705 478.577 288.559 479.253 288.141C479.733 287.849 479.813 286.936 480.077 286.294C479.577 286.1 479.085 285.896 478.585 285.721C478.449 285.672 478.281 285.692 477.849 285.663V285.672Z" fill="#121212"/>
<path d="M448.379 285.722C448.359 288.045 446.595 289.736 444.231 289.707C441.927 289.688 440.211 287.977 440.199 285.713C440.199 283.448 442.023 281.631 444.311 281.621C446.615 281.621 448.399 283.419 448.379 285.713V285.722ZM447.163 285.751C447.183 284.021 445.919 282.7 444.271 282.7C442.671 282.7 441.435 284.002 441.435 285.683C441.435 287.307 442.731 288.677 444.291 288.696C445.887 288.716 447.143 287.423 447.163 285.751Z" fill="#121212"/>
<path d="M492.092 281.98C493.024 281.592 493.436 281.951 493.752 282.719C494.476 284.478 495.272 286.208 496.156 288.2C496.94 286.208 497.656 284.468 498.292 282.709C498.56 281.97 498.92 281.601 499.904 282C498.628 284.964 497.432 287.957 496.048 290.873C495.448 292.127 494.104 292.302 492.456 291.621C492.476 290.97 492.684 290.786 493.436 290.873C493.976 290.931 494.656 290.61 495.124 290.27C495.732 289.823 495.428 289.201 495.156 288.618C494.116 286.412 493.104 284.196 492.084 281.98H492.092Z" fill="#121212"/>
<path d="M295.351 289.532C295.351 287.968 295.4 286.48 295.342 285.003C295.263 283.283 294.125 282.408 292.585 282.787C291.516 283.05 290.858 283.973 290.829 285.314C290.8 286.684 290.829 288.045 290.829 289.493H289.73V281.884H290.77C290.809 282.175 290.849 282.438 290.888 282.729C291.006 282.7 291.143 282.71 291.202 282.642C292.271 281.543 293.546 281.339 294.91 281.922C296.273 282.506 296.558 283.73 296.548 285.062C296.548 286.286 296.558 287.501 296.548 288.726C296.538 289.493 296.519 289.493 295.361 289.522L295.351 289.532Z" fill="#121212"/>
<path d="M484.041 281.689C484.413 281.961 484.785 282.223 485.249 282.563C486.041 281.854 487.161 281.358 488.525 281.786C489.693 282.145 490.457 282.981 490.505 284.186C490.565 285.751 490.565 287.316 490.505 288.881C490.497 289.172 490.045 289.444 489.801 289.726C489.661 289.658 489.525 289.59 489.377 289.522C489.377 288.122 489.377 286.723 489.377 285.323C489.377 283.623 488.673 282.757 487.297 282.738C485.825 282.719 484.945 283.661 484.905 285.353C484.873 286.461 484.865 287.569 484.905 288.676C484.933 289.454 484.661 289.745 483.797 289.463V281.98C483.873 281.883 483.961 281.786 484.041 281.689Z" fill="#121212"/>
<path d="M388.102 289.503H386.385V279.152H388.102V289.503Z" fill="#121212"/>
</g>
</svg>
