<svg width="44" height="44" viewBox="0 0 44 44" fill="none" xmlns="http://www.w3.org/2000/svg">
<path d="M17.9115 13.6328C17.9115 20.5133 23.4901 26.0912 30.3717 26.0912H31.1504C32.0106 26.0912 32.708 26.7884 32.708 27.6484C32.708 28.5085 32.0106 29.2057 31.1504 29.2057H30.3717C23.4901 29.2057 17.9115 34.7835 17.9115 41.6641V42.4427C17.9115 43.3028 17.2142 44 16.354 44C15.4938 44 14.7965 43.3028 14.7965 42.4427V41.6641C14.7965 34.7835 9.21785 29.2057 2.33628 29.2057H1.55752C0.697327 29.2057 0 28.5085 0 27.6484C0 26.7884 0.697326 26.0912 1.55752 26.0912H2.33628C9.21785 26.0912 14.7965 20.5133 14.7965 13.6328V12.8541C14.7965 11.9941 15.4938 11.2969 16.354 11.2969C17.2142 11.2969 17.9115 11.9941 17.9115 12.8541V13.6328Z" fill="#6E6E6E" fill-opacity="0.6"/>
<path d="M34.6549 2.33594C34.6549 6.20624 37.7928 9.34375 41.6637 9.34375H42.4425C43.3027 9.34375 44 10.041 44 10.901C44 11.7611 43.3027 12.4583 42.4425 12.4583H41.6637C37.7928 12.4583 34.6549 15.5958 34.6549 19.4661V20.2448C34.6549 21.1049 33.9575 21.8021 33.0973 21.8021C32.2372 21.8021 31.5398 21.1049 31.5398 20.2448V19.4661C31.5398 15.5958 28.4019 12.4583 24.531 12.4583H23.7522C22.892 12.4583 22.1947 11.7611 22.1947 10.901C22.1947 10.041 22.892 9.34375 23.7522 9.34375H24.531C28.4019 9.34375 31.5398 6.20624 31.5398 2.33594V1.55729C31.5398 0.697223 32.2372 0 33.0973 0C33.9575 0 34.6549 0.697223 34.6549 1.55729V2.33594Z" fill="#6E6E6E" fill-opacity="0.6"/>
</svg>
