<svg width="500" height="500" viewBox="0 0 500 500" fill="none" xmlns="http://www.w3.org/2000/svg">
<mask id="mask0_4357_23" style="mask-type:luminance" maskUnits="userSpaceOnUse" x="0" y="189" width="500" height="122">
<path d="M500 189.189H0V310.811H500V189.189Z" fill="white"/>
</mask>
<g mask="url(#mask0_4357_23)">
<path d="M73.2856 235.05C71.9041 240.245 70.4734 245.892 68.8761 252.403C66.2113 263.285 61.1842 291.48 59.646 310.109C58.8424 310.481 56.4712 310.822 55.3442 310.822C51.6599 310.822 47.3581 308.501 47.1036 302.523C46.741 295.117 50.9644 267.746 57.3532 242.395C57.5685 241.612 57.755 240.828 57.9703 240.044C49.7689 242.928 42.1454 245.993 35.2863 248.977C32.7288 260.492 29.3384 278.106 28.0646 295.57C27.8098 295.831 25.3993 296.203 24.2039 296.203C19.8239 296.203 16.7667 293.208 16.8059 288.124C16.8451 278.176 18.991 265.124 20.8528 255.699C11.6224 260.301 4.6946 264.3 0.79473 266.691C0.0990196 265.345 -0.116552 263.175 0.0696232 262.13C0.285196 260.632 1.16708 257.347 4.66524 254.835C10.3877 250.795 16.6589 246.836 23.5572 243.058C27.0945 228.248 31.9057 213.216 35.9232 204.313C38.5101 198.556 41.8318 196.385 47.5149 196.385C49.0144 196.385 51.0523 196.757 52.15 197.099C47.0054 208.543 42.1944 222.158 38.4709 235.693C45.5063 232.548 53.1297 229.564 61.4491 226.76C65.496 212.321 69.1117 202.002 72.5018 195.461C74.6185 191.351 78.1167 189.703 81.2915 189.332C84.1036 189 86.5433 189.372 88.7284 189.965C83.4766 202.826 80.0176 212.362 77.0189 222.128C82.7122 220.591 88.6892 219.104 94.9996 217.757C98.4293 217.014 110.786 214.763 113.049 227.072C99.1545 228.489 85.7302 231.443 73.2955 235.07L73.2856 235.05Z" fill="#216245"/>
<path d="M260.491 222.439C256.915 222.439 253.328 225.795 253.328 229.664C253.328 232.467 255.268 234.457 257.943 234.457C261.52 234.457 265.165 231.031 265.165 227.232C265.224 224.369 263.166 222.439 260.491 222.439Z" fill="#216245"/>
<path d="M235.789 225.735C233.79 235.883 227.352 267.806 227.352 267.806C226.931 269.545 224.618 278.759 234.025 278.759H235.417L247.734 217.516C247.734 217.516 237.778 215.707 235.779 225.735H235.789Z" fill="#216245"/>
<path d="M250.418 247.026C248.35 256.924 246.234 267.816 246.234 267.816C245.813 269.554 243.5 278.768 252.975 278.768H254.367L262.382 238.938C261.961 238.998 252.485 237.26 250.427 247.026H250.418Z" fill="#216245"/>
<path d="M208.303 238.376C202.777 238.376 197.926 240.245 194.223 243.36C188.392 248.152 185.061 256.181 185.061 264.581C185.061 273.976 191.312 278.829 200.053 278.829C205.511 278.829 210.429 276.96 214.075 273.846C219.905 268.992 223.237 260.964 223.237 252.493C223.237 243.028 216.926 238.305 208.303 238.366V238.376ZM207.813 267.997C206.05 270.238 203.933 271.796 201.317 271.796C197.133 271.796 195.487 268.811 195.487 264.571C195.487 260.029 197.123 253.368 200.347 249.197C202.042 246.957 204.354 245.399 206.961 245.399C211.086 245.399 212.664 248.384 212.664 252.554C212.664 257.035 211.027 263.757 207.803 267.987L207.813 267.997Z" fill="#216245"/>
<path d="M409.138 223.062C407.56 230.528 400.093 267.816 400.093 267.816C399.672 269.996 397.546 278.768 406.766 278.768H408.158L420.906 215.225C418.476 214.853 410.833 214.853 409.128 223.062H409.138Z" fill="#216245"/>
<path d="M445.795 238.305C440.818 238.305 436.565 240.606 433.9 243.72C433.9 243.72 433.537 235.943 423.582 239.048C425.404 244.464 424.375 246.393 422.367 257.285L420.241 267.866C419.878 269.675 417.506 278.818 426.913 278.818H428.304L432.009 260.461C433.037 255.547 434.987 246.212 442.209 246.212C445.786 246.212 447.667 248.513 446.521 254.18L443.786 267.876C443.365 269.614 441.053 278.828 450.461 278.828H451.853L456.889 253.748C459.132 242.977 453.673 238.315 445.776 238.315L445.795 238.305Z" fill="#216245"/>
<path d="M175.585 223.555C175.164 225.856 174.066 230.96 172.371 239.3L155.007 242.847L160.103 217.576C158.525 217.265 149.902 216.582 148.207 225.725C147.658 228.589 139.712 267.796 139.712 267.796C139.29 269.846 136.978 278.749 146.385 278.749H147.845L152.881 253.92L170.245 250.373C168.549 258.904 166.727 267.796 166.727 267.796C166.306 269.535 163.993 278.749 173.4 278.749H174.791L187.598 215.205C187.539 215.205 177.643 213.396 175.585 223.545V223.555Z" fill="#216245"/>
<path d="M488.339 238.305C483.362 238.305 479.118 240.606 476.447 243.72C476.447 243.72 476.082 235.943 466.127 239.048C467.952 244.464 466.92 246.393 464.911 257.285L462.785 267.866C462.425 269.675 460.051 278.818 469.528 278.818H470.92L474.623 260.461C475.65 255.547 477.6 246.212 484.821 246.212C488.398 246.212 490.28 248.513 489.136 254.18L486.402 267.876C485.979 269.614 483.668 278.828 493.073 278.828H494.465L499.501 253.748C501.686 242.977 496.231 238.315 488.33 238.315L488.339 238.305Z" fill="#216245"/>
<path d="M296.306 225.925C295.394 230.779 293.631 239.118 293.758 238.686C292.906 238.435 291.387 238.315 289.878 238.315C274.886 238.315 264.205 250.764 264.205 264.771C264.205 273.362 269.359 278.778 277.257 278.778C281.931 278.778 285.635 277.04 287.82 274.668C288.731 277.592 291.465 278.778 294.62 278.778H296.012L308.329 217.535C307.476 217.475 298.256 216.038 296.315 225.935L296.306 225.925ZM289.084 261.958C288.477 264.882 287.506 267.373 286.105 269.052C284.714 270.609 282.95 271.604 280.461 271.604C277.002 271.604 274.876 269.052 274.876 264.51C274.876 255.175 281.373 245.087 289.378 245.087C290.534 245.087 291.867 245.399 292.415 245.71L289.074 261.958H289.084Z" fill="#216245"/>
<path d="M331.63 238.245C317.304 238.245 305.957 250.071 305.957 264.822C305.957 273.473 310.69 278.758 318.578 278.758C323.252 278.758 327.015 277.02 329.141 274.649C330.053 277.633 332.786 278.758 335.941 278.758H337.333L344.741 241.972C340.733 239.732 336.549 238.305 331.63 238.234V238.245ZM330.474 261.838C329.866 264.761 328.955 267.253 327.563 268.931C326.172 270.489 324.291 271.483 321.802 271.483C318.284 271.483 316.52 269.052 316.52 264.51C316.52 256.291 322.282 245.027 331.395 245.027C332.365 245.027 333.09 245.338 333.766 245.65L330.493 261.827L330.474 261.838Z" fill="#216245"/>
<path d="M375.754 247.459C373.628 257.608 373.814 256.613 373.931 256.613C372.961 261.527 371.256 270.861 363.917 270.861C357.42 270.861 359.429 263.456 359.851 261.527L364.466 238.999C364.466 238.999 354.569 236.949 352.207 248.153C349.905 259.356 349.474 261.225 349.474 261.225C348.925 263.586 348.504 266.018 348.504 268.008C348.504 270.871 349.533 273.172 351.11 274.981C345.045 276.478 342.252 279.774 342.252 284.315C342.252 291.098 348.748 295.087 357.43 295.087C364.897 295.087 370.727 292.475 374.49 288.174C377.586 284.627 379.468 279.834 380.859 272.991L387.904 239.069C387.904 239.069 377.89 237.331 375.764 247.469L375.754 247.459ZM369.198 277.835C368.474 280.95 367.013 283.813 365.015 285.803C363.074 287.732 360.399 288.787 357.489 288.787C353.912 288.787 350.875 287.049 350.875 283.934C350.875 279.884 354.697 278.95 360.341 278.267C364.348 277.764 367.925 276.84 369.933 274.971L369.208 277.835H369.198Z" fill="#216245"/>
</g>
</svg>
