<svg width="500" height="500" viewBox="0 0 500 500" fill="none" xmlns="http://www.w3.org/2000/svg">
<path d="M10.7914 276.771C10.7914 278.929 11.1511 280.727 12.2302 282.166C13.3094 283.245 14.7482 283.965 16.9065 283.965C18.705 283.965 20.5036 283.605 22.3022 283.245L22.6619 291.519C20.1439 292.238 17.2662 292.958 14.0288 292.958C8.99281 292.958 5.39568 291.519 3.23741 288.641C1.07914 285.763 0 282.166 0 277.85V206.986H10.7914V276.771Z" fill="#2B3C44"/>
<path d="M34.5317 232.884H45.323V291.877H34.5317V232.884ZM32.0137 218.496C32.0137 216.337 32.7331 214.539 34.1719 212.74C35.6108 210.942 37.4094 210.582 39.9273 210.582C42.0856 210.582 44.2439 211.301 45.6827 212.74C47.1216 214.179 47.841 215.978 47.841 218.496C47.841 220.654 47.1216 222.453 45.6827 223.891C44.2439 225.33 42.4453 226.05 39.9273 226.05C37.7691 226.05 35.6108 225.33 34.1719 223.532C32.7331 222.453 32.0137 220.654 32.0137 218.496Z" fill="#2B3C44"/>
<path d="M66.5462 291.518V241.158H56.834V232.885H66.5462V231.806C66.5462 223.172 68.7045 216.338 72.6613 212.381C76.6182 208.424 82.3736 205.906 89.2081 205.906C91.0066 205.906 92.8052 205.906 94.6038 206.266C96.4023 206.626 97.8412 206.985 99.28 207.345L98.2009 215.618C96.0426 214.899 93.1649 214.539 90.6469 214.539C85.9707 214.539 82.7333 215.978 80.575 218.496C78.4167 221.374 77.3376 225.331 77.3376 230.726V232.525H94.2441V241.158H77.3376V291.518H66.5462Z" fill="#2B3C44"/>
<path d="M219.785 246.913C217.626 246.913 215.828 247.273 214.389 248.352C212.95 249.431 211.511 250.51 210.432 251.59C210.792 253.028 211.152 254.467 211.152 256.266C211.152 258.064 211.152 259.863 211.152 261.302V291.518H192.087V260.942C192.087 255.906 191.367 252.309 190.288 250.151C189.209 247.992 186.691 246.913 183.813 246.913C181.655 246.913 180.216 247.273 178.418 248.352C176.619 249.431 175.9 250.51 174.821 251.59V291.877H155.756V232.884H174.101V240.438C175.9 237.201 178.418 235.043 181.295 233.604C184.173 232.165 187.411 231.446 190.288 231.446C194.245 231.446 197.482 232.165 200 233.604C202.518 235.043 205.036 237.561 207.195 241.158C211.511 234.323 217.986 231.086 226.619 231.086C230.576 231.086 233.813 231.805 236.331 233.604C238.849 235.402 241.008 237.561 242.806 240.079C244.605 242.956 245.684 245.834 246.403 249.431C247.123 253.028 247.482 256.626 247.482 260.582V290.798H228.418V260.223C228.418 255.187 227.698 251.59 226.619 249.431C225.18 247.992 222.662 246.913 219.785 246.913Z" fill="#2B3C44"/>
<path d="M307.553 273.533C307.553 274.972 307.913 276.411 308.632 277.13C309.352 277.85 310.431 278.569 312.229 278.569C313.308 278.569 314.747 278.569 316.186 278.209L316.906 291.519C315.467 291.878 313.668 292.238 311.51 292.598C309.352 292.958 307.193 292.958 305.035 292.958C301.798 292.958 299.28 292.598 297.121 291.519C294.963 290.44 293.165 289.36 292.085 287.562C290.647 286.123 289.927 283.965 289.208 282.166C288.488 280.008 288.488 278.209 288.488 275.691V206.986H307.553V273.533Z" fill="#2B3C44"/>
<path d="M428.058 272.453C428.058 275.69 427.339 278.568 426.26 281.086C425.18 283.604 423.382 285.762 420.864 287.561C418.706 289.359 415.828 290.438 412.95 291.518C410.073 292.597 406.475 292.956 402.519 292.956C399.281 292.956 396.044 292.597 392.447 292.237C388.849 291.877 385.612 290.798 382.734 289.359L385.252 276.05C387.77 277.129 390.288 277.849 393.526 278.208C396.403 278.568 399.281 278.928 401.439 278.928C403.598 278.928 405.756 278.568 407.555 277.849C409.353 277.129 410.072 276.05 410.072 274.251C410.072 272.813 409.353 271.733 407.914 271.014C406.475 270.295 403.957 269.575 401.08 268.496C398.562 267.777 396.403 266.697 394.245 265.618C392.087 264.539 390.288 263.1 388.49 261.661C386.691 260.223 385.612 258.424 384.893 256.626C384.173 254.827 383.454 252.309 383.454 249.791C383.454 243.316 385.612 238.64 389.929 235.762C394.245 232.884 400.001 231.086 406.835 231.086C410.432 231.086 414.029 231.446 416.907 232.165C419.785 232.884 423.022 233.964 425.54 235.402L423.022 247.992C420.864 246.913 418.706 246.194 416.188 245.834C413.67 245.474 411.152 245.115 408.634 245.115C406.116 245.115 404.677 245.474 403.238 245.834C402.159 246.194 401.439 247.273 401.439 248.712C401.439 250.151 402.159 250.87 403.598 251.59C405.037 252.309 406.835 253.028 409.353 253.748C411.152 254.467 412.95 255.187 415.108 256.266C417.267 257.345 419.425 258.424 421.224 259.863C423.022 261.302 424.821 263.1 425.9 265.259C427.339 267.057 428.058 269.575 428.058 272.453Z" fill="#2B3C44"/>
<path d="M122.663 231.445C126.26 231.445 129.857 232.165 132.735 233.244C135.612 234.323 138.13 236.122 139.929 238.28C146.763 246.194 146.044 258.064 145.684 265.258H106.835C106.835 268.136 107.195 270.654 107.914 272.812C108.634 274.97 109.713 277.129 111.152 278.568C112.591 280.366 114.749 281.445 116.907 282.524C119.066 283.604 122.303 283.963 125.54 283.963C128.778 283.963 131.655 283.604 134.533 282.884C137.411 282.165 139.929 281.445 142.447 280.366L143.886 288.64C141.368 289.719 138.13 290.798 134.893 291.517C131.296 292.237 127.699 292.596 124.102 292.596C119.066 292.596 115.109 291.877 111.152 290.078C107.555 288.64 104.317 286.481 102.159 283.604C100.001 280.726 98.2023 277.848 96.7634 273.891C95.6843 270.294 94.9648 266.337 94.9648 262.021C94.9648 257.704 95.6843 253.747 96.7634 250.15C97.8425 246.194 99.6411 242.956 102.159 240.078C104.317 237.201 107.195 235.042 110.792 233.604C114.749 232.524 118.346 231.445 122.663 231.445ZM122.303 239.719C119.785 239.719 117.986 240.078 116.188 241.158C114.389 242.237 112.95 243.316 111.512 244.755C110.073 246.194 109.353 247.992 108.274 250.15C107.555 252.309 107.195 254.467 106.835 256.625H135.612C135.612 253.388 135.612 249.431 132.735 245.474C131.655 244.035 129.857 241.877 128.058 240.798C126.62 240.078 124.821 239.719 122.303 239.719Z" fill="#2B3C44"/>
<path d="M350.72 231.445C358.274 231.445 364.389 233.604 369.065 238.28C373.741 242.956 376.619 251.589 375.54 266.697H340.648C340.648 270.294 342.087 273.172 344.245 275.33C346.403 277.488 350 278.568 354.677 278.568C357.554 278.568 360.432 278.208 363.669 277.848C366.907 277.488 369.425 276.409 371.943 275.69L374.461 287.92C371.583 289.359 367.986 290.798 364.029 291.517C360.072 292.237 356.115 292.596 352.159 292.596C347.123 292.596 342.446 291.877 338.49 290.438C334.533 288.999 331.295 286.841 328.777 284.323C326.259 281.805 324.101 278.568 322.662 274.97C321.223 271.373 320.504 267.057 320.504 262.74C320.504 258.064 321.223 253.747 322.662 249.791C324.101 245.834 325.9 242.596 328.777 240.078C331.295 237.201 334.533 235.402 338.13 233.963C342.087 232.165 346.043 231.445 350.72 231.445ZM350 243.676C347.123 243.676 344.605 244.755 343.166 246.553C341.367 248.711 340.648 251.229 340.648 254.827H358.633C358.633 251.589 357.195 247.992 355.756 246.194C354.317 244.395 352.518 243.676 350 243.676Z" fill="#2B3C44"/>
<path d="M276.979 232.885H259.713V291.878H276.979V232.885Z" fill="#2B3C44"/>
<path d="M258.992 217.417C258.992 214.899 259.712 212.74 261.51 210.942C263.309 209.143 265.467 208.424 267.985 208.424C270.503 208.424 272.661 209.143 274.46 210.942C276.258 212.74 276.978 214.899 276.978 217.417C276.978 219.935 276.258 221.733 274.46 223.532C272.661 225.33 270.503 226.05 267.985 226.05C265.467 226.05 263.309 225.33 261.51 223.532C259.712 221.733 258.992 219.935 258.992 217.417Z" fill="#2B3C44"/>
<path d="M444.963 266.698C451.078 260.583 460.791 260.583 466.546 266.698C472.301 272.813 472.661 282.525 466.546 288.28C460.431 294.036 450.719 294.396 444.963 288.28C438.848 282.525 438.848 272.813 444.963 266.698Z" fill="#FF0000"/>
<path d="M444.963 211.301C451.078 205.186 460.791 205.186 466.546 211.301C472.301 217.416 472.661 227.129 466.546 232.884C460.431 238.639 450.719 238.999 444.963 232.884C438.848 227.129 438.848 217.416 444.963 211.301Z" fill="#FF0000"/>
<path d="M472.661 238.998C478.776 232.883 488.488 232.883 494.243 238.998C499.999 245.114 500.358 254.826 494.243 260.581C488.128 266.337 478.416 266.696 472.661 260.581C466.545 254.826 466.545 245.114 472.661 238.998Z" fill="#FF0000"/>
</svg>
