<svg width="500" height="500" viewBox="0 0 500 500" fill="none" xmlns="http://www.w3.org/2000/svg">
<path d="M136.174 213.654C137.981 217.402 136.951 222.327 134.999 225.695L119.978 259.555L119.852 259.699L114.429 225.297C113.995 222.001 117.538 220.607 119.599 219.014C119.482 218.838 119.327 218.692 119.145 218.585C118.964 218.479 118.76 218.415 118.551 218.398L113.526 218.308L113.381 218.145C113.389 216.031 113.969 213.959 115.062 212.151C116.154 210.343 117.716 208.866 119.581 207.878C121.683 206.776 124.062 206.32 126.421 206.564C128.781 206.809 131.016 207.745 132.848 209.254C134.267 210.471 135.403 211.985 136.174 213.69" fill="#6E55DC"/>
<path d="M108.524 212.459C109.843 214.781 110.369 217.47 110.024 220.118L103.897 259.501V259.627L102.288 256.459L86.924 222.056C86.2406 219.894 86.1874 217.582 86.7703 215.391C87.3529 213.2 88.5478 211.222 90.2142 209.687C91.8804 208.153 93.9495 207.127 96.1777 206.729C98.406 206.332 100.701 206.58 102.794 207.444C105.16 208.463 107.159 210.181 108.524 212.369" fill="#EF1541"/>
<path d="M158.318 229.017C159.275 230.923 159.714 233.048 159.591 235.178C159.467 237.308 158.785 239.368 157.613 241.149C156.185 243.466 153.835 244.607 151.865 246.11L120.143 267.965L120.359 266.933L137.224 228.909C138.431 226.746 140.268 225.002 142.49 223.912C144.712 222.822 147.213 222.436 149.659 222.807C151.473 223.132 153.191 223.858 154.689 224.932C156.187 226.007 157.426 227.402 158.318 229.017Z" fill="#069DE0"/>
<path d="M86.1582 228.825L103.691 267.972H103.402L68.0287 243.564C66.2792 242.124 64.9855 240.205 64.3051 238.041C63.6248 235.878 63.5871 233.563 64.1967 231.378C64.7145 229.587 65.6357 227.939 66.8891 226.562C68.1426 225.183 69.695 224.112 71.4268 223.429C74.1361 222.423 77.1147 222.417 79.8279 223.412C82.5412 224.408 84.8114 226.34 86.2305 228.861" fill="#FF7112"/>
<path d="M167.612 256.658C168.439 258.612 168.739 260.749 168.482 262.856C168.225 264.963 167.42 266.965 166.147 268.663C164.998 270.145 163.515 271.334 161.818 272.13C160.121 272.927 158.26 273.308 156.387 273.243H118.682L150.259 251.262C151.731 250.373 153.373 249.807 155.079 249.601C156.785 249.395 158.515 249.554 160.155 250.068C161.795 250.581 163.308 251.437 164.593 252.579C165.878 253.722 166.907 255.124 167.612 256.694" fill="#05AC3F"/>
<path d="M55.9743 256.657C55.1389 258.608 54.8328 260.746 55.0867 262.854C55.3406 264.962 56.1456 266.965 57.4203 268.661C58.573 270.145 60.0602 271.333 61.76 272.129C63.4598 272.926 65.3237 273.307 67.199 273.242H104.922L73.3627 251.261C71.8942 250.372 70.2539 249.806 68.5507 249.601C66.8474 249.395 65.12 249.555 63.4828 250.068C61.8456 250.582 60.336 251.438 59.054 252.58C57.772 253.722 56.7469 255.124 56.0466 256.693" fill="#FCCC12"/>
<path fill-rule="evenodd" clip-rule="evenodd" d="M284.119 235.464C284.119 235.464 288.439 233.581 291.493 235.953H291.529C294.602 238.343 298.019 241.874 296.229 246.473C296.142 246.695 296.054 246.925 295.963 247.161C294.179 251.807 291.387 259.079 279.347 268.056C269.839 275.154 259.825 273.343 258.198 266.1C258.198 266.1 257.024 262.28 259.175 261.537C259.175 261.537 259.771 261.501 259.59 262.841C259.631 263.454 259.794 264.051 260.071 264.599C260.347 265.146 260.731 265.632 261.199 266.028C262.039 266.535 262.984 266.844 263.961 266.932C264.938 267.02 265.922 266.884 266.839 266.535C271.376 264.869 276.455 261.248 285.149 248.573L285.384 248.211C285.384 248.211 290.192 240.516 288.276 238.705C287.951 238.397 287.065 238.216 285.059 238.868C282.239 239.755 268.791 245.966 253.535 260.922C248.089 266.377 243.358 272.504 239.454 279.155L237.069 284.587C236.079 287.112 235.388 289.743 235.008 292.428C234.877 292.97 234.861 293.534 234.961 294.082C235.061 294.631 235.274 295.153 235.587 295.615C235.587 295.615 237.34 296.429 236.743 297.208C236.147 297.987 234.646 296.737 234.646 296.737C234.151 296.172 233.704 295.566 233.309 294.927C224.705 282.795 244.136 256.287 255.632 242.417C251.529 243.539 245.347 245.405 238.28 247.849C238.732 249.002 238.959 250.231 238.948 251.47C238.93 255.273 237.285 259.654 231.411 265.304C227.141 269.428 222.339 272.96 217.131 275.806C212.326 278.533 207.085 280.408 201.641 281.346C191.394 282.656 188.924 278.382 188.317 277.265C188.68 277.971 185.187 274.15 189.024 269.323C192.242 265.268 201.298 260.18 207.335 257.156C214.689 253.589 222.225 250.41 229.911 247.631C225.968 246.716 221.951 246.153 217.909 245.948C214.373 245.704 211.21 245.534 208.164 245.37C203.051 245.095 198.267 244.838 192.603 244.282C189.326 244.034 186.091 243.39 182.969 242.362C175.848 240.099 175.992 230.72 175.992 230.72C175.992 230.72 174.637 225.867 183.837 219.113C198.913 208.215 216.978 202.24 235.568 202.002C235.568 202.002 251.312 201.586 253.644 211.509C254.305 213.539 254.557 215.681 254.385 217.81C254.15 219.693 251.89 222.825 242.853 226.302C238.408 228.081 233.698 229.103 228.916 229.326C228.916 229.326 225.41 228.891 227.218 227.189C232.736 224.725 238.076 221.875 243.196 218.661C245.102 217.631 246.854 216.339 248.402 214.822C248.519 214.673 248.602 214.5 248.646 214.316C248.69 214.131 248.693 213.94 248.655 213.754C248.528 213.066 246.178 212.07 237.81 211.943C230.164 211.834 206.557 214.351 189.458 226.863C185.048 230.068 181.957 233.056 182.445 235.174C182.807 236.804 185.012 237.419 194.772 238.162C196.042 238.246 197.597 238.327 199.353 238.42C210.125 238.988 228.488 239.957 235.279 244.191C235.77 244.502 236.224 244.866 236.635 245.278C238.878 244.486 241.051 243.731 243.13 243.009C247.234 241.584 250.97 240.287 254.15 239.085C257.373 237.727 260.41 235.962 263.187 233.834L263.422 233.562C263.948 232.968 264.409 232.319 264.796 231.625C264.643 231.388 264.561 231.111 264.561 230.828C264.561 230.546 264.643 230.269 264.796 230.032C265.095 229.979 265.403 230.003 265.69 230.102C265.978 230.2 266.236 230.369 266.441 230.593C266.441 230.593 269.188 232.748 271.502 235.029C273.816 237.311 270.797 238.868 270.797 238.868C266.567 243.232 262.862 247.288 259.59 251.054C266.712 244.789 275.75 238.107 284.119 235.464ZM215.74 266.245C219.319 264.217 230.019 257.554 233.182 252.122L233.2 252.158C233.452 251.8 233.604 251.382 233.639 250.945C233.674 250.509 233.591 250.071 233.399 249.678C225.049 252.702 216.889 256.227 208.961 260.234C202.292 263.692 195.062 268.346 192.694 270.844C190.889 272.768 191.05 273.184 191.257 273.718C191.278 273.772 191.3 273.828 191.32 273.886C191.808 275.371 197.339 274.321 203.557 272.076C207.776 270.483 211.851 268.532 215.74 266.245ZM435.251 252.535C435.254 252.533 435.257 252.53 435.26 252.527L435.298 252.382C435.283 252.433 435.269 252.484 435.251 252.535ZM413.68 269.566C420.67 265.821 431.414 256.163 435.251 252.535C434.798 254.118 434.538 255.751 434.483 257.398L434.038 257.806C430.125 261.388 424.903 266.167 419.682 270.073C412.613 275.342 406.649 275.306 403.684 274.799C402.511 274.629 401.372 274.262 400.321 273.712C394.882 270.887 393.978 266.596 395.784 265.456C396.324 265.047 396.995 264.859 397.668 264.93C398.338 265 398.959 265.324 399.399 265.836C400.182 266.816 400.676 267.994 400.829 269.24C403.285 272.644 409.559 259.39 411.365 249.105C411.602 247.711 411.871 246.498 412.142 245.357C404.407 253.578 392.169 265.944 383.872 271.376C379.697 274.201 376.03 274.998 373.192 273.187C368.436 269.982 367.118 264.641 369.395 258.702C369.875 257.467 370.418 256.259 371.022 255.08C369.589 256.674 368.106 258.285 366.575 259.915C356.833 270.163 350.56 275.632 344.994 273.422C343.457 272.732 342.151 271.613 341.235 270.199C337.195 264.765 343.012 256.533 345.809 252.577C345.928 252.408 346.043 252.246 346.15 252.093C347.647 249.858 349.297 247.729 351.086 245.719L347 243.546C346.529 243.293 346.133 243.021 345.734 242.75C343.529 245.158 336.787 251.948 329.954 253.758C327.577 259.025 324.137 263.741 319.85 267.61C316.904 270.308 309.312 276.627 302.86 273.278C300.405 271.93 298.31 270.011 296.75 267.683C295.654 265.721 295.099 263.502 295.141 261.255C295.22 257.7 296.229 254.228 298.07 251.187C301.602 244.6 306.988 239.198 313.56 235.652C316.727 233.861 320.456 233.343 323.99 234.203C324.917 234.623 325.801 235.132 326.629 235.724C329.123 237.734 331.364 240.523 330.931 242.967C330.931 243.447 330.74 243.908 330.401 244.247C330.062 244.587 329.603 244.778 329.123 244.778C328.057 244.669 328.364 243.872 328.364 243.872C328.562 243.411 328.614 242.9 328.514 242.408C328.414 241.916 328.166 241.467 327.803 241.12C324.984 239.327 314.627 243.13 307.216 254.682C303.601 260.277 302.209 265.202 303.04 267.755C304.631 272.372 310.415 269.004 311.861 268.027C315.739 265.359 319.02 261.912 321.495 257.905C322.908 255.963 324.119 253.882 325.11 251.695C323.52 250.463 322.11 248.671 323.7 246.842C325.291 245.013 328.165 246.48 328.165 246.48C328.818 246.841 329.367 247.364 329.763 247.997C330.158 248.631 330.386 249.355 330.424 250.101C335.612 248.634 341.034 243.383 342.841 241.392C342.185 240.541 341.792 239.513 341.72 238.44C341.645 237.367 341.891 236.295 342.425 235.362C344.974 230.093 348.499 232.32 348.499 232.32C351.21 234.203 349.098 238.259 347.922 240.07C350.687 242.55 359.038 245.031 359.038 245.031C359.038 245.031 360.321 244.977 360.5 247.295C360.628 248.815 357.735 252.256 357.735 252.256C351.482 259.607 348.355 264.496 347.523 267.212C347.323 267.618 347.242 268.074 347.286 268.525C347.329 268.976 347.5 269.406 347.777 269.765C351.447 272.028 367.878 255.008 377.564 244.415C379.662 241.446 381.65 238.875 382.988 237.173L382.234 237.272C374.799 238.257 368.898 239.039 365.924 239.617C360.521 240.631 360.232 235.018 360.232 235.018C359.943 232.918 361.205 233.805 361.205 233.805C361.437 234.093 361.746 234.31 362.093 234.432C362.442 234.553 362.818 234.574 363.176 234.493C364.081 234.385 365.791 234.232 368.014 234.033C372.912 233.595 380.298 232.933 386.999 232.049C391.975 225.717 397.304 219.672 402.962 213.942C404.661 212.385 405.617 213.308 405.617 213.308C407.207 214.101 408.721 215.04 410.137 216.115C410.414 216.258 410.645 216.475 410.807 216.741C410.969 217.008 411.056 217.314 411.056 217.626C411.056 217.939 410.969 218.245 410.807 218.511C410.645 218.778 410.414 218.995 410.137 219.138L400.43 230.003C410.281 228.409 421.288 226.852 427.108 226.381C438.207 225.512 444.498 226.472 445.183 230.618C445.383 231.886 444.065 234.294 440.594 237.064C438.913 238.404 438.242 237.064 438.242 237.064C449.07 228.482 409.033 233.443 409.033 233.443C404.479 234.185 399.942 234.891 395.55 235.507L390.235 241.464C379.986 254.32 376.336 262.486 375.449 266.107C373.516 274.129 382.607 267.972 382.046 268.316C392.55 262.07 409.776 243.637 415.018 238.006C415.584 236.961 416.347 236.033 417.257 235.272C417.494 235.096 417.763 234.974 418.052 234.915C418.338 234.855 418.635 234.86 418.922 234.928C420.002 235.32 420.988 235.938 421.814 236.738C422.461 237.293 423.068 237.898 423.62 238.549C423.875 238.737 424.059 239.004 424.149 239.309C424.236 239.612 424.221 239.937 424.109 240.233C423.993 240.482 423.736 240.618 423.404 240.794C422.791 241.116 421.933 241.57 421.254 243.094C420.485 244.845 419.881 246.663 419.445 248.526C418.87 251.089 418.309 254.116 417.815 256.772C417.367 259.201 416.974 261.318 416.679 262.486C416.197 265.034 415.174 267.448 413.68 269.566Z" fill="#FCCC12"/>
</svg>
