<svg width="500" height="500" viewBox="0 0 500 500" fill="none" xmlns="http://www.w3.org/2000/svg">
<path fill-rule="evenodd" clip-rule="evenodd" d="M279.273 263.029L304.163 225.165L305.486 263.029H279.273ZM378.904 262.519L403.762 224.785L405.014 262.519H378.904ZM443.056 308.127L435.01 190.183H370.562L362.96 217.127H372.955L341.137 267.71L336.668 190.183H271.288L263.855 217.009L273.83 217.129L231.134 282.062L195.98 281.923C192.288 281.923 178.093 278.509 178.093 260.868C178.093 243.228 194.845 217.607 211.877 217.607L219.008 217.772C217.811 222.121 215.296 231.154 215.296 231.154H246.603L257.852 190.183L209.447 190.002C181.215 189.752 155.379 211.633 147.712 233.83L160.288 190.201L117.325 190.183L109.751 217.127L120.854 217.076L109.678 256.536L81.6251 190.323H41.4243L33.8812 217.135H44.9025L20 308.081H52.1375C52.1375 308.081 64.5014 263.011 67.689 251.408L91.0762 308.081L126.841 308.066L143.207 250.32C141.729 259.086 141.723 268.039 143.189 276.807C146.342 295.738 164.706 308.075 184.756 308.075L249.673 308.081L260.82 291.163H306.607L307.532 307.902H348.133L358.465 291.163H405.296L407.132 308.081L443.05 308.127H443.056ZM452.732 293.985C452.732 286.897 458.073 281.553 464.904 281.553C471.734 281.553 476.997 286.897 476.997 293.985C476.997 301.072 471.662 306.499 464.904 306.499C458.073 306.501 452.732 301.198 452.732 293.985ZM464.904 309C473.042 309 480 302.66 480 293.987C480 285.313 473.046 279.058 464.904 279.058C456.762 279.058 449.739 285.392 449.739 293.987C449.739 302.582 456.691 309 464.904 309ZM461.742 295.177H464.751L469.291 302.66H472.213L467.31 295.057C469.84 294.738 471.78 293.398 471.78 290.307C471.78 286.897 469.766 285.392 465.693 285.392H459.135V302.658H461.74V295.175H461.742V295.177ZM461.742 292.96V287.611H465.3C467.12 287.611 469.055 288.005 469.055 290.144C469.055 292.8 467.077 292.962 464.865 292.962H461.742V292.96Z" fill="#009CDE"/>
</svg>
