<svg width="500" height="500" viewBox="0 0 500 500" fill="none" xmlns="http://www.w3.org/2000/svg">
<path d="M303.002 172.518C301.459 172.518 300.185 171.243 300.185 169.701C300.185 168.158 301.459 166.883 303.002 166.883C304.545 166.883 305.819 168.158 305.819 169.701C305.819 171.243 304.545 172.518 303.002 172.518ZM136.525 302.573C136.525 240.396 187.635 189.823 250.081 189.823C312.526 189.823 363.636 240.396 363.636 302.573C363.636 364.616 312.526 415.324 250.081 415.324C187.635 415.324 136.525 364.549 136.525 302.573ZM294.618 130.463C297.301 131.133 298.978 133.883 298.24 136.566C297.569 139.249 294.819 140.859 292.069 140.188C289.386 139.517 287.709 136.767 288.447 134.085C289.118 131.402 291.868 129.792 294.618 130.463ZM299.179 120.603C300.721 120.603 301.996 121.877 301.996 123.42C301.996 124.963 300.721 126.237 299.179 126.237C297.636 126.237 296.362 124.963 296.362 123.42C296.362 121.877 297.636 120.603 299.179 120.603ZM296.831 110.542C298.374 110.542 299.648 111.816 299.648 113.359C299.648 114.901 298.374 116.176 296.831 116.176C295.288 116.176 294.014 114.901 294.014 113.359C294.014 111.816 295.288 110.542 296.831 110.542ZM331.776 136.969C333.319 136.969 334.594 138.243 334.594 139.786C334.594 141.328 333.319 142.603 331.776 142.603C330.234 142.603 328.959 141.328 328.959 139.786C328.959 138.243 330.167 136.969 331.776 136.969ZM329.429 126.975C330.972 126.975 332.246 128.249 332.246 129.792C332.246 131.334 330.972 132.609 329.429 132.609C327.886 132.609 326.612 131.334 326.612 129.792C326.612 128.249 327.886 126.975 329.429 126.975ZM325.203 118.188C326.746 118.188 328.02 119.462 328.02 121.005C328.02 122.548 326.746 123.755 325.203 123.755C323.661 123.755 322.386 122.481 322.386 120.938C322.386 119.395 323.661 118.188 325.203 118.188ZM318.563 110.408C320.106 110.408 321.38 111.682 321.38 113.225C321.38 114.767 320.106 116.042 318.563 116.042C317.02 116.042 315.746 114.767 315.746 113.225C315.746 111.682 316.953 110.408 318.563 110.408ZM310.313 104.438C311.856 104.438 313.13 105.712 313.13 107.255C313.13 108.798 311.856 110.072 310.313 110.072C308.77 110.072 307.496 108.798 307.496 107.255C307.496 105.712 308.77 104.438 310.313 104.438ZM301.459 101.017C303.002 101.017 304.276 102.292 304.276 103.834C304.276 105.377 303.002 106.651 301.459 106.651C299.917 106.651 298.642 105.377 298.642 103.834C298.642 102.292 299.917 101.017 301.459 101.017ZM292.471 101.755C294.014 101.755 295.288 103.029 295.288 104.572C295.288 106.115 294.014 107.389 292.471 107.389C290.929 107.389 289.654 106.115 289.654 104.572C289.645 104.2 289.712 103.829 289.85 103.483C289.988 103.137 290.195 102.823 290.459 102.56C290.722 102.296 291.037 102.089 291.383 101.951C291.728 101.812 292.099 101.746 292.471 101.755ZM285.831 94.1757C287.374 94.1757 288.648 95.4501 288.648 96.9928C288.648 98.5355 287.374 99.8099 285.831 99.8099C284.288 99.8099 283.014 98.5355 283.014 96.9928C283.014 95.4501 284.288 94.1757 285.831 94.1757ZM277.179 88.4745C278.721 88.4745 279.996 89.7489 279.996 91.2916C279.996 92.8343 278.721 94.1087 277.179 94.1087C275.636 94.1087 274.362 92.8343 274.362 91.2916C274.362 89.7489 275.636 88.4745 277.179 88.4745ZM268.191 85.1879C269.733 85.1879 271.008 86.4623 271.008 88.005C271.008 89.5477 269.733 90.8221 268.191 90.8221C266.648 90.8221 265.374 89.5477 265.374 88.005C265.374 86.3952 266.648 85.1879 268.191 85.1879ZM259.002 83.5781C260.544 83.5781 261.819 84.8525 261.819 86.3952C261.819 87.9379 260.544 89.2123 259.002 89.2123C257.459 89.2123 256.185 87.9379 256.185 86.3952C256.185 84.8525 257.459 83.5781 259.002 83.5781ZM171.873 157.225C169.391 158.566 166.306 157.694 164.965 155.28C163.623 152.865 164.495 149.78 166.977 148.438C169.458 147.097 172.544 147.969 173.885 150.45C175.227 152.865 174.355 155.883 171.873 157.225ZM208.026 140.188C206.728 140.516 205.353 140.319 204.198 139.642C203.044 138.964 202.202 137.859 201.855 136.566C201.184 133.883 202.794 131.133 205.477 130.463C208.16 129.792 210.977 131.402 211.648 134.085C212.386 136.767 210.776 139.517 208.026 140.188ZM250.081 134.956C247.264 134.956 244.983 132.676 244.983 129.926C244.983 127.176 247.264 124.895 250.081 124.895C252.898 124.895 255.178 127.176 255.178 129.926C255.144 131.261 254.594 132.53 253.643 133.468C252.693 134.406 251.416 134.94 250.081 134.956ZM200.916 126.17C199.373 126.17 198.099 124.895 198.099 123.353C198.099 121.81 199.373 120.536 200.916 120.536C202.459 120.536 203.733 121.81 203.733 123.353C203.733 124.962 202.459 126.17 200.916 126.17ZM203.264 116.176C201.721 116.176 200.446 114.901 200.446 113.359C200.446 111.816 201.721 110.542 203.264 110.542C204.806 110.542 206.081 111.816 206.081 113.359C206.081 114.901 204.806 116.176 203.264 116.176ZM168.385 142.603C166.843 142.603 165.568 141.328 165.568 139.786C165.568 138.243 166.843 136.969 168.385 136.969C169.928 136.969 171.202 138.243 171.202 139.786C171.202 141.328 169.928 142.603 168.385 142.603ZM170.733 132.542C169.19 132.542 167.916 131.267 167.916 129.725C167.916 128.182 169.19 126.908 170.733 126.908C172.276 126.908 173.55 128.182 173.55 129.725C173.55 131.334 172.276 132.542 170.733 132.542ZM174.891 123.755C173.349 123.755 172.074 122.481 172.074 120.938C172.074 119.395 173.349 118.121 174.891 118.121C176.434 118.121 177.709 119.395 177.709 120.938C177.709 122.481 176.501 123.755 174.891 123.755ZM181.599 115.975C180.056 115.975 178.782 114.7 178.782 113.158C178.782 111.615 180.056 110.34 181.599 110.34C183.142 110.34 184.416 111.615 184.416 113.158C184.416 114.7 183.142 115.975 181.599 115.975ZM189.849 110.072C188.306 110.072 187.032 108.798 187.032 107.255C187.032 105.712 188.306 104.438 189.849 104.438C191.392 104.438 192.666 105.712 192.666 107.255C192.666 108.798 191.392 110.072 189.849 110.072ZM198.635 106.584C197.093 106.584 195.818 105.31 195.818 103.767C195.818 102.225 197.093 100.95 198.635 100.95C200.178 100.95 201.453 102.225 201.453 103.767C201.52 105.377 200.245 106.584 198.635 106.584ZM207.69 107.389C206.148 107.389 204.873 106.115 204.873 104.572C204.873 103.029 206.148 101.755 207.69 101.755C209.233 101.755 210.508 103.029 210.508 104.572C210.508 106.115 209.233 107.389 207.69 107.389ZM214.331 99.8099C212.788 99.8099 211.514 98.5355 211.514 96.9928C211.514 95.4501 212.788 94.1757 214.331 94.1757C215.873 94.1757 217.148 95.4501 217.148 96.9928C217.131 97.7346 216.828 98.4413 216.304 98.9659C215.779 99.4906 215.072 99.7929 214.331 99.8099ZM222.916 94.1087C221.373 94.1087 220.099 92.8343 220.099 91.2916C220.099 89.7489 221.373 88.4745 222.916 88.4745C224.459 88.4745 225.733 89.7489 225.733 91.2916C225.733 92.8343 224.526 94.1087 222.916 94.1087ZM231.904 90.755C230.361 90.755 229.087 89.4806 229.087 87.9379C229.087 86.3952 230.361 85.1208 231.904 85.1208C233.447 85.1208 234.721 86.3952 234.721 87.9379C234.721 89.5477 233.447 90.755 231.904 90.755ZM250.081 118.188C248.538 118.188 247.264 116.914 247.264 115.371C247.264 113.828 248.538 112.554 250.081 112.554C251.624 112.554 252.898 113.828 252.898 115.371C252.898 116.914 251.624 118.188 250.081 118.188ZM250.081 108.06C248.538 108.06 247.264 106.786 247.264 105.243C247.264 103.7 248.538 102.426 250.081 102.426C251.624 102.426 252.898 103.7 252.898 105.243C252.898 106.786 251.624 108.06 250.081 108.06ZM250.081 97.8648C248.538 97.8648 247.264 96.5904 247.264 95.0477C247.264 93.505 248.538 92.2306 250.081 92.2306C251.624 92.2306 252.898 93.505 252.898 95.0477C252.898 96.6575 251.624 97.8648 250.081 97.8648ZM241.16 89.2123C239.617 89.2123 238.343 87.9379 238.343 86.3952C238.343 84.8525 239.617 83.5781 241.16 83.5781C242.703 83.5781 243.977 84.8525 243.977 86.3952C243.96 87.137 243.658 87.8437 243.133 88.3683C242.609 88.893 241.902 89.1952 241.16 89.2123ZM333.118 148.438C335.6 149.78 336.472 152.798 335.13 155.28C333.789 157.694 330.703 158.566 328.222 157.225C325.807 155.883 324.868 152.798 326.209 150.383C327.551 147.969 330.636 147.097 333.118 148.438ZM268.124 163.127C266.581 163.127 265.307 161.853 265.307 160.31C265.307 158.768 266.581 157.493 268.124 157.493C269.666 157.493 270.941 158.768 270.941 160.31C270.941 161.853 269.733 163.127 268.124 163.127ZM197.093 172.518C195.55 172.518 194.276 171.243 194.276 169.701C194.276 168.158 195.55 166.883 197.093 166.883C198.635 166.883 199.91 168.158 199.91 169.701C199.91 171.243 198.635 172.518 197.093 172.518ZM231.971 163.127C230.428 163.127 229.154 161.853 229.154 160.31C229.154 158.768 230.428 157.493 231.971 157.493C233.514 157.493 234.788 158.768 234.788 160.31C234.788 161.853 233.514 163.127 231.971 163.127Z" fill="white"/>
<path d="M271.006 142.932C271.744 144.609 272.683 145.883 273.823 146.957C271.275 146.554 268.659 146.219 266.043 146.018C267.519 145.213 268.793 144.072 269.732 142.798C270.134 142.865 270.604 142.932 271.006 142.932ZM229.085 142.932C229.555 142.932 229.957 142.865 230.36 142.798C231.366 144.139 232.64 145.213 234.049 146.018C231.433 146.286 228.884 146.621 226.268 146.957C227.543 145.883 228.482 144.475 229.085 142.932ZM213.994 149.371C211.713 149.908 209.433 150.444 207.219 151.115C208.427 149.572 209.165 147.694 209.433 145.682C210.64 147.292 212.183 148.566 213.994 149.371ZM188.104 157.755C188.774 156.682 189.311 155.475 189.579 154.201L189.982 154.133C190.652 153.932 191.256 153.664 191.86 153.329C192.933 154.066 194.14 154.603 195.347 154.938C192.866 155.81 190.451 156.749 188.104 157.755ZM250.079 140.518C250.817 142.396 252.025 144.072 253.634 145.28C252.427 145.28 251.287 145.213 250.079 145.213C248.872 145.213 247.732 145.213 246.525 145.28C248.134 144.072 249.342 142.463 250.079 140.518ZM308.299 153.329C308.836 153.664 309.507 153.999 310.177 154.133L310.58 154.201C310.848 155.475 311.385 156.682 312.055 157.755C309.708 156.749 307.293 155.81 304.811 154.938C306.086 154.536 307.226 154.066 308.299 153.329ZM292.872 151.048C290.659 150.444 288.378 149.841 286.098 149.304C287.909 148.499 289.519 147.225 290.659 145.615C290.86 147.627 291.665 149.505 292.872 151.048ZM301.659 129.182C303.537 128.377 305.013 126.7 305.415 124.621C308.433 125.292 311.854 126.164 314.671 127.237C317.287 128.243 319.366 129.652 320.842 130.926C322.385 134.816 323.257 139.31 323.659 144.743C321.781 145.548 320.641 147.426 319.97 149.304C318.83 152.188 318.83 155.14 321.982 157.353C321.28 157.398 320.577 157.295 319.918 157.049C319.259 156.803 318.659 156.42 318.159 155.926C317.658 155.432 317.268 154.837 317.014 154.182C316.76 153.526 316.647 152.824 316.683 152.121C317.287 151.451 317.69 150.579 317.958 149.64C318.367 148.012 318.113 146.288 317.251 144.848C316.39 143.408 314.991 142.369 313.363 141.96C311.736 141.55 310.012 141.805 308.572 142.666C307.132 143.528 306.093 144.926 305.683 146.554C305.616 146.957 305.549 147.292 305.482 147.627C302.598 151.115 296.83 149.304 296.561 144.743C301.86 145.816 304.141 143.133 305.013 139.578C305.818 136.56 305.482 133.609 301.994 131.731C302.067 130.867 301.953 129.998 301.659 129.182Z" fill="#E62644"/>
<path d="M211.781 116.707C221.842 111.139 235.055 110.133 245.318 111.676V112.414C244.576 113.553 244.288 114.93 244.512 116.271C244.735 117.612 245.454 118.82 246.525 119.658C244.647 120.329 243.171 121.67 242.567 124.219C238.744 125.158 237.738 127.975 237.738 131.06C237.738 134.749 239.214 137.902 244.647 138.17C244.915 138.924 244.999 139.73 244.894 140.523C244.788 141.315 244.494 142.071 244.038 142.728C243.582 143.384 242.975 143.923 242.269 144.298C241.563 144.674 240.778 144.875 239.978 144.887C239.179 144.898 238.388 144.718 237.672 144.363C236.955 144.008 236.334 143.486 235.859 142.843C235.384 142.199 235.07 141.452 234.942 140.663C234.814 139.873 234.876 139.065 235.122 138.304C235.369 137.365 235.396 136.382 235.2 135.43C235.005 134.479 234.592 133.586 233.995 132.82C233.398 132.054 232.632 131.437 231.758 131.015C230.883 130.593 229.923 130.379 228.952 130.39C225.464 130.39 222.647 133.207 222.647 136.695C222.647 137.768 222.915 138.774 223.384 139.713C223.25 141.792 221.775 143.67 219.628 144.274C218.595 144.53 217.508 144.453 216.521 144.056C215.533 143.659 214.696 142.96 214.128 142.06C219.293 140.451 219.964 137.03 219.025 133.475C218.22 130.457 216.543 127.975 212.586 128.042C211.994 126.81 211 125.817 209.769 125.225C210.171 122.207 210.842 119.39 211.781 116.707ZM254.775 111.676C265.037 110.2 278.184 111.139 288.312 116.707C289.251 119.39 289.921 122.207 290.257 125.158C289.117 125.694 288.177 126.633 287.44 127.975C283.482 127.908 281.806 130.39 281.001 133.408C280.062 136.963 280.732 140.384 285.897 141.993C285.937 142.775 285.793 143.554 285.476 144.27C285.16 144.985 284.68 145.617 284.075 146.113C283.47 146.609 282.757 146.956 281.993 147.126C281.229 147.296 280.436 147.284 279.678 147.092C278.92 146.9 278.217 146.532 277.627 146.018C277.037 145.505 276.575 144.86 276.28 144.136C275.984 143.411 275.863 142.628 275.926 141.848C275.988 141.068 276.233 140.314 276.641 139.646C277.11 138.774 277.379 137.768 277.379 136.627C277.379 133.14 274.562 130.323 271.074 130.323C270.105 130.32 269.149 130.54 268.279 130.964C267.408 131.388 266.646 132.005 266.05 132.769C265.455 133.533 265.042 134.422 264.843 135.37C264.644 136.318 264.665 137.299 264.903 138.237C264.551 139.227 263.897 140.082 263.035 140.681C262.172 141.281 261.143 141.596 260.093 141.581C259.042 141.566 258.023 141.223 257.177 140.599C256.332 139.975 255.703 139.102 255.379 138.103C260.811 137.835 262.287 134.682 262.287 130.993C262.287 127.908 261.214 125.091 257.458 124.152C256.854 121.67 255.379 120.261 253.5 119.591C254.572 118.753 255.29 117.545 255.513 116.204C255.737 114.863 255.449 113.486 254.708 112.347V111.676H254.775ZM185.488 127.237C188.238 126.164 191.726 125.225 194.744 124.621C195.146 126.701 196.555 128.377 198.5 129.182C198.232 129.92 198.098 130.792 198.098 131.731C194.61 133.542 194.342 136.56 195.079 139.579C196.018 143.134 198.232 145.817 203.531 144.743C203.329 149.304 197.494 151.115 194.61 147.628C194.61 147.292 194.543 146.89 194.409 146.554C193.981 144.933 192.931 143.545 191.488 142.691C190.044 141.838 188.322 141.587 186.695 141.993C185.659 142.247 184.704 142.76 183.922 143.486C183.14 144.212 182.557 145.126 182.228 146.141C181.899 147.156 181.834 148.238 182.041 149.285C182.247 150.331 182.718 151.308 183.409 152.121C183.543 153.999 182.537 155.81 180.793 156.75C179.921 157.219 178.982 157.42 178.043 157.353C181.195 155.14 181.128 152.189 180.055 149.304C179.317 147.426 178.177 145.548 176.299 144.743C176.768 139.31 177.64 134.816 179.116 130.993C180.793 129.652 182.872 128.31 185.488 127.237ZM259.068 159.432L250.013 162.786L240.958 159.432L250.013 156.079L259.068 159.432ZM191.189 171.573L190.384 174.725L190.049 175.865L189.378 175.463L186.427 173.853L187.232 170.835L187.366 170.164L188.439 170.5L191.189 171.573ZM308.97 171.573L312.793 170.164L312.928 170.835L313.665 173.92L310.714 175.53L310.111 175.865L309.775 174.725L308.97 171.573Z" fill="#E62644"/>
<path d="M292.871 151.055C291.664 149.512 290.926 147.634 290.658 145.622C289.518 147.299 287.908 148.573 286.097 149.311C288.377 149.848 290.658 150.451 292.871 151.055ZM308.298 153.336C307.225 154.073 306.018 154.61 304.81 154.945C307.225 155.817 309.64 156.756 312.054 157.762C311.384 156.689 310.847 155.482 310.579 154.208L310.176 154.14C309.506 153.939 308.902 153.671 308.298 153.336ZM250.078 140.525C249.341 142.403 248.133 144.079 246.524 145.287C247.664 145.287 248.871 145.22 250.078 145.22C251.286 145.22 252.426 145.22 253.633 145.287C252.024 144.079 250.816 142.47 250.078 140.525ZM188.102 157.762C190.45 156.756 192.865 155.817 195.346 154.945C194.072 154.61 192.865 154.073 191.859 153.336C191.322 153.671 190.651 154.006 189.981 154.14L189.578 154.208C189.243 155.482 188.773 156.689 188.102 157.762ZM213.993 149.378C212.182 148.573 210.572 147.299 209.432 145.689C209.231 147.701 208.426 149.579 207.218 151.122C209.499 150.451 211.779 149.848 213.993 149.378ZM229.084 142.939C228.481 144.482 227.542 145.823 226.334 146.964C228.883 146.561 231.499 146.226 234.115 146.025C232.639 145.22 231.365 144.079 230.426 142.805C229.956 142.872 229.554 142.939 229.084 142.939ZM271.005 142.939C270.603 142.939 270.133 142.872 269.731 142.805C268.725 144.146 267.45 145.22 266.042 146.025C268.658 146.293 271.207 146.628 273.822 146.964C272.682 145.89 271.81 144.616 271.139 143.207L271.005 142.939ZM333.115 148.439C332.535 148.118 331.897 147.915 331.237 147.842C330.578 147.769 329.911 147.828 329.274 148.015C328.638 148.203 328.045 148.514 327.53 148.933C327.015 149.351 326.588 149.867 326.274 150.451C324.932 152.866 325.804 155.951 328.286 157.293C330.768 158.634 333.853 157.762 335.195 155.348C336.469 152.799 335.53 149.781 333.115 148.439ZM294.615 130.463C293.317 130.136 291.942 130.332 290.788 131.01C289.633 131.688 288.791 132.792 288.444 134.085C287.774 136.768 289.383 139.518 292.066 140.189C294.816 140.86 297.566 139.25 298.237 136.567C298.563 135.278 298.365 133.912 297.686 132.768C297.007 131.624 295.903 130.795 294.615 130.463ZM299.176 120.604C297.634 120.604 296.359 121.878 296.359 123.421C296.359 124.963 297.634 126.238 299.176 126.238C300.719 126.238 301.993 124.963 301.993 123.421C301.993 121.878 300.786 120.604 299.176 120.604ZM296.829 110.543C295.286 110.543 294.012 111.817 294.012 113.36C294.012 114.902 295.286 116.177 296.829 116.177C298.371 116.177 299.646 114.902 299.646 113.36C299.655 112.987 299.588 112.617 299.45 112.271C299.312 111.925 299.105 111.611 298.841 111.347C298.578 111.084 298.263 110.877 297.917 110.738C297.572 110.6 297.201 110.533 296.829 110.543ZM331.774 136.97C330.231 136.97 328.957 138.244 328.957 139.787C328.957 141.329 330.231 142.604 331.774 142.604C333.317 142.604 334.591 141.329 334.591 139.787C334.591 138.244 333.317 136.97 331.774 136.97ZM329.426 126.976C327.884 126.976 326.609 128.25 326.609 129.793C326.609 131.335 327.884 132.61 329.426 132.61C330.969 132.61 332.243 131.335 332.243 129.793C332.243 128.25 330.969 126.976 329.426 126.976ZM325.201 118.189C323.658 118.189 322.384 119.463 322.384 121.006C322.384 122.549 323.658 123.756 325.201 123.756C326.743 123.756 328.018 122.482 328.018 120.939C328.018 119.396 326.743 118.189 325.201 118.189ZM318.56 110.408C317.018 110.408 315.743 111.683 315.743 113.226C315.743 114.768 317.018 116.043 318.56 116.043C320.103 116.043 321.378 114.768 321.378 113.226C321.378 111.683 320.103 110.408 318.56 110.408ZM310.31 104.439C308.768 104.439 307.493 105.713 307.493 107.256C307.493 108.799 308.768 110.073 310.31 110.073C311.853 110.073 313.128 108.799 313.128 107.256C313.128 105.713 311.853 104.439 310.31 104.439ZM301.457 101.018C299.914 101.018 298.64 102.293 298.64 103.835C298.64 105.378 299.914 106.652 301.457 106.652C302.999 106.652 304.274 105.378 304.274 103.835C304.274 102.293 302.999 101.018 301.457 101.018ZM292.469 101.756C290.926 101.756 289.652 103.03 289.652 104.573C289.652 106.116 290.926 107.39 292.469 107.39C294.012 107.39 295.286 106.116 295.286 104.573C295.269 103.831 294.967 103.125 294.442 102.6C293.917 102.075 293.211 101.773 292.469 101.756ZM285.829 94.1767C284.286 94.1767 283.012 95.4511 283.012 96.9938C283.012 98.5365 284.286 99.8109 285.829 99.8109C287.371 99.8109 288.646 98.5365 288.646 96.9938C288.646 95.4511 287.371 94.1767 285.829 94.1767ZM277.176 88.4754C275.633 88.4754 274.359 89.7498 274.359 91.2925C274.359 92.8352 275.633 94.1096 277.176 94.1096C278.719 94.1096 279.993 92.8352 279.993 91.2925C279.993 89.7498 278.719 88.4754 277.176 88.4754ZM268.188 85.1888C266.646 85.1888 265.371 86.4632 265.371 88.0059C265.371 89.5486 266.646 90.823 268.188 90.823C269.731 90.823 271.005 89.5486 271.005 88.0059C271.005 86.4632 269.731 85.1888 268.188 85.1888ZM258.999 83.5791C257.456 83.5791 256.182 84.8535 256.182 86.3962C256.182 87.9389 257.456 89.2133 258.999 89.2133C260.542 89.2133 261.816 87.9389 261.816 86.3962C261.816 84.8535 260.542 83.5791 258.999 83.5791ZM171.871 157.226C174.352 155.884 175.224 152.799 173.883 150.384C172.541 147.97 169.456 147.031 166.974 148.372C164.56 149.714 163.621 152.732 164.962 155.214C166.371 157.695 169.456 158.567 171.871 157.226ZM208.023 140.189C210.706 139.518 212.383 136.768 211.645 134.085C211.298 132.792 210.457 131.688 209.302 131.01C208.148 130.332 206.773 130.136 205.475 130.463C202.792 131.134 201.115 133.884 201.853 136.567C202.59 139.317 205.34 140.927 208.023 140.189ZM250.078 134.957C252.895 134.957 255.176 132.677 255.176 129.927C255.176 127.177 252.895 124.896 250.078 124.896C247.261 124.896 244.981 127.177 244.981 129.927C244.981 132.677 247.261 134.957 250.078 134.957ZM200.914 126.171C202.456 126.171 203.731 124.896 203.731 123.354C203.731 121.811 202.456 120.537 200.914 120.537C199.371 120.537 198.096 121.811 198.096 123.354C198.096 124.963 199.371 126.171 200.914 126.171ZM203.261 116.177C204.804 116.177 206.078 114.902 206.078 113.36C206.078 111.817 204.804 110.543 203.261 110.543C201.718 110.543 200.444 111.817 200.444 113.36C200.444 114.902 201.718 116.177 203.261 116.177ZM168.383 142.604C169.926 142.604 171.2 141.329 171.2 139.787C171.2 138.244 169.926 136.97 168.383 136.97C166.84 136.97 165.566 138.244 165.566 139.787C165.566 141.329 166.84 142.604 168.383 142.604ZM170.73 132.543C172.273 132.543 173.548 131.268 173.548 129.726C173.548 128.183 172.273 126.909 170.73 126.909C169.188 126.909 167.913 128.183 167.913 129.726C167.913 131.335 169.121 132.543 170.73 132.543ZM174.889 123.756C176.432 123.756 177.706 122.482 177.706 120.939C177.706 119.396 176.499 118.189 174.889 118.189C173.346 118.189 172.072 119.463 172.072 121.006C172.072 122.549 173.346 123.756 174.889 123.756ZM181.596 115.976C183.139 115.976 184.413 114.701 184.413 113.159C184.413 111.616 183.139 110.341 181.596 110.341C180.054 110.341 178.779 111.616 178.779 113.159C178.779 114.701 180.054 115.976 181.596 115.976ZM189.846 110.073C191.389 110.073 192.663 108.799 192.663 107.256C192.663 105.713 191.389 104.439 189.846 104.439C188.304 104.439 187.029 105.713 187.029 107.256C187.029 108.799 188.237 110.073 189.846 110.073ZM198.633 106.585C200.176 106.585 201.45 105.311 201.45 103.768C201.45 102.226 200.176 100.951 198.633 100.951C197.09 100.951 195.816 102.226 195.816 103.768C195.816 105.378 197.09 106.585 198.633 106.585ZM207.688 107.39C209.231 107.39 210.505 106.116 210.505 104.573C210.505 103.03 209.231 101.756 207.688 101.756C206.145 101.756 204.871 103.03 204.871 104.573C204.871 106.116 206.145 107.39 207.688 107.39ZM214.328 99.8109C215.871 99.8109 217.145 98.5365 217.145 96.9938C217.145 95.4511 215.871 94.1767 214.328 94.1767C212.786 94.1767 211.511 95.4511 211.511 96.9938C211.444 98.5365 212.718 99.8109 214.328 99.8109ZM222.914 94.1096C224.456 94.1096 225.731 92.8352 225.731 91.2925C225.731 89.7498 224.456 88.4754 222.914 88.4754C221.371 88.4754 220.097 89.7498 220.097 91.2925C220.097 92.8352 221.371 94.1096 222.914 94.1096ZM231.901 90.7559C233.444 90.7559 234.719 89.4816 234.719 87.9389C234.719 86.3962 233.444 85.1218 231.901 85.1218C230.359 85.1218 229.084 86.3962 229.084 87.9389C229.084 89.4816 230.359 90.7559 231.901 90.7559ZM250.078 118.189C251.621 118.189 252.895 116.915 252.895 115.372C252.895 113.829 251.621 112.555 250.078 112.555C248.536 112.555 247.261 113.829 247.261 115.372C247.261 116.915 248.536 118.189 250.078 118.189ZM250.078 108.061C251.621 108.061 252.895 106.787 252.895 105.244C252.895 103.701 251.621 102.427 250.078 102.427C248.536 102.427 247.261 103.701 247.261 105.244C247.261 106.787 248.536 108.061 250.078 108.061ZM250.078 97.8657C251.621 97.8657 252.895 96.5913 252.895 95.0487C252.895 93.506 251.621 92.2316 250.078 92.2316C248.536 92.2316 247.261 93.506 247.261 95.0487C247.261 96.6584 248.536 97.8657 250.078 97.8657ZM241.158 89.2133C242.7 89.2133 243.975 87.9389 243.975 86.3962C243.975 84.8535 242.7 83.5791 241.158 83.5791C239.615 83.5791 238.341 84.8535 238.341 86.3962C238.273 87.9389 239.548 89.2133 241.158 89.2133ZM318.628 157.762C320.975 159.037 322.786 158.5 325.067 157.695C321.311 155.817 319.365 154.14 321.042 149.714C321.78 147.701 322.786 146.226 324.932 145.622C323.591 128.451 318.762 120.268 303.067 112.488L301.926 112.823C301.926 113.024 301.993 113.226 301.993 113.427C301.993 115.774 300.719 116.915 298.975 118.189C301.792 118.793 304.341 120.067 304.341 123.421C304.341 126.238 302.463 127.781 299.981 128.518C300.786 130.061 300.92 130.732 300.786 132.476C304.006 134.018 304.676 136.031 303.871 139.25C302.664 143.878 299.847 144.348 295.42 143.207C294.749 150.384 302.731 153.134 306.621 147.97C306.621 147.567 306.688 147.165 306.756 146.695C307.493 143.945 310.243 142.336 312.993 143.006C315.743 143.677 317.42 146.494 316.682 149.244C316.481 150.116 316.012 150.854 315.408 151.525C315.207 154.14 316.347 156.488 318.628 157.762ZM245.652 95.1157C245.652 94.7804 245.719 94.3779 245.719 93.9755C225.194 92.4999 210.505 106.384 208.493 125.902C210.304 126.64 210.975 127.445 211.846 129.189C215.401 128.988 217.011 130.396 217.816 133.683C219.023 138.311 216.743 140.055 212.383 141.195C213.725 144.214 216.407 146.226 219.895 145.287C222.712 144.549 224.523 142.134 224.523 139.317C224.026 138.508 223.748 137.583 223.719 136.634C223.719 133.817 225.999 131.537 228.883 131.537C231.7 131.537 234.048 133.817 234.048 136.634C234.048 137.171 233.914 137.707 233.78 138.244C234.584 140.927 236.865 142.805 239.816 142.805C243.438 142.805 245.517 140.189 246.054 136.97C241.493 136.97 238.877 135.762 238.877 131C238.877 127.646 240.084 125.835 243.572 125.165C244.377 120.939 246.524 120.671 250.078 120.134C253.633 120.738 255.78 121.006 256.585 125.165C260.072 125.835 261.28 127.646 261.28 131C261.28 135.762 258.664 136.903 254.103 136.97C254.639 140.189 256.719 142.805 260.341 142.805C263.225 142.805 265.505 140.927 266.31 138.244C266.176 137.707 266.042 137.171 266.042 136.634C266.042 133.817 268.322 131.537 271.207 131.537C274.024 131.537 276.304 133.817 276.304 136.634C276.304 137.64 276.036 138.512 275.499 139.317C275.566 142.134 277.31 144.616 280.194 145.287C283.682 146.159 286.365 144.146 287.707 141.195C283.28 140.055 281.066 138.244 282.274 133.683C283.146 130.396 284.755 128.988 288.243 129.189C289.115 127.378 289.719 126.573 291.597 125.902C289.585 106.317 274.896 92.4328 254.371 93.9755C254.438 94.3779 254.505 94.7133 254.505 95.1157C254.505 96.1218 254.17 96.9267 253.633 97.7316V102.695C254.17 103.5 254.505 104.305 254.505 105.311C254.505 106.317 254.17 107.122 253.633 107.927L253.767 113.024C254.237 113.695 254.505 114.567 254.505 115.506C254.505 118.39 252.359 119.329 250.145 120.268C247.932 119.262 245.786 118.39 245.786 115.506C245.786 114.5 246.121 113.695 246.658 112.89V107.86C246.102 107.099 245.798 106.185 245.786 105.244C245.786 104.238 246.121 103.433 246.658 102.628V97.6645C246.021 96.9674 245.662 96.0601 245.652 95.1157ZM179.048 149.714C180.724 154.073 178.779 155.817 175.023 157.695C177.304 158.5 179.115 159.037 181.462 157.762C183.81 156.488 184.883 154.14 184.615 151.592C183.985 150.95 183.536 150.153 183.314 149.282C183.092 148.411 183.104 147.496 183.349 146.632C183.594 145.767 184.064 144.982 184.71 144.357C185.356 143.732 186.157 143.289 187.029 143.073C189.779 142.403 192.596 144.012 193.267 146.762C193.401 147.165 193.401 147.567 193.401 148.037C197.292 153.201 205.273 150.451 204.603 143.275C200.176 144.348 197.359 143.878 196.151 139.317C195.279 136.031 196.017 134.018 199.237 132.543C199.103 130.732 199.237 130.128 200.042 128.585C197.56 127.848 195.682 126.305 195.682 123.555C195.682 120.201 198.231 118.927 200.981 118.323C199.304 117.049 197.962 115.909 197.962 113.561C197.962 113.36 197.962 113.159 196.822 112.756C180.859 120.604 176.365 128.451 175.023 145.823C177.371 146.226 178.31 147.701 179.048 149.714ZM314.804 165.945C295.152 156.756 273.219 151.592 250.078 151.592C226.938 151.592 205.072 156.689 185.487 165.878C184.212 166.482 182.737 165.945 182.133 164.604C181.529 163.262 182.2 162.323 182.737 161.183C178.712 162.39 175.761 162.39 172.273 159.708C165.834 164.067 158.389 155.147 163.285 151.055C160.938 148.171 160.871 144.951 164.224 142.805C163.621 141.799 163.218 140.994 163.218 139.787C163.218 136.433 165.7 135.159 168.517 134.555C166.907 133.213 165.566 132.14 165.566 129.793C165.566 126.372 168.249 124.963 171.2 124.628C170.395 123.421 169.791 122.549 169.791 121.006C169.791 118.189 172.072 115.909 174.889 115.909C175.761 115.909 176.633 116.177 177.438 116.445C176.901 115.305 176.432 114.5 176.432 113.159C176.432 110.341 178.712 108.061 181.529 108.061C182.871 108.061 183.743 108.53 184.883 109.134C184.816 108.53 184.615 107.793 184.615 107.189C184.615 104.372 186.895 102.091 189.712 102.091C191.255 102.091 192.194 102.695 193.401 103.5C194.005 100.817 195.481 98.6706 198.566 98.6706C200.846 98.6706 202.121 99.8779 203.261 101.622C204.468 100.28 205.609 99.4084 207.554 99.4084C208.359 99.4084 209.096 99.6097 209.834 99.8109C209.432 98.8048 209.096 97.9999 209.096 96.9267C209.096 94.1096 211.377 91.8291 214.194 91.8291C215.804 91.8291 216.743 92.4999 218.017 93.3047C217.883 92.7011 217.682 91.8962 217.682 91.2255C217.682 88.4084 219.962 86.1279 222.779 86.1279C224.389 86.1279 225.328 86.7986 226.603 87.6706C227.206 84.9876 228.682 82.7742 231.767 82.7742C233.645 82.7742 234.719 83.6462 235.993 84.8535C236.999 82.7742 238.408 81.1644 240.956 81.1644C241.694 81.1644 242.298 81.3657 242.969 81.5669C244.713 79.9571 246.121 79.1522 248.335 78.5486V73.1827H244.042V70.0302H248.335V66.207H251.755V70.0302H256.048V73.1827H251.755V78.5486C253.969 79.0852 255.377 79.89 256.987 81.701C257.658 81.4327 258.261 81.2986 258.999 81.2986C261.615 81.2986 262.957 82.8413 263.963 84.9876C265.237 83.7803 266.31 82.9083 268.188 82.9083C271.274 82.9083 272.749 85.1218 273.353 87.8047C274.56 86.8657 275.499 86.262 277.176 86.262C279.993 86.262 282.274 88.5425 282.274 91.3596C282.274 92.0303 282.072 92.8352 282.005 93.4389C283.28 92.634 284.219 91.9633 285.829 91.9633C288.646 91.9633 290.926 94.2438 290.926 97.0609C290.926 98.134 290.524 98.9389 290.188 99.945C290.926 99.7438 291.664 99.5426 292.469 99.5426C294.414 99.5426 295.554 100.482 296.762 101.756C297.902 100.012 299.176 98.8048 301.457 98.8048C304.542 98.8048 306.085 101.018 306.621 103.634C307.829 102.762 308.701 102.226 310.31 102.226C313.128 102.226 315.408 104.506 315.408 107.323C315.408 107.927 315.274 108.665 315.14 109.268C316.28 108.665 317.152 108.195 318.493 108.195C321.31 108.195 323.591 110.476 323.591 113.293C323.591 114.567 323.121 115.439 322.585 116.579C323.457 116.177 324.329 115.909 325.201 115.909C328.018 115.909 330.298 118.189 330.298 121.006C330.298 122.549 329.695 123.421 328.89 124.628C331.841 124.896 334.524 126.372 334.524 129.793C334.524 132.14 333.25 133.281 331.506 134.555C334.323 135.159 336.804 136.433 336.804 139.787C336.804 140.994 336.402 141.799 335.798 142.805C339.152 144.884 339.152 148.104 336.872 151.122C339.823 153.537 338.28 157.36 335.798 159.305C333.25 161.25 330.701 161.653 327.884 159.775C324.396 162.458 321.445 162.458 317.42 161.25L318.024 162.458C319.03 164.47 317.018 166.75 314.804 165.945ZM192.127 171.043L187.968 169.5L187.633 168.83C187.298 168.964 187.029 169.031 186.761 169.098C185.621 169.165 185.688 167.958 186.291 167.689C205.676 158.634 227.206 153.604 250.011 153.604C272.883 153.604 294.414 158.634 313.731 167.689C314.268 167.958 314.402 169.232 313.262 169.098C313.06 169.098 312.725 169.031 312.39 168.83L312.054 169.5L307.896 171.043L309.103 175.805L308.701 176.61C310.914 177.616 309.371 179.159 308.499 178.756C290.725 170.439 270.938 165.811 249.944 165.811C228.95 165.811 209.164 170.439 191.389 178.756C190.92 178.958 190.383 178.756 190.115 178.22C189.846 177.683 190.115 177.281 190.45 177.013C190.651 176.878 190.92 176.744 191.121 176.61L190.718 175.805L192.127 171.043ZM215.267 167.555L224.188 161.384L213.389 160.244L204.468 166.415L215.267 167.555ZM302.999 173.256C305.012 173.256 306.621 171.647 306.621 169.634C306.621 167.622 305.012 166.012 302.999 166.012C300.987 166.012 299.377 167.622 299.377 169.634C299.377 171.714 300.987 173.256 302.999 173.256ZM231.969 163.933C233.981 163.933 235.591 162.323 235.591 160.311C235.591 158.299 233.981 156.689 231.969 156.689C229.956 156.689 228.347 158.299 228.347 160.311C228.347 162.323 229.956 163.933 231.969 163.933ZM197.09 173.256C199.103 173.256 200.712 171.647 200.712 169.634C200.712 167.622 199.103 166.012 197.09 166.012C195.078 166.012 193.468 167.622 193.468 169.634C193.468 171.714 195.078 173.256 197.09 173.256ZM268.121 163.933C270.133 163.933 271.743 162.323 271.743 160.311C271.743 158.299 270.133 156.689 268.121 156.689C266.109 156.689 264.499 158.299 264.499 160.311C264.499 162.323 266.109 163.933 268.121 163.933ZM284.822 167.555L295.621 166.415L286.701 160.244L275.902 161.384L284.822 167.555ZM261.414 159.439L250.078 155.214L238.743 159.439L250.078 163.665L261.414 159.439ZM132.633 302.574C132.633 366.696 185.42 419.148 250.078 419.148C314.67 419.148 367.524 366.696 367.524 302.574C367.524 238.251 314.737 186 250.078 186C185.487 185.933 132.633 238.251 132.633 302.574ZM380.268 302.574C380.268 373.739 321.847 431.825 250.078 431.825C178.31 431.825 119.889 373.672 119.889 302.574C119.889 231.275 178.31 173.122 250.078 173.122C321.847 173.122 380.268 231.275 380.268 302.574ZM232.975 247.641L249.944 264.879L265.841 248.178C260.274 246.702 254.975 245.629 249.139 245.428C243.706 245.159 238.206 246.434 232.975 247.641ZM277.713 235.501L302.664 209.879C334.926 228.257 356.658 262.732 356.658 302.105C356.658 327.794 347.536 351.27 332.109 369.648L320.439 358.044C333.518 342.148 342.103 326.318 342.103 301.099C342.103 274.068 327.884 243.952 305.146 228.324L290.188 243.549C297.902 249.251 303.938 255.019 309.103 263.135L297.634 272.928C293.073 265.013 287.237 259.446 279.725 254.348L249.877 285.605L218.956 253.879C202.926 265.013 193.468 280.909 193.066 300.696C192.529 326.922 209.633 345.233 233.645 353.148V300.361H270.268V311.227H247.798V325.312H269.932V337.721H247.798V355.495C264.231 356.367 281.67 346.91 292.335 335.172L303.335 346.172C289.316 362.337 269.06 370.52 247.865 370.654V386.886H233.712V368.91C201.316 360.928 177.907 332.757 178.377 299.086C178.645 276.013 191.054 257.098 209.029 243.617L193.871 227.988C170.328 247.104 157.718 270.446 156.645 300.763C155.84 327.593 169.791 349.123 178.578 358.178L168.249 368.843C152.419 350.532 143.163 327.995 143.163 302.172C143.163 263.068 164.895 228.592 196.889 210.281L222.176 236.44C231.097 233.019 240.42 231.208 250.078 231.208C259.67 231.342 267.92 233.086 276.841 236.44L277.713 235.501Z" fill="#FCBF00"/>
<path d="M384.16 302.574C384.16 375.819 323.995 435.715 250.08 435.715C176.165 435.715 116 375.819 116 302.574C116 229.196 176.165 169.299 250.08 169.299C323.995 169.299 384.16 229.196 384.16 302.574ZM380.27 302.574C380.27 231.275 321.849 173.123 250.08 173.123C178.311 173.123 119.89 231.275 119.89 302.574C119.89 373.739 178.311 431.825 250.08 431.825C321.849 431.825 380.27 373.672 380.27 302.574ZM136.525 302.574C136.525 364.617 187.635 415.325 250.08 415.325C312.525 415.325 363.635 364.617 363.635 302.574C363.635 240.397 312.525 189.824 250.08 189.824C187.635 189.824 136.525 240.397 136.525 302.574ZM132.634 302.574C132.634 238.251 185.421 186.001 250.08 186.001C314.672 186.001 367.526 238.318 367.526 302.574C367.526 366.697 314.739 419.148 250.08 419.148C185.488 419.148 132.634 366.697 132.634 302.574ZM263.763 276.818L327.282 341.88C334.526 330.008 338.148 317.867 338.148 301.166C338.148 271.922 321.647 245.294 305.617 233.489L296.025 243.214C303.672 249.251 309.105 255.757 314.068 264.007L296.428 279.166C292.202 270.983 287.775 265.013 280.196 259.58L263.763 276.818ZM344.251 359.252C332.782 378.569 315.41 393.794 294.684 402.916L284.422 392.453L265.239 372.935C260.879 373.874 256.318 374.477 251.757 374.611V390.91H229.824V372.13C196.824 363.276 174.086 332.623 174.488 299.288C174.555 293.721 175.293 288.355 176.702 283.123L165.836 272.19C162.616 281.178 160.805 290.904 160.403 301.166C159.799 321.825 168.854 344.16 183.945 358.38L168.116 374.41C149.47 353.617 139.275 330.209 139.275 302.038C139.275 260.922 161.945 225.105 197.629 205.251L223.184 231.745C231.635 228.727 241.226 227.184 250.08 227.184C259.604 227.318 268.257 228.995 275.903 231.812L301.928 204.982C337.879 224.769 360.55 260.654 360.55 302.038C360.55 323.166 354.916 342.215 344.251 359.252ZM229.757 337.117L196.958 303.916C197.763 322.562 209.165 340.069 229.757 347.916V337.117ZM277.714 235.501L276.842 236.373C267.922 233.019 259.672 231.275 250.08 231.141C240.488 231.141 231.165 232.952 222.177 236.373L196.891 210.214C164.897 228.592 143.165 263.068 143.165 302.172C143.165 327.995 152.421 350.532 168.25 368.843L178.445 358.514C169.659 349.459 155.708 327.928 156.512 301.099C157.586 270.715 170.195 247.44 193.738 228.324L208.897 243.952C190.921 257.434 178.58 276.282 178.244 299.422C177.842 333.093 201.183 361.197 233.58 369.246V387.221H247.732V370.989C268.995 370.855 289.184 362.672 303.202 346.508L292.202 335.508C281.538 347.245 264.098 356.636 247.665 355.831V338.056H269.8V325.648H247.665V311.562H270.135V300.696H233.513V353.483C209.501 345.569 192.397 327.258 192.933 301.032C193.336 281.245 202.793 265.349 218.824 254.214L249.745 285.94L279.592 254.684C287.105 259.782 292.94 265.349 297.501 273.263L308.971 263.471C303.806 255.355 297.769 249.586 290.056 243.885L305.013 228.659C327.751 244.221 341.971 274.404 341.971 301.434C341.971 326.654 333.452 342.483 320.306 358.38L331.977 369.983C347.404 351.605 356.526 328.129 356.526 302.44C356.526 263.068 334.794 228.592 302.532 210.214L277.714 235.501ZM232.976 247.641C238.275 246.434 243.708 245.16 249.141 245.428C254.976 245.629 260.275 246.635 265.842 248.178L249.946 264.879L232.976 247.641ZM240.69 249.922L249.879 259.245L258.464 250.257C255.379 249.653 252.226 249.318 249.007 249.251C246.928 249.184 243.842 249.452 240.69 249.922ZM308.971 171.58L309.775 174.665L310.111 175.805L310.714 175.47L313.666 173.86L312.928 170.775L312.794 170.104L308.971 171.58ZM314.806 165.946C317.086 166.751 319.032 164.47 318.093 162.391L317.489 161.183C321.513 162.391 324.465 162.391 327.952 159.708C330.769 161.586 333.318 161.183 335.867 159.238C338.349 157.293 339.891 153.537 336.94 151.055C339.221 148.104 339.288 144.885 335.867 142.738C336.471 141.732 336.873 140.927 336.873 139.72C336.873 136.366 334.324 135.092 331.574 134.488C333.251 133.214 334.593 132.074 334.593 129.726C334.593 126.305 331.91 124.897 328.959 124.561C329.763 123.354 330.367 122.482 330.367 120.939C330.367 119.587 329.83 118.291 328.874 117.335C327.918 116.379 326.621 115.842 325.269 115.842C324.397 115.842 323.526 116.11 322.721 116.378C323.257 115.238 323.727 114.433 323.727 113.092C323.727 111.74 323.19 110.443 322.234 109.487C321.278 108.531 319.981 107.994 318.629 107.994C317.221 107.994 316.416 108.464 315.275 109.067C315.343 108.464 315.544 107.726 315.544 107.122C315.544 105.77 315.007 104.474 314.051 103.518C313.095 102.562 311.798 102.025 310.446 102.025C308.904 102.025 307.964 102.628 306.757 103.433C306.153 100.817 304.678 98.6038 301.592 98.6038C299.312 98.6038 298.038 99.8112 296.897 101.555C295.69 100.214 294.55 99.3417 292.605 99.3417C291.8 99.3417 291.062 99.5429 290.324 99.7441C290.727 98.738 291.062 97.9331 291.062 96.8599C291.062 95.508 290.525 94.2114 289.569 93.2554C288.613 92.2994 287.316 91.7623 285.964 91.7623C284.355 91.7623 283.416 92.4331 282.141 93.238C282.275 92.6343 282.409 91.8294 282.409 91.1587C282.409 89.8067 281.872 88.5101 280.916 87.5541C279.96 86.5982 278.664 86.0611 277.312 86.0611C275.702 86.0611 274.763 86.7318 273.489 87.6038C272.885 84.9208 271.409 82.7074 268.324 82.7074C266.446 82.7074 265.373 83.5794 264.098 84.7867C263.092 82.7074 261.684 81.0976 259.135 81.0976C258.397 81.0976 257.793 81.2989 257.123 81.5001C255.513 79.6891 254.171 78.9513 251.891 78.3476V72.9818H256.184V70.0305H251.891V66.2073H248.47V70.0305H244.043V73.183H248.336V78.5489C246.123 79.1525 244.714 79.9574 243.171 81.7013C242.535 81.433 241.85 81.2962 241.159 81.2989C238.543 81.2989 237.202 82.8416 236.196 84.9879C234.921 83.7806 233.848 82.9086 231.97 82.9086C228.818 82.9086 227.409 85.1221 226.805 87.805C225.531 86.866 224.592 86.1952 222.915 86.1952C221.563 86.1952 220.267 86.7323 219.311 87.6883C218.355 88.6443 217.818 89.9409 217.818 91.2928C217.818 91.9636 218.019 92.7684 218.153 93.3721C216.879 92.5672 215.94 91.8965 214.33 91.8965C212.978 91.8965 211.681 92.4336 210.725 93.3895C209.769 94.3455 209.232 95.6421 209.232 96.9941C209.232 98.0673 209.635 98.8721 209.97 99.8782C209.232 99.677 208.494 99.4758 207.69 99.4758C205.744 99.4758 204.604 100.415 203.397 101.689C202.257 99.9453 200.982 98.738 198.702 98.738C195.616 98.738 194.141 100.951 193.537 103.567C192.33 102.762 191.391 102.159 189.848 102.159C188.496 102.159 187.199 102.696 186.243 103.652C185.287 104.608 184.75 105.904 184.75 107.256C184.75 107.86 184.885 108.598 185.019 109.201C183.878 108.598 183.006 108.128 181.665 108.128C180.313 108.128 179.016 108.665 178.06 109.621C177.104 110.577 176.567 111.874 176.567 113.226C176.567 114.5 177.037 115.372 177.574 116.512C176.702 116.311 175.897 115.976 175.025 115.976C173.673 115.976 172.376 116.513 171.42 117.469C170.464 118.425 169.927 119.722 169.927 121.073C169.927 122.616 170.531 123.488 171.336 124.695C168.25 124.897 165.567 126.372 165.567 129.793C165.567 132.141 166.842 133.281 168.519 134.555C165.701 135.159 163.22 136.433 163.22 139.787C163.22 140.994 163.622 141.799 164.226 142.805C160.872 144.885 160.872 148.104 163.153 151.122C158.256 155.147 165.702 164.135 172.141 159.775C175.628 162.458 178.58 162.458 182.604 161.251C182.067 162.391 181.397 163.397 182 164.671C182.604 166.013 184.08 166.549 185.354 165.946C205.007 156.757 226.805 151.659 249.946 151.659C273.086 151.659 295.153 156.757 314.806 165.946ZM191.189 171.58L188.439 170.574L187.366 170.238L187.232 170.909L186.427 173.927L189.378 175.537L190.049 175.94L190.317 174.732L191.189 171.58ZM189.446 176.409L185.555 174.263L186.494 170.373C185.019 170.171 184.281 168.427 184.952 167.287C184.139 167.409 183.309 167.266 182.584 166.88C181.859 166.493 181.278 165.883 180.927 165.141C180.592 164.47 180.525 163.732 180.592 162.994C177.641 163.598 174.555 162.927 172.073 161.183C165.165 165.275 157.049 155.482 161.476 150.921C159.531 147.97 160 144.348 162.549 142.403C162.183 141.627 161.98 140.785 161.952 139.928C161.923 139.071 162.071 138.217 162.385 137.419C162.699 136.621 163.173 135.896 163.778 135.288C164.383 134.68 165.106 134.203 165.903 133.885C164.857 132.753 164.282 131.266 164.293 129.726C164.293 126.775 166.372 124.293 169.122 123.622C168.764 122.797 168.582 121.906 168.586 121.006C168.586 117.519 171.403 114.769 174.891 114.769L175.494 114.836C175.258 113.91 175.237 112.942 175.434 112.007C175.631 111.072 176.041 110.194 176.63 109.443C177.22 108.691 177.975 108.084 178.836 107.67C179.697 107.256 180.642 107.046 181.598 107.055C182.269 107.055 182.939 107.189 183.476 107.323C183.476 103.903 186.293 101.086 189.781 101.086C190.854 101.086 191.793 101.354 192.665 101.823C193.047 100.78 193.696 99.855 194.549 99.1423C195.402 98.4296 196.427 97.9542 197.522 97.7638C198.617 97.5734 199.742 97.6748 200.785 98.0577C201.829 98.4407 202.752 99.0918 203.464 99.9453C204.537 99.0063 206.013 98.4026 207.622 98.4026H208.025C207.823 97.4848 207.831 96.5332 208.048 95.6189C208.265 94.7045 208.686 93.8511 209.279 93.1223C209.873 92.3935 210.623 91.8082 211.474 91.4101C212.326 91.012 213.256 90.8114 214.196 90.8233C215.001 90.8233 215.805 90.9575 216.543 91.2928C216.568 90.2047 216.874 89.1414 217.431 88.2062C217.987 87.2711 218.777 86.4959 219.722 85.9559C220.667 85.4158 221.735 85.1294 222.824 85.1243C223.912 85.1193 224.984 85.3957 225.934 85.9269C226.805 83.5123 229.153 81.8355 231.836 81.8355C233.312 81.8355 234.653 82.305 235.726 83.1769C236.867 81.433 238.812 80.2928 241.092 80.2928C241.696 80.2928 242.232 80.3598 242.769 80.494C243.775 79.4208 245.049 78.5489 246.458 78.0123L247.129 77.811V74.3903H242.836V68.8232H247.129V65H252.964V68.8232H257.257V74.3903H252.964V77.6769L253.635 77.8781C255.043 78.4147 256.318 79.2867 257.324 80.3598C257.861 80.2257 258.397 80.1586 259.001 80.1586C261.281 80.1586 263.226 81.2989 264.3 83.0428C265.373 82.2379 266.714 81.7013 268.19 81.7013C270.94 81.7013 273.22 83.3781 274.092 85.7928C275.031 85.3233 276.037 84.9879 277.178 84.9879C280.666 84.9879 283.416 87.7379 283.483 91.1587C284.433 90.7723 285.463 90.6242 286.483 90.7275C287.504 90.8307 288.483 91.1821 289.337 91.7511C290.19 92.32 290.891 93.0891 291.379 93.9913C291.867 94.8935 292.126 95.9014 292.135 96.927C292.135 97.3965 292.068 97.799 292.001 98.2685H292.47C294.08 98.2685 295.489 98.8721 296.629 99.8112C297.769 98.4026 299.513 97.5307 301.525 97.5307C304.275 97.5307 306.556 99.2746 307.428 101.689C308.379 101.179 309.445 100.924 310.524 100.949C311.603 100.974 312.657 101.278 313.583 101.832C314.509 102.387 315.275 103.172 315.807 104.11C316.339 105.049 316.618 106.11 316.617 107.189C317.221 106.988 317.891 106.921 318.562 106.921C322.05 106.921 324.867 109.738 324.867 113.159C324.867 113.695 324.8 114.232 324.666 114.701H325.202C328.69 114.701 331.507 117.519 331.507 120.939C331.507 121.878 331.306 122.817 330.904 123.622C333.654 124.293 335.733 126.775 335.733 129.726C335.733 131.336 335.129 132.811 334.123 133.885C334.921 134.2 335.646 134.676 336.253 135.284C336.86 135.891 337.335 136.617 337.649 137.416C337.964 138.214 338.111 139.069 338.081 139.927C338.051 140.785 337.846 141.628 337.477 142.403C340.026 144.348 340.495 147.97 338.55 150.921C341.367 153.805 338.952 158.366 336.605 160.177C334.324 161.988 331.105 163.062 328.019 161.183C325.605 162.927 322.519 163.598 319.501 162.994C319.836 165.476 317.623 167.69 315.141 167.287C315.812 168.427 315.074 170.171 313.666 170.373L314.605 174.263L310.714 176.409C311.251 177.013 311.385 177.952 310.983 178.69C310.873 178.958 310.711 179.201 310.505 179.405C310.299 179.609 310.054 179.769 309.784 179.876C309.515 179.982 309.226 180.033 308.937 180.025C308.647 180.017 308.362 179.951 308.099 179.83C289.936 171.345 270.126 166.971 250.08 167.019C229.287 167.019 209.702 171.58 192.061 179.83C190.921 180.366 189.714 179.763 189.177 178.69C188.989 178.326 188.913 177.915 188.961 177.508C189.009 177.102 189.178 176.719 189.446 176.409ZM192.128 171.043L190.921 175.805L191.324 176.61C191.122 176.745 190.854 176.812 190.653 177.013C190.317 177.348 190.049 177.684 190.317 178.22C190.586 178.757 191.122 178.958 191.592 178.757C209.366 170.44 229.153 165.812 250.147 165.812C271.141 165.812 290.928 170.44 308.702 178.757C309.641 179.159 311.117 177.616 308.904 176.61L309.306 175.805L308.099 171.043L312.257 169.501L312.593 168.83C312.928 168.964 313.196 169.031 313.465 169.098C314.605 169.232 314.538 167.958 313.934 167.69C294.55 158.635 273.019 153.604 250.214 153.604C227.409 153.604 205.811 158.635 186.494 167.69C185.958 167.958 185.891 169.232 186.964 169.098C187.165 169.098 187.5 169.031 187.836 168.83L188.171 169.501L192.128 171.043ZM287.909 115.573C282.946 103.165 271.275 94.177 255.647 95.0489C255.647 96.1221 255.312 97.1953 254.775 98.0002V102.226C255.342 103.106 255.643 104.13 255.643 105.177C255.643 106.224 255.342 107.248 254.775 108.128V110.811C265.507 109.403 278.05 110.476 287.909 115.573ZM254.775 112.421C255.517 113.561 255.804 114.937 255.581 116.278C255.357 117.619 254.639 118.828 253.568 119.665C255.446 120.336 256.922 121.677 257.525 124.226C261.348 125.165 262.354 127.982 262.354 131.067C262.354 134.756 260.879 137.909 255.446 138.177C255.5 138.5 255.797 139.015 256.055 139.385C256.511 140.041 257.117 140.58 257.823 140.955C258.53 141.331 259.315 141.532 260.114 141.544C260.914 141.555 261.705 141.375 262.421 141.02C263.137 140.665 263.759 140.143 264.233 139.5C264.51 139.125 264.5 139 264.97 138.311C264.903 137.775 264.836 137.238 264.836 136.702C264.836 133.214 267.653 130.397 271.208 130.397C274.696 130.397 277.513 133.214 277.513 136.702C277.513 137.775 277.245 138.781 276.775 139.72C276.909 141.799 278.385 143.677 280.531 144.281C282.678 144.818 284.891 143.878 286.031 142.067C280.867 140.458 280.196 137.037 281.135 133.482C281.94 130.464 283.617 127.982 287.574 128.049C288.312 126.641 289.251 125.769 290.391 125.232C289.922 122.214 289.251 119.397 288.312 116.714C278.251 111.147 265.037 110.14 254.775 111.683V112.421ZM245.653 95.116C245.653 96.1221 245.989 96.927 246.525 97.7319V102.695C245.989 103.5 245.653 104.305 245.653 105.311C245.653 106.317 245.989 107.122 246.525 107.927V112.891C245.989 113.695 245.653 114.5 245.653 115.506C245.653 118.391 247.8 119.33 250.013 120.269C252.226 119.262 254.373 118.391 254.373 115.506C254.376 114.625 254.119 113.762 253.635 113.025L253.501 107.927C254.037 107.122 254.373 106.317 254.373 105.311C254.373 104.305 254.037 103.5 253.501 102.695V97.6648C254.037 96.8599 254.373 96.055 254.373 95.0489C254.373 94.6465 254.306 94.3111 254.239 93.9087C274.763 92.4331 289.452 106.25 291.464 125.836C289.653 126.574 288.983 127.378 288.111 129.122C284.556 128.921 282.946 130.33 282.141 133.616C280.934 138.244 283.147 139.988 287.574 141.128C286.233 144.147 283.55 146.159 280.062 145.22C278.73 144.883 277.548 144.114 276.698 143.034C275.849 141.954 275.381 140.624 275.367 139.25C275.836 138.378 276.172 137.574 276.172 136.567C276.172 135.898 276.04 135.235 275.784 134.617C275.527 133.998 275.152 133.436 274.679 132.963C274.205 132.49 273.643 132.114 273.025 131.858C272.406 131.602 271.743 131.47 271.074 131.47C268.257 131.47 265.909 133.75 265.909 136.567C265.909 137.104 266.044 137.641 266.178 138.177C265.373 140.86 263.092 142.738 260.208 142.738C256.586 142.738 254.507 140.122 253.97 136.903C258.531 136.903 261.147 135.696 261.147 130.933C261.147 127.58 259.94 125.769 256.452 125.098C255.647 120.872 253.501 120.604 249.946 120.067C246.391 120.671 244.245 120.939 243.44 125.098C239.952 125.769 238.745 127.58 238.745 130.933C238.745 135.696 241.36 136.836 245.921 136.903C245.385 140.122 243.306 142.738 239.684 142.738C236.799 142.738 234.519 140.86 233.647 138.177C233.781 137.641 233.915 137.104 233.915 136.567C233.915 133.75 231.635 131.47 228.751 131.47C225.934 131.47 223.586 133.75 223.586 136.567C223.586 137.574 223.854 138.446 224.391 139.25C224.324 142.067 222.58 144.549 219.763 145.22C216.275 146.092 213.592 144.08 212.251 141.128C216.677 139.988 218.891 138.177 217.683 133.616C216.812 130.33 215.202 128.921 211.714 129.122C210.909 127.311 210.238 126.506 208.36 125.836C210.372 106.25 225.062 92.366 245.586 93.9087C245.72 94.3111 245.653 94.7136 245.653 95.116ZM211.781 116.714C210.842 119.397 210.171 122.214 209.836 125.165C210.976 125.702 211.915 126.641 212.653 127.982C216.61 127.915 218.287 130.397 219.092 133.415C220.031 136.97 219.36 140.391 214.196 142C214.5 142.5 214.806 142.845 215.205 143.172C215.81 143.668 216.523 144.015 217.287 144.185C218.05 144.356 218.843 144.344 219.602 144.152C220.36 143.959 221.063 143.592 221.653 143.078C222.243 142.565 222.705 141.92 223 141.195C223.202 140.699 223.5 140 223.452 139.653C222.957 138.724 222.703 137.687 222.714 136.635C222.714 133.147 225.531 130.33 229.019 130.33C229.987 130.327 230.943 130.547 231.814 130.971C232.685 131.395 233.447 132.012 234.042 132.776C234.638 133.54 235.051 134.429 235.25 135.377C235.448 136.325 235.428 137.306 235.19 138.244C235.542 139.234 236.195 140.089 237.058 140.689C237.921 141.288 238.949 141.603 240 141.588C241.05 141.573 242.07 141.23 242.915 140.606C243.761 139.982 244.39 139.11 244.714 138.11C239.281 137.842 237.806 134.689 237.806 131C237.806 127.915 238.879 125.098 242.635 124.159C243.239 121.677 244.714 120.269 246.592 119.598C245.521 118.76 244.803 117.552 244.579 116.211C244.356 114.87 244.643 113.493 245.385 112.354V111.683C235.123 110.208 221.909 111.147 211.781 116.714ZM244.446 95.116C228.818 94.2441 217.214 103.165 212.251 115.641C222.043 110.61 234.653 109.403 245.318 110.945V108.262C244.751 107.382 244.45 106.358 244.45 105.311C244.45 104.265 244.751 103.24 245.318 102.36V98.0673C244.759 97.1835 244.457 96.1616 244.446 95.116ZM307.964 152.129L308.3 151.86C308.971 152.397 309.574 152.732 310.446 153L311.519 153.202C311.922 155.415 312.727 157.226 314.269 158.836L313.599 159.775C309.91 158.165 306.086 156.622 302.196 155.281L302.33 154.141C304.41 153.94 306.355 153.269 307.964 152.129ZM308.3 153.336C307.227 154.074 306.019 154.61 304.812 154.946C307.227 155.818 309.641 156.757 312.056 157.763C311.385 156.69 310.849 155.482 310.58 154.208L310.178 154.141C309.507 153.94 308.903 153.671 308.3 153.336ZM249.476 138.11H250.684C251.153 141.397 253.232 144.08 256.117 145.421L255.848 146.561C253.97 146.494 252.025 146.427 250.08 146.427C248.135 146.427 246.257 146.494 244.312 146.561L244.043 145.421C246.928 144.08 249.007 141.33 249.476 138.11ZM250.08 140.525C249.342 142.403 248.135 144.08 246.525 145.287C247.665 145.287 248.873 145.22 250.08 145.22C251.287 145.22 252.428 145.22 253.635 145.287C252.025 144.08 250.818 142.47 250.08 140.525ZM186.494 159.775L185.824 158.836C187.366 157.159 188.171 155.415 188.574 153.202C190.049 153 190.586 152.866 191.86 151.927C193.671 153.269 195.482 154.007 197.763 154.141L197.897 155.281C194.007 156.622 190.183 158.098 186.494 159.775ZM188.104 157.763C190.452 156.757 192.866 155.818 195.348 154.946C194.074 154.61 192.866 154.074 191.86 153.336C191.324 153.671 190.653 154.007 189.982 154.141L189.58 154.208C189.244 155.482 188.775 156.69 188.104 157.763ZM216.476 148.842V149.982C212.787 150.787 209.098 151.726 205.476 152.732L204.94 151.726C207.354 149.714 208.629 146.561 208.293 143.342L209.433 143.074C210.641 146.092 213.324 148.238 216.476 148.842ZM213.994 149.379C212.183 148.574 210.574 147.299 209.433 145.689C209.232 147.702 208.427 149.58 207.22 151.122C209.501 150.452 211.781 149.848 213.994 149.379ZM224.257 148.574L223.854 147.5C226.068 146.092 227.409 144.214 228.281 141.799H229.019C229.69 141.799 230.293 141.665 230.897 141.464C232.373 143.61 234.184 145.086 236.665 145.891L236.531 147.031C232.373 147.366 228.281 147.903 224.257 148.574ZM229.086 142.939C228.482 144.482 227.543 145.824 226.336 146.964C228.885 146.561 231.501 146.226 234.117 146.025C232.641 145.22 231.366 144.08 230.427 142.805C229.958 142.872 229.556 142.939 229.086 142.939ZM263.629 147.031L263.495 145.891C265.976 145.086 267.787 143.61 269.263 141.464C269.934 141.665 270.47 141.799 271.141 141.799H271.879C272.751 144.214 274.092 146.092 276.306 147.5L275.903 148.574C271.879 147.903 267.72 147.366 263.629 147.031ZM271.007 142.939C270.605 142.939 270.135 142.872 269.733 142.805C268.726 144.147 267.452 145.22 266.044 146.025C268.659 146.293 271.208 146.628 273.824 146.964C272.684 145.891 271.812 144.616 271.141 143.208L271.007 142.939ZM295.221 151.793L294.684 152.799C291.062 151.726 287.44 150.787 283.684 150.049V148.909C286.769 148.238 289.452 146.159 290.727 143.141L291.867 143.409C291.531 146.628 292.806 149.781 295.221 151.793ZM292.873 151.055C291.666 149.513 290.928 147.635 290.66 145.622C289.519 147.299 287.909 148.574 286.099 149.311C288.379 149.848 290.659 150.452 292.873 151.055ZM294.617 130.464C293.319 130.136 291.944 130.332 290.789 131.01C289.635 131.688 288.793 132.793 288.446 134.086C287.775 136.769 289.385 139.519 292.068 140.189C294.818 140.86 297.568 139.25 298.239 136.567C298.565 135.278 298.367 133.912 297.688 132.768C297.009 131.624 295.905 130.796 294.617 130.464ZM294.818 129.659C297.971 130.464 299.849 133.616 299.044 136.769C298.239 139.921 295.019 141.799 291.867 140.994C291.12 140.809 290.418 140.477 289.8 140.018C289.183 139.56 288.663 138.983 288.27 138.322C287.877 137.66 287.619 136.928 287.511 136.166C287.403 135.404 287.447 134.629 287.641 133.885C288.446 130.799 291.666 128.854 294.818 129.659ZM299.178 120.604C297.635 120.604 296.361 121.878 296.361 123.421C296.361 124.964 297.635 126.238 299.178 126.238C300.721 126.238 301.995 124.964 301.995 123.421C301.995 121.878 300.788 120.604 299.178 120.604ZM299.178 119.799C301.19 119.799 302.8 121.409 302.8 123.421C302.8 125.433 301.19 127.043 299.178 127.043C297.166 127.043 295.556 125.433 295.556 123.421C295.556 121.409 297.233 119.799 299.178 119.799ZM296.83 110.543C295.288 110.543 294.013 111.817 294.013 113.36C294.013 114.903 295.288 116.177 296.83 116.177C298.373 116.177 299.647 114.903 299.647 113.36C299.657 112.988 299.59 112.617 299.452 112.271C299.313 111.925 299.106 111.611 298.843 111.348C298.579 111.084 298.265 110.877 297.919 110.739C297.573 110.6 297.203 110.534 296.83 110.543ZM296.83 109.738C298.842 109.738 300.452 111.348 300.452 113.36C300.452 115.372 298.842 116.982 296.83 116.982C294.818 116.982 293.208 115.372 293.208 113.36C293.208 111.348 294.885 109.738 296.83 109.738ZM331.776 136.97C330.233 136.97 328.959 138.244 328.959 139.787C328.959 141.33 330.233 142.604 331.776 142.604C333.318 142.604 334.593 141.33 334.593 139.787C334.593 138.244 333.318 136.97 331.776 136.97ZM331.776 136.165C333.788 136.165 335.398 137.775 335.398 139.787C335.398 141.799 333.788 143.409 331.776 143.409C329.763 143.409 328.154 141.799 328.154 139.787C328.154 137.775 329.763 136.165 331.776 136.165ZM329.428 126.976C327.885 126.976 326.611 128.25 326.611 129.793C326.611 131.336 327.885 132.61 329.428 132.61C330.971 132.61 332.245 131.336 332.245 129.793C332.245 128.25 330.971 126.976 329.428 126.976ZM329.428 126.171C331.44 126.171 333.05 127.781 333.05 129.793C333.05 131.805 331.44 133.415 329.428 133.415C327.416 133.415 325.806 131.805 325.806 129.793C325.806 127.781 327.416 126.171 329.428 126.171ZM325.202 118.189C323.66 118.189 322.385 119.464 322.385 121.006C322.385 122.549 323.66 123.756 325.202 123.756C326.745 123.756 328.019 122.482 328.019 120.939C328.019 119.397 326.745 118.189 325.202 118.189ZM325.202 117.384C327.215 117.384 328.824 118.994 328.824 121.006C328.824 123.019 327.215 124.628 325.202 124.628C323.19 124.628 321.58 123.019 321.58 121.006C321.58 118.994 323.19 117.384 325.202 117.384ZM318.562 110.409C317.019 110.409 315.745 111.683 315.745 113.226C315.745 114.769 317.019 116.043 318.562 116.043C320.105 116.043 321.379 114.769 321.379 113.226C321.379 111.683 320.105 110.409 318.562 110.409ZM318.562 109.604C320.574 109.604 322.184 111.214 322.184 113.226C322.184 115.238 320.574 116.848 318.562 116.848C316.55 116.848 314.94 115.238 314.94 113.226C314.873 111.214 316.55 109.604 318.562 109.604ZM310.312 104.439C308.769 104.439 307.495 105.714 307.495 107.256C307.495 108.799 308.769 110.073 310.312 110.073C311.855 110.073 313.129 108.799 313.129 107.256C313.129 105.714 311.855 104.439 310.312 104.439ZM310.312 103.634C312.324 103.634 313.934 105.244 313.934 107.256C313.934 109.269 312.324 110.878 310.312 110.878C308.3 110.878 306.69 109.269 306.69 107.256C306.69 105.244 308.3 103.634 310.312 103.634ZM301.458 101.018C299.916 101.018 298.641 102.293 298.641 103.836C298.641 105.378 299.916 106.653 301.458 106.653C303.001 106.653 304.275 105.378 304.275 103.836C304.275 102.293 303.001 101.018 301.458 101.018ZM301.458 100.214C303.471 100.214 305.08 101.823 305.08 103.836C305.08 105.848 303.471 107.458 301.458 107.458C299.446 107.458 297.836 105.848 297.836 103.836C297.836 101.823 299.446 100.214 301.458 100.214ZM292.47 101.756C290.928 101.756 289.653 103.031 289.653 104.573C289.653 106.116 290.928 107.39 292.47 107.39C294.013 107.39 295.288 106.116 295.288 104.573C295.271 103.832 294.968 103.125 294.444 102.6C293.919 102.076 293.212 101.773 292.47 101.756ZM292.47 100.951C294.483 100.951 296.092 102.561 296.092 104.573C296.092 106.586 294.483 108.195 292.47 108.195C290.458 108.195 288.849 106.586 288.849 104.573C288.781 102.561 290.458 100.951 292.47 100.951ZM285.83 94.177C284.288 94.177 283.013 95.4514 283.013 96.9941C283.013 98.5368 284.288 99.8112 285.83 99.8112C287.373 99.8112 288.647 98.5368 288.647 96.9941C288.647 95.4514 287.373 94.177 285.83 94.177ZM285.83 93.3721C287.842 93.3721 289.452 94.9819 289.452 96.9941C289.452 99.0063 287.842 100.616 285.83 100.616C283.818 100.616 282.208 99.0063 282.208 96.9941C282.208 95.0489 283.818 93.3721 285.83 93.3721ZM277.178 88.4757C275.635 88.4757 274.361 89.7501 274.361 91.2928C274.361 92.8355 275.635 94.1099 277.178 94.1099C278.72 94.1099 279.995 92.8355 279.995 91.2928C279.995 89.7501 278.72 88.4757 277.178 88.4757ZM277.178 87.6709C279.19 87.6709 280.8 89.2806 280.8 91.2928C280.8 93.305 279.19 94.9148 277.178 94.9148C275.166 94.9148 273.556 93.305 273.556 91.2928C273.556 89.2806 275.166 87.6709 277.178 87.6709ZM268.19 85.1891C266.647 85.1891 265.373 86.4635 265.373 88.0062C265.373 89.5489 266.647 90.8233 268.19 90.8233C269.733 90.8233 271.007 89.5489 271.007 88.0062C271.007 86.4635 269.733 85.1891 268.19 85.1891ZM268.19 84.3843C270.202 84.3843 271.812 85.994 271.812 88.0062C271.812 90.0184 270.202 91.5611 268.19 91.5611C266.178 91.5611 264.568 89.9514 264.568 87.9392C264.568 85.9269 266.178 84.3843 268.19 84.3843ZM259.001 83.5794C257.458 83.5794 256.184 84.8538 256.184 86.3965C256.184 87.9392 257.458 89.2135 259.001 89.2135C260.543 89.2135 261.818 87.9392 261.818 86.3965C261.818 84.8538 260.543 83.5794 259.001 83.5794ZM259.001 82.7745C261.013 82.7745 262.623 84.3843 262.623 86.3965C262.623 88.4087 261.013 90.0184 259.001 90.0184C256.989 90.0184 255.379 88.4087 255.379 86.3965C255.379 84.3843 256.989 82.7745 259.001 82.7745ZM171.872 157.226C174.354 155.885 175.226 152.799 173.884 150.385C172.543 147.97 169.458 147.031 166.976 148.372C164.561 149.714 163.622 152.732 164.964 155.214C166.372 157.696 169.458 158.568 171.872 157.226ZM172.275 157.964C170.912 158.711 169.31 158.891 167.815 158.464C166.321 158.037 165.055 157.038 164.293 155.683C163.922 155.011 163.688 154.271 163.605 153.508C163.522 152.744 163.592 151.971 163.811 151.235C164.029 150.498 164.392 149.813 164.877 149.218C165.363 148.623 165.963 148.13 166.641 147.769C168.003 147.022 169.606 146.842 171.1 147.269C172.594 147.696 173.86 148.695 174.622 150.049C176.165 152.866 175.159 156.421 172.275 157.964ZM208.025 140.189C210.708 139.519 212.385 136.769 211.647 134.086C211.3 132.793 210.458 131.688 209.304 131.01C208.149 130.332 206.774 130.136 205.476 130.464C202.793 131.135 201.116 133.885 201.854 136.567C202.592 139.317 205.342 140.927 208.025 140.189ZM208.226 140.994C207.477 141.188 206.698 141.233 205.932 141.125C205.166 141.018 204.429 140.76 203.763 140.368C203.096 139.976 202.513 139.456 202.048 138.838C201.582 138.221 201.243 137.517 201.049 136.769C200.244 133.616 202.122 130.464 205.275 129.659C208.427 128.854 211.647 130.732 212.452 133.885C213.257 137.037 211.379 140.189 208.226 140.994ZM250.08 134.958C252.897 134.958 255.178 132.677 255.178 129.927C255.178 127.177 252.897 124.897 250.08 124.897C247.263 124.897 244.982 127.177 244.982 129.927C244.982 132.677 247.263 134.958 250.08 134.958ZM250.08 135.763C248.526 135.763 247.035 135.15 245.93 134.058C244.825 132.965 244.195 131.481 244.178 129.927C244.178 126.708 246.793 124.092 250.08 124.092C253.3 124.092 255.982 126.708 255.982 129.927C255.915 133.147 253.3 135.763 250.08 135.763ZM200.915 126.171C202.458 126.171 203.732 124.897 203.732 123.354C203.732 121.811 202.458 120.537 200.915 120.537C199.372 120.537 198.098 121.811 198.098 123.354C198.098 124.964 199.372 126.171 200.915 126.171ZM200.915 126.976C198.903 126.976 197.293 125.366 197.293 123.354C197.293 121.342 198.903 119.732 200.915 119.732C202.927 119.732 204.537 121.342 204.537 123.354C204.537 125.366 202.927 126.976 200.915 126.976ZM203.263 116.177C204.805 116.177 206.08 114.903 206.08 113.36C206.08 111.817 204.805 110.543 203.263 110.543C201.72 110.543 200.446 111.817 200.446 113.36C200.446 114.903 201.72 116.177 203.263 116.177ZM203.263 116.982C201.25 116.982 199.641 115.372 199.641 113.36C199.641 111.348 201.25 109.738 203.263 109.738C205.275 109.738 206.885 111.348 206.885 113.36C206.885 115.372 205.275 116.982 203.263 116.982ZM168.384 142.604C169.927 142.604 171.202 141.33 171.202 139.787C171.202 138.244 169.927 136.97 168.384 136.97C166.842 136.97 165.567 138.244 165.567 139.787C165.567 141.33 166.842 142.604 168.384 142.604ZM168.384 143.342C166.372 143.342 164.762 141.732 164.762 139.72C164.762 137.708 166.372 136.098 168.384 136.098C170.397 136.098 172.006 137.708 172.006 139.72C172.006 141.799 170.397 143.342 168.384 143.342ZM170.732 132.543C172.275 132.543 173.549 131.269 173.549 129.726C173.549 128.183 172.275 126.909 170.732 126.909C169.189 126.909 167.915 128.183 167.915 129.726C167.915 131.336 169.122 132.543 170.732 132.543ZM170.732 133.348C168.72 133.348 167.11 131.738 167.11 129.726C167.11 127.714 168.72 126.104 170.732 126.104C172.744 126.104 174.354 127.714 174.354 129.726C174.354 131.738 172.677 133.348 170.732 133.348ZM174.891 123.756C176.433 123.756 177.708 122.482 177.708 120.939C177.708 119.397 176.5 118.189 174.891 118.189C173.348 118.189 172.073 119.464 172.073 121.006C172.073 122.549 173.348 123.756 174.891 123.756ZM174.891 124.561C172.878 124.561 171.269 122.952 171.269 120.939C171.269 118.927 172.878 117.317 174.891 117.317C176.903 117.317 178.513 118.927 178.513 120.939C178.513 122.952 176.903 124.561 174.891 124.561ZM181.598 115.976C183.141 115.976 184.415 114.701 184.415 113.159C184.415 111.616 183.141 110.342 181.598 110.342C180.055 110.342 178.781 111.616 178.781 113.159C178.781 114.701 180.055 115.976 181.598 115.976ZM181.598 116.781C179.586 116.781 177.976 115.171 177.976 113.159C177.976 111.147 179.586 109.537 181.598 109.537C183.61 109.537 185.22 111.147 185.22 113.159C185.22 115.171 183.61 116.781 181.598 116.781ZM189.848 110.073C191.391 110.073 192.665 108.799 192.665 107.256C192.665 105.714 191.391 104.439 189.848 104.439C188.305 104.439 187.031 105.714 187.031 107.256C187.031 108.799 188.238 110.073 189.848 110.073ZM189.848 110.878C187.836 110.878 186.226 109.269 186.226 107.256C186.226 105.244 187.836 103.634 189.848 103.634C191.86 103.634 193.47 105.244 193.47 107.256C193.47 109.269 191.86 110.878 189.848 110.878ZM198.635 106.586C200.177 106.586 201.452 105.311 201.452 103.769C201.452 102.226 200.177 100.951 198.635 100.951C197.092 100.951 195.818 102.226 195.818 103.769C195.818 105.378 197.092 106.586 198.635 106.586ZM198.635 107.39C196.622 107.39 195.013 105.781 195.013 103.769C195.013 101.756 196.622 100.147 198.635 100.147C200.647 100.147 202.257 101.756 202.257 103.769C202.324 105.781 200.647 107.39 198.635 107.39ZM207.69 107.39C209.232 107.39 210.507 106.116 210.507 104.573C210.507 103.031 209.232 101.756 207.69 101.756C206.147 101.756 204.872 103.031 204.872 104.573C204.872 106.116 206.147 107.39 207.69 107.39ZM207.69 108.195C205.677 108.195 204.068 106.586 204.068 104.573C204.068 102.561 205.677 100.951 207.69 100.951C209.702 100.951 211.312 102.561 211.312 104.573C211.312 106.586 209.702 108.195 207.69 108.195ZM214.33 99.8112C215.873 99.8112 217.147 98.5368 217.147 96.9941C217.147 95.4514 215.873 94.177 214.33 94.177C212.787 94.177 211.513 95.4514 211.513 96.9941C211.446 98.5368 212.72 99.8112 214.33 99.8112ZM214.33 100.616C212.318 100.616 210.708 99.0063 210.708 96.9941C210.708 94.9819 212.318 93.3721 214.33 93.3721C216.342 93.3721 217.952 94.9819 217.952 96.9941C217.952 99.0063 216.275 100.616 214.33 100.616ZM222.915 94.1099C224.458 94.1099 225.732 92.8355 225.732 91.2928C225.732 89.7501 224.458 88.4757 222.915 88.4757C221.373 88.4757 220.098 89.7501 220.098 91.2928C220.098 92.8355 221.373 94.1099 222.915 94.1099ZM222.915 94.9148C220.903 94.9148 219.293 93.305 219.293 91.2928C219.293 89.2806 220.903 87.6709 222.915 87.6709C224.927 87.6709 226.537 89.2806 226.537 91.2928C226.537 93.305 224.927 94.9148 222.915 94.9148ZM231.903 90.7562C233.446 90.7562 234.72 89.4818 234.72 87.9392C234.72 86.3965 233.446 85.1221 231.903 85.1221C230.36 85.1221 229.086 86.3965 229.086 87.9392C229.086 89.4818 230.36 90.7562 231.903 90.7562ZM231.903 91.5611C229.891 91.5611 228.281 89.9514 228.281 87.9392C228.281 85.9269 229.891 84.3172 231.903 84.3172C233.915 84.3172 235.525 85.9269 235.525 87.9392C235.525 89.9514 233.915 91.5611 231.903 91.5611ZM250.08 118.189C251.623 118.189 252.897 116.915 252.897 115.372C252.897 113.83 251.623 112.555 250.08 112.555C248.537 112.555 247.263 113.83 247.263 115.372C247.263 116.915 248.537 118.189 250.08 118.189ZM250.08 118.994C248.068 118.994 246.458 117.384 246.458 115.372C246.458 113.36 248.068 111.75 250.08 111.75C252.092 111.75 253.702 113.36 253.702 115.372C253.702 117.384 252.092 118.994 250.08 118.994ZM250.08 108.061C251.623 108.061 252.897 106.787 252.897 105.244C252.897 103.701 251.623 102.427 250.08 102.427C248.537 102.427 247.263 103.701 247.263 105.244C247.263 106.787 248.537 108.061 250.08 108.061ZM250.08 108.866C248.068 108.866 246.458 107.256 246.458 105.244C246.458 103.232 248.068 101.622 250.08 101.622C252.092 101.622 253.702 103.232 253.702 105.244C253.702 107.256 252.092 108.866 250.08 108.866ZM250.08 97.866C251.623 97.866 252.897 96.5916 252.897 95.0489C252.897 93.5063 251.623 92.2319 250.08 92.2319C248.537 92.2319 247.263 93.5063 247.263 95.0489C247.263 96.6587 248.537 97.866 250.08 97.866ZM250.08 98.6709C248.068 98.6709 246.458 97.0612 246.458 95.0489C246.458 93.0367 248.068 91.427 250.08 91.427C252.092 91.427 253.702 93.0367 253.702 95.0489C253.702 97.0612 252.092 98.6709 250.08 98.6709ZM241.159 89.2135C242.702 89.2135 243.976 87.9392 243.976 86.3965C243.976 84.8538 242.702 83.5794 241.159 83.5794C239.617 83.5794 238.342 84.8538 238.342 86.3965C238.275 87.9392 239.549 89.2135 241.159 89.2135ZM241.159 90.0184C239.147 90.0184 237.537 88.4087 237.537 86.3965C237.537 84.3843 239.147 82.7745 241.159 82.7745C243.171 82.7745 244.781 84.3843 244.781 86.3965C244.764 87.3517 244.377 88.263 243.701 88.9385C243.026 89.6141 242.114 90.0012 241.159 90.0184ZM333.117 148.439C332.537 148.118 331.898 147.915 331.239 147.842C330.579 147.77 329.912 147.829 329.276 148.016C328.639 148.203 328.046 148.515 327.531 148.933C327.016 149.351 326.589 149.867 326.276 150.452C324.934 152.866 325.806 155.952 328.288 157.293C330.769 158.635 333.855 157.763 335.196 155.348C336.471 152.799 335.532 149.781 333.117 148.439ZM333.52 147.702C336.404 149.244 337.41 152.799 335.867 155.616C335.105 156.971 333.839 157.97 332.345 158.397C330.85 158.824 329.248 158.644 327.885 157.897C327.21 157.532 326.615 157.037 326.134 156.44C325.653 155.843 325.296 155.155 325.083 154.418C324.871 153.681 324.808 152.909 324.897 152.148C324.987 151.386 325.227 150.65 325.605 149.982C327.08 147.165 330.635 146.159 333.52 147.702ZM179.049 149.714C178.311 147.702 177.305 146.226 175.159 145.622C176.5 128.317 180.994 120.403 196.757 112.488C198.098 112.958 198.098 113.159 198.098 113.427C198.098 115.775 199.439 116.915 201.116 118.189C198.299 118.793 195.818 120.067 195.818 123.421C195.818 126.238 197.696 127.781 200.177 128.452C199.372 129.994 199.238 130.665 199.372 132.409C196.153 133.952 195.482 135.964 196.287 139.183C197.494 143.811 200.311 144.281 204.738 143.141C205.409 150.318 197.427 153.068 193.537 147.903C193.537 147.5 193.47 147.098 193.403 146.629C193.057 145.317 192.208 144.194 191.041 143.504C189.873 142.813 188.481 142.611 187.165 142.939C184.415 143.61 182.738 146.427 183.476 149.177C183.677 150.049 184.147 150.787 184.75 151.458C185.019 154.007 183.878 156.421 181.598 157.629C179.25 158.903 177.439 158.366 175.159 157.561C178.848 155.818 180.726 154.074 179.049 149.714ZM179.317 131C177.775 134.891 176.97 139.317 176.5 144.75C178.378 145.555 179.519 147.433 180.256 149.311C181.33 152.196 181.397 155.147 178.244 157.36C179.183 157.427 180.122 157.226 180.994 156.757C182.738 155.818 183.677 153.94 183.61 152.129C183.003 151.408 182.568 150.56 182.336 149.647C181.929 148.028 182.181 146.314 183.036 144.881C183.891 143.448 185.279 142.412 186.897 142C187.703 141.788 188.543 141.738 189.369 141.853C190.194 141.968 190.989 142.245 191.706 142.67C192.424 143.094 193.05 143.656 193.548 144.324C194.047 144.992 194.408 145.753 194.61 146.561L194.811 147.635C197.696 151.122 203.464 149.311 203.732 144.75C198.433 145.824 196.153 143.141 195.281 139.586C194.476 136.567 194.811 133.616 198.299 131.738C198.299 130.799 198.433 129.927 198.702 129.189C197.752 128.791 196.914 128.168 196.26 127.373C195.605 126.579 195.154 125.636 194.946 124.628C191.927 125.299 188.506 126.171 185.689 127.244C182.872 128.317 180.793 129.659 179.317 131ZM196.958 113.762C188.171 118.323 183.006 122.952 179.988 129.458C181.598 128.25 183.342 127.311 185.22 126.574C188.037 125.5 191.592 124.561 194.61 123.891V123.488C194.61 120.872 196.22 118.592 198.568 117.653C197.603 116.577 197.035 115.205 196.958 113.762ZM318.629 157.763C316.282 156.488 315.208 154.141 315.477 151.592C316.08 150.921 316.483 150.183 316.751 149.311C316.922 148.66 316.962 147.98 316.869 147.313C316.776 146.645 316.551 146.003 316.208 145.423C315.865 144.843 315.41 144.336 314.87 143.933C314.33 143.53 313.716 143.238 313.062 143.074C310.312 142.403 307.495 144.013 306.824 146.763C306.69 147.165 306.69 147.568 306.69 148.037C302.8 153.202 294.818 150.452 295.489 143.275C299.916 144.348 302.733 143.878 303.94 139.317C304.812 136.031 304.074 134.019 300.855 132.543C300.989 130.732 300.855 130.128 300.05 128.586C302.464 127.848 304.41 126.305 304.41 123.488C304.41 120.134 301.861 118.86 299.044 118.256C300.721 116.982 302.062 115.842 302.062 113.494C302.062 113.293 302.062 113.092 301.995 112.891L303.135 112.555C318.83 120.336 323.66 128.519 325.001 145.689C322.855 146.36 321.916 147.836 321.111 149.781C319.434 154.141 321.379 155.885 325.135 157.763C322.788 158.501 320.977 159.037 318.629 157.763ZM305.416 124.628C305.013 126.708 303.538 128.384 301.66 129.189C301.928 129.927 302.062 130.799 302.062 131.738C305.55 133.549 305.818 136.567 305.08 139.586C304.141 143.141 301.928 145.824 296.629 144.75C296.897 149.311 302.666 151.122 305.55 147.635C305.55 147.299 305.617 146.897 305.751 146.561C306.623 143.208 310.111 141.128 313.465 142C314.501 142.254 315.455 142.768 316.237 143.494C317.019 144.219 317.603 145.133 317.932 146.148C318.261 147.163 318.326 148.245 318.119 149.292C317.912 150.338 317.441 151.315 316.751 152.129C316.55 155.147 319.099 157.561 322.05 157.36C318.897 155.147 318.897 152.196 320.038 149.311C320.776 147.433 321.916 145.555 323.727 144.75C323.257 139.317 322.452 134.824 320.91 130.933C319.434 129.659 317.355 128.25 314.739 127.244C311.855 126.171 308.434 125.299 305.416 124.628ZM303.202 113.561C303.135 115.104 302.532 116.512 301.592 117.586C303.94 118.525 305.55 120.805 305.55 123.421V123.823C308.702 124.494 311.989 125.366 314.94 126.506C317.019 127.311 318.763 128.384 320.172 129.391C317.154 122.952 311.989 118.256 303.202 113.561ZM284.824 167.555L275.903 161.385L286.702 160.244L295.623 166.415L284.824 167.555ZM268.123 163.933C266.111 163.933 264.501 162.324 264.501 160.312C264.501 158.299 266.111 156.69 268.123 156.69C270.135 156.69 271.745 158.299 271.745 160.312C271.812 162.324 270.135 163.933 268.123 163.933ZM268.123 163.129C269.665 163.129 270.94 161.854 270.94 160.312C270.94 158.769 269.665 157.494 268.123 157.494C266.58 157.494 265.306 158.769 265.306 160.312C265.306 161.854 266.58 163.129 268.123 163.129ZM197.092 172.519C198.635 172.519 199.909 171.244 199.909 169.702C199.909 168.159 198.635 166.885 197.092 166.885C195.549 166.885 194.275 168.159 194.275 169.702C194.275 171.244 195.549 172.519 197.092 172.519ZM197.092 173.257C195.08 173.257 193.47 171.647 193.47 169.635C193.47 167.623 195.08 166.013 197.092 166.013C199.104 166.013 200.714 167.623 200.714 169.635C200.714 171.714 199.104 173.257 197.092 173.257ZM231.97 163.129C233.513 163.129 234.787 161.854 234.787 160.312C234.787 158.769 233.513 157.494 231.97 157.494C230.427 157.494 229.153 158.769 229.153 160.312C229.153 161.854 230.427 163.129 231.97 163.129ZM231.97 163.933C229.958 163.933 228.348 162.324 228.348 160.312C228.348 158.299 229.958 156.69 231.97 156.69C233.982 156.69 235.592 158.299 235.592 160.312C235.592 162.324 233.982 163.933 231.97 163.933ZM303.001 172.519C304.544 172.519 305.818 171.244 305.818 169.702C305.818 168.159 304.544 166.885 303.001 166.885C301.458 166.885 300.184 168.159 300.184 169.702C300.184 171.244 301.458 172.519 303.001 172.519ZM303.001 173.257C300.989 173.257 299.379 171.647 299.379 169.635C299.379 167.623 300.989 166.013 303.001 166.013C305.013 166.013 306.623 167.623 306.623 169.635C306.623 171.714 305.013 173.257 303.001 173.257ZM215.269 167.555L204.47 166.415L213.391 160.244L224.19 161.385L215.269 167.555ZM259.068 159.44L250.013 156.086L240.958 159.44L250.013 162.793L259.068 159.44ZM261.415 159.44L250.08 163.665L238.745 159.44L250.08 155.214L261.415 159.44Z" fill="#004996"/>
</svg>
