<svg width="501" height="500" viewBox="0 0 501 500" fill="none" xmlns="http://www.w3.org/2000/svg">
<mask id="mask0_4357_29" style="mask-type:alpha" maskUnits="userSpaceOnUse" x="0" y="189" width="501" height="122">
<rect y="189" width="501" height="122" fill="#D9D9D9"/>
</mask>
<g mask="url(#mask0_4357_29)">
<path fill-rule="evenodd" clip-rule="evenodd" d="M334.979 255.779C332.392 253.241 328.483 251.334 324.517 251.334C321.772 251.334 318.338 252.916 318.338 256.017C318.338 264.281 346.464 257.868 346.464 276.971C346.464 290.22 333.245 294.067 321.792 294.067C313.95 294.067 305.989 292.178 300.371 286.608L310.032 276.946C313.231 280.095 317.629 282.284 322.587 282.284C326.328 282.284 330.203 280.92 330.203 278.147C330.203 269.172 302.093 276.386 302.093 257.078C302.093 244.889 313.318 239.553 324.547 239.553C331.592 239.553 339.414 241.265 344.366 246.387L334.979 255.779Z" fill="#231F20"/>
<path fill-rule="evenodd" clip-rule="evenodd" d="M131.154 292.777H147.676V211.979H131.154V292.777Z" fill="#231F20"/>
<path fill-rule="evenodd" clip-rule="evenodd" d="M186.779 253.663C178.512 253.663 173.573 259.011 173.573 266.815C173.573 274.614 178.512 279.955 186.779 279.955C195.035 279.955 199.995 274.614 199.995 266.815C199.995 259.011 195.035 253.663 186.779 253.663ZM215.189 292.779H199.995V285.948H199.769C197.241 289.684 190.855 294.067 183.365 294.067C167.513 294.067 157.053 282.959 157.053 267.245C157.053 252.804 166.292 239.553 181.496 239.553C188.325 239.553 194.712 241.369 198.44 246.387H198.668V240.833H215.189V292.779Z" fill="#231F20"/>
<path fill-rule="evenodd" clip-rule="evenodd" d="M228.189 240.831H244.721V249.168H244.929C248.453 242.862 253.076 239.553 260.342 239.553C262.22 239.553 264.318 239.655 265.852 240.084V254.735C263.538 254.087 261.225 253.661 258.805 253.661C246.259 253.661 244.721 260.713 244.721 271.086V292.777H228.189V240.831Z" fill="#231F20"/>
<path fill-rule="evenodd" clip-rule="evenodd" d="M291.316 240.831V292.777H274.801V240.831H291.316ZM291.316 211.979V228.207H274.801V211.979H291.316Z" fill="#231F20"/>
<path fill-rule="evenodd" clip-rule="evenodd" d="M92.2636 279.955C100.52 279.955 105.47 274.614 105.47 266.813C105.47 259.011 100.52 253.663 92.2636 253.663C84.006 253.663 79.0474 259.011 79.0474 266.813C79.0474 274.614 84.006 279.955 92.2636 279.955ZM92.2636 239.553C108.777 239.553 121.99 250.25 121.99 266.813C121.99 283.376 108.777 294.067 92.2636 294.067C75.7516 294.067 62.5371 283.376 62.5371 266.813C62.5371 250.25 75.7516 239.553 92.2636 239.553Z" fill="#231F20"/>
<path fill-rule="evenodd" clip-rule="evenodd" d="M0 240.836H17.8498L31.3909 276.112H31.607L44.1535 240.836H60.7842L39.6469 292.782H22.1419L0 240.836Z" fill="#231F20"/>
<path fill-rule="evenodd" clip-rule="evenodd" d="M430.984 206.2H448.298V188.885H430.984V206.2Z" fill="#EEEFEF"/>
<path fill-rule="evenodd" clip-rule="evenodd" d="M430.984 223.513H448.298V206.199H430.984V223.513Z" fill="#B5D5F0"/>
<path fill-rule="evenodd" clip-rule="evenodd" d="M430.984 240.825H448.298V223.512H430.984V240.825Z" fill="#6CADDE"/>
<path fill-rule="evenodd" clip-rule="evenodd" d="M413.672 240.825H430.986V223.512H413.672V240.825Z" fill="#B5D5F0"/>
<path fill-rule="evenodd" clip-rule="evenodd" d="M413.672 275.454H430.986V258.141H413.672V275.454Z" fill="#D6A6CC"/>
<path fill-rule="evenodd" clip-rule="evenodd" d="M448.299 240.825H465.612V223.512H448.299V240.825Z" fill="#B5D5F0"/>
<path fill-rule="evenodd" clip-rule="evenodd" d="M448.299 275.454H465.612V258.141H448.299V275.454Z" fill="#DAE7A2"/>
<path fill-rule="evenodd" clip-rule="evenodd" d="M430.984 258.147H448.298V240.83H430.984V258.147Z" fill="#231F20"/>
<path fill-rule="evenodd" clip-rule="evenodd" d="M430.984 275.454H448.298V258.141H430.984V275.454Z" fill="#91268F"/>
<path fill-rule="evenodd" clip-rule="evenodd" d="M430.984 292.771H448.298V275.457H430.984V292.771Z" fill="#D6A6CC"/>
<path fill-rule="evenodd" clip-rule="evenodd" d="M430.984 310.085H448.298V292.771H430.984V310.085Z" fill="#EEEFEF"/>
<path fill-rule="evenodd" clip-rule="evenodd" d="M379.043 258.147H396.357V240.83H379.043V258.147Z" fill="#EEEFEF"/>
<path fill-rule="evenodd" clip-rule="evenodd" d="M396.355 258.147H413.671V240.83H396.355V258.147Z" fill="#D6A6CC"/>
<path fill-rule="evenodd" clip-rule="evenodd" d="M413.672 258.147H430.986V240.83H413.672V258.147Z" fill="#91268F"/>
<path fill-rule="evenodd" clip-rule="evenodd" d="M448.299 258.147H465.612V240.83H448.299V258.147Z" fill="#8DC63F"/>
<path fill-rule="evenodd" clip-rule="evenodd" d="M465.611 258.147H482.925V240.83H465.611V258.147Z" fill="#DAE7A2"/>
<path fill-rule="evenodd" clip-rule="evenodd" d="M482.928 258.147H500.241V240.83H482.928V258.147Z" fill="#EEEFEF"/>
</g>
</svg>
