<svg width="500" height="500" viewBox="0 0 500 500" fill="none" xmlns="http://www.w3.org/2000/svg">
<path d="M108.675 206.484L97.473 262.61L84.899 206.484H63.0661L50.4922 262.61L39.2901 206.484H17L35.175 292.215H61.1229L73.8111 235.29L86.4992 292.215H111.876L129.936 206.484H108.675Z" fill="#0053E2"/>
<path d="M157.2 222.258C143.368 222.258 133.652 226.944 130.109 230.259V248.548C134.224 244.891 142.911 239.518 154.342 239.518C161.429 239.518 164.058 241.461 164.058 245.462C164.058 248.892 160.4 250.263 150.227 252.435C134.795 255.636 125.879 261.237 125.879 274.611C125.879 286.956 133.995 294.158 145.769 294.158C155.628 294.158 161.517 289.584 164.744 283.437V292.214H186.005V250.149C186.005 230.831 175.946 222.258 157.2 222.258ZM154.227 280.326C149.198 280.326 146.455 277.24 146.455 273.011C146.455 267.524 150.798 265.352 156.285 263.409C159.146 262.336 162.007 261.218 163.944 259.524V269.01C163.944 276.211 160.172 280.326 154.227 280.326Z" fill="#0053E2"/>
<path d="M216.022 206.484H193.961V292.215H216.022V206.484Z" fill="#0053E2"/>
<path d="M304.565 222.488C293.862 222.488 286.946 228.921 283.327 237.487C281.387 228.309 274.936 222.488 265.929 222.488C255.722 222.488 249.067 228.44 245.697 236.804V224.432H223.979V292.216H246.04V254.609C246.04 245.35 249.126 240.092 255.756 240.092C261.129 240.092 262.958 243.75 262.958 249.465V292.216H285.019V254.609C285.019 245.35 288.105 240.092 294.735 240.092C300.108 240.092 301.937 243.75 301.937 249.465V292.216H323.998V246.379C323.998 232.09 317.254 222.488 304.565 222.488Z" fill="#0053E2"/>
<path d="M360.118 222.258C346.286 222.258 336.57 226.944 333.027 230.259V248.548C337.142 244.891 345.829 239.518 357.26 239.518C364.347 239.518 366.976 241.461 366.976 245.462C366.976 248.892 363.318 250.263 353.145 252.435C337.713 255.636 328.797 261.237 328.797 274.611C328.797 286.956 336.913 294.158 348.687 294.158C358.546 294.158 364.435 289.584 367.662 283.437V292.214H388.923V250.149C388.924 230.831 378.864 222.258 360.118 222.258ZM357.146 280.326C352.116 280.326 349.373 277.24 349.373 273.011C349.373 267.524 353.716 265.352 359.203 263.409C362.064 262.336 364.925 261.218 366.862 259.524V269.01C366.862 276.211 363.09 280.326 357.146 280.326Z" fill="#0053E2"/>
<path d="M418.073 243.581V224.43H396.469V292.215H418.53V263.409C418.53 250.15 426.76 246.606 434.648 246.606C437.277 246.606 439.791 246.949 440.934 247.292V223.973C428.521 223.374 420.981 231.303 418.073 243.581Z" fill="#0053E2"/>
<path d="M483 241.577V224.431H468.94V211.285H446.879V269.582C446.879 285.928 456.138 293.587 470.884 293.587C477.742 293.587 481.4 292.215 483 291.187V274.155C481.743 275.069 479.686 275.755 477.056 275.755C472.141 275.869 468.94 273.697 468.94 266.496V241.577H483Z" fill="#0053E2"/>
</svg>
