<svg width="150" height="150" viewBox="0 0 150 150" fill="none" xmlns="http://www.w3.org/2000/svg">
<path d="M92.5781 26.1719H26.1719V92.8906L57.1094 123.828H123.828V57.4219L92.5781 26.1719Z" fill="white"/>
<path d="M91.7578 28.2031L121.797 58.2422V121.797H57.9297L28.2422 92.1094V28.2031H91.7578ZM92.5781 26.1719H26.1719V92.8906L57.1094 123.828H123.828V57.4219L92.5781 26.1719Z" fill="#242E3D"/>
<path d="M42.0312 81.172V84.7657H40V75.0001H43.75C44.6484 74.922 45.4687 75.2345 46.1719 75.8204C47.3828 77.1095 47.3828 79.0626 46.1719 80.3907C45.5078 80.9767 44.6094 81.2892 43.75 81.2111H42.0312V81.172ZM42.0312 79.6486H43.5156C43.9062 79.6486 44.3359 79.5704 44.5703 79.2579C45.0391 78.5939 45.0391 77.6173 44.5703 76.9923C44.2578 76.7579 43.9062 76.6017 43.5156 76.6017H42.0312V79.6486ZM55.625 84.7657L54.9609 82.5782H51.6406L50.9766 84.7657H48.7891L52.1875 75.0001H54.5312L57.8516 84.7657H55.625ZM52.0703 81.0157H54.4922L53.2812 76.9532L52.0703 81.0157ZM60.8203 84.7657V75.0001H64.5703C65.4688 74.922 66.2891 75.2345 66.9922 75.8204C67.5781 76.4064 67.8906 77.1876 67.8906 78.0079C67.8906 78.5939 67.7344 79.0626 67.3828 79.5704C67.0703 80.0392 66.5625 80.3907 66.0937 80.6251L68.5156 84.8439H66.3281L64.2188 81.0157H62.8906V84.7657H60.8203ZM62.8906 79.4923H64.375C65.1172 79.5704 65.7422 79.1017 65.8203 78.3595C65.8203 78.2032 65.8203 78.1251 65.8203 77.9689C65.8984 77.2267 65.4297 76.6017 64.7656 76.5236C64.6875 76.5236 64.5312 76.5236 64.4531 76.5236H62.9687V79.5314H62.8906V79.4923ZM73.5156 84.7657V76.7189H70.5078V75.0001H78.5547V76.7189H75.5469V84.7657H73.5156ZM83.7109 78.0079V84.7657H81.8359V75.0001H84.1016L88.0859 81.8361V75.0001H89.9609V84.7657H87.6953L83.7109 78.0079ZM93.7109 84.7657V75.0001H100.156V76.6407H95.8594V78.9064H99.375V80.547H95.8594V83.1642H100.156V84.8048H93.7109V84.7657ZM103.906 84.7657V75.0001H107.656C108.555 74.922 109.375 75.2345 110.078 75.8204C110.664 76.4064 110.977 77.1876 110.977 78.0079C110.977 78.5939 110.82 79.0626 110.508 79.5704C110.195 80.0392 109.688 80.3907 109.219 80.6251L111.641 84.8439H109.453L107.344 81.0157H105.977V84.7657H103.906ZM105.937 79.4923H107.422C108.164 79.5704 108.789 79.1017 108.867 78.3595C108.867 78.2032 108.867 78.1251 108.867 77.9689C108.945 77.2267 108.477 76.6017 107.813 76.5236C107.734 76.5236 107.578 76.5236 107.5 76.5236H105.937V79.4923Z" fill="#242E3D"/>
<path d="M47.8906 48.5547C47.8906 48.8672 47.8906 49.2188 48.0469 49.5313C48.125 49.7657 48.2812 50.1172 48.3594 50.3516C48.4375 50.4297 48.4375 50.5079 48.4375 50.586C48.4375 50.7422 48.3594 50.8204 48.2031 50.8985L47.4609 51.3672C47.4609 51.3672 47.3828 51.3672 47.2266 51.3672C47.0703 51.3672 46.9922 51.2891 46.9141 51.211C46.7578 51.0547 46.6016 50.8985 46.5234 50.7032C46.4453 50.5469 46.2891 50.3125 46.2109 50.0391C45.3906 51.0157 44.2578 51.6016 42.9688 51.6016C42.1484 51.6797 41.3281 51.3672 40.7813 50.7813C40.1953 50.1954 39.9609 49.4922 39.9609 48.6719C39.9609 47.7735 40.2734 46.9532 40.9375 46.4063C41.6797 45.8204 42.6563 45.5079 43.6328 45.5079C44.0234 45.5079 44.4531 45.5079 44.7656 45.586C45.1562 45.6641 45.5859 45.7422 45.9766 45.8204V45C46.0547 44.336 45.8984 43.711 45.4688 43.2032C45 42.8125 44.3359 42.6172 43.6719 42.7344C43.2812 42.7344 42.8516 42.8125 42.4609 42.8907C42.0703 42.9688 41.6406 43.125 41.25 43.2813C41.0937 43.3594 41.0156 43.3594 40.8594 43.4375C40.7812 43.4375 40.7813 43.4375 40.7031 43.4375C40.5469 43.4375 40.4687 43.3594 40.4687 43.125V42.5391C40.4687 42.3829 40.4687 42.3047 40.5469 42.1485C40.625 42.0704 40.7031 41.9922 40.8594 41.9141C41.25 41.6797 41.7578 41.5235 42.2266 41.4454C42.8125 41.2891 43.3594 41.211 43.9453 41.211C45 41.1329 45.9766 41.4454 46.7969 42.1094C47.4609 42.8516 47.7734 43.8282 47.6953 44.8047L47.8906 48.5547ZM43.4375 50.1954C43.8281 50.1954 44.1797 50.1172 44.5703 50.0391C44.9609 49.8829 45.3125 49.6485 45.625 49.2969C45.7812 49.1407 45.9375 48.9063 46.0156 48.5547C46.0937 48.2422 46.0937 47.8907 46.0937 47.5782V47.0704C45.7812 46.9922 45.4297 46.9141 45.1172 46.9141C44.8047 46.836 44.4531 46.836 44.0625 46.836C43.4766 46.7579 42.9297 46.9141 42.4219 47.2266C41.7578 47.8907 41.6797 48.9454 42.2656 49.6485C42.6172 50.1172 43.0078 50.2735 43.4375 50.1954ZM52.3047 51.4063C52.1484 51.4063 51.9922 51.4063 51.9141 51.3282C51.8359 51.25 51.7578 51.0938 51.6797 50.9375L49.0625 42.3829C48.9844 42.2266 48.9844 42.0704 48.9844 41.9922C48.9844 41.836 49.0625 41.7579 49.1406 41.7579H49.2187H50.2734C50.4297 41.7579 50.5859 41.7579 50.6641 41.836C50.7422 41.9141 50.8203 42.0704 50.8984 42.2266L52.7734 49.4532L54.4922 42.1875C54.4922 42.0313 54.5703 41.875 54.7266 41.7969C54.8828 41.7188 55.0391 41.7188 55.1172 41.7188H56.0156C56.1719 41.7188 56.3281 41.7188 56.4062 41.7969C56.4844 41.875 56.5625 42.0313 56.6406 42.1875L58.3594 49.6094L60.2344 42.1875C60.2344 42.0313 60.3125 41.875 60.4687 41.7969C60.625 41.7188 60.7031 41.7188 60.8594 41.7188H61.9141C62.0703 41.7188 62.1484 41.7969 62.1484 41.875V41.9532C62.1484 42.0313 62.1484 42.0313 62.1484 42.1094C62.1484 42.1875 62.0703 42.2657 62.0703 42.3438L59.4531 50.8204C59.4531 50.9766 59.375 51.1329 59.2187 51.211C59.1406 51.3672 58.9844 51.3672 58.8281 51.3672H57.8516C57.6953 51.3672 57.5391 51.3672 57.4609 51.2891C57.3828 51.1329 57.3047 51.0547 57.2266 50.8985L55.5078 43.8282L53.7891 50.8985C53.7891 51.0547 53.7109 51.211 53.5547 51.2891C53.4766 51.3672 53.3203 51.3672 53.2422 51.3672H52.3047V51.4063ZM66.4453 51.7188C65.8594 51.7188 65.3125 51.6407 64.7266 51.5625C64.3359 51.4844 63.8281 51.3282 63.4375 51.1719C63.2031 51.0938 63.0469 50.8594 63.0469 50.5079V49.9219C63.0469 49.6875 63.125 49.6094 63.2812 49.6094C63.3594 49.6094 63.4375 49.6094 63.4375 49.6094C63.5156 49.6094 63.5937 49.6875 63.6719 49.6875C64.0625 49.8438 64.4922 50 64.8828 50.0782C65.2734 50.1563 65.7813 50.2344 66.1719 50.2344C66.7578 50.2344 67.3047 50.1563 67.8125 49.8438C68.125 49.6094 68.3984 49.1797 68.3984 48.7891C68.3984 48.4766 68.3203 48.2032 68.0859 48.0469C67.7734 47.8125 67.3438 47.5782 66.9531 47.461L65.3125 46.9922C64.6484 46.836 64.0234 46.4063 63.5156 45.8594C63.2031 45.3907 62.9297 44.8047 62.9297 44.2188C62.9297 43.8282 63.0078 43.3985 63.2422 43.0079C63.3984 42.6954 63.7109 42.3438 64.0625 42.1094C64.375 41.875 64.8047 41.6407 65.1953 41.5235C65.6641 41.3672 66.0938 41.3672 66.5625 41.3672C66.7969 41.3672 67.0703 41.3672 67.3047 41.4454C67.5391 41.4454 67.7734 41.5235 68.0469 41.6016C68.2812 41.6797 68.4375 41.6797 68.7109 41.7579C68.8672 41.836 69.0234 41.836 69.1797 41.9141C69.3359 41.9922 69.4141 42.0704 69.4922 42.1485C69.5703 42.2266 69.5703 42.3829 69.5703 42.5391V43.0469C69.5703 43.2813 69.4922 43.3594 69.3359 43.3594C69.1797 43.3594 69.0234 43.2813 68.9453 43.2032C68.2812 42.8907 67.5781 42.8125 66.8359 42.8125C66.3672 42.8125 65.8594 42.8907 65.3516 43.125C65.0391 43.2813 64.7656 43.711 64.8828 44.1016C64.8828 44.4141 64.9609 44.6875 65.1953 44.9219C65.5078 45.2344 65.9375 45.3907 66.4062 45.5079L67.9687 45.9766C68.6328 46.1329 69.1797 46.5625 69.6875 47.0313C70 47.4219 70.1562 48.0079 70.1562 48.5938C70.1562 48.9844 70.0781 49.4922 69.8437 49.8829C69.6875 50.2735 69.375 50.625 69.0234 50.8594C68.7109 51.0938 68.2031 51.3282 67.8125 51.5235C67.5 51.6407 66.9531 51.7188 66.4453 51.7188Z" fill="#242E3D"/>
<path d="M68.4762 57.0315C64.8434 59.6877 59.609 61.094 55.0777 61.094C49.0621 61.094 43.2027 58.9065 38.7106 54.844C38.3981 54.5315 38.7106 54.1018 39.1012 54.3752C44.0621 57.2658 49.7652 58.7111 55.4684 58.7111C59.7652 58.7111 64.0231 57.8127 68.0074 56.1721C68.5543 55.9377 69.1402 56.6018 68.4762 57.0315ZM69.0621 59.4533C68.9059 59.7658 69.2184 59.9221 69.5699 59.6877C71.5231 58.0471 71.9918 54.6486 71.6012 54.1408C71.2106 53.6721 67.7731 53.2424 65.7418 54.7268C65.4293 54.9611 65.5074 55.3127 65.8199 55.1955C66.9527 55.0393 69.5699 54.7268 70.0387 55.3518C70.5074 56.0549 69.4527 58.3986 69.0621 59.4533Z" fill="#FF9900"/>
<path d="M74.5703 91.1328C74.1016 90.9375 73.7891 90.7422 73.5547 90.5078C73.3594 90.2734 73.2422 89.9609 73.2422 89.6094C73.2422 89.1016 73.4375 88.7109 73.7891 88.3984C74.1406 88.0859 74.6094 87.9688 75.2344 87.9688C75.7422 87.9688 76.25 88.0469 76.7578 88.2422V89.0234C76.2109 88.8672 75.7422 88.7891 75.3125 88.7891C74.6094 88.7891 74.2188 89.0234 74.2188 89.5312C74.2188 89.7266 74.2969 89.8828 74.4141 90C74.5313 90.1172 74.7656 90.2344 75.1172 90.3516L75.8203 90.5859C76.2891 90.7422 76.6016 90.9766 76.7969 91.2109C76.9922 91.4453 77.1094 91.7578 77.1094 92.1094C77.1094 92.6563 76.9141 93.0859 76.5234 93.3984C76.1328 93.7109 75.625 93.8672 74.9609 93.8672C74.6875 93.8672 74.375 93.8281 74.1016 93.7891C73.8281 93.7109 73.5547 93.6328 73.3594 93.5547V92.7734C73.6328 92.8516 73.9063 92.9297 74.1797 92.9688C74.4922 93.0078 74.7266 93.0469 74.9609 93.0469C75.3516 93.0469 75.625 92.9687 75.8203 92.8516C76.0156 92.6953 76.1328 92.5 76.1328 92.2656C76.1328 92.0703 76.0547 91.9141 75.9375 91.7969C75.8203 91.6797 75.5859 91.5625 75.2734 91.4453L74.5703 91.1328Z" fill="#242E3D"/>
<path d="M78.75 91.875C78.75 92.3047 78.8672 92.5781 79.1016 92.7734C79.3359 92.9687 79.6484 93.0469 80.0781 93.0469C80.4687 93.0469 80.9375 92.9688 81.4062 92.8125V93.4766C81.2109 93.5547 81.0156 93.6328 80.7422 93.7109C80.4687 93.7891 80.2344 93.7891 79.9609 93.7891C79.2969 93.7891 78.75 93.5937 78.3984 93.2422C78.0469 92.8516 77.8516 92.3437 77.8516 91.6016C77.8516 90.8984 78.0078 90.3516 78.3594 89.9609C78.7109 89.5703 79.1797 89.375 79.8047 89.375C80.3125 89.375 80.7422 89.5312 81.0156 89.8047C81.2891 90.0781 81.4453 90.5078 81.4453 91.0547C81.4453 91.3281 81.4063 91.6016 81.3672 91.7969H78.75V91.875ZM79.8047 90.1562C79.5313 90.1562 79.2578 90.2344 79.1016 90.4297C78.9062 90.625 78.8281 90.8984 78.7891 91.2109H80.6641V91.1328C80.6641 90.8203 80.5859 90.5469 80.4297 90.3906C80.2734 90.2344 80.0781 90.1562 79.8047 90.1562Z" fill="#242E3D"/>
<path d="M84.0234 93.6719C83.8281 93.75 83.6328 93.7891 83.3984 93.7891C83.0859 93.7891 82.8125 93.7109 82.6563 93.5156C82.5 93.3203 82.4219 93.0469 82.4219 92.6953V87.6953H83.3984V92.6172C83.3984 92.7344 83.4375 92.8516 83.4766 92.8906C83.5156 92.9297 83.5937 92.9687 83.75 92.9687C83.8281 92.9687 83.9453 92.9687 84.0625 92.9297V93.6719H84.0234Z" fill="#242E3D"/>
<path d="M85.5469 91.875C85.5469 92.3047 85.6641 92.5781 85.8984 92.7734C86.1328 92.9687 86.4453 93.0469 86.875 93.0469C87.2656 93.0469 87.7344 92.9688 88.2031 92.8125V93.4766C88.0078 93.5547 87.8125 93.6328 87.5391 93.7109C87.2656 93.7891 87.0313 93.7891 86.7578 93.7891C86.0938 93.7891 85.5469 93.5937 85.1953 93.2422C84.8438 92.8516 84.6484 92.3437 84.6484 91.6016C84.6484 90.8984 84.8047 90.3516 85.1563 89.9609C85.5078 89.5703 85.9766 89.375 86.6016 89.375C87.1094 89.375 87.5391 89.5312 87.8125 89.8047C88.0859 90.0781 88.2422 90.5078 88.2422 91.0547C88.2422 91.3281 88.2031 91.6016 88.1641 91.7969H85.5469V91.875ZM86.5625 90.1562C86.2891 90.1562 86.0156 90.2344 85.8594 90.4297C85.6641 90.625 85.5469 90.8984 85.5469 91.2109H87.4219V91.1328C87.4219 90.8203 87.3438 90.5469 87.1875 90.3906C87.0703 90.2344 86.875 90.1562 86.5625 90.1562Z" fill="#242E3D"/>
<path d="M92.1094 93.5547C91.7969 93.7109 91.4062 93.8281 90.9766 93.8281C90.3516 93.8281 89.8438 93.6328 89.4922 93.2813C89.1406 92.8906 88.9844 92.3828 88.9844 91.7188C88.9844 91.0156 89.1797 90.4687 89.5312 90.1172C89.8828 89.7266 90.3906 89.5312 91.0156 89.5312C91.4062 89.5312 91.7578 89.6094 92.1094 89.7656V90.4688C91.7578 90.3516 91.4453 90.3125 91.1719 90.3125C90.7812 90.3125 90.4688 90.4297 90.2734 90.625C90.0781 90.8594 90 91.2109 90 91.6406V91.7578C90 92.2266 90.1172 92.5391 90.2734 92.7734C90.4688 92.9688 90.7812 93.0859 91.1719 93.0859C91.4453 93.0859 91.7969 93.0469 92.1094 92.9297V93.5547Z" fill="#242E3D"/>
<path d="M95.3906 93.6328C95.1172 93.75 94.8047 93.7891 94.4922 93.7891C94.0625 93.7891 93.75 93.7109 93.5156 93.5156C93.3203 93.3203 93.2031 93.0078 93.2031 92.5781V90.3516H92.5V89.7266L93.2422 89.6094L93.3984 88.4375H94.1797V89.5703H95.3516V90.3125H94.1797V92.5C94.1797 92.6953 94.2187 92.8125 94.2969 92.8906C94.375 92.9688 94.5313 93.0078 94.7656 93.0078C95 93.0078 95.1953 93.0078 95.3906 92.9297V93.6328Z" fill="#242E3D"/>
<path d="M99.5703 93.7109V88.8672H97.8125V88.0469H102.344V88.8672H100.586V93.7109H99.5703Z" fill="#242E3D"/>
<path d="M103.086 93.7109V89.5703H104.023V93.7109H103.086ZM103.555 88.8672C103.359 88.8672 103.242 88.8281 103.125 88.7109C103.008 88.5938 102.969 88.4766 102.969 88.3203C102.969 88.125 103.008 88.0078 103.125 87.9297C103.242 87.8125 103.359 87.7734 103.555 87.7734C103.75 87.7734 103.867 87.8125 103.984 87.9297C104.102 88.0078 104.141 88.1641 104.141 88.3203C104.141 88.4766 104.102 88.6328 103.984 88.7109C103.867 88.8281 103.75 88.8672 103.555 88.8672Z" fill="#242E3D"/>
<path d="M105.898 91.875C105.898 92.3047 106.016 92.5781 106.25 92.7734C106.484 92.9687 106.797 93.0469 107.227 93.0469C107.617 93.0469 108.086 92.9688 108.555 92.8125V93.4766C108.359 93.5547 108.164 93.6328 107.891 93.7109C107.617 93.7891 107.383 93.7891 107.109 93.7891C106.445 93.7891 105.898 93.5937 105.547 93.2422C105.195 92.8516 105 92.3437 105 91.6016C105 90.8984 105.156 90.3516 105.508 89.9609C105.859 89.5703 106.328 89.375 106.953 89.375C107.461 89.375 107.891 89.5312 108.164 89.8047C108.437 90.0781 108.594 90.5078 108.594 91.0547C108.594 91.3281 108.555 91.6016 108.516 91.7969H105.898V91.875ZM106.953 90.1562C106.68 90.1562 106.406 90.2344 106.25 90.4297C106.055 90.625 105.977 90.8984 105.937 91.2109H107.812V91.1328C107.812 90.8203 107.734 90.5469 107.578 90.3906C107.422 90.2344 107.227 90.1562 106.953 90.1562Z" fill="#242E3D"/>
<path d="M109.57 93.7109V89.5703H110.352L110.469 90.1953C110.703 89.9609 110.898 89.8047 111.094 89.6875C111.289 89.5703 111.484 89.5312 111.719 89.5312C111.836 89.5312 111.914 89.5313 112.031 89.5703V90.4297C111.875 90.3906 111.719 90.3906 111.563 90.3906C111.172 90.3906 110.82 90.5078 110.508 90.7031V93.7109H109.57Z" fill="#242E3D"/>
<path d="M83.75 99.2578C83.2812 99.0625 82.9688 98.8672 82.7344 98.6328C82.5391 98.3984 82.4219 98.0859 82.4219 97.7344C82.4219 97.2266 82.6172 96.8359 82.9687 96.5234C83.3203 96.2109 83.7891 96.0938 84.4141 96.0938C84.9219 96.0938 85.4297 96.1719 85.9375 96.3672V97.1484C85.3906 96.9922 84.9219 96.9141 84.4922 96.9141C83.7891 96.9141 83.3984 97.1484 83.3984 97.6562C83.3984 97.8516 83.4766 98.0078 83.5938 98.125C83.7109 98.2422 83.9453 98.3594 84.2969 98.4766L85 98.7109C85.4688 98.8672 85.7813 99.1016 85.9766 99.3359C86.1719 99.5703 86.2891 99.8828 86.2891 100.234C86.2891 100.781 86.0937 101.211 85.7031 101.523C85.3125 101.836 84.8047 101.992 84.1406 101.992C83.8672 101.992 83.5547 101.953 83.2812 101.914C83.0078 101.836 82.7344 101.758 82.5391 101.68V100.898C82.8125 100.977 83.0859 101.055 83.3594 101.094C83.6719 101.133 83.9062 101.172 84.1406 101.172C84.5312 101.172 84.8047 101.094 85 100.977C85.1953 100.82 85.3125 100.625 85.3125 100.391C85.3125 100.195 85.2344 100.039 85.1172 99.9219C85 99.8047 84.7656 99.6875 84.4531 99.5703L83.75 99.2578Z" fill="#242E3D"/>
<path d="M87.9688 100C87.9688 100.43 88.0859 100.703 88.3203 100.898C88.5547 101.094 88.8672 101.172 89.2969 101.172C89.6875 101.172 90.1563 101.094 90.625 100.937V101.602C90.4297 101.68 90.2344 101.758 89.9609 101.836C89.6875 101.914 89.4531 101.914 89.1797 101.914C88.5156 101.914 87.9688 101.719 87.6172 101.367C87.2656 100.977 87.0703 100.469 87.0703 99.7266C87.0703 99.0234 87.2266 98.4766 87.5781 98.0859C87.9297 97.6953 88.3984 97.5 89.0234 97.5C89.5313 97.5 89.9609 97.6562 90.2344 97.9297C90.5078 98.2031 90.6641 98.6328 90.6641 99.1797C90.6641 99.4531 90.625 99.7266 90.5859 99.9219H87.9688V100ZM88.9844 98.2812C88.7109 98.2812 88.4375 98.3594 88.2813 98.5547C88.0859 98.75 88.0078 99.0234 87.9688 99.3359H89.8438V99.2578C89.8438 98.9453 89.7656 98.6719 89.6094 98.5156C89.4531 98.3984 89.2578 98.2812 88.9844 98.2812Z" fill="#242E3D"/>
<path d="M91.6016 101.836V97.6953H92.4219L92.5391 98.3203C92.7734 98.0859 92.9688 97.9297 93.1641 97.8125C93.3594 97.6953 93.5547 97.6562 93.7891 97.6562C93.9063 97.6562 93.9844 97.6563 94.1016 97.6953V98.5547C93.9453 98.5156 93.7891 98.5156 93.6328 98.5156C93.2422 98.5156 92.8906 98.6328 92.5781 98.8281V101.836H91.6016Z" fill="#242E3D"/>
<path d="M95.8594 101.836L94.2578 97.6953H95.2734L96.3281 100.977L97.3828 97.6953H98.3594L96.7578 101.836H95.8594Z" fill="#242E3D"/>
<path d="M99.0234 101.836V97.6953H99.9609V101.836H99.0234ZM99.4922 97.0312C99.2969 97.0312 99.1797 96.9922 99.0625 96.875C98.9453 96.7578 98.9062 96.6406 98.9062 96.4844C98.9062 96.2891 98.9453 96.1719 99.0625 96.0937C99.1797 95.9766 99.2969 95.9375 99.4922 95.9375C99.6875 95.9375 99.8047 95.9766 99.9219 96.0937C100.039 96.1719 100.078 96.3281 100.078 96.4844C100.078 96.6406 100.039 96.7969 99.9219 96.875C99.8438 96.9922 99.6875 97.0312 99.4922 97.0312Z" fill="#242E3D"/>
<path d="M104.102 101.68C103.789 101.836 103.398 101.953 102.969 101.953C102.344 101.953 101.836 101.758 101.484 101.406C101.133 101.016 100.977 100.508 100.977 99.8438C100.977 99.1406 101.172 98.5937 101.523 98.2422C101.875 97.8516 102.383 97.6562 103.008 97.6562C103.398 97.6562 103.75 97.7344 104.102 97.8906V98.5937C103.75 98.4766 103.438 98.4375 103.164 98.4375C102.773 98.4375 102.461 98.5547 102.266 98.75C102.07 98.9844 101.992 99.3359 101.992 99.7656V99.8828C101.992 100.352 102.07 100.664 102.266 100.898C102.461 101.094 102.773 101.211 103.164 101.211C103.438 101.211 103.789 101.172 104.102 101.055V101.68Z" fill="#242E3D"/>
<path d="M105.625 100C105.625 100.43 105.742 100.703 105.977 100.898C106.211 101.094 106.523 101.172 106.953 101.172C107.344 101.172 107.812 101.094 108.281 100.937V101.602C108.086 101.68 107.891 101.758 107.617 101.836C107.383 101.914 107.109 101.914 106.836 101.914C106.172 101.914 105.625 101.719 105.273 101.367C104.922 100.977 104.727 100.469 104.727 99.7266C104.727 99.0234 104.883 98.4766 105.234 98.0859C105.586 97.6953 106.055 97.5 106.68 97.5C107.188 97.5 107.617 97.6562 107.891 97.9297C108.164 98.2031 108.32 98.6328 108.32 99.1797C108.32 99.4531 108.281 99.7266 108.242 99.9219H105.625V100ZM106.68 98.2812C106.406 98.2812 106.133 98.3594 105.977 98.5547C105.781 98.75 105.703 99.0234 105.664 99.3359H107.539V99.2578C107.539 98.9453 107.461 98.6719 107.305 98.5156C107.148 98.3984 106.953 98.2812 106.68 98.2812Z" fill="#242E3D"/>
<path d="M111.172 100.742C111.172 100.625 111.133 100.508 111.055 100.469C110.977 100.391 110.82 100.313 110.625 100.234L109.961 99.9609C109.336 99.7266 109.062 99.3359 109.062 98.8281C109.062 98.4375 109.219 98.1641 109.492 97.9297C109.766 97.6953 110.156 97.6172 110.625 97.6172C111.094 97.6172 111.484 97.6953 111.836 97.8906V98.5547C111.406 98.4375 111.016 98.3594 110.664 98.3594C110.43 98.3594 110.234 98.3984 110.117 98.4766C110 98.5547 109.922 98.6719 109.922 98.8281C109.922 98.9453 109.961 99.0625 110.039 99.1016C110.117 99.1797 110.273 99.2578 110.469 99.3359L111.094 99.5703C111.406 99.6875 111.641 99.8438 111.797 100.039C111.953 100.195 112.031 100.43 112.031 100.703C112.031 101.094 111.875 101.445 111.602 101.68C111.328 101.914 110.898 102.031 110.391 102.031C110.117 102.031 109.883 101.992 109.648 101.953C109.414 101.914 109.18 101.836 109.023 101.719V101.055C109.531 101.211 110 101.328 110.391 101.328C110.664 101.328 110.859 101.289 110.977 101.211C111.133 101.055 111.172 100.898 111.172 100.742Z" fill="#242E3D"/>
</svg>
