<svg width="150" height="150" viewBox="0 0 150 150" fill="none" xmlns="http://www.w3.org/2000/svg">
<g clip-path="url(#clip0_258_657)">
<path d="M86.1054 70.6164V67H90.2276V83.9382H86.1054V70.6164ZM67.9553 67H83.8597V70.6473H76.3843V83.9691H72.2929V70.6473H67.9553V67ZM150 67V70.6473H142.525V83.9691H138.433V70.6473H134.096V67H150ZM0 67H17.8425V70.6473H4.12223V74.2636H15.8121V77.9109H4.12223V83.9382H0V67ZM115.207 67H131.819V70.6473H119.329V73.6764H129.573V77.3236H119.329V80.3527H132.034V84H115.207V67ZM112.039 71.7909V83.9382H107.916V71.7909C107.916 71.1418 107.424 70.6473 106.778 70.6473H97.5492V83.9691H93.427V67H107.27C109.885 67 112.039 69.1636 112.039 71.7909ZM61.6181 67H47.5595V83.9382H51.6817V77.9109H60.9106C61.4028 77.9418 61.8027 78.3436 61.8027 78.8382V83.9691H65.9249V78.7764C65.9249 77.88 65.4327 77.1073 64.6944 76.6745C65.5865 75.84 66.1403 74.6345 66.1403 73.3364V71.5436C66.171 69.04 64.1407 67 61.6181 67ZM62.0488 73.3364C62.0488 73.8309 61.6489 74.2636 61.1259 74.2636H51.6817V70.6473H61.1259C61.6181 70.6473 62.0488 71.0491 62.0488 71.5745V73.3364Z" fill="black"/>
<path d="M44.3598 73.3055V77.6945H37.5305V73.3055H44.3598ZM28.8861 83.9382H35.6847V79.5491H28.8861V83.9382ZM44.3598 70.6782C44.3598 68.6382 42.7294 67 40.699 67H37.5612V71.3891H44.3598V70.6782ZM28.8861 67V71.3891H35.6847V67H28.8861ZM20.2109 73.3055V77.6945H27.0095V73.3055H20.2109ZM37.5305 83.9382H40.6683C42.6986 83.9382 44.3291 82.3 44.3291 80.26V79.5491H37.5305V83.9382ZM20.2109 80.26C20.2109 82.3 21.8414 83.9382 23.8717 83.9382H27.0095V79.5491H20.2109V80.26ZM20.2109 70.6782V71.3891H27.0095V67H23.8717C21.8414 67 20.2109 68.6382 20.2109 70.6782Z" fill="#DA291C"/>
</g>
<defs>
<clipPath id="clip0_258_657">
<rect width="150" height="17" fill="white" transform="translate(0 67)"/>
</clipPath>
</defs>
</svg>
