<svg width="150" height="150" viewBox="0 0 150 150" fill="none" xmlns="http://www.w3.org/2000/svg">
<path d="M29.1025 0.5H121.638C124.189 0.500109 126.239 2.5254 126.239 5.00781V122.225C126.239 123.814 125.381 125.284 123.999 126.096L123.716 126.249L78.2617 148.826C76.4386 149.724 74.3006 149.724 72.4775 148.826L27.0234 126.249L27.0225 126.248C25.469 125.479 24.5 123.921 24.5 122.225V5.00781L24.5059 4.77637C24.6286 2.40065 26.6308 0.5 29.1025 0.5Z" fill="white" stroke="#C0C2C4" stroke-miterlimit="10"/>
<path d="M53.9434 54.2857V50.7363H55.1921C55.4062 50.7363 55.6114 50.7803 55.7898 50.8681C55.9593 50.9648 56.102 51.0878 56.209 51.2547C56.3161 51.4128 56.3696 51.6061 56.3696 51.8169C56.3696 52.0366 56.3161 52.2211 56.209 52.3792C56.102 52.5462 55.9593 52.6779 55.7898 52.7658C55.6114 52.8536 55.4062 52.9064 55.1921 52.9064H54.2556V52.388H55.21C55.3349 52.388 55.4508 52.3617 55.54 52.3089C55.6292 52.2474 55.7006 52.1772 55.7452 52.0893C55.7987 52.0014 55.8165 51.9136 55.8165 51.8169C55.8165 51.7203 55.7987 51.6325 55.7452 51.5446C55.7006 51.4567 55.6292 51.3865 55.54 51.3337C55.4508 51.2722 55.3349 51.2459 55.21 51.2459H54.5053V54.2769H53.9434V54.2857Z" fill="#5F6368"/>
<path d="M58.7329 54.3648C58.4653 54.3648 58.2245 54.3033 58.0193 54.1803C57.8142 54.066 57.6536 53.8991 57.5376 53.6795C57.4306 53.4686 57.3682 53.2138 57.3682 52.9151V50.7363H57.9212V52.9503C57.9212 53.1172 57.948 53.2753 58.0104 53.4071C58.0728 53.5477 58.162 53.6531 58.2869 53.7322C58.4029 53.8025 58.5545 53.8464 58.7329 53.8464C58.9113 53.8464 59.063 53.8025 59.1878 53.7322C59.3127 53.6531 59.4019 53.5477 59.4554 53.4071C59.5179 53.2753 59.5535 53.1172 59.5535 52.9503V50.7363H60.0977V52.9151C60.0977 53.2051 60.0441 53.4511 59.9371 53.6707C59.8301 53.8903 59.6695 54.0573 59.4643 54.1803C59.2592 54.2945 59.0183 54.356 58.7329 54.356V54.3648Z" fill="#5F6368"/>
<path d="M61.3477 54.2857V50.7363H62.7035C62.8997 50.7363 63.087 50.7715 63.2476 50.8593C63.4082 50.9384 63.533 51.0526 63.6312 51.1932C63.7293 51.3337 63.7739 51.4919 63.7739 51.6764C63.7739 51.8521 63.7293 52.0102 63.6401 52.142C63.5509 52.2738 63.4349 52.3704 63.2833 52.4319V52.4583C63.4706 52.5198 63.6133 52.6164 63.7293 52.7658C63.8452 52.9064 63.8988 53.0821 63.8988 53.2841C63.8988 53.4862 63.8542 53.6531 63.7471 53.8025C63.6401 53.9518 63.5063 54.066 63.3368 54.1539C63.1584 54.233 62.9711 54.2769 62.7659 54.2769H61.3477V54.2857ZM61.6509 52.7131V52.2299H62.6767C62.8016 52.2299 62.8997 52.2035 62.98 52.1596C63.0603 52.1069 63.1227 52.0454 63.1673 51.9663C63.2119 51.8872 63.2387 51.8082 63.2387 51.7291C63.2387 51.65 63.2119 51.571 63.1762 51.4919C63.1316 51.4128 63.0692 51.3601 62.9889 51.3074C62.9086 51.2635 62.8105 51.2371 62.7035 51.2371H61.9096V53.7761H62.7659C62.8908 53.7761 62.9889 53.7586 63.0781 53.7058C63.1673 53.6531 63.2298 53.5916 63.2744 53.5038C63.3279 53.4247 63.3457 53.3368 63.3457 53.249C63.3457 53.1524 63.3279 53.0645 63.2744 52.9854C63.2298 52.9064 63.1584 52.8361 63.0692 52.7921C62.98 52.7394 62.873 52.7131 62.7481 52.7131H61.6509Z" fill="#5F6368"/>
<path d="M64.9678 54.2857V50.7363H65.5208V53.7673H67.0818V54.2857H64.9678Z" fill="#5F6368"/>
<path d="M68.1094 54.2857V50.7363H68.6624V54.2857H68.1094Z" fill="#5F6368"/>
<path d="M71.6585 54.3657C71.3909 54.3657 71.1411 54.313 70.9181 54.2163C70.6862 54.1285 70.49 53.9967 70.3205 53.8298C70.151 53.6629 70.0172 53.4608 69.9191 53.2412C69.821 53.0127 69.7764 52.7667 69.7764 52.5032C69.7764 52.2484 69.821 52.0024 69.9191 51.774C70.0172 51.5455 70.151 51.3523 70.3205 51.1853C70.49 51.0184 70.6862 50.8866 70.9181 50.7988C71.1411 50.7021 71.3909 50.6582 71.6585 50.6582C71.8458 50.6582 72.0242 50.6758 72.1847 50.7285C72.3453 50.7724 72.4969 50.8339 72.6307 50.9218C72.7645 51.0096 72.8894 51.1151 72.9965 51.238L72.604 51.607C72.5237 51.5104 72.4434 51.4313 72.3453 51.3698C72.2472 51.3083 72.1491 51.2556 72.0331 51.2205C71.9171 51.1853 71.8012 51.1766 71.6674 51.1766C71.4266 51.1766 71.2036 51.2293 70.9984 51.3347C70.8022 51.4489 70.6327 51.607 70.5167 51.8003C70.4008 52.0024 70.3383 52.2396 70.3383 52.512C70.3383 52.7843 70.4008 53.0127 70.5167 53.2148C70.6327 53.4169 70.8022 53.5662 70.9984 53.6804C71.2036 53.7946 71.4266 53.8474 71.6674 53.8474C71.8815 53.8474 72.0777 53.8034 72.2472 53.7156C72.4167 53.6277 72.5683 53.5047 72.7021 53.3466L73.1035 53.7244C72.9875 53.8561 72.8627 53.9616 72.711 54.0582C72.5594 54.1548 72.3988 54.2339 72.2293 54.2866C72.0509 54.3393 71.8636 54.3657 71.6585 54.3657Z" fill="#5F6368"/>
<path d="M76.8863 54.3657C76.699 54.3657 76.5117 54.3218 76.3422 54.2515C76.1638 54.1724 76.0121 54.067 75.8783 53.9176C75.7445 53.7771 75.6464 53.5926 75.584 53.3817L76.1103 53.1709C76.1638 53.3641 76.2619 53.5223 76.3957 53.6541C76.5295 53.7859 76.699 53.8474 76.8952 53.8474C77.0112 53.8474 77.1182 53.8298 77.2163 53.7859C77.3144 53.7507 77.3947 53.6892 77.4572 53.6101C77.5196 53.5311 77.5464 53.4344 77.5464 53.329C77.5464 53.2236 77.5196 53.1357 77.475 53.0567C77.4215 52.9864 77.3412 52.9161 77.2342 52.8546C77.1182 52.7931 76.9755 52.7316 76.806 52.6701L76.5741 52.591C76.4849 52.5559 76.3779 52.512 76.2797 52.4592C76.1816 52.4065 76.0835 52.345 76.0032 52.266C75.914 52.1869 75.8427 52.099 75.7981 51.9936C75.7445 51.8882 75.7178 51.7652 75.7178 51.6246C75.7178 51.4401 75.7624 51.282 75.8605 51.1414C75.9586 50.9921 76.0924 50.8778 76.2619 50.79C76.4314 50.7021 76.6276 50.6582 76.8595 50.6582C77.0825 50.6582 77.2788 50.7021 77.4393 50.7812C77.5999 50.8603 77.7158 50.9569 77.805 51.0711C77.8942 51.1766 77.9567 51.2908 77.9924 51.3874L77.4928 51.5983C77.4661 51.528 77.4304 51.4665 77.3858 51.3962C77.3323 51.3347 77.2609 51.2732 77.1717 51.2293C77.0915 51.1853 76.9844 51.1678 76.8595 51.1678C76.7525 51.1678 76.6544 51.1853 76.5652 51.2205C76.476 51.2644 76.4046 51.3171 76.3511 51.3874C76.2976 51.4489 76.2708 51.528 76.2708 51.6158C76.2708 51.7476 76.3243 51.853 76.4314 51.9321C76.5384 52.0112 76.6901 52.0902 76.8952 52.1517L77.1271 52.2308C77.252 52.2747 77.368 52.3187 77.4839 52.3714C77.5999 52.4329 77.698 52.5032 77.7961 52.5822C77.8853 52.6701 77.9656 52.7667 78.0191 52.8897C78.0726 53.0127 78.0994 53.1533 78.0994 53.3202C78.0994 53.5047 78.0637 53.6541 77.9924 53.7946C77.921 53.9264 77.8229 54.0318 77.7069 54.1197C77.582 54.2076 77.4572 54.2603 77.3144 54.3042C77.1717 54.3481 77.029 54.3657 76.8863 54.3657Z" fill="#5F6368"/>
<path d="M79.1963 54.2857V50.7363H81.3817V51.2459H79.7493V53.7673H81.3817V54.2857H79.1963ZM79.4996 52.7658V52.2474H81.2211V52.7658H79.4996Z" fill="#5F6368"/>
<path d="M84.1117 54.3657C83.8441 54.3657 83.5944 54.313 83.3625 54.2163C83.1395 54.1285 82.9343 53.9967 82.7648 53.8298C82.5953 53.6629 82.4615 53.4608 82.3723 53.2412C82.2742 53.0127 82.2207 52.7667 82.2207 52.5032C82.2207 52.2484 82.2742 52.0024 82.3723 51.774C82.4615 51.5543 82.5953 51.3523 82.7648 51.1853C82.9343 51.0184 83.1395 50.8866 83.3625 50.7988C83.5944 50.7021 83.8441 50.6582 84.1117 50.6582C84.299 50.6582 84.4685 50.6758 84.6291 50.7285C84.7896 50.7724 84.9413 50.8339 85.0751 50.9218C85.2089 51.0096 85.3338 51.1151 85.4497 51.238L85.0572 51.607C84.977 51.5104 84.8878 51.4313 84.7896 51.3698C84.7004 51.2995 84.5934 51.2556 84.4864 51.2205C84.3704 51.1853 84.2455 51.1766 84.1117 51.1766C83.8709 51.1766 83.6479 51.2293 83.4427 51.3347C83.2465 51.4489 83.0859 51.607 82.9611 51.8003C82.8451 52.0024 82.7827 52.2396 82.7827 52.512C82.7827 52.7843 82.8451 53.0127 82.9611 53.2148C83.0859 53.4169 83.2465 53.5662 83.4427 53.6804C83.6479 53.7946 83.8709 53.8474 84.1117 53.8474C84.3347 53.8474 84.522 53.8034 84.6915 53.7156C84.861 53.6277 85.0126 53.5047 85.1464 53.3466L85.5478 53.7244C85.4319 53.8561 85.307 53.9616 85.1554 54.0582C85.0126 54.1548 84.8521 54.2339 84.6737 54.2866C84.5042 54.3393 84.308 54.3657 84.1117 54.3657Z" fill="#5F6368"/>
<path d="M86.2871 51.2459V50.7363H88.856V51.2459H86.2871ZM87.2951 54.2857V51.0263H87.8481V54.2857H87.2951Z" fill="#5F6368"/>
<path d="M91.3527 54.3657C91.0762 54.3657 90.8353 54.313 90.6034 54.2163C90.3804 54.1197 90.1752 53.9879 90.0147 53.821C89.8452 53.6453 89.7114 53.452 89.6133 53.2236C89.5241 53.0039 89.4795 52.7667 89.4795 52.5032C89.4795 52.2484 89.5241 52.0112 89.6133 51.7915C89.7114 51.5631 89.8452 51.3698 90.0147 51.1941C90.1752 51.0272 90.3804 50.8954 90.6034 50.7988C90.8353 50.7021 91.0762 50.6494 91.3527 50.6494C91.6203 50.6494 91.8611 50.7021 92.093 50.7988C92.316 50.8954 92.5123 51.0272 92.6817 51.1941C92.8512 51.3698 92.985 51.5631 93.0831 51.7915C93.1723 52.0112 93.2169 52.2484 93.2169 52.5032C93.2169 52.7667 93.1723 53.0039 93.0831 53.2236C92.985 53.452 92.8601 53.6453 92.6817 53.821C92.5123 53.9879 92.316 54.1197 92.093 54.2163C91.8611 54.313 91.6203 54.3657 91.3527 54.3657ZM91.3527 53.8474C91.5935 53.8474 91.8165 53.7859 92.0127 53.6804C92.209 53.5662 92.3695 53.4081 92.4855 53.206C92.6015 53.0039 92.6639 52.7755 92.6639 52.5119C92.6639 52.2484 92.6015 52.0112 92.4855 51.8091C92.3695 51.607 92.209 51.4489 92.0127 51.3347C91.8165 51.2293 91.5935 51.1678 91.3527 51.1678C91.1029 51.1678 90.8888 51.2293 90.6837 51.3347C90.4874 51.4489 90.3269 51.607 90.2109 51.8091C90.095 52.0112 90.0325 52.2396 90.0325 52.5119C90.0325 52.7755 90.095 53.0039 90.2109 53.206C90.3269 53.4081 90.4874 53.5662 90.6837 53.6804C90.8888 53.7859 91.1029 53.8474 91.3527 53.8474Z" fill="#5F6368"/>
<path d="M94.334 54.2857V50.7363H95.6006C95.8236 50.7363 96.0288 50.7803 96.1982 50.8681C96.3766 50.9648 96.5104 51.0878 96.6175 51.2547C96.7156 51.4128 96.7691 51.6061 96.7691 51.8169C96.7691 51.9575 96.7424 52.0981 96.6799 52.2211C96.6175 52.3529 96.5372 52.4671 96.4302 52.5637C96.3142 52.6691 96.1893 52.7482 96.0288 52.8009C95.8682 52.8624 95.6987 52.8888 95.5025 52.8888H94.6373V52.388H95.5828C95.6987 52.388 95.8058 52.3617 95.895 52.3089C95.9931 52.265 96.0644 52.1947 96.118 52.1069C96.1804 52.019 96.2072 51.9224 96.2072 51.8169C96.2072 51.7203 96.1893 51.6237 96.1358 51.5358C96.0912 51.448 96.0198 51.3777 95.9307 51.325C95.8414 51.2722 95.7344 51.2459 95.6095 51.2459H94.887V54.2769H94.334V54.2857ZM95.1725 52.6604L95.8058 52.6516L96.9386 54.2505V54.2857H96.2964L95.1725 52.6604Z" fill="#5F6368"/>
<path d="M54.2832 103.493V98.7314H55.0325V102.808H57.1197V103.493H54.2832Z" fill="#5F6368"/>
<path d="M58.8234 103.608C58.5736 103.608 58.3506 103.555 58.1633 103.459C57.9671 103.362 57.8244 103.23 57.7084 103.054C57.6014 102.888 57.5479 102.685 57.5479 102.466C57.5479 102.229 57.6103 102.018 57.7352 101.851C57.869 101.684 58.0384 101.552 58.2525 101.464C58.4666 101.376 58.7074 101.332 58.9661 101.332C59.1178 101.332 59.2516 101.341 59.3764 101.359C59.4924 101.385 59.5994 101.403 59.6976 101.429C59.7957 101.455 59.867 101.482 59.9206 101.517V101.332C59.9206 101.113 59.8403 100.937 59.6797 100.805C59.5192 100.674 59.3051 100.603 59.0464 100.603C58.868 100.603 58.7074 100.647 58.5469 100.717C58.3863 100.797 58.2614 100.902 58.1544 101.034L57.6638 100.656C57.7619 100.524 57.8868 100.401 58.0295 100.305C58.1722 100.208 58.3239 100.138 58.5023 100.076C58.6807 100.023 58.868 99.9971 59.0642 99.9971C59.5638 99.9971 59.9473 100.12 60.2149 100.366C60.4914 100.603 60.6252 100.946 60.6252 101.376V103.503H59.9206V103.081H59.876C59.8135 103.169 59.7332 103.248 59.6262 103.336C59.5281 103.415 59.4121 103.476 59.2783 103.529C59.1356 103.582 58.984 103.608 58.8234 103.608ZM58.9483 103.019C59.1445 103.019 59.314 102.975 59.4567 102.888C59.5994 102.791 59.7154 102.677 59.7957 102.536C59.8849 102.387 59.9206 102.237 59.9206 102.07C59.8224 102.009 59.6976 101.965 59.5548 101.921C59.421 101.886 59.2694 101.868 59.0999 101.868C58.8056 101.868 58.6004 101.921 58.4755 102.044C58.3506 102.158 58.2793 102.299 58.2793 102.475C58.2793 102.633 58.3417 102.765 58.4666 102.861C58.5826 102.967 58.7431 103.019 58.9572 103.019H58.9483Z" fill="#5F6368"/>
<path d="M61.0723 100.735V100.111H61.7145V100.735H61.0723ZM62.7314 103.555C62.4103 103.555 62.1516 103.458 61.9643 103.274C61.7769 103.08 61.6788 102.834 61.6788 102.509V99.1445H62.4103V102.36C62.4103 102.536 62.4459 102.668 62.5173 102.747C62.5887 102.834 62.7046 102.878 62.8652 102.878C62.9365 102.878 63.0079 102.87 63.0703 102.843C63.1328 102.826 63.1952 102.791 63.2755 102.747V103.449C63.1863 103.476 63.106 103.502 63.0168 103.52C62.9187 103.537 62.8295 103.546 62.7314 103.546V103.555ZM62.3657 100.735V100.111H63.2487V100.735H62.3657Z" fill="#5F6368"/>
<path d="M64.3187 99.6109C64.1849 99.6109 64.069 99.5582 63.9708 99.4704C63.8727 99.3737 63.8281 99.2595 63.8281 99.1277C63.8281 98.9872 63.8727 98.873 63.9708 98.7763C64.069 98.6885 64.1849 98.6445 64.3187 98.6445C64.4614 98.6445 64.5774 98.6885 64.6755 98.7763C64.7647 98.873 64.8182 98.9872 64.8182 99.1277C64.8182 99.2595 64.7647 99.3737 64.6755 99.4704C64.5774 99.5582 64.4614 99.6109 64.3187 99.6109ZM63.953 103.494V100.103H64.6844V103.494H63.953Z" fill="#5F6368"/>
<path d="M65.5312 103.494V100.102H66.227V100.568H66.2627C66.3697 100.401 66.5124 100.269 66.7087 100.164C66.9049 100.05 67.119 99.9971 67.3598 99.9971C67.7791 99.9971 68.1002 100.12 68.3143 100.366C68.5283 100.612 68.6354 100.937 68.6354 101.359V103.494H67.9039V101.447C67.9039 101.174 67.8326 100.972 67.6988 100.84C67.5561 100.717 67.3688 100.656 67.1458 100.656C66.9674 100.656 66.8157 100.7 66.6819 100.797C66.557 100.893 66.45 101.016 66.3786 101.174C66.2984 101.324 66.2627 101.491 66.2627 101.675V103.494H65.5312Z" fill="#5F6368"/>
<path d="M70.7139 103.493L72.5425 98.7314H73.3898L75.2273 103.493H74.4067L73.1668 100.137L72.9884 99.5924H72.9438L72.7654 100.137L71.5345 103.493H70.7139ZM71.588 102.272L71.8289 101.596H72.9082V102.272H71.588ZM72.9082 102.272V101.596H74.0321L74.2729 102.272H72.9082Z" fill="#5F6368"/>
<path d="M75.754 103.494V100.102H76.4409V100.568H76.4855C76.5479 100.454 76.6371 100.357 76.7441 100.278C76.8512 100.19 76.9761 100.129 77.1188 100.076C77.2526 100.023 77.3953 99.9971 77.5469 99.9971C77.8056 99.9971 78.0286 100.059 78.207 100.173C78.3854 100.296 78.5103 100.445 78.5906 100.63C78.7065 100.454 78.8582 100.305 79.0544 100.182C79.2506 100.059 79.4826 99.9971 79.7591 99.9971C80.1694 99.9971 80.4727 100.12 80.6689 100.357C80.8741 100.603 80.9722 100.92 80.9722 101.324V103.494H80.2408V101.438C80.2408 101.166 80.1872 100.963 80.0624 100.84C79.9464 100.717 79.7769 100.656 79.5628 100.656C79.3934 100.656 79.2506 100.7 79.1258 100.797C79.0009 100.884 78.9028 101.007 78.8314 101.166C78.7601 101.315 78.7244 101.491 78.7244 101.684V103.494H78.0019V101.438C78.0019 101.174 77.9394 100.972 77.8145 100.849C77.6897 100.717 77.5202 100.656 77.2972 100.656C77.1455 100.656 77.0028 100.709 76.8779 100.797C76.7531 100.893 76.6549 101.016 76.5836 101.174C76.5122 101.332 76.4766 101.499 76.4766 101.693V103.503H75.7451L75.754 103.494Z" fill="#5F6368"/>
<path d="M83.3618 103.608C83.0229 103.608 82.7196 103.529 82.452 103.371C82.1844 103.213 81.9793 103.002 81.8276 102.729C81.676 102.457 81.5957 102.15 81.5957 101.807C81.5957 101.482 81.6671 101.183 81.8187 100.911C81.9614 100.638 82.1666 100.419 82.4253 100.252C82.6839 100.085 82.9783 99.9971 83.3172 99.9971C83.674 99.9971 83.9773 100.076 84.2271 100.225C84.4768 100.375 84.6731 100.586 84.8069 100.84C84.9318 101.104 85.0031 101.403 85.0031 101.728C85.0031 101.781 85.0031 101.824 84.9942 101.86C84.9942 101.904 84.9942 101.93 84.9853 101.956H82.006V101.412H84.2717C84.2717 101.332 84.2449 101.245 84.2092 101.148C84.1646 101.051 84.1111 100.963 84.0308 100.884C83.9506 100.805 83.8524 100.735 83.7365 100.691C83.6205 100.638 83.4867 100.612 83.3262 100.612C83.1299 100.612 82.9515 100.665 82.7999 100.761C82.6393 100.858 82.5234 100.999 82.4342 101.174C82.345 101.359 82.3093 101.561 82.3093 101.798C82.3093 102.053 82.3539 102.264 82.4609 102.439C82.5591 102.615 82.6839 102.747 82.8534 102.835C83.014 102.923 83.1924 102.967 83.3797 102.967C83.6116 102.967 83.7989 102.914 83.9595 102.808C84.1111 102.703 84.236 102.58 84.3252 102.422L84.9318 102.703C84.7801 102.975 84.5839 103.186 84.3252 103.353C84.0665 103.52 83.7454 103.608 83.3618 103.608Z" fill="#5F6368"/>
<path d="M85.6543 103.494V100.103H86.3501V100.603H86.3857C86.4393 100.489 86.5195 100.384 86.6266 100.296C86.7247 100.208 86.8406 100.138 86.9744 100.085C87.1082 100.032 87.251 100.006 87.3937 100.006C87.4918 100.006 87.5721 100.015 87.6345 100.023C87.697 100.032 87.7594 100.05 87.8129 100.076V100.814C87.7237 100.779 87.6434 100.753 87.5542 100.726C87.465 100.709 87.3758 100.7 87.2777 100.7C87.1082 100.7 86.9566 100.744 86.8228 100.832C86.689 100.928 86.582 101.043 86.5106 101.192C86.4303 101.35 86.3947 101.517 86.3947 101.701V103.494H85.6543Z" fill="#5F6368"/>
<path d="M88.7056 99.6109C88.5629 99.6109 88.4469 99.5582 88.3488 99.4704C88.2596 99.3737 88.2061 99.2595 88.2061 99.1277C88.2061 98.9872 88.2596 98.873 88.3488 98.7763C88.4469 98.6885 88.5629 98.6445 88.7056 98.6445C88.8394 98.6445 88.9642 98.6885 89.0534 98.7763C89.1516 98.873 89.1962 98.9872 89.1962 99.1277C89.1962 99.2595 89.1516 99.3737 89.0534 99.4704C88.9553 99.5582 88.8394 99.6109 88.7056 99.6109ZM88.3399 103.494V100.103H89.0713V103.494H88.3399Z" fill="#5F6368"/>
<path d="M91.5154 103.608C91.1676 103.608 90.8554 103.529 90.5878 103.371C90.3202 103.213 90.115 103.002 89.9634 102.729C89.8117 102.457 89.7314 102.15 89.7314 101.807C89.7314 101.455 89.8117 101.148 89.9634 100.876C90.115 100.612 90.3202 100.392 90.5878 100.234C90.8554 100.076 91.1676 99.9971 91.5154 99.9971C91.899 99.9971 92.2201 100.085 92.4877 100.252C92.7553 100.428 92.9426 100.656 93.0497 100.937L92.3896 101.209C92.3093 101.025 92.1933 100.884 92.0417 100.797C91.8901 100.709 91.7117 100.665 91.4976 100.665C91.3103 100.665 91.1319 100.709 90.9802 100.805C90.8197 100.902 90.6948 101.034 90.5967 101.201C90.5075 101.368 90.454 101.57 90.454 101.807C90.454 102.035 90.5075 102.237 90.5967 102.404C90.6948 102.58 90.8197 102.712 90.9802 102.808C91.1319 102.896 91.3103 102.949 91.4976 102.949C91.7206 102.949 91.9079 102.896 92.0595 102.8C92.2112 102.703 92.3361 102.562 92.4253 102.387L93.0764 102.668C92.9515 102.94 92.7553 103.16 92.4877 103.344C92.2201 103.52 91.899 103.608 91.5154 103.608Z" fill="#5F6368"/>
<path d="M94.761 103.608C94.5113 103.608 94.2883 103.555 94.092 103.459C93.9047 103.362 93.7531 103.23 93.646 103.054C93.5301 102.888 93.4766 102.685 93.4766 102.466C93.4766 102.229 93.5479 102.018 93.6728 101.851C93.7977 101.684 93.9761 101.552 94.1902 101.464C94.4042 101.376 94.6362 101.332 94.9037 101.332C95.0554 101.332 95.1892 101.341 95.3141 101.359C95.43 101.385 95.5371 101.403 95.6352 101.429C95.7333 101.455 95.8047 101.482 95.8582 101.517V101.332C95.8582 101.113 95.7779 100.937 95.6173 100.805C95.4479 100.674 95.2427 100.603 94.984 100.603C94.8056 100.603 94.6362 100.647 94.4845 100.717C94.324 100.797 94.1902 100.902 94.092 101.034L93.6014 100.656C93.6996 100.524 93.8244 100.401 93.9582 100.305C94.101 100.208 94.2615 100.138 94.4399 100.076C94.6183 100.023 94.8056 99.9971 95.0019 99.9971C95.5014 99.9971 95.8849 100.12 96.1525 100.366C96.4201 100.603 96.5629 100.946 96.5629 101.376V103.503H95.8582V103.081H95.8136C95.7511 103.169 95.6709 103.248 95.5638 103.336C95.4657 103.415 95.3408 103.476 95.207 103.529C95.0732 103.582 94.9216 103.608 94.7521 103.608H94.761ZM94.8859 103.019C95.0821 103.019 95.2427 102.975 95.3943 102.888C95.5371 102.791 95.653 102.677 95.7333 102.536C95.8225 102.387 95.8582 102.237 95.8582 102.07C95.7601 102.009 95.6352 101.965 95.4925 101.921C95.3497 101.886 95.1981 101.868 95.0375 101.868C94.7432 101.868 94.538 101.921 94.4042 102.044C94.2794 102.158 94.2169 102.299 94.2169 102.475C94.2169 102.633 94.2794 102.765 94.3953 102.861C94.5202 102.967 94.6808 103.019 94.8859 103.019Z" fill="#5F6368"/>
<path d="M66.138 124.139V123.296C66.1558 123.287 66.2093 123.234 66.2896 123.146C66.3788 123.059 66.4858 122.936 66.6196 122.795C66.7534 122.654 66.8962 122.505 67.0478 122.338C67.1994 122.18 67.36 122.022 67.5116 121.855C67.6633 121.697 67.806 121.547 67.9309 121.416C68.0557 121.284 68.1539 121.187 68.2163 121.108C68.4482 120.871 68.6177 120.651 68.7158 120.458C68.8229 120.265 68.8675 120.063 68.8675 119.843C68.8675 119.694 68.8318 119.544 68.7604 119.413C68.6801 119.281 68.5731 119.167 68.4304 119.088C68.2787 119 68.1182 118.956 67.9219 118.956C67.7346 118.956 67.5741 119 67.4403 119.07C67.3065 119.149 67.1905 119.246 67.1102 119.36C67.0299 119.474 66.9675 119.597 66.9407 119.711L66.1201 119.386C66.1647 119.254 66.2272 119.114 66.3164 118.973C66.4145 118.824 66.5304 118.683 66.6821 118.552C66.8337 118.42 67.021 118.314 67.2262 118.235C67.4403 118.156 67.6811 118.121 67.9487 118.121C68.3323 118.121 68.6623 118.2 68.9299 118.358C69.2064 118.525 69.4205 118.736 69.5721 118.982C69.7238 119.246 69.7951 119.518 69.7951 119.808C69.7951 120.054 69.7505 120.291 69.6524 120.52C69.5543 120.739 69.4383 120.959 69.2956 121.161C69.1529 121.354 69.0013 121.539 68.8496 121.697C68.7783 121.776 68.6801 121.873 68.5642 121.996C68.4482 122.11 68.3323 122.242 68.2074 122.373C68.0825 122.505 67.9576 122.637 67.8417 122.769C67.7168 122.892 67.6097 123.006 67.5205 123.102C67.4224 123.199 67.36 123.269 67.3154 123.305L67.3243 123.331H69.8576V124.139H66.138Z" fill="#1A73E8"/>
<path d="M73.0159 124.271C72.6591 124.271 72.3379 124.192 72.0436 124.034C71.7582 123.876 71.5084 123.656 71.3032 123.375C71.0981 123.102 70.9375 122.777 70.8305 122.408C70.7234 122.031 70.6699 121.627 70.6699 121.196C70.6699 120.766 70.7234 120.361 70.8305 119.984C70.9375 119.615 71.0981 119.29 71.3032 119.008C71.5084 118.727 71.7582 118.508 72.0436 118.358C72.3379 118.2 72.6591 118.121 73.0159 118.121C73.3727 118.121 73.7027 118.2 73.9881 118.358C74.2736 118.508 74.5233 118.727 74.7285 119.008C74.9426 119.29 75.0942 119.615 75.2102 119.984C75.3172 120.361 75.3707 120.766 75.3707 121.196C75.3707 121.627 75.3172 122.031 75.2102 122.408C75.0942 122.777 74.9426 123.102 74.7285 123.375C74.5233 123.656 74.2736 123.876 73.9881 124.034C73.7027 124.192 73.3727 124.271 73.0159 124.271ZM73.0159 123.428C73.3191 123.428 73.5778 123.331 73.7919 123.138C74.006 122.936 74.1665 122.672 74.2825 122.329C74.3984 121.996 74.452 121.618 74.452 121.196C74.452 120.766 74.3984 120.388 74.2825 120.045C74.1665 119.711 74.006 119.439 73.7919 119.246C73.5778 119.052 73.3191 118.956 73.0159 118.956C72.7126 118.956 72.4628 119.052 72.2487 119.246C72.0347 119.439 71.8741 119.711 71.7582 120.045C71.6511 120.379 71.5887 120.766 71.5887 121.196C71.5887 121.618 71.6511 121.996 71.7582 122.329C71.8741 122.672 72.0347 122.936 72.2487 123.138C72.4628 123.331 72.7215 123.428 73.0159 123.428Z" fill="#1A73E8"/>
<path d="M76.0382 124.139V123.296C76.0561 123.287 76.1096 123.234 76.1988 123.146C76.2791 123.059 76.395 122.936 76.5199 122.795C76.6537 122.654 76.7964 122.505 76.948 122.338C77.0997 122.18 77.2602 122.022 77.4119 121.855C77.5635 121.697 77.7062 121.547 77.8311 121.416C77.956 121.284 78.0541 121.187 78.1166 121.108C78.3485 120.871 78.518 120.651 78.6161 120.458C78.7231 120.265 78.7766 120.063 78.7766 119.843C78.7766 119.694 78.741 119.544 78.6607 119.413C78.5804 119.281 78.4734 119.167 78.3306 119.088C78.1879 119 78.0184 118.956 77.8311 118.956C77.6349 118.956 77.4743 119 77.3405 119.07C77.2067 119.149 77.0997 119.246 77.0105 119.36C76.9302 119.474 76.8678 119.597 76.841 119.711L76.0293 119.386C76.065 119.254 76.1274 119.114 76.2255 118.973C76.3147 118.824 76.4307 118.683 76.5823 118.552C76.734 118.42 76.9213 118.314 77.1354 118.235C77.3405 118.156 77.5814 118.121 77.8579 118.121C78.2325 118.121 78.5626 118.2 78.8302 118.358C79.1067 118.525 79.3207 118.736 79.4724 118.982C79.624 119.246 79.6954 119.518 79.6954 119.808C79.6954 120.054 79.6508 120.291 79.5527 120.52C79.4635 120.739 79.3386 120.959 79.1959 121.161C79.0532 121.354 78.9104 121.539 78.7499 121.697C78.6785 121.776 78.5893 121.873 78.4734 121.996C78.3574 122.11 78.2325 122.242 78.1076 122.373C77.9828 122.505 77.8579 122.637 77.7419 122.769C77.626 122.892 77.5189 123.006 77.4208 123.102C77.3316 123.199 77.2602 123.269 77.2156 123.305L77.2246 123.331H79.7578V124.139H76.0382Z" fill="#1A73E8"/>
<path d="M82.5515 124.271C82.2393 124.271 81.9538 124.209 81.7041 124.104C81.4454 123.99 81.2313 123.84 81.0529 123.656C80.8834 123.471 80.7496 123.261 80.6515 123.023C80.5534 122.777 80.5088 122.54 80.5088 122.285C80.5088 121.934 80.5891 121.609 80.7407 121.31C80.8923 121.012 81.0707 120.704 81.267 120.388C81.3919 120.212 81.5078 120.036 81.6238 119.852C81.7487 119.676 81.8735 119.492 81.9984 119.298C82.1233 119.105 82.2571 118.903 82.3909 118.71C82.5247 118.508 82.6674 118.306 82.8101 118.104L83.5148 118.578C83.3988 118.762 83.274 118.938 83.158 119.114C83.0331 119.298 82.9172 119.465 82.8012 119.632C82.6853 119.799 82.5782 119.948 82.4712 120.098C82.3731 120.247 82.2749 120.379 82.1857 120.493L82.2303 120.537C82.2749 120.511 82.3552 120.484 82.4533 120.458C82.5515 120.44 82.6585 120.432 82.7744 120.432C83.0777 120.432 83.3632 120.511 83.6308 120.669C83.9073 120.836 84.1214 121.055 84.2998 121.337C84.4692 121.618 84.5584 121.943 84.5584 122.312C84.5584 122.584 84.5049 122.839 84.3979 123.076C84.2908 123.322 84.1481 123.524 83.9608 123.709C83.7824 123.884 83.5683 124.025 83.3186 124.122C83.0777 124.218 82.828 124.271 82.5515 124.271ZM82.5425 123.445C82.7477 123.445 82.9439 123.401 83.1134 123.305C83.2829 123.208 83.4167 123.076 83.5237 122.9C83.6218 122.733 83.6754 122.54 83.6754 122.329C83.6754 122.11 83.6218 121.916 83.5148 121.741C83.4167 121.574 83.274 121.442 83.1045 121.345C82.935 121.249 82.7477 121.196 82.5425 121.196C82.3285 121.196 82.1501 121.249 81.9806 121.345C81.8022 121.451 81.6684 121.583 81.5613 121.75C81.4543 121.925 81.4097 122.11 81.4097 122.329C81.4097 122.54 81.4543 122.733 81.5524 122.9C81.6595 123.067 81.7933 123.199 81.9717 123.296C82.1411 123.401 82.3285 123.445 82.5425 123.445Z" fill="#1A73E8"/>
<path d="M50.6357 70.0652V59.6279H54.2929C54.9351 59.6279 55.5239 59.7597 56.0501 60.0233C56.5764 60.2956 56.9956 60.6646 57.3078 61.1478C57.62 61.631 57.7717 62.1933 57.7717 62.8171C57.7717 63.4496 57.62 63.9943 57.3078 64.4863C56.9956 64.9695 56.5764 65.3473 56.0501 65.6109C55.5239 65.8832 54.9351 66.015 54.2929 66.015H51.5277V64.4951H54.3375C54.73 64.4951 55.0511 64.4161 55.3276 64.2579C55.5952 64.0998 55.8004 63.8889 55.9431 63.6254C56.0858 63.3706 56.1572 63.0982 56.1572 62.8171C56.1572 62.5359 56.0858 62.2724 55.9431 62.0176C55.7915 61.7628 55.5952 61.5607 55.3276 61.3938C55.06 61.2269 54.73 61.1478 54.3375 61.1478H52.277V70.0739H50.6447L50.6357 70.0652Z" fill="#3C4043"/>
<path d="M61.3654 70.3025C60.8124 70.3025 60.3307 70.1883 59.9115 69.9774C59.4923 69.7666 59.1622 69.4679 58.9214 69.0989C58.6805 68.7211 58.5557 68.2906 58.5557 67.8074C58.5557 67.2715 58.6984 66.8234 58.9838 66.4456C59.2693 66.0767 59.6439 65.7955 60.1167 65.6022C60.5805 65.4089 61.1068 65.3123 61.6776 65.3123C62.0077 65.3123 62.302 65.3299 62.5696 65.3738C62.8372 65.4177 63.0781 65.4704 63.2832 65.5319C63.4973 65.5847 63.6579 65.6462 63.7738 65.7164V65.3211C63.7738 64.8379 63.5954 64.4513 63.2386 64.1614C62.8818 63.8627 62.418 63.7221 61.856 63.7221C61.4725 63.7221 61.1068 63.8012 60.7589 63.9769C60.411 64.1438 60.1256 64.3723 59.9115 64.671L58.8233 63.8363C59.0373 63.5376 59.3049 63.2741 59.6171 63.0632C59.9293 62.8524 60.2772 62.6854 60.6697 62.5712C61.0532 62.4482 61.4636 62.3955 61.9006 62.3955C62.9889 62.3955 63.8363 62.6591 64.425 63.1862C65.0226 63.7221 65.317 64.4601 65.317 65.4089V70.0653H63.7738V69.1428H63.6846C63.5419 69.3361 63.3635 69.5206 63.1405 69.6963C62.9175 69.872 62.6588 70.0214 62.3645 70.1268C62.0612 70.241 61.7312 70.2937 61.3654 70.2937V70.3025ZM61.6509 69.0198C62.0701 69.0198 62.4358 68.9144 62.7569 68.7211C63.0691 68.5278 63.3189 68.273 63.5062 67.9568C63.6846 67.6405 63.7827 67.2978 63.7827 66.9288C63.5508 66.8059 63.2832 66.7004 62.9799 66.6126C62.6677 66.5335 62.3377 66.4896 61.9809 66.4896C61.3387 66.4896 60.8748 66.6214 60.5983 66.8673C60.3218 67.1221 60.1791 67.4384 60.1791 67.8162C60.1791 68.1676 60.3129 68.4575 60.5716 68.6772C60.8392 68.9056 61.196 69.011 61.6509 69.011V69.0198Z" fill="#3C4043"/>
<path d="M67.1641 70.0643V62.623H68.6804V63.7212H68.7696C68.8945 63.4664 69.064 63.2467 69.287 63.0447C69.51 62.8514 69.7687 62.702 70.063 62.579C70.3485 62.4648 70.6607 62.4033 70.9729 62.4033C71.178 62.4033 71.3564 62.4209 71.4991 62.4472C71.6419 62.4648 71.7757 62.5087 71.8916 62.5527V64.1868C71.7043 64.1077 71.517 64.0462 71.3207 64.0023C71.1245 63.9496 70.9283 63.9232 70.7231 63.9232C70.3396 63.9232 70.0095 64.0286 69.7152 64.2219C69.4208 64.424 69.1889 64.6876 69.0283 65.0214C68.8588 65.3465 68.7696 65.7155 68.7696 66.1284V70.0643H67.1641Z" fill="#3C4043"/>
<path d="M72.7393 64.0025V62.6232H74.1575V64.0025H72.7393ZM76.3875 70.1787C75.6828 70.1787 75.1209 69.9767 74.7016 69.5725C74.2913 69.1596 74.0772 68.6061 74.0772 67.9033V60.5234H75.6828V67.5694C75.6828 67.956 75.7631 68.2459 75.9237 68.4304C76.0842 68.6149 76.334 68.7028 76.6819 68.7028C76.8424 68.7028 76.9851 68.6852 77.1279 68.6413C77.2706 68.5974 77.4222 68.5271 77.5917 68.4304V69.9591C77.4044 70.0294 77.2081 70.0821 77.0119 70.126C76.8157 70.1612 76.6016 70.1787 76.3875 70.1787ZM75.5936 64.0025V62.6232H77.5293V64.0025H75.5936Z" fill="#3C4043"/>
<path d="M79.1787 70.0653V62.6239H80.6951V63.6518H80.7843C80.9984 63.2916 81.3284 62.9929 81.7566 62.7557C82.1847 62.5097 82.6575 62.3955 83.1748 62.3955C84.1114 62.3955 84.8072 62.6679 85.2799 63.2038C85.7438 63.7397 85.9757 64.4689 85.9757 65.3738V70.0653H84.3879V65.5759C84.3879 64.9697 84.2274 64.5304 83.9241 64.258C83.6119 63.9769 83.2105 63.8363 82.7199 63.8363C82.3364 63.8363 81.9974 63.9418 81.712 64.1526C81.4176 64.3635 81.1946 64.6358 81.0341 64.9785C80.8735 65.3211 80.7843 65.6813 80.7843 66.0679V70.0653H79.1787Z" fill="#3C4043"/>
<path d="M91.336 70.3025C90.5956 70.3025 89.9266 70.1268 89.3468 69.7841C88.7581 69.4503 88.3032 68.9847 87.9731 68.3872C87.6342 67.7986 87.4736 67.1221 87.4736 66.3666C87.4736 65.6549 87.6342 64.996 87.9464 64.3898C88.2675 63.7924 88.7135 63.3092 89.2755 62.9402C89.8463 62.58 90.5064 62.3955 91.2468 62.3955C92.0317 62.3955 92.7007 62.5624 93.2448 62.8875C93.7979 63.2213 94.2171 63.6694 94.5025 64.2493C94.7969 64.8203 94.9396 65.4704 94.9396 66.1821C94.9396 66.2963 94.9307 66.3929 94.9307 66.4808C94.9218 66.5686 94.9128 66.6301 94.9039 66.6829H88.3745V65.5056H93.3429C93.334 65.3211 93.2805 65.119 93.1913 64.9082C93.1021 64.7061 92.9772 64.5128 92.8077 64.3371C92.6383 64.1614 92.4242 64.0208 92.1655 63.9066C91.9068 63.7924 91.6125 63.7397 91.2646 63.7397C90.8275 63.7397 90.435 63.8451 90.105 64.0648C89.7661 64.2844 89.4985 64.5919 89.3111 64.9785C89.1238 65.365 89.0257 65.8219 89.0257 66.3314C89.0257 66.8937 89.1417 67.3681 89.3557 67.7459C89.5698 68.1237 89.8642 68.4136 90.221 68.6069C90.5778 68.8002 90.9613 68.8968 91.3806 68.8968C91.8801 68.8968 92.3082 68.7826 92.6472 68.5542C92.9951 68.3257 93.2627 68.0446 93.4589 67.702L94.788 68.3257C94.4579 68.9144 94.0119 69.3888 93.45 69.749C92.8791 70.118 92.1744 70.3025 91.336 70.3025Z" fill="#3C4043"/>
<path d="M96.4824 70.0643V62.623H97.9988V63.7212H98.088C98.204 63.4664 98.3734 63.2467 98.5964 63.0447C98.8194 62.8514 99.0781 62.702 99.3725 62.579C99.6668 62.4648 99.9701 62.4033 100.291 62.4033C100.496 62.4033 100.675 62.4209 100.818 62.4472C100.96 62.4648 101.085 62.5087 101.21 62.5527V64.1868C101.023 64.1077 100.826 64.0462 100.639 64.0023C100.443 63.9496 100.238 63.9232 100.033 63.9232C99.6579 63.9232 99.319 64.0286 99.0335 64.2219C98.7392 64.424 98.5072 64.6876 98.3378 65.0214C98.1683 65.3465 98.088 65.7155 98.088 66.1284V70.0643H96.4824Z" fill="#3C4043"/>
<path d="M43.3119 86.2302C42.5358 86.2302 41.8579 86.0545 41.2603 85.7031C40.6627 85.3517 40.1988 84.886 39.8599 84.2798C39.5298 83.6824 39.3604 83.0147 39.3604 82.2767C39.3604 81.5388 39.5298 80.871 39.8599 80.2736C40.1988 79.6762 40.6627 79.2018 41.2603 78.8504C41.8579 78.499 42.5448 78.3232 43.3297 78.3232C44.1057 78.3232 44.7837 78.499 45.3813 78.8592C45.97 79.2106 46.4338 79.685 46.7728 80.2736C47.1118 80.871 47.2812 81.5388 47.2812 82.2767C47.2812 83.0147 47.1118 83.6824 46.7728 84.2798C46.4338 84.8773 45.97 85.3517 45.3813 85.7031C44.7837 86.0545 44.0968 86.2302 43.3119 86.2302ZM43.3297 84.7894C43.74 84.7894 44.1325 84.684 44.4893 84.4907C44.8461 84.2886 45.1315 83.9987 45.3545 83.6297C45.5865 83.2519 45.6935 82.8039 45.6935 82.2767C45.6935 81.7584 45.5865 81.3103 45.3545 80.9325C45.1315 80.5548 44.8461 80.2736 44.4893 80.0716C44.1325 79.8695 43.749 79.7729 43.3297 79.7729C42.9105 79.7729 42.5269 79.8695 42.1612 80.0716C41.8044 80.2736 41.5101 80.5548 41.2871 80.9325C41.0641 81.3103 40.9481 81.7584 40.9481 82.2767C40.9481 82.8039 41.0641 83.2519 41.2871 83.6297C41.5101 84.0075 41.8044 84.2886 42.1701 84.4907C42.5358 84.684 42.9194 84.7894 43.3297 84.7894Z" fill="#3C4043"/>
<path d="M47.9756 79.9298V78.5593H49.4385V79.9298H47.9756ZM49.3582 86.0007V77.9443C49.3582 77.4435 49.4652 77.0043 49.6793 76.6265C49.8934 76.2575 50.1966 75.9588 50.598 75.7567C50.9905 75.5459 51.4544 75.4404 51.9896 75.4404C52.1947 75.4404 52.3909 75.4492 52.5783 75.4844C52.7745 75.5107 52.9618 75.5546 53.1402 75.6161V77.1448C52.9529 77.0658 52.7745 77.013 52.6139 76.9691C52.4445 76.934 52.2839 76.9164 52.1233 76.9164C51.7844 76.9164 51.499 77.0218 51.276 77.2239C51.0619 77.4347 50.9548 77.7247 50.9548 78.0937V86.0007H49.3582ZM50.8746 79.9298V78.5593H52.8548V79.9298H50.8746Z" fill="#3C4043"/>
<path d="M57.2529 79.9312V78.5607H58.6712V79.9312H57.2529ZM60.9012 86.1162C60.1965 86.1162 59.6345 85.9054 59.2153 85.5013C58.805 85.0971 58.5909 84.5436 58.5909 83.8408V76.4609H60.1965V83.4982C60.1965 83.8935 60.2768 84.1746 60.4373 84.3591C60.5979 84.5436 60.8477 84.6403 61.1955 84.6403C61.3561 84.6403 61.4988 84.6139 61.6415 84.5788C61.7842 84.5261 61.9359 84.4646 62.1054 84.3679V85.8966C61.918 85.9669 61.7218 86.0196 61.5256 86.0547C61.3293 86.0899 61.1153 86.1162 60.9012 86.1162ZM60.1073 79.9312V78.5607H62.0429V79.9312H60.1073Z" fill="#3C4043"/>
<path d="M63.6943 86.0017V75.5557H65.2999V78.4198L65.2107 79.5794H65.2999C65.5051 79.2192 65.8262 78.9205 66.2544 78.6833C66.6914 78.4461 67.1642 78.3319 67.6905 78.3319C68.3327 78.3319 68.859 78.4549 69.2782 78.7097C69.6974 78.9645 70.0096 79.3071 70.2237 79.7464C70.4289 80.1944 70.5359 80.7128 70.5359 81.3014V86.0017H68.9482V81.5123C68.9482 81.1081 68.8679 80.7831 68.7163 80.5283C68.5646 80.2735 68.3595 80.089 68.1097 79.966C67.8689 79.8342 67.5923 79.7727 67.2801 79.7727C66.8966 79.7727 66.5487 79.8782 66.2544 80.0978C65.96 80.3086 65.7281 80.5898 65.5586 80.9324C65.3891 81.2751 65.2999 81.644 65.2999 82.0306V86.0017H63.6943Z" fill="#3C4043"/>
<path d="M75.8965 86.2302C75.1562 86.2302 74.4872 86.0633 73.9074 85.7207C73.3186 85.378 72.8637 84.9124 72.5337 84.3238C72.1947 83.7264 72.0342 83.0499 72.0342 82.2943C72.0342 81.5827 72.1947 80.9325 72.5069 80.3263C72.8281 79.7201 73.274 79.2369 73.836 78.8767C74.4069 78.5077 75.067 78.3232 75.8073 78.3232C76.5923 78.3232 77.2613 78.4902 77.8054 78.824C78.3584 79.1491 78.7776 79.6059 79.0631 80.177C79.3485 80.7568 79.4912 81.3982 79.4912 82.1186C79.4912 82.224 79.4912 82.3207 79.4823 82.4085C79.4823 82.4964 79.4734 82.5667 79.4645 82.6106H72.9351V81.4333H77.9035C77.8946 81.2488 77.841 81.0555 77.7518 80.8447C77.6627 80.6338 77.5378 80.4406 77.3683 80.2648C77.1988 80.0891 76.9847 79.9486 76.7261 79.8344C76.4674 79.7289 76.1641 79.6674 75.8162 79.6674C75.3792 79.6674 74.9956 79.7816 74.6566 80.0013C74.3266 80.2209 74.059 80.5196 73.8717 80.9062C73.6844 81.3015 73.5862 81.7496 73.5862 82.268C73.5862 82.8302 73.7022 83.3046 73.9163 83.6824C74.1304 84.0602 74.4158 84.3413 74.7815 84.5434C75.1383 84.7367 75.5219 84.8333 75.9411 84.8333C76.4406 84.8333 76.8688 84.7191 77.2077 84.4907C77.5467 84.2623 77.8232 83.9723 78.0194 83.6385L79.3396 84.2623C79.0185 84.8421 78.5725 85.3165 78.0016 85.6855C77.4397 86.0457 76.735 86.2302 75.8965 86.2302Z" fill="#3C4043"/>
<path d="M81.6484 75.5557H83.5841L86.0103 79.4916H86.0995L88.4633 75.5557H90.4078L86.8666 81.1521H85.2521L81.6484 75.5557ZM85.2521 86.0017V80.4316H86.8666V86.0017H85.2521Z" fill="#3C4043"/>
<path d="M93.7091 86.2302C92.9599 86.2302 92.2998 86.0633 91.7111 85.7207C91.1313 85.378 90.6764 84.9124 90.3374 84.3238C90.0074 83.7264 89.8379 83.0499 89.8379 82.2943C89.8379 81.5827 89.9984 80.9325 90.3196 80.3263C90.6318 79.7201 91.0778 79.2369 91.6486 78.8767C92.2195 78.5077 92.8707 78.3232 93.6199 78.3232C94.4049 78.3232 95.065 78.4902 95.618 78.824C96.171 79.1491 96.5814 79.6059 96.8757 80.177C97.1611 80.7568 97.3039 81.3982 97.3039 82.1186C97.3039 82.224 97.3039 82.3207 97.2949 82.4085C97.286 82.4964 97.2771 82.5667 97.2682 82.6106H90.7477V81.4333H95.7072C95.6983 81.2488 95.6537 81.0555 95.5645 80.8447C95.4753 80.6338 95.3415 80.4406 95.172 80.2648C95.0025 80.0891 94.7884 79.9486 94.5387 79.8344C94.28 79.7289 93.9767 79.6674 93.6289 79.6674C93.1918 79.6674 92.8082 79.7816 92.4693 80.0013C92.1303 80.2209 91.8716 80.5196 91.6754 80.9062C91.4881 81.3015 91.3989 81.7496 91.3989 82.268C91.3989 82.8302 91.5059 83.3046 91.72 83.6824C91.943 84.0602 92.2284 84.3413 92.5852 84.5434C92.942 84.7367 93.3256 84.8333 93.7448 84.8333C94.2533 84.8333 94.6725 84.7191 95.0204 84.4907C95.3593 84.2623 95.6269 83.9723 95.8232 83.6385L97.1522 84.2623C96.8222 84.8421 96.3762 85.3165 95.8142 85.6855C95.2523 86.0457 94.5476 86.2302 93.7002 86.2302H93.7091Z" fill="#3C4043"/>
<path d="M101.255 86.2302C100.702 86.2302 100.22 86.1248 99.8011 85.914C99.3819 85.6943 99.0519 85.4044 98.811 85.0266C98.5702 84.6576 98.4453 84.2271 98.4453 83.7351C98.4453 83.1992 98.588 82.7512 98.8735 82.3822C99.15 82.0132 99.5335 81.732 99.9974 81.5388C100.47 81.3367 100.996 81.24 101.567 81.24C101.897 81.24 102.192 81.2664 102.459 81.3103C102.727 81.3543 102.959 81.407 103.173 81.4597C103.378 81.5212 103.548 81.5827 103.663 81.653V81.2576C103.663 80.7656 103.485 80.3791 103.128 80.0891C102.771 79.7992 102.308 79.6499 101.746 79.6499C101.353 79.6499 100.987 79.7377 100.64 79.9046C100.292 80.0803 100.015 80.3088 99.7922 80.5987L98.7129 79.7729C98.927 79.4654 99.1946 79.2106 99.5068 78.9997C99.819 78.7801 100.167 78.6132 100.55 78.499C100.943 78.3847 101.353 78.3232 101.79 78.3232C102.879 78.3232 103.726 78.5956 104.315 79.1227C104.912 79.6499 105.207 80.3966 105.207 81.3455V85.993H103.663V85.0793H103.574C103.432 85.2726 103.253 85.4571 103.03 85.6328C102.807 85.8085 102.548 85.9491 102.254 86.0633C101.951 86.1687 101.621 86.2302 101.255 86.2302ZM101.541 84.9475C101.96 84.9475 102.325 84.8509 102.638 84.6576C102.959 84.4643 103.209 84.2008 103.387 83.8933C103.574 83.577 103.663 83.2344 103.663 82.8654C103.44 82.7336 103.173 82.6282 102.861 82.5491C102.557 82.4612 102.227 82.4261 101.871 82.4261C101.219 82.4261 100.764 82.5491 100.488 82.8039C100.203 83.0586 100.069 83.3749 100.069 83.7527C100.069 84.1041 100.203 84.3853 100.461 84.6137C100.729 84.8333 101.086 84.9475 101.541 84.9475Z" fill="#3C4043"/>
<path d="M107.054 86.0018V78.5605H108.57V79.6499H108.659C108.784 79.3951 108.954 79.1754 109.177 78.9822C109.4 78.7889 109.649 78.6307 109.944 78.5165C110.238 78.3935 110.541 78.3408 110.863 78.3408C111.068 78.3408 111.246 78.3496 111.389 78.376C111.532 78.4023 111.665 78.4375 111.781 78.4902V80.1155C111.594 80.0452 111.407 79.9837 111.21 79.931C111.014 79.8783 110.818 79.8607 110.613 79.8607C110.229 79.8607 109.899 79.9574 109.605 80.1594C109.31 80.3527 109.079 80.6163 108.918 80.9501C108.748 81.284 108.659 81.653 108.659 82.0571V85.993H107.054V86.0018Z" fill="#3C4043"/>
<mask id="mask0_258_557" style="mask-type:luminance" maskUnits="userSpaceOnUse" x="78" y="22" width="22" height="9">
<path d="M78.0625 22.6318H99.283V30.3016H78.0625V22.6318Z" fill="white"/>
</mask>
<g mask="url(#mask0_258_557)">
<path d="M82.6574 29.0455C81.8011 29.0455 81.0875 28.7643 80.5077 28.1933C79.9368 27.631 79.6514 26.9282 79.6514 26.0848C79.6514 25.2413 79.9368 24.5385 80.5077 23.9762C81.0786 23.4052 81.7921 23.124 82.6574 23.124C83.5137 23.124 84.2362 23.4315 84.7803 24.0465L84.2451 24.5561C84.0578 24.3189 83.817 24.1344 83.5405 24.0026C83.2639 23.8796 82.9607 23.8093 82.6574 23.8181C82.3541 23.8093 82.0597 23.862 81.7832 23.9762C81.5067 24.0816 81.257 24.2486 81.0429 24.4506C80.6236 24.8723 80.4096 25.417 80.4096 26.0848C80.4096 26.7612 80.6236 27.2972 81.0518 27.7101C81.257 27.9209 81.5067 28.0791 81.7832 28.1933C82.0597 28.2987 82.3541 28.3514 82.6574 28.3514C83.3264 28.3514 83.9151 28.0703 84.4146 27.5168L84.9498 28.0351C84.6822 28.3602 84.3343 28.615 83.9418 28.7819C83.5405 28.9576 83.0945 29.0543 82.6574 29.0455ZM86.1807 23.247V28.9137H85.4315V23.247H86.1807ZM86.7159 26.9721C86.7159 26.3835 86.9033 25.8827 87.2868 25.4961C87.4741 25.3028 87.6971 25.1535 87.9558 25.0481C88.2056 24.9514 88.4732 24.8987 88.7497 24.9075C89.0173 24.8987 89.2849 24.9514 89.5346 25.0481C89.7844 25.1535 90.0163 25.3028 90.2036 25.4961C90.5872 25.8827 90.7834 26.3835 90.7834 26.9721C90.7834 27.5695 90.5872 28.0615 90.2036 28.4568C90.0163 28.6501 89.7844 28.7995 89.5346 28.9049C89.2849 29.0016 89.0173 29.0455 88.7497 29.0455C88.4732 29.0543 88.2056 29.0016 87.9558 28.9049C87.6971 28.7995 87.4741 28.6501 87.2868 28.4568C86.9033 28.0615 86.7159 27.5695 86.7159 26.9721ZM87.4563 26.9721C87.4563 27.3938 87.5812 27.7276 87.822 27.9912C87.9469 28.1142 88.0896 28.2108 88.2412 28.2811C88.4018 28.3426 88.5713 28.3778 88.7497 28.3778C88.9192 28.3778 89.0886 28.3426 89.2492 28.2811C89.4098 28.2108 89.5525 28.1142 89.6684 27.9912C89.9182 27.7276 90.0431 27.3938 90.0431 26.9721C90.0431 26.5592 89.9182 26.2253 89.6684 25.9705C89.5525 25.8475 89.4098 25.7421 89.2492 25.6718C89.0886 25.6103 88.9192 25.5752 88.7497 25.5752C88.5713 25.5752 88.4018 25.6103 88.2412 25.6718C88.0896 25.7421 87.9469 25.8475 87.8309 25.9705C87.5812 26.2253 87.4563 26.5592 87.4563 26.9721ZM94.7796 28.9137H94.066V28.3778H94.0392C93.9143 28.5798 93.727 28.7468 93.5129 28.8522C93.2899 28.9752 93.0402 29.0367 92.7815 29.0367C92.2998 29.0367 91.9341 28.9049 91.6665 28.6326C91.4078 28.3602 91.274 27.9736 91.274 27.4729V25.0305H92.0144V27.4289C92.0322 28.0527 92.3623 28.369 92.9956 28.369C93.1383 28.369 93.281 28.3426 93.4059 28.2811C93.5397 28.2196 93.6467 28.1318 93.7359 28.0176C93.9411 27.7804 94.0392 27.4817 94.0303 27.1742V25.0305H94.7796V28.9137ZM97.1968 29.0367C96.9382 29.0367 96.6884 28.984 96.4565 28.8873C96.2335 28.7819 96.0283 28.6326 95.8589 28.4393C95.5021 28.0351 95.3058 27.5168 95.3147 26.9721C95.3058 26.4362 95.5021 25.9178 95.8589 25.5137C96.0283 25.3204 96.2335 25.1711 96.4565 25.0656C96.6884 24.9602 96.9382 24.9075 97.1968 24.9075C97.4734 24.9075 97.741 24.969 97.9907 25.092C98.2137 25.2062 98.41 25.3731 98.5438 25.5752H98.5794L98.5438 25.0393V23.247H99.2841V28.9137H98.5794V28.3778H98.5438C98.41 28.5886 98.2137 28.7556 97.9907 28.861C97.741 28.984 97.4734 29.0455 97.1968 29.0455V29.0367ZM97.3128 28.3778C97.4823 28.3778 97.6518 28.3426 97.8034 28.2811C97.964 28.2108 98.0978 28.1142 98.2137 27.9824C98.4546 27.7276 98.5705 27.385 98.5705 26.9721C98.5884 26.6031 98.4546 26.2429 98.2137 25.9618C98.0978 25.8388 97.964 25.7333 97.8034 25.663C97.6518 25.6015 97.4823 25.5664 97.3128 25.5664C97.1433 25.5664 96.9739 25.6015 96.8222 25.6718C96.6617 25.7421 96.5279 25.8388 96.4208 25.9618C96.1711 26.2429 96.0373 26.6031 96.0551 26.9721C96.0551 27.385 96.1711 27.7189 96.4208 27.9736C96.5279 28.1054 96.6617 28.2021 96.8222 28.2724C96.9739 28.3426 97.1433 28.3778 97.3128 28.3778Z" fill="#5F6368"/>
</g>
<mask id="mask1_258_557" style="mask-type:luminance" maskUnits="userSpaceOnUse" x="51" y="22" width="9" height="9">
<path d="M51.5977 22.6318H59.7951V30.3016H51.5977V22.6318Z" fill="white"/>
</mask>
<g mask="url(#mask1_258_557)">
<path d="M54.9069 29.0362C53.114 29.0362 51.5977 27.6041 51.5977 25.8382C51.5977 24.0723 53.114 22.6315 54.9069 22.6315C55.3262 22.6227 55.7365 22.7018 56.1201 22.8512C56.5036 23.0005 56.8515 23.2289 57.1458 23.5101L56.5215 24.1338C56.0933 23.7209 55.5135 23.5013 54.9069 23.5101C54.6037 23.5101 54.2915 23.5716 54.006 23.6858C53.7206 23.8 53.4619 23.9757 53.2478 24.1953C53.0248 24.415 52.8554 24.6698 52.7394 24.9509C52.6234 25.232 52.5699 25.5307 52.5699 25.8382C52.5699 26.1457 52.6234 26.4444 52.7394 26.7256C52.8554 27.0067 53.0248 27.2703 53.2478 27.4811C53.4619 27.7008 53.7206 27.8765 54.006 27.9907C54.2915 28.1049 54.6037 28.1664 54.9069 28.1664C55.7633 28.1664 56.2449 27.8326 56.5571 27.5251C56.8158 27.2791 56.9853 26.9189 57.0477 26.4269H54.8891V25.5571H57.913C57.9486 25.7328 57.9665 25.9173 57.9665 26.1018C57.9665 26.7519 57.7792 27.569 57.1904 28.1488C56.6107 28.7375 55.8792 29.045 54.9069 29.045V29.0362Z" fill="#4285F4"/>
</g>
<path d="M62.4905 26.9796C62.4905 27.5243 62.2675 28.0515 61.875 28.438C61.4825 28.8246 60.9473 29.0442 60.3854 29.0442C59.8323 29.0442 59.2882 28.8246 58.8957 28.438C58.5033 28.0515 58.2803 27.5243 58.2803 26.9796C58.2803 26.4262 58.5033 25.899 58.8957 25.5125C59.2971 25.1259 59.8323 24.9062 60.3943 24.9062C60.9473 24.9062 61.4825 25.1259 61.8839 25.5125C62.2764 25.899 62.4994 26.4262 62.4994 26.9796H62.4905ZM61.5717 26.9796C61.5717 26.2329 61.0187 25.7233 60.3854 25.7233C59.7431 25.7233 59.199 26.2329 59.199 26.9796C59.199 27.7176 59.7521 28.2272 60.3854 28.2272C61.0187 28.2272 61.5717 27.7088 61.5717 26.9796Z" fill="#EA4335"/>
<path d="M67.0832 26.9796C67.0832 27.5243 66.8603 28.0515 66.4589 28.438C66.0664 28.8246 65.5312 29.0442 64.9781 29.0442C64.4162 29.0442 63.881 28.8246 63.4885 28.438C63.0871 28.0515 62.873 27.5243 62.873 26.9796C62.873 26.4262 63.0871 25.899 63.4885 25.5125C63.881 25.1259 64.4162 24.915 64.9781 24.915C65.5312 24.915 66.0664 25.1259 66.4589 25.5125C66.8603 25.899 67.0832 26.4262 67.0832 26.9796ZM66.1556 26.9796C66.1556 26.2329 65.6025 25.7233 64.9692 25.7233C64.3359 25.7233 63.7829 26.2329 63.7829 26.9796C63.7829 27.7176 64.3359 28.2272 64.9692 28.2272C65.6025 28.2272 66.1556 27.7088 66.1556 26.9796Z" fill="#FBBC04"/>
<mask id="mask2_258_557" style="mask-type:luminance" maskUnits="userSpaceOnUse" x="66" y="23" width="8" height="8">
<path d="M66.6455 23.5537H73.496V30.8896H66.6455V23.5537Z" fill="white"/>
</mask>
<g mask="url(#mask2_258_557)">
<path d="M71.4634 25.0393V28.7381C71.4634 30.2667 70.5536 30.8905 69.4654 30.8905C69.0729 30.8905 68.6804 30.7763 68.3504 30.5655C68.0204 30.3458 67.7617 30.0383 67.61 29.6693L68.4128 29.3443C68.5556 29.6781 68.9034 30.0822 69.4654 30.0822C70.1611 30.0822 70.5893 29.6605 70.5893 28.8698V28.5711H70.5625C70.4198 28.7205 70.2503 28.8435 70.063 28.9226C69.8668 29.0104 69.6616 29.0456 69.4565 29.0368C68.4039 29.0368 67.4316 28.1406 67.4316 26.981C67.4316 25.8213 68.4039 24.9163 69.4565 24.9163C69.6616 24.9076 69.8668 24.9427 70.0541 25.0306C70.2503 25.1096 70.4198 25.2238 70.5625 25.3732H70.5893V25.0481H71.4634V25.0393ZM70.6517 26.9897C70.6517 26.2605 70.1611 25.7334 69.5278 25.7334C68.9034 25.7334 68.3593 26.2605 68.3593 26.9897C68.3593 27.7102 68.8945 28.2285 69.5278 28.2285C70.1701 28.2285 70.6517 27.7014 70.6517 26.9897Z" fill="#4285F4"/>
</g>
<mask id="mask3_258_557" style="mask-type:luminance" maskUnits="userSpaceOnUse" x="71" y="22" width="3" height="9">
<path d="M71.2129 22.6318H73.4964V30.3016H71.2129V22.6318Z" fill="white"/>
</mask>
<g mask="url(#mask3_258_557)">
<path d="M73.0506 22.8516V28.9136H72.1318V22.8516H73.0506Z" fill="#34A853"/>
</g>
<path d="M76.6366 27.6561L77.3502 28.1218C77.1629 28.4117 76.8953 28.6401 76.592 28.7982C76.2887 28.9564 75.9498 29.0442 75.6019 29.0355C74.4066 29.0355 73.5146 28.1305 73.5146 26.9709C73.5146 25.7497 74.4156 24.9062 75.4949 24.9062C76.5742 24.9062 77.1183 25.7585 77.2967 26.2241L77.3948 26.4613L74.585 27.6034C74.7991 28.0163 75.1381 28.2272 75.6019 28.2272C76.0747 28.2272 76.3958 27.9988 76.6366 27.6561ZM74.4334 26.9094L76.3066 26.145C76.2085 25.8902 75.8963 25.7057 75.5306 25.7057C75.3789 25.7145 75.2273 25.7497 75.0846 25.8199C74.9508 25.8814 74.8259 25.9693 74.7188 26.0835C74.6207 26.1977 74.5404 26.3295 74.4869 26.4701C74.4423 26.6106 74.4156 26.76 74.4334 26.9094Z" fill="#EA4335"/>
</svg>
