<svg width="150" height="150" viewBox="0 0 150 150" fill="none" xmlns="http://www.w3.org/2000/svg">
<path d="M5.88281 24H144.117C147.369 24 150 26.6669 150 29.952V120.533C150 123.818 147.369 126.484 144.117 126.484H5.88281C2.63086 126.484 0 123.818 0 120.533V29.952C0 26.6669 2.63086 24 5.88281 24Z" fill="white"/>
<path d="M0 106.65H150V120.532C150 123.817 147.369 126.484 144.117 126.484H5.88281C2.63086 126.484 0 123.817 0 120.532V106.65Z" fill="#34A853"/>
<path d="M54.9727 86.9929C54.5215 86.9929 54.0938 86.9046 53.6953 86.7338C53.3027 86.5631 52.957 86.31 52.6641 85.9685C52.377 85.627 52.1543 85.2032 52.0078 84.7086L53.4199 84.1493C53.5195 84.5438 53.7012 84.8794 53.9648 85.1502C54.2227 85.421 54.5625 85.5564 54.9844 85.5564C55.1953 85.5564 55.3887 85.5211 55.5762 85.4504C55.7578 85.3798 55.9102 85.2679 56.0215 85.1266C56.1387 84.9853 56.1973 84.8087 56.1973 84.5968C56.1973 84.3966 56.1504 84.2259 56.0508 84.0787C55.957 83.9315 55.793 83.7902 55.5645 83.6666C55.3418 83.5312 55.0371 83.3899 54.6504 83.2486L54.1641 83.072C53.9473 82.9896 53.7305 82.8836 53.5078 82.7659C53.291 82.6363 53.0918 82.4833 52.9102 82.3067C52.7285 82.1183 52.5879 81.9063 52.4766 81.6649C52.3652 81.4236 52.3066 81.1528 52.3066 80.8466C52.3066 80.4227 52.4121 80.046 52.6289 79.7104C52.8457 79.363 53.1445 79.0922 53.5312 78.8862C53.9121 78.686 54.3633 78.5859 54.873 78.5859C55.4063 78.5859 55.8457 78.6801 56.1973 78.8685C56.543 79.0451 56.8125 79.2689 57.0059 79.5279C57.2051 79.7928 57.3457 80.046 57.4277 80.2932L56.1094 80.8584C56.0625 80.7053 55.9863 80.564 55.8867 80.4286C55.7813 80.2932 55.6465 80.1873 55.4824 80.1048C55.3242 80.0224 55.125 79.9812 54.8965 79.9812C54.6797 79.9812 54.4863 80.0165 54.3164 80.0931C54.1465 80.1578 54.0176 80.2579 53.918 80.3815C53.8242 80.5052 53.7715 80.6465 53.7715 80.8113C53.7715 81.0527 53.877 81.2587 54.0762 81.4295C54.2813 81.6002 54.6094 81.765 55.0605 81.9122L55.5645 82.0829C55.8457 82.1771 56.1094 82.2949 56.3613 82.4303C56.625 82.5539 56.8535 82.7188 57.0527 82.913C57.252 83.1073 57.4102 83.3369 57.5215 83.6077C57.6387 83.8785 57.6973 84.2023 57.6973 84.5732C57.6973 84.9912 57.6152 85.3503 57.4512 85.6565C57.2871 85.9626 57.0762 86.2158 56.8066 86.41C56.543 86.6043 56.2441 86.7515 55.916 86.8457C55.5996 86.9458 55.2832 86.9929 54.9727 86.9929ZM60.2637 86.8104V78.7626H65.3086V80.2049H61.7637V85.3739H65.3086V86.8104H60.2637ZM61.0957 83.5076V82.0712H64.9512V83.5076H61.0957ZM67.998 86.8104V78.7626H69.498V85.3739H72.8613V86.8104H67.998ZM75.293 86.8104V78.7626H80.3379V80.2049H76.793V85.3739H80.3379V86.8104H75.293ZM76.125 83.5076V82.0712H79.9805V83.5076H76.125ZM86.5137 86.9929C85.9277 86.9929 85.377 86.8869 84.8672 86.6808C84.3633 86.463 83.9238 86.1628 83.543 85.7801C83.168 85.3974 82.8691 84.95 82.6582 84.4437C82.4473 83.9315 82.3477 83.3781 82.3477 82.7894C82.3477 82.1948 82.4473 81.6473 82.6582 81.1351C82.8691 80.6288 83.168 80.1814 83.543 79.7987C83.9238 79.416 84.3633 79.1217 84.8672 78.9097C85.377 78.6919 85.9277 78.5859 86.5137 78.5859C86.9355 78.5859 87.3223 78.6389 87.6797 78.7449C88.0312 78.8391 88.3594 78.9863 88.6582 79.1805C88.957 79.3748 89.2383 79.6162 89.4902 79.8988L88.4355 80.9349C88.2773 80.7465 88.1016 80.5876 87.9141 80.4522C87.7266 80.3168 87.5215 80.2108 87.2871 80.1343C87.0586 80.0636 86.8066 80.0224 86.5254 80.0224C86.0273 80.0224 85.5762 80.1402 85.166 80.3698C84.7676 80.5994 84.4512 80.9173 84.2109 81.3294C83.9766 81.7415 83.8535 82.2242 83.8535 82.7894C83.8535 83.3428 83.9766 83.8314 84.2109 84.2494C84.4512 84.6615 84.7676 84.9853 85.166 85.2149C85.5762 85.4386 86.0273 85.5564 86.5254 85.5564C86.9648 85.5564 87.3574 85.4622 87.7031 85.2738C88.0488 85.0854 88.3535 84.8264 88.623 84.4967L89.6895 85.5211C89.4316 85.8331 89.1387 86.1039 88.8105 86.3276C88.4883 86.5454 88.1309 86.7103 87.7441 86.8221C87.3574 86.934 86.9473 86.9929 86.5137 86.9929ZM93.7031 86.8104V79.5279H95.2031V86.8104H93.7031ZM91.4824 80.2049V78.7626H97.4297V80.2049H91.4824Z" fill="#5F6368"/>
<path d="M42.75 120.027C42.3867 120.027 42.041 119.956 41.7129 119.815C41.3848 119.668 41.0977 119.456 40.8457 119.173C40.5996 118.891 40.4121 118.543 40.2949 118.131L41.2793 117.725C41.3789 118.096 41.5547 118.408 41.8125 118.655C42.0645 118.903 42.3809 119.032 42.7559 119.032C42.9727 119.032 43.1719 118.991 43.3535 118.914C43.5469 118.838 43.6934 118.726 43.8105 118.579C43.9219 118.426 43.9805 118.237 43.9805 118.025C43.9805 117.819 43.9336 117.649 43.8398 117.507C43.7402 117.36 43.5938 117.225 43.3828 117.113C43.1719 116.989 42.9082 116.872 42.5859 116.76L42.1582 116.607C41.9766 116.536 41.7891 116.448 41.6016 116.348C41.4141 116.242 41.2324 116.118 41.0684 115.971C40.9102 115.818 40.7871 115.641 40.6934 115.435C40.5996 115.229 40.5469 114.994 40.5469 114.723C40.5469 114.381 40.6406 114.069 40.8164 113.787C40.998 113.504 41.25 113.28 41.5605 113.115C41.8828 112.945 42.2578 112.856 42.6797 112.856C43.1191 112.856 43.4824 112.933 43.7695 113.098C44.0684 113.251 44.2969 113.433 44.4609 113.651C44.6367 113.869 44.7539 114.075 44.8125 114.275L43.875 114.676C43.8398 114.54 43.7695 114.411 43.6699 114.281C43.5703 114.158 43.4414 114.052 43.2773 113.969C43.1191 113.881 42.9258 113.834 42.6914 113.834C42.4863 113.834 42.3047 113.869 42.1348 113.946C41.9707 114.028 41.8359 114.128 41.7363 114.263C41.6309 114.393 41.584 114.54 41.584 114.717C41.584 114.964 41.6836 115.17 41.8828 115.329C42.0879 115.482 42.3809 115.623 42.7676 115.753L43.2012 115.906C43.4238 115.983 43.6406 116.071 43.8574 116.183C44.0742 116.283 44.2676 116.418 44.4434 116.583C44.6191 116.742 44.7598 116.942 44.8594 117.178C44.9707 117.407 45.0234 117.684 45.0234 118.002C45.0234 118.355 44.9531 118.661 44.8125 118.926C44.6836 119.179 44.502 119.391 44.2734 119.556C44.0508 119.715 43.8047 119.833 43.5352 119.909C43.2715 119.986 43.0078 120.027 42.75 120.027ZM48.0117 120.027C47.5371 120.027 47.1152 119.915 46.7402 119.691C46.3711 119.468 46.0723 119.162 45.8613 118.773C45.6504 118.379 45.5449 117.937 45.5449 117.437C45.5449 116.972 45.6504 116.542 45.8496 116.142C46.0547 115.747 46.3359 115.429 46.6934 115.194C47.0625 114.952 47.4785 114.829 47.9531 114.829C48.4512 114.829 48.8789 114.941 49.2246 115.158C49.5762 115.376 49.8457 115.671 50.0273 116.047C50.2148 116.424 50.3027 116.848 50.3027 117.325C50.3027 117.395 50.3027 117.46 50.2969 117.513C50.2969 117.572 50.291 117.619 50.2852 117.649H46.125V116.872H49.2891C49.2832 116.754 49.2539 116.624 49.1953 116.489C49.1367 116.348 49.0547 116.218 48.9492 116.106C48.8438 115.988 48.709 115.9 48.5449 115.829C48.375 115.753 48.1875 115.712 47.9648 115.712C47.6836 115.712 47.4375 115.788 47.2266 115.935C47.0098 116.071 46.8398 116.271 46.7227 116.53C46.6055 116.783 46.541 117.078 46.541 117.419C46.541 117.79 46.6113 118.102 46.752 118.349C46.8926 118.596 47.0742 118.785 47.3027 118.914C47.5254 119.044 47.7773 119.109 48.041 119.109C48.3633 119.109 48.6328 119.032 48.8438 118.885C49.0664 118.732 49.2422 118.543 49.3652 118.32L50.209 118.732C50.0039 119.115 49.7168 119.427 49.3594 119.674C48.9961 119.909 48.5508 120.027 48.0117 120.027ZM51.0352 119.874V114.982H52.002V115.706H52.0605C52.1367 115.535 52.2422 115.388 52.3828 115.264C52.5293 115.135 52.6934 115.035 52.875 114.952C53.0625 114.876 53.2617 114.84 53.4609 114.84C53.5957 114.84 53.707 114.852 53.7949 114.87C53.8887 114.882 53.9766 114.905 54.0527 114.935V116.012C53.9297 115.959 53.8066 115.918 53.6836 115.882C53.5605 115.853 53.4375 115.835 53.3027 115.835C53.0625 115.835 52.8457 115.906 52.6582 116.041C52.4766 116.165 52.3301 116.342 52.2246 116.554C52.1133 116.771 52.0605 117.019 52.0605 117.284V119.874H51.0352ZM56.1738 119.874L54.1758 114.982H55.3125L56.666 118.543H56.7129L58.1016 114.982H59.2148L57.1992 119.874H56.1738ZM59.6543 119.874V114.982H60.6797V119.874H59.6543ZM60.1641 114.263C59.9766 114.263 59.8125 114.199 59.6719 114.063C59.543 113.922 59.4727 113.757 59.4727 113.563C59.4727 113.369 59.543 113.204 59.6719 113.074C59.8125 112.945 59.9766 112.874 60.1641 112.874C60.3633 112.874 60.5273 112.945 60.6562 113.074C60.791 113.204 60.8555 113.369 60.8555 113.563C60.8555 113.757 60.791 113.922 60.6562 114.063C60.5273 114.199 60.3633 114.263 60.1641 114.263ZM63.9141 120.027C63.4277 120.027 62.9941 119.915 62.6133 119.691C62.2441 119.468 61.9453 119.162 61.7344 118.773C61.5234 118.373 61.418 117.925 61.418 117.431C61.418 116.93 61.5234 116.483 61.7344 116.094C61.9453 115.706 62.2441 115.4 62.6133 115.176C62.9941 114.946 63.4277 114.829 63.9141 114.829C64.4473 114.829 64.9043 114.952 65.2676 115.194C65.6426 115.435 65.9062 115.765 66.0645 116.183L65.1328 116.565C65.0215 116.306 64.8574 116.106 64.6406 115.983C64.4355 115.847 64.1836 115.782 63.8965 115.782C63.627 115.782 63.3867 115.847 63.1641 115.988C62.9414 116.124 62.7656 116.312 62.6309 116.554C62.502 116.801 62.4316 117.089 62.4316 117.431C62.4316 117.76 62.502 118.049 62.6309 118.302C62.7656 118.549 62.9414 118.744 63.1641 118.879C63.3867 119.009 63.627 119.079 63.8965 119.079C64.2012 119.079 64.4648 119.009 64.6816 118.867C64.8926 118.726 65.0625 118.526 65.1855 118.273L66.0938 118.673C65.918 119.067 65.6426 119.385 65.2676 119.644C64.9043 119.898 64.4473 120.027 63.9141 120.027ZM68.8418 120.027C68.3672 120.027 67.9453 119.915 67.5703 119.691C67.1953 119.468 66.9023 119.162 66.6914 118.773C66.4805 118.379 66.375 117.937 66.375 117.437C66.375 116.972 66.4805 116.542 66.6797 116.142C66.8848 115.747 67.166 115.429 67.5234 115.194C67.8926 114.952 68.3086 114.829 68.7832 114.829C69.2812 114.829 69.709 114.941 70.0547 115.158C70.4062 115.376 70.6758 115.671 70.8574 116.047C71.0449 116.424 71.1328 116.848 71.1328 117.325C71.1328 117.395 71.1328 117.46 71.127 117.513C71.127 117.572 71.1211 117.619 71.1152 117.649H66.9551V116.872H70.1191C70.1133 116.754 70.084 116.624 70.0254 116.489C69.9668 116.348 69.8848 116.218 69.7793 116.106C69.6738 115.988 69.5332 115.9 69.3691 115.829C69.2051 115.753 69.0117 115.712 68.7949 115.712C68.5137 115.712 68.2676 115.788 68.0566 115.935C67.8398 116.071 67.6699 116.271 67.5527 116.53C67.4297 116.783 67.3711 117.078 67.3711 117.419C67.3711 117.79 67.4414 118.102 67.582 118.349C67.7168 118.596 67.9043 118.785 68.1328 118.914C68.3555 119.044 68.6016 119.109 68.8711 119.109C69.1934 119.109 69.457 119.032 69.6738 118.885C69.8965 118.732 70.0723 118.543 70.1953 118.32L71.0391 118.732C70.8281 119.115 70.5469 119.427 70.1895 119.674C69.8262 119.909 69.375 120.027 68.8418 120.027ZM73.6289 120.027C73.2422 120.027 72.9082 119.968 72.627 119.856C72.3398 119.733 72.1055 119.574 71.9238 119.374C71.7422 119.168 71.6016 118.95 71.5137 118.714L72.4336 118.308C72.5508 118.573 72.709 118.773 72.9199 118.914C73.1309 119.05 73.377 119.115 73.6582 119.115C73.9102 119.115 74.127 119.073 74.3086 118.979C74.4961 118.885 74.584 118.732 74.584 118.52C74.584 118.385 74.543 118.279 74.4551 118.196C74.373 118.108 74.2559 118.031 74.1152 117.972C73.9746 117.919 73.8105 117.866 73.6289 117.819L73.0488 117.69C72.8262 117.631 72.6035 117.543 72.3984 117.419C72.1934 117.29 72.0293 117.131 71.9062 116.942C71.7773 116.748 71.7129 116.518 71.7129 116.259C71.7129 115.965 71.7949 115.712 71.959 115.5C72.1289 115.282 72.3574 115.117 72.6445 115.005C72.9258 114.888 73.2363 114.829 73.5645 114.829C73.8633 114.829 74.1387 114.87 74.3848 114.952C74.6426 115.035 74.8594 115.152 75.041 115.311C75.2285 115.464 75.3809 115.653 75.4863 115.882L74.6074 116.289C74.4961 116.071 74.3555 115.918 74.168 115.835C73.9863 115.747 73.7871 115.706 73.5703 115.706C73.3301 115.706 73.1309 115.753 72.9668 115.859C72.8086 115.953 72.7266 116.083 72.7266 116.242C72.7266 116.406 72.7969 116.536 72.9375 116.63C73.084 116.73 73.2598 116.807 73.4707 116.866L74.168 117.036C74.6484 117.154 75.0117 117.342 75.252 117.59C75.4922 117.837 75.6094 118.131 75.6094 118.485C75.6094 118.797 75.5215 119.073 75.3457 119.309C75.1699 119.538 74.9297 119.715 74.625 119.845C74.3262 119.968 73.998 120.027 73.6289 120.027ZM78.4863 119.874V113.01H80.8184C81.2285 113.01 81.6035 113.098 81.9375 113.28C82.2715 113.451 82.5352 113.698 82.7344 114.016C82.9336 114.328 83.0391 114.693 83.0391 115.111C83.0391 115.517 82.9336 115.882 82.7344 116.2C82.5352 116.518 82.2715 116.771 81.9375 116.948C81.6035 117.125 81.2285 117.207 80.8184 117.207H79.0547V116.212H80.8477C81.0937 116.212 81.3047 116.159 81.4746 116.059C81.6445 115.947 81.7734 115.812 81.8613 115.647C81.9551 115.47 82.002 115.294 82.002 115.111C82.002 114.923 81.9551 114.746 81.8613 114.581C81.7734 114.417 81.6445 114.275 81.4746 114.169C81.3047 114.057 81.0937 114.004 80.8477 114.004H79.5293V119.874H78.4863ZM85.0781 120.027C84.7207 120.027 84.416 119.956 84.1465 119.815C83.8828 119.674 83.6719 119.485 83.5137 119.238C83.3613 118.991 83.2852 118.708 83.2852 118.385C83.2852 118.037 83.373 117.737 83.5488 117.496C83.7363 117.254 83.9766 117.066 84.2695 116.942C84.5742 116.813 84.9082 116.748 85.2773 116.748C85.4824 116.748 85.6758 116.766 85.8457 116.795C86.0156 116.819 86.168 116.854 86.3027 116.889C86.4316 116.93 86.5371 116.972 86.6133 117.019V116.76C86.6133 116.436 86.4961 116.183 86.2734 115.988C86.0449 115.8 85.752 115.706 85.3887 115.706C85.1426 115.706 84.9082 115.759 84.6914 115.877C84.4687 115.983 84.2871 116.136 84.1465 116.324L83.4551 115.782C83.5957 115.582 83.7656 115.411 83.959 115.27C84.1641 115.129 84.3867 115.023 84.6328 114.946C84.8789 114.87 85.1426 114.829 85.418 114.829C86.1152 114.829 86.6484 115.005 87.0293 115.359C87.4102 115.706 87.5977 116.189 87.5977 116.813V119.874H86.6133V119.268H86.5547C86.4668 119.397 86.3496 119.521 86.2031 119.633C86.0684 119.75 85.9043 119.839 85.7109 119.909C85.5234 119.986 85.3125 120.027 85.0781 120.027ZM85.2598 119.185C85.5234 119.185 85.7578 119.12 85.957 118.991C86.1621 118.861 86.3203 118.697 86.4316 118.491C86.5547 118.284 86.6133 118.055 86.6133 117.813C86.4668 117.731 86.2969 117.66 86.1035 117.613C85.9043 117.554 85.6934 117.525 85.4648 117.525C85.0547 117.525 84.7617 117.607 84.5859 117.772C84.4102 117.943 84.3164 118.149 84.3164 118.396C84.3164 118.626 84.3984 118.814 84.5684 118.961C84.7383 119.109 84.9668 119.185 85.2598 119.185ZM88.5176 119.874V114.982H89.4844V115.706H89.543C89.6191 115.535 89.7246 115.388 89.8652 115.264C90.0059 115.135 90.1699 115.035 90.3574 114.952C90.5449 114.876 90.7383 114.84 90.9434 114.84C91.0781 114.84 91.1836 114.852 91.2773 114.87C91.3711 114.882 91.4531 114.905 91.5293 114.935V116.012C91.4121 115.959 91.2891 115.918 91.1602 115.882C91.043 115.853 90.9141 115.835 90.7793 115.835C90.5391 115.835 90.3281 115.906 90.1348 116.041C89.9531 116.165 89.8066 116.342 89.7012 116.554C89.5957 116.771 89.543 117.019 89.543 117.284V119.874H88.5176ZM91.8105 115.882V114.982H92.707V115.882H91.8105ZM94.1309 119.951C93.6797 119.951 93.3223 119.815 93.0586 119.55C92.7949 119.279 92.6602 118.914 92.6602 118.455V113.604H93.6855V118.231C93.6855 118.49 93.7324 118.679 93.8379 118.803C93.9375 118.92 94.1016 118.979 94.3184 118.979C94.4238 118.979 94.5176 118.967 94.6055 118.944C94.6934 118.908 94.793 118.861 94.8984 118.803V119.809C94.7754 119.85 94.6523 119.886 94.5293 119.909C94.4004 119.939 94.2715 119.951 94.1309 119.951ZM93.627 115.882V114.982H94.8574V115.882H93.627ZM95.6543 119.874V114.982H96.6211V115.653H96.6738C96.8145 115.417 97.0195 115.223 97.2949 115.07C97.5703 114.911 97.875 114.829 98.2031 114.829C98.7949 114.829 99.2402 115.011 99.5391 115.37C99.8379 115.718 99.9844 116.194 99.9844 116.789V119.874H98.9707V116.919C98.9707 116.524 98.8711 116.236 98.6777 116.059C98.4785 115.871 98.2266 115.782 97.9102 115.782C97.6641 115.782 97.4473 115.847 97.2656 115.988C97.0781 116.124 96.9375 116.306 96.8262 116.53C96.7266 116.754 96.6738 116.989 96.6738 117.248V119.874H95.6543ZM103.148 120.027C102.674 120.027 102.252 119.915 101.883 119.691C101.508 119.468 101.215 119.162 100.998 118.773C100.793 118.379 100.688 117.937 100.688 117.437C100.688 116.972 100.787 116.542 100.992 116.142C101.191 115.747 101.473 115.429 101.83 115.194C102.199 114.952 102.621 114.829 103.096 114.829C103.594 114.829 104.016 114.941 104.361 115.158C104.719 115.376 104.988 115.671 105.17 116.047C105.352 116.424 105.445 116.848 105.445 117.325C105.445 117.395 105.439 117.46 105.434 117.513C105.434 117.572 105.434 117.619 105.428 117.649H101.262V116.872H104.432C104.426 116.754 104.391 116.624 104.338 116.489C104.279 116.348 104.197 116.218 104.086 116.106C103.98 115.988 103.846 115.9 103.682 115.829C103.518 115.753 103.324 115.712 103.102 115.712C102.826 115.712 102.58 115.788 102.363 115.935C102.146 116.071 101.982 116.271 101.859 116.53C101.742 116.783 101.684 117.078 101.684 117.419C101.684 117.79 101.754 118.102 101.889 118.349C102.029 118.596 102.211 118.785 102.439 118.914C102.668 119.044 102.914 119.109 103.178 119.109C103.5 119.109 103.77 119.032 103.986 118.885C104.203 118.732 104.379 118.543 104.508 118.32L105.352 118.732C105.141 119.115 104.854 119.427 104.496 119.674C104.139 119.909 103.688 120.027 103.148 120.027ZM106.178 119.874V114.982H107.145V115.706H107.197C107.273 115.535 107.385 115.388 107.52 115.264C107.666 115.135 107.83 115.035 108.018 114.952C108.205 114.876 108.398 114.84 108.604 114.84C108.732 114.84 108.844 114.852 108.932 114.87C109.031 114.882 109.113 114.905 109.189 114.935V116.012C109.072 115.959 108.949 115.918 108.82 115.882C108.703 115.853 108.574 115.835 108.439 115.835C108.199 115.835 107.988 115.906 107.795 116.041C107.613 116.165 107.467 116.342 107.361 116.554C107.256 116.771 107.197 117.019 107.197 117.284V119.874H106.178Z" fill="white"/>
<path d="M80.5371 32.8076C81.7148 33.8026 82.4766 35.086 82.9629 36.546C83.0625 36.8345 83.1914 37.0464 83.4316 37.2407C85.3945 38.8361 86.1914 41.4441 85.4824 43.8873C84.7676 46.3423 82.7461 48.0731 80.2148 48.3027C78.4512 48.4676 76.6758 48.3969 74.9062 48.3322C74.9062 47.0547 74.9004 45.7771 74.9004 44.4996C75.3574 44.4937 75.8145 44.4819 76.2715 44.4819C77.4316 44.4761 78.5977 44.5055 79.7578 44.4643C80.8535 44.429 81.7734 43.54 81.9082 42.4803C82.0547 41.297 81.4336 40.2432 80.3496 39.8723C80.1211 39.7957 79.8809 39.7545 79.6523 39.6956C79.3301 37.2112 79.1777 36.858 77.8535 35.504L80.5371 32.8076Z" fill="#4587F2"/>
<path d="M66.5445 47.0661C63.4683 44.7642 63.2984 39.9426 66.2105 37.417C66.398 37.2581 66.5972 37.0991 66.7847 36.9401L66.8785 36.8283L66.8726 36.8342C68.3375 36.0217 69.8843 35.6685 71.5543 36.0041C72.9781 36.375 74.1793 37.0991 74.9996 38.2118L72.2867 40.967C72.2047 40.861 72.0816 40.6667 71.9234 40.496C70.7047 39.1655 68.5425 39.6777 68.0211 41.4203C67.6812 42.5624 68.1031 43.5338 69.275 44.305L66.5445 47.0661Z" fill="#FABC07"/>
<path d="M71.5488 36.0036C69.8848 35.668 68.3379 36.0213 66.8672 36.8337C67.0664 35.668 67.6641 34.7025 68.3672 33.8018C71.3438 29.9869 77.1738 29.5159 80.5371 32.8069L77.8535 35.5032C77.6309 35.3619 77.4082 35.2029 77.1797 35.0734C75.3281 34.002 72.873 34.4141 71.5488 36.0036Z" fill="#E94436"/>
<path d="M66.5449 47.0658C67.4531 46.1474 68.3672 45.2231 69.2754 44.3047C69.7324 44.4578 70.2012 44.4931 70.6816 44.4931C72.0879 44.4872 73.4941 44.4931 74.9004 44.499C74.9004 45.7765 74.9062 47.054 74.9062 48.3315C72.8789 48.3374 70.8457 48.5082 68.8301 48.1726C67.9805 48.0313 67.2129 47.631 66.5449 47.0658Z" fill="#35A853"/>
<path d="M55.0076 59.3002H52.9451C52.8396 59.0235 52.8455 58.7939 52.9275 58.5407H55.7342C56.1033 59.8124 55.3943 61.2724 54.1463 61.8199C52.6287 62.491 50.8767 61.8729 50.0799 60.3893C49.2888 58.9293 49.6873 57.0336 50.9822 56.0387C52.2302 55.079 54.0115 55.2262 55.0076 56.3801C54.908 56.5921 54.7263 56.7275 54.5213 56.91C53.9705 56.3389 53.2908 56.1329 52.5232 56.227C52.0134 56.2859 51.5857 56.5214 51.2166 56.8805C50.4607 57.6105 50.2615 59.0411 50.7654 60.0066C51.2927 61.0016 52.3709 61.4784 53.4842 61.2135C54.3982 60.9898 54.9666 60.2951 55.0076 59.3002ZM69.3455 58.0521C69.322 57.3633 69.7322 57.5811 70.0779 57.5752C70.0779 59.153 70.1365 60.7072 70.0545 62.2555C70.0076 63.1798 69.2869 63.8098 68.4138 63.9569C67.3592 64.1336 66.6912 63.7921 66.1521 62.8031C66.2752 62.5499 66.5506 62.5617 66.7498 62.4439C67.3826 63.2387 67.9217 63.433 68.6072 63.121C69.1697 62.8619 69.4099 62.3026 69.3103 61.502C68.0506 62.2968 67.1658 62.2379 66.4509 61.3313C65.7127 60.3893 65.7478 58.941 66.533 58.0697C67.2713 57.2455 68.197 57.222 69.3455 58.0521ZM69.3631 59.7123C69.3513 58.8292 68.783 58.1639 68.0447 58.1639C67.283 58.1639 66.7088 58.8586 66.7146 59.7594C66.7205 60.666 67.3064 61.3489 68.0681 61.3313C68.8357 61.3136 69.3748 60.6366 69.3631 59.7123ZM99.2459 58.0462V55.6148C99.5037 55.5029 99.7381 55.5265 100.002 55.5912V61.8552C99.3689 61.9906 99.3689 61.9906 99.2166 61.4372C98.7068 61.973 98.0974 62.179 97.4177 62.0318C96.9549 61.9318 96.5974 61.6492 96.3103 61.2606C95.6248 60.3128 95.6951 58.8822 96.4744 58.0403C97.2068 57.2455 98.1619 57.222 99.2459 58.0462ZM99.281 59.7358C99.2752 58.8527 98.7244 58.1875 97.9802 58.1698C97.2244 58.1522 96.6326 58.8351 96.6267 59.7358C96.6267 60.6425 97.2009 61.3371 97.9568 61.3313C98.7244 61.3313 99.281 60.6542 99.281 59.7358ZM83.8357 60.4305L84.3513 60.9133C83.2732 62.3321 81.1463 62.4793 79.8396 61.2429C78.5037 59.9831 78.4509 57.6871 79.7224 56.3566C80.9705 55.0555 83.033 55.0908 84.1931 56.4861L83.6131 56.9159C83.0857 56.3154 82.3533 56.1093 81.5271 56.2388C80.9588 56.333 80.5017 56.6274 80.1384 57.0866C79.3767 58.0462 79.447 59.6887 80.2791 60.5659C81.2107 61.555 82.5466 61.502 83.8357 60.4305ZM76.5525 59.9066H73.3533C73.3533 60.6012 73.6287 61.031 74.1853 61.2429C74.7771 61.4667 75.2752 61.2842 75.7674 60.6425C75.99 60.6307 76.1716 60.7779 76.3767 60.8544C76.0838 61.8081 75.117 62.2791 74.0681 62.0142C72.9959 61.7375 72.322 60.5659 72.5271 59.3355C72.7322 58.0815 73.6638 57.3103 74.8006 57.4339C75.9373 57.5576 76.6111 58.4936 76.5525 59.9066ZM75.6677 59.1883C75.5857 58.5289 75.1931 58.1698 74.5779 58.1581C73.9802 58.1522 73.5174 58.5702 73.4353 59.1883H75.6677ZM58.4295 62.073C57.199 62.0672 56.2908 61.0781 56.2908 59.7476C56.2908 58.3994 57.2283 57.3986 58.4822 57.4222C59.7009 57.4398 60.6092 58.4583 60.5916 59.7829C60.574 61.1075 59.6599 62.0789 58.4295 62.073ZM59.8006 59.7417C59.7947 58.8586 59.1795 58.1522 58.4295 58.1581C57.6736 58.1698 57.0759 58.8822 57.0818 59.7653C57.0877 60.6483 57.6912 61.343 58.4529 61.3371C59.2146 61.3254 59.8006 60.6307 59.8006 59.7417ZM63.1931 62.073C61.9627 62.0672 61.0486 61.084 61.0486 59.7535C61.0486 58.4053 61.9861 57.4045 63.24 57.4222C64.4529 57.4339 65.367 58.4524 65.3494 59.777C65.3377 61.1075 64.4236 62.0789 63.1931 62.073ZM64.5584 59.7182C64.5467 58.841 63.9197 58.1345 63.1697 58.1581C62.4138 58.1875 61.8279 58.8998 61.8396 59.7829C61.8572 60.666 62.4724 61.3548 63.2283 61.3371C63.99 61.3136 64.5701 60.6071 64.5584 59.7182ZM88.7166 62.073C87.4861 62.0848 86.5662 61.1193 86.5427 59.7888C86.5252 58.4406 87.4509 57.4222 88.7049 57.4222C89.9236 57.4222 90.8435 58.4171 90.8494 59.7417C90.8494 61.0722 89.947 62.0613 88.7166 62.073ZM90.0525 59.7476C90.0525 58.8645 89.4431 58.1522 88.6931 58.1581C87.9373 58.1639 87.3338 58.8763 87.3396 59.7535C87.3396 60.6425 87.9431 61.3371 88.699 61.3371C89.4607 61.3313 90.0525 60.6366 90.0525 59.7476ZM91.5466 57.587H92.3025C92.3025 58.3994 92.3025 59.1824 92.3025 59.9713C92.3142 60.9074 92.6131 61.3195 93.2927 61.3313C93.9256 61.343 94.3943 60.7837 94.4119 59.9595C94.4236 59.1707 94.4119 58.3877 94.4119 57.6105C94.699 57.5399 94.9216 57.5458 95.1795 57.5988V61.8905C94.8631 61.92 94.4939 62.1319 94.3826 61.4961C94.0076 61.761 93.6736 62.0436 93.2166 62.073C92.3142 62.126 91.6228 61.6197 91.5642 60.6837C91.4939 59.6652 91.5466 58.6349 91.5466 57.587ZM71.783 61.8964C71.531 61.9494 71.3142 61.9612 71.0681 61.8788V55.6148C71.2908 55.4794 71.5252 55.5677 71.783 55.5441V61.8964ZM85.8162 61.9023H85.1189C85.1072 61.7846 85.0896 61.6904 85.0896 61.5962C85.0896 59.6063 85.0896 57.6223 85.0896 55.6501C85.3299 55.4735 85.5584 55.5618 85.8162 55.5559V61.9023Z" fill="#5F6368"/>
<path d="M5.88281 24.4951H144.117C147.094 24.4951 149.508 26.9383 149.508 29.9526V120.533C149.508 123.547 147.094 125.991 144.117 125.991H5.88281C2.90625 125.991 0.492188 123.547 0.492188 120.533V29.9526C0.492188 26.9383 2.90625 24.4951 5.88281 24.4951Z" stroke="#525252" stroke-width="0.655826"/>
</svg>
