<svg width="150" height="150" viewBox="0 0 150 150" fill="none" xmlns="http://www.w3.org/2000/svg">
<path d="M5.88281 24H144.117C147.369 24 150 26.6669 150 29.952V120.533C150 123.818 147.369 126.484 144.117 126.484H5.88281C2.63086 126.484 0 123.818 0 120.533V29.952C0 26.6669 2.63086 24 5.88281 24Z" fill="white"/>
<path d="M0 106.65H150V120.532C150 123.817 147.369 126.484 144.117 126.484H5.88281C2.63086 126.484 0 123.817 0 120.532V106.65Z" fill="#4285F4"/>
<path d="M54.9727 86.9929C54.5215 86.9929 54.0938 86.9046 53.6953 86.7338C53.3027 86.5631 52.957 86.31 52.6641 85.9685C52.377 85.627 52.1543 85.2032 52.0078 84.7086L53.4199 84.1493C53.5195 84.5438 53.7012 84.8794 53.9648 85.1502C54.2227 85.421 54.5625 85.5564 54.9844 85.5564C55.1953 85.5564 55.3887 85.5211 55.5762 85.4504C55.7578 85.3798 55.9102 85.2679 56.0215 85.1266C56.1387 84.9853 56.1973 84.8087 56.1973 84.5968C56.1973 84.3966 56.1504 84.2259 56.0508 84.0787C55.957 83.9315 55.793 83.7902 55.5645 83.6666C55.3418 83.5312 55.0371 83.3899 54.6504 83.2486L54.1641 83.072C53.9473 82.9896 53.7305 82.8836 53.5078 82.7659C53.291 82.6363 53.0918 82.4833 52.9102 82.3067C52.7285 82.1183 52.5879 81.9063 52.4766 81.6649C52.3652 81.4236 52.3066 81.1528 52.3066 80.8466C52.3066 80.4227 52.4121 80.046 52.6289 79.7104C52.8457 79.363 53.1445 79.0922 53.5312 78.8862C53.9121 78.686 54.3633 78.5859 54.873 78.5859C55.4063 78.5859 55.8457 78.6801 56.1973 78.8685C56.543 79.0451 56.8125 79.2689 57.0059 79.5279C57.2051 79.7928 57.3457 80.046 57.4277 80.2932L56.1094 80.8584C56.0625 80.7053 55.9863 80.564 55.8867 80.4286C55.7813 80.2932 55.6465 80.1873 55.4824 80.1048C55.3242 80.0224 55.125 79.9812 54.8965 79.9812C54.6797 79.9812 54.4863 80.0165 54.3164 80.0931C54.1465 80.1578 54.0176 80.2579 53.918 80.3815C53.8242 80.5052 53.7715 80.6465 53.7715 80.8113C53.7715 81.0527 53.877 81.2587 54.0762 81.4295C54.2813 81.6002 54.6094 81.765 55.0605 81.9122L55.5645 82.0829C55.8457 82.1771 56.1094 82.2949 56.3613 82.4303C56.625 82.5539 56.8535 82.7188 57.0527 82.913C57.252 83.1073 57.4102 83.3369 57.5215 83.6077C57.6387 83.8785 57.6973 84.2023 57.6973 84.5732C57.6973 84.9912 57.6152 85.3503 57.4512 85.6565C57.2871 85.9626 57.0762 86.2158 56.8066 86.41C56.543 86.6043 56.2441 86.7515 55.916 86.8457C55.5996 86.9458 55.2832 86.9929 54.9727 86.9929ZM60.2637 86.8104V78.7626H65.3086V80.2049H61.7637V85.3739H65.3086V86.8104H60.2637ZM61.0957 83.5076V82.0712H64.9512V83.5076H61.0957ZM67.998 86.8104V78.7626H69.498V85.3739H72.8613V86.8104H67.998ZM75.293 86.8104V78.7626H80.3379V80.2049H76.793V85.3739H80.3379V86.8104H75.293ZM76.125 83.5076V82.0712H79.9805V83.5076H76.125ZM86.5137 86.9929C85.9277 86.9929 85.377 86.8869 84.8672 86.6808C84.3633 86.463 83.9238 86.1628 83.543 85.7801C83.168 85.3974 82.8691 84.95 82.6582 84.4437C82.4473 83.9315 82.3477 83.3781 82.3477 82.7894C82.3477 82.1948 82.4473 81.6473 82.6582 81.1351C82.8691 80.6288 83.168 80.1814 83.543 79.7987C83.9238 79.416 84.3633 79.1217 84.8672 78.9097C85.377 78.6919 85.9277 78.5859 86.5137 78.5859C86.9355 78.5859 87.3223 78.6389 87.6797 78.7449C88.0312 78.8391 88.3594 78.9863 88.6582 79.1805C88.957 79.3748 89.2383 79.6162 89.4902 79.8988L88.4355 80.9349C88.2773 80.7465 88.1016 80.5876 87.9141 80.4522C87.7266 80.3168 87.5215 80.2108 87.2871 80.1343C87.0586 80.0636 86.8066 80.0224 86.5254 80.0224C86.0273 80.0224 85.5762 80.1402 85.166 80.3698C84.7676 80.5994 84.4512 80.9173 84.2109 81.3294C83.9766 81.7415 83.8535 82.2242 83.8535 82.7894C83.8535 83.3428 83.9766 83.8314 84.2109 84.2494C84.4512 84.6615 84.7676 84.9853 85.166 85.2149C85.5762 85.4386 86.0273 85.5564 86.5254 85.5564C86.9648 85.5564 87.3574 85.4622 87.7031 85.2738C88.0488 85.0854 88.3535 84.8264 88.623 84.4967L89.6895 85.5211C89.4316 85.8331 89.1387 86.1039 88.8105 86.3276C88.4883 86.5454 88.1309 86.7103 87.7441 86.8221C87.3574 86.934 86.9473 86.9929 86.5137 86.9929ZM93.7031 86.8104V79.5279H95.2031V86.8104H93.7031ZM91.4824 80.2049V78.7626H97.4297V80.2049H91.4824Z" fill="#5F6368"/>
<path d="M46.7813 120.027C46.2832 120.027 45.8203 119.939 45.3867 119.756C44.959 119.574 44.584 119.321 44.2617 119.003C43.9453 118.673 43.6934 118.296 43.5117 117.861C43.3359 117.419 43.248 116.948 43.248 116.442C43.248 115.93 43.3359 115.459 43.5117 115.023C43.6934 114.587 43.9453 114.211 44.2617 113.893C44.584 113.563 44.959 113.31 45.3867 113.133C45.8203 112.951 46.2832 112.856 46.7813 112.856C47.1387 112.856 47.4668 112.898 47.7656 112.992C48.0703 113.08 48.3516 113.21 48.6035 113.375C48.8555 113.539 49.084 113.74 49.2949 113.975L48.5625 114.699C48.4102 114.511 48.2461 114.358 48.0703 114.234C47.8945 114.11 47.6953 114.01 47.4844 113.946C47.2734 113.887 47.0449 113.851 46.793 113.851C46.3359 113.851 45.9199 113.963 45.5391 114.181C45.1641 114.387 44.8594 114.687 44.6309 115.07C44.4082 115.453 44.2969 115.912 44.2969 116.442C44.2969 116.966 44.4082 117.425 44.6309 117.813C44.8594 118.196 45.1641 118.496 45.5391 118.714C45.9199 118.926 46.3359 119.032 46.793 119.032C47.2031 119.032 47.5664 118.944 47.8828 118.773C48.2051 118.596 48.4863 118.361 48.7324 118.061L49.4824 118.791C49.2773 119.038 49.0313 119.256 48.7559 119.444C48.4746 119.627 48.1699 119.774 47.8418 119.874C47.5137 119.974 47.1621 120.027 46.7813 120.027ZM52.4414 120.027C51.9434 120.027 51.5039 119.909 51.1289 119.68C50.748 119.45 50.4492 119.144 50.2383 118.75C50.0215 118.355 49.916 117.914 49.916 117.431C49.916 116.942 50.0215 116.507 50.2383 116.118C50.4492 115.718 50.748 115.406 51.1289 115.176C51.5039 114.946 51.9434 114.829 52.4414 114.829C52.9395 114.829 53.373 114.946 53.7539 115.188C54.1289 115.417 54.4277 115.724 54.6445 116.118C54.8555 116.507 54.9668 116.942 54.9668 117.431C54.9668 117.914 54.8555 118.355 54.6445 118.75C54.4277 119.144 54.1289 119.45 53.7539 119.68C53.373 119.909 52.9395 120.027 52.4414 120.027ZM52.4414 119.079C52.7109 119.079 52.957 119.014 53.1855 118.885C53.4082 118.75 53.5957 118.561 53.7305 118.32C53.877 118.073 53.9531 117.772 53.9531 117.431C53.9531 117.083 53.877 116.789 53.7305 116.548C53.5957 116.295 53.4082 116.106 53.1855 115.983C52.957 115.847 52.7109 115.782 52.4414 115.782C52.1777 115.782 51.9316 115.847 51.6973 115.983C51.4688 116.106 51.2813 116.295 51.1348 116.548C50.9941 116.789 50.9297 117.083 50.9297 117.431C50.9297 117.772 50.9941 118.073 51.1348 118.32C51.2813 118.561 51.4688 118.75 51.7031 118.885C51.9375 119.014 52.1836 119.079 52.4414 119.079ZM55.6816 117.342V116.459H58.7871V117.342H55.6816ZM61.541 120.027C61.1543 120.027 60.8203 119.968 60.5332 119.856C60.252 119.733 60.0176 119.574 59.8359 119.374C59.6484 119.168 59.5137 118.95 59.4258 118.714L60.3457 118.308C60.457 118.573 60.6211 118.773 60.8262 118.914C61.043 119.05 61.2891 119.115 61.5703 119.115C61.8223 119.115 62.0391 119.073 62.2207 118.979C62.4023 118.885 62.4961 118.732 62.4961 118.52C62.4961 118.385 62.4551 118.279 62.3613 118.196C62.2793 118.108 62.168 118.031 62.0215 117.972C61.8809 117.919 61.7227 117.866 61.541 117.819L60.9609 117.69C60.7324 117.631 60.5156 117.543 60.3047 117.419C60.1055 117.29 59.9414 117.131 59.8125 116.942C59.6895 116.748 59.625 116.518 59.625 116.259C59.625 115.965 59.707 115.712 59.8711 115.5C60.041 115.282 60.2695 115.117 60.5508 115.005C60.8379 114.888 61.1426 114.829 61.4707 114.829C61.7754 114.829 62.0508 114.87 62.2969 114.952C62.5488 115.035 62.7656 115.152 62.9531 115.311C63.1406 115.464 63.2871 115.653 63.3984 115.882L62.5137 116.289C62.4082 116.071 62.2617 115.918 62.0801 115.835C61.8984 115.747 61.6992 115.706 61.4824 115.706C61.2422 115.706 61.043 115.753 60.873 115.859C60.7207 115.953 60.6387 116.083 60.6387 116.242C60.6387 116.406 60.709 116.536 60.8496 116.63C60.9902 116.73 61.1719 116.807 61.377 116.866L62.0801 117.036C62.5605 117.154 62.918 117.342 63.1582 117.59C63.3984 117.837 63.5215 118.131 63.5215 118.485C63.5215 118.797 63.4336 119.073 63.252 119.309C63.0762 119.538 62.8359 119.715 62.5371 119.845C62.2383 119.968 61.9043 120.027 61.541 120.027ZM66.416 120.027C65.9414 120.027 65.5137 119.915 65.1445 119.691C64.7695 119.468 64.4766 119.162 64.2598 118.773C64.0547 118.379 63.9492 117.937 63.9492 117.437C63.9492 116.972 64.0488 116.542 64.2539 116.142C64.4531 115.747 64.7344 115.429 65.0977 115.194C65.4609 114.952 65.8828 114.829 66.3574 114.829C66.8555 114.829 67.2773 114.941 67.6289 115.158C67.9805 115.376 68.25 115.671 68.4316 116.047C68.6133 116.424 68.707 116.848 68.707 117.325C68.707 117.395 68.7012 117.46 68.6953 117.513C68.6953 117.572 68.6953 117.619 68.6895 117.649H64.5293V116.872H67.6934C67.6875 116.754 67.6523 116.624 67.5996 116.489C67.541 116.348 67.459 116.218 67.3535 116.106C67.2422 115.988 67.1074 115.9 66.9434 115.829C66.7793 115.753 66.5859 115.712 66.3633 115.712C66.0879 115.712 65.8418 115.788 65.625 115.935C65.4141 116.071 65.2441 116.271 65.127 116.53C65.0039 116.783 64.9453 117.078 64.9453 117.419C64.9453 117.79 65.0156 118.102 65.1504 118.349C65.291 118.596 65.4727 118.785 65.7012 118.914C65.9297 119.044 66.1758 119.109 66.4395 119.109C66.7617 119.109 67.0313 119.032 67.248 118.885C67.4707 118.732 67.6406 118.543 67.7695 118.32L68.6133 118.732C68.4023 119.115 68.1211 119.427 67.7578 119.674C67.4004 119.909 66.9492 120.027 66.416 120.027ZM69.4395 119.874V113.01H70.4648V119.874H69.4395ZM71.4609 119.874V113.01H72.4863V119.874H71.4609ZM75.6797 119.874V113.01H78.0059C78.4219 113.01 78.791 113.098 79.125 113.28C79.459 113.451 79.7285 113.698 79.9219 114.016C80.127 114.328 80.2266 114.693 80.2266 115.111C80.2266 115.517 80.127 115.882 79.9219 116.2C79.7285 116.518 79.459 116.771 79.125 116.948C78.791 117.125 78.4219 117.207 78.0059 117.207H76.248V116.212H78.0352C78.2813 116.212 78.4922 116.159 78.6621 116.059C78.832 115.947 78.9609 115.812 79.0488 115.647C79.1426 115.47 79.1953 115.294 79.1953 115.111C79.1953 114.923 79.1426 114.746 79.0488 114.581C78.9609 114.417 78.832 114.275 78.6621 114.169C78.4922 114.057 78.2813 114.004 78.0352 114.004H76.7168V119.874H75.6797ZM82.2656 120.027C81.9141 120.027 81.6035 119.956 81.3398 119.815C81.0703 119.674 80.8594 119.485 80.7012 119.238C80.5488 118.991 80.4727 118.708 80.4727 118.385C80.4727 118.037 80.5605 117.737 80.7422 117.496C80.9238 117.254 81.1641 117.066 81.4629 116.942C81.7617 116.813 82.1016 116.748 82.4648 116.748C82.6758 116.748 82.8633 116.766 83.0332 116.795C83.2031 116.819 83.3555 116.854 83.4902 116.889C83.6191 116.93 83.7246 116.972 83.8008 117.019V116.76C83.8008 116.436 83.6895 116.183 83.4609 115.988C83.2324 115.8 82.9395 115.706 82.5762 115.706C82.3301 115.706 82.1016 115.759 81.8789 115.877C81.6563 115.983 81.4746 116.136 81.3398 116.324L80.6426 115.782C80.7832 115.582 80.9531 115.411 81.1465 115.27C81.3516 115.129 81.5742 115.023 81.8203 114.946C82.0664 114.87 82.3301 114.829 82.6055 114.829C83.3027 114.829 83.8418 115.005 84.2168 115.359C84.5977 115.706 84.7852 116.189 84.7852 116.813V119.874H83.8008V119.268H83.7422C83.6543 119.397 83.5371 119.521 83.3965 119.633C83.2559 119.75 83.0918 119.839 82.8984 119.909C82.7109 119.986 82.5 120.027 82.2656 120.027ZM82.4473 119.185C82.7109 119.185 82.9453 119.12 83.1445 118.991C83.3496 118.861 83.5078 118.697 83.6191 118.491C83.7422 118.284 83.8008 118.055 83.8008 117.813C83.6543 117.731 83.4844 117.66 83.291 117.613C83.0918 117.554 82.8809 117.525 82.6523 117.525C82.2422 117.525 81.9492 117.607 81.7734 117.772C81.5977 117.943 81.5098 118.149 81.5098 118.396C81.5098 118.626 81.5918 118.814 81.7559 118.961C81.9258 119.109 82.1543 119.185 82.4473 119.185ZM85.7051 119.874V114.982H86.6719V115.706H86.7305C86.8066 115.535 86.9121 115.388 87.0527 115.264C87.1992 115.135 87.3633 115.035 87.5449 114.952C87.7324 114.876 87.9316 114.84 88.1309 114.84C88.2656 114.84 88.377 114.852 88.4648 114.87C88.5586 114.882 88.6406 114.905 88.7168 114.935V116.012C88.5996 115.959 88.4766 115.918 88.3477 115.882C88.2305 115.853 88.1016 115.835 87.9727 115.835C87.7324 115.835 87.5156 115.906 87.3281 116.041C87.1406 116.165 87 116.342 86.8887 116.554C86.7832 116.771 86.7305 117.019 86.7305 117.284V119.874H85.7051ZM88.9981 115.882V114.982H89.8945V115.882H88.9981ZM91.3184 119.951C90.8731 119.951 90.5156 119.815 90.2461 119.55C89.9824 119.279 89.8477 118.914 89.8477 118.455V113.604H90.8731V118.231C90.8731 118.49 90.9258 118.679 91.0254 118.803C91.125 118.92 91.2891 118.979 91.5059 118.979C91.6113 118.979 91.7051 118.967 91.793 118.944C91.8809 118.908 91.9805 118.861 92.0859 118.803V119.809C91.9688 119.85 91.8457 119.886 91.7168 119.909C91.5879 119.939 91.459 119.951 91.3184 119.951ZM90.8145 115.882V114.982H92.0508V115.882H90.8145ZM92.8418 119.874V114.982H93.8086V115.653H93.8672C94.002 115.417 94.207 115.223 94.4824 115.07C94.7578 114.911 95.0625 114.829 95.3906 114.829C95.9824 114.829 96.4277 115.011 96.7266 115.37C97.0254 115.718 97.1719 116.194 97.1719 116.789V119.874H96.1582V116.919C96.1582 116.524 96.0586 116.236 95.8652 116.059C95.6719 115.871 95.4141 115.782 95.0977 115.782C94.8516 115.782 94.6348 115.847 94.4531 115.988C94.2715 116.124 94.125 116.306 94.0195 116.53C93.9141 116.754 93.8672 116.989 93.8672 117.248V119.874H92.8418ZM100.342 120.027C99.8672 120.027 99.4395 119.915 99.0703 119.691C98.6953 119.468 98.4023 119.162 98.1856 118.773C97.9805 118.379 97.875 117.937 97.875 117.437C97.875 116.972 97.9746 116.542 98.1797 116.142C98.3789 115.747 98.6602 115.429 99.0234 115.194C99.3867 114.952 99.8086 114.829 100.283 114.829C100.781 114.829 101.203 114.941 101.555 115.158C101.906 115.376 102.176 115.671 102.357 116.047C102.539 116.424 102.633 116.848 102.633 117.325C102.633 117.395 102.627 117.46 102.621 117.513C102.621 117.572 102.621 117.619 102.615 117.649H98.4551V116.872H101.619C101.613 116.754 101.578 116.624 101.525 116.489C101.467 116.348 101.385 116.218 101.279 116.106C101.168 115.988 101.033 115.9 100.869 115.829C100.705 115.753 100.512 115.712 100.289 115.712C100.014 115.712 99.7676 115.788 99.5508 115.935C99.3398 116.071 99.1699 116.271 99.0527 116.53C98.9297 116.783 98.8711 117.078 98.8711 117.419C98.8711 117.79 98.9414 118.102 99.0762 118.349C99.2168 118.596 99.3984 118.785 99.627 118.914C99.8555 119.044 100.102 119.109 100.365 119.109C100.688 119.109 100.957 119.032 101.174 118.885C101.396 118.732 101.566 118.543 101.695 118.32L102.539 118.732C102.328 119.115 102.047 119.427 101.684 119.674C101.326 119.909 100.875 120.027 100.342 120.027ZM103.365 119.874V114.982H104.332V115.706H104.391C104.467 115.535 104.572 115.388 104.713 115.264C104.854 115.135 105.018 115.035 105.205 114.952C105.393 114.876 105.592 114.84 105.791 114.84C105.926 114.84 106.037 114.852 106.125 114.87C106.219 114.882 106.301 114.905 106.377 114.935V116.012C106.26 115.959 106.137 115.918 106.008 115.882C105.891 115.853 105.762 115.835 105.633 115.835C105.393 115.835 105.176 115.906 104.988 116.041C104.801 116.165 104.654 116.342 104.549 116.554C104.443 116.771 104.391 117.019 104.391 117.284V119.874H103.365Z" fill="white"/>
<path d="M80.5371 32.8076C81.7148 33.8026 82.4766 35.086 82.9629 36.546C83.0625 36.8345 83.1914 37.0464 83.4316 37.2407C85.3945 38.8361 86.1914 41.4441 85.4824 43.8873C84.7676 46.3423 82.7461 48.0731 80.2148 48.3027C78.4512 48.4676 76.6758 48.3969 74.9062 48.3322C74.9062 47.0547 74.9004 45.7771 74.9004 44.4996C75.3574 44.4937 75.8145 44.4819 76.2715 44.4819C77.4316 44.4761 78.5977 44.5055 79.7578 44.4643C80.8535 44.429 81.7734 43.54 81.9082 42.4803C82.0547 41.297 81.4336 40.2432 80.3496 39.8723C80.1211 39.7957 79.8809 39.7545 79.6523 39.6956C79.3301 37.2112 79.1777 36.858 77.8535 35.504L80.5371 32.8076Z" fill="#4587F2"/>
<path d="M66.5445 47.0661C63.4683 44.7642 63.2984 39.9426 66.2105 37.417C66.398 37.2581 66.5972 37.0991 66.7847 36.9401L66.8785 36.8283L66.8726 36.8342C68.3375 36.0217 69.8843 35.6685 71.5543 36.0041C72.9781 36.375 74.1793 37.0991 74.9996 38.2118L72.2867 40.967C72.2047 40.861 72.0816 40.6667 71.9234 40.496C70.7047 39.1655 68.5425 39.6777 68.0211 41.4203C67.6812 42.5624 68.1031 43.5338 69.275 44.305L66.5445 47.0661Z" fill="#FABC07"/>
<path d="M71.5488 36.0036C69.8848 35.668 68.3379 36.0213 66.8672 36.8337C67.0664 35.668 67.6641 34.7025 68.3672 33.8018C71.3438 29.9869 77.1738 29.5159 80.5371 32.8069L77.8535 35.5032C77.6309 35.3619 77.4082 35.2029 77.1797 35.0734C75.3281 34.002 72.873 34.4141 71.5488 36.0036Z" fill="#E94436"/>
<path d="M66.5449 47.0658C67.4531 46.1474 68.3672 45.2231 69.2754 44.3047C69.7324 44.4578 70.2012 44.4931 70.6816 44.4931C72.0879 44.4872 73.4941 44.4931 74.9004 44.499C74.9004 45.7765 74.9062 47.054 74.9062 48.3315C72.8789 48.3374 70.8457 48.5082 68.8301 48.1726C67.9805 48.0313 67.2129 47.631 66.5449 47.0658Z" fill="#35A853"/>
<path d="M55.0076 59.3002H52.9451C52.8396 59.0235 52.8455 58.7939 52.9275 58.5407H55.7342C56.1033 59.8124 55.3943 61.2724 54.1463 61.8199C52.6287 62.491 50.8767 61.8729 50.0799 60.3893C49.2888 58.9293 49.6873 57.0336 50.9822 56.0387C52.2302 55.079 54.0115 55.2262 55.0076 56.3801C54.908 56.5921 54.7263 56.7275 54.5213 56.91C53.9705 56.3389 53.2908 56.1329 52.5232 56.227C52.0134 56.2859 51.5857 56.5214 51.2166 56.8805C50.4607 57.6105 50.2615 59.0411 50.7654 60.0066C51.2927 61.0016 52.3709 61.4784 53.4842 61.2135C54.3982 60.9898 54.9666 60.2951 55.0076 59.3002ZM69.3455 58.0521C69.322 57.3633 69.7322 57.5811 70.0779 57.5752C70.0779 59.153 70.1365 60.7072 70.0545 62.2555C70.0076 63.1798 69.2869 63.8098 68.4138 63.9569C67.3592 64.1336 66.6912 63.7921 66.1521 62.8031C66.2752 62.5499 66.5506 62.5617 66.7498 62.4439C67.3826 63.2387 67.9217 63.433 68.6072 63.121C69.1697 62.8619 69.4099 62.3026 69.3103 61.502C68.0506 62.2968 67.1658 62.2379 66.4509 61.3313C65.7127 60.3893 65.7478 58.941 66.533 58.0697C67.2713 57.2455 68.197 57.222 69.3455 58.0521ZM69.3631 59.7123C69.3513 58.8292 68.783 58.1639 68.0447 58.1639C67.283 58.1639 66.7088 58.8586 66.7146 59.7594C66.7205 60.666 67.3064 61.3489 68.0681 61.3313C68.8357 61.3136 69.3748 60.6366 69.3631 59.7123ZM99.2459 58.0462V55.6148C99.5037 55.5029 99.7381 55.5265 100.002 55.5912V61.8552C99.3689 61.9906 99.3689 61.9906 99.2166 61.4372C98.7068 61.973 98.0974 62.179 97.4177 62.0318C96.9549 61.9318 96.5974 61.6492 96.3103 61.2606C95.6248 60.3128 95.6951 58.8822 96.4744 58.0403C97.2068 57.2455 98.1619 57.222 99.2459 58.0462ZM99.281 59.7358C99.2752 58.8527 98.7244 58.1875 97.9802 58.1698C97.2244 58.1522 96.6326 58.8351 96.6267 59.7358C96.6267 60.6425 97.2009 61.3371 97.9568 61.3313C98.7244 61.3313 99.281 60.6542 99.281 59.7358ZM83.8357 60.4305L84.3513 60.9133C83.2732 62.3321 81.1463 62.4793 79.8396 61.2429C78.5037 59.9831 78.4509 57.6871 79.7224 56.3566C80.9705 55.0555 83.033 55.0908 84.1931 56.4861L83.6131 56.9159C83.0857 56.3154 82.3533 56.1093 81.5271 56.2388C80.9588 56.333 80.5017 56.6274 80.1384 57.0866C79.3767 58.0462 79.447 59.6887 80.2791 60.5659C81.2107 61.555 82.5466 61.502 83.8357 60.4305ZM76.5525 59.9066H73.3533C73.3533 60.6012 73.6287 61.031 74.1853 61.2429C74.7771 61.4667 75.2752 61.2842 75.7674 60.6425C75.99 60.6307 76.1716 60.7779 76.3767 60.8544C76.0838 61.8081 75.117 62.2791 74.0681 62.0142C72.9959 61.7375 72.322 60.5659 72.5271 59.3355C72.7322 58.0815 73.6638 57.3103 74.8006 57.4339C75.9373 57.5576 76.6111 58.4936 76.5525 59.9066ZM75.6677 59.1883C75.5857 58.5289 75.1931 58.1698 74.5779 58.1581C73.9802 58.1522 73.5174 58.5702 73.4353 59.1883H75.6677ZM58.4295 62.073C57.199 62.0672 56.2908 61.0781 56.2908 59.7476C56.2908 58.3994 57.2283 57.3986 58.4822 57.4222C59.7009 57.4398 60.6092 58.4583 60.5916 59.7829C60.574 61.1075 59.6599 62.0789 58.4295 62.073ZM59.8006 59.7417C59.7947 58.8586 59.1795 58.1522 58.4295 58.1581C57.6736 58.1698 57.0759 58.8822 57.0818 59.7653C57.0877 60.6483 57.6912 61.343 58.4529 61.3371C59.2146 61.3254 59.8006 60.6307 59.8006 59.7417ZM63.1931 62.073C61.9627 62.0672 61.0486 61.084 61.0486 59.7535C61.0486 58.4053 61.9861 57.4045 63.24 57.4222C64.4529 57.4339 65.367 58.4524 65.3494 59.777C65.3377 61.1075 64.4236 62.0789 63.1931 62.073ZM64.5584 59.7182C64.5467 58.841 63.9197 58.1345 63.1697 58.1581C62.4138 58.1875 61.8279 58.8998 61.8396 59.7829C61.8572 60.666 62.4724 61.3548 63.2283 61.3371C63.99 61.3136 64.5701 60.6071 64.5584 59.7182ZM88.7166 62.073C87.4861 62.0848 86.5662 61.1193 86.5427 59.7888C86.5252 58.4406 87.4509 57.4222 88.7049 57.4222C89.9236 57.4222 90.8435 58.4171 90.8494 59.7417C90.8494 61.0722 89.947 62.0613 88.7166 62.073ZM90.0525 59.7476C90.0525 58.8645 89.4431 58.1522 88.6931 58.1581C87.9373 58.1639 87.3338 58.8763 87.3396 59.7535C87.3396 60.6425 87.9431 61.3371 88.699 61.3371C89.4607 61.3313 90.0525 60.6366 90.0525 59.7476ZM91.5466 57.587H92.3025C92.3025 58.3994 92.3025 59.1824 92.3025 59.9713C92.3142 60.9074 92.6131 61.3195 93.2927 61.3313C93.9256 61.343 94.3943 60.7837 94.4119 59.9595C94.4236 59.1707 94.4119 58.3877 94.4119 57.6105C94.699 57.5399 94.9216 57.5458 95.1795 57.5988V61.8905C94.8631 61.92 94.4939 62.1319 94.3826 61.4961C94.0076 61.761 93.6736 62.0436 93.2166 62.073C92.3142 62.126 91.6228 61.6197 91.5642 60.6837C91.4939 59.6652 91.5466 58.6349 91.5466 57.587ZM71.783 61.8964C71.531 61.9494 71.3142 61.9612 71.0681 61.8788V55.6148C71.2908 55.4794 71.5252 55.5677 71.783 55.5441V61.8964ZM85.8162 61.9023H85.1189C85.1072 61.7846 85.0896 61.6904 85.0896 61.5962C85.0896 59.6063 85.0896 57.6223 85.0896 55.6501C85.3299 55.4735 85.5584 55.5618 85.8162 55.5559V61.9023Z" fill="#5F6368"/>
<path d="M5.88281 24.4951H144.117C147.094 24.4951 149.508 26.9383 149.508 29.9526V120.533C149.508 123.547 147.094 125.991 144.117 125.991H5.88281C2.90625 125.991 0.492188 123.547 0.492188 120.533V29.9526C0.492188 26.9383 2.90625 24.4951 5.88281 24.4951Z" stroke="#525252" stroke-width="0.655826"/>
</svg>
