<svg width="150" height="150" viewBox="0 0 150 150" fill="none" xmlns="http://www.w3.org/2000/svg">
<path d="M29.3728 61.4627L15.8996 75.1342C15.6328 75.4049 15.2713 75.556 14.8949 75.556C14.5185 75.556 14.1557 75.4049 13.8889 75.1342L2.84332 63.9247V75.4516H0V60.4433H0.00135396C0 60.0737 0.139458 59.7041 0.41702 59.4225C0.972144 58.8606 1.87253 58.8606 2.42765 59.4225L14.8949 72.0732L27.3622 59.4225C27.9173 58.8592 28.8177 58.8592 29.3728 59.4225C29.928 59.9858 29.928 60.8994 29.3728 61.4627Z" fill="#EA4335"/>
<path d="M29.7902 75.4531C29.7902 79.7589 27.2664 83.9836 22.4923 87.6724C19.0194 90.357 15.5885 91.8271 15.4436 91.8889H15.4395C15.2676 91.9617 15.0821 92.0002 14.8939 92.0002C14.7057 92.0002 14.5256 91.9645 14.3469 91.8889C14.1871 91.8216 13.0538 91.3311 11.4873 90.4491L14.3428 89.2277C14.3591 89.2208 14.5581 89.1356 14.8952 88.9749C17.3269 87.8126 26.9468 82.7484 26.9468 75.4531H29.7902Z" fill="#FBBC04"/>
<path d="M14.8949 88.9735C14.5578 89.1343 11.487 90.4477 11.487 90.4477C7.29379 88.0819 0 82.8996 0 75.4531H2.84332C2.84332 82.7498 12.4673 87.814 14.8949 88.9749V88.9735Z" fill="#4285F4"/>
<path d="M29.7896 70.0578V75.4531H26.9463V70.0578C26.9463 69.261 27.5827 68.6152 28.3679 68.6152C29.1532 68.6152 29.7896 69.261 29.7896 70.0578Z" fill="#34A853"/>
<path d="M48.7303 86.1665H46.2363V66.4746H48.7303L55.4798 78.4659H55.5881L62.3376 66.4746H64.8316V86.1665H62.3376V74.4775L62.446 71.1774H62.3376L56.2665 81.9858H54.8028L48.7317 71.1774H48.6234L48.7317 74.4775V86.1665H48.7303Z" fill="#5F6368"/>
<path d="M72.8609 72.251C74.7037 72.251 76.1578 72.7511 77.2247 73.7499C78.2903 74.7501 78.8238 76.1198 78.8238 77.8619V86.1684H76.4381V84.2986H76.3298C75.2994 85.8387 73.9265 86.6094 72.2097 86.6094C70.746 86.6094 69.522 86.1698 68.5377 85.2891C67.552 84.4085 67.0605 83.3094 67.0605 81.9891C67.0605 80.5959 67.5791 79.4858 68.619 78.6615C69.6574 77.8358 71.0453 77.4236 72.7797 77.4236C74.2609 77.4236 75.4808 77.6984 76.4381 78.2494V77.6723C76.4381 76.7917 76.0942 76.0456 75.4077 75.4315C74.7213 74.8174 73.917 74.5096 72.995 74.5096C71.6031 74.5096 70.501 75.1059 69.6886 76.2971L67.4938 74.8943C68.7043 73.1344 70.4928 72.2537 72.8609 72.2537V72.251ZM69.6358 82.0413C69.6358 82.7007 69.9106 83.2517 70.463 83.6913C71.0141 84.1309 71.66 84.3508 72.4006 84.3508C73.4485 84.3508 74.3828 83.9565 75.206 83.1679C76.0278 82.3792 76.4394 81.4532 76.4394 80.3899C75.6623 79.7661 74.5777 79.4542 73.1872 79.4542C72.1745 79.4542 71.3309 79.7015 70.6526 80.1975C69.9756 80.6921 69.6358 81.3076 69.6358 82.0399V82.0413Z" fill="#5F6368"/>
<path d="M81.1416 72.6906H83.5273V74.5605H83.6356C84.0147 73.901 84.5983 73.3501 85.3836 72.9104C86.1702 72.4708 86.9867 72.251 87.8369 72.251C89.4631 72.251 90.7141 72.7236 91.5915 73.6675C92.4675 74.6127 92.9062 75.955 92.9062 77.6971V86.1684H90.4122V77.8619C90.358 75.6623 89.264 74.5618 87.1329 74.5618C86.1391 74.5618 85.3077 74.9699 84.6389 75.786C83.97 76.6021 83.6356 77.5789 83.6356 78.7151V86.1684H81.1416V72.692V72.6906Z" fill="#5F6368"/>
<path d="M100.837 86.6067C99.1029 86.6067 97.6122 85.9101 96.3652 84.517C95.1358 83.1047 94.5225 81.4093 94.5225 79.4295C94.5225 77.4498 95.1372 75.753 96.3652 74.342C97.6122 72.9489 99.1029 72.2524 100.837 72.2524C101.814 72.2524 102.703 72.4639 103.507 72.8844C104.312 73.3061 104.93 73.8653 105.364 74.5619H105.472L105.364 72.692V66.4766H107.858V86.1684H105.472V84.2986H105.364C104.93 84.9951 104.31 85.5543 103.507 85.9761C102.703 86.3979 101.814 86.6081 100.837 86.6081V86.6067ZM101.244 84.2972C102.472 84.2972 103.475 83.8479 104.252 82.9494C105.066 82.0509 105.472 80.8776 105.472 79.4295C105.472 77.9815 105.066 76.8535 104.252 75.9371C103.457 75.0207 102.454 74.5619 101.244 74.5619C100.033 74.5619 99.0488 75.0207 98.235 75.9371C97.4213 76.8535 97.0151 78.0186 97.0151 79.4295C97.0151 80.8405 97.4213 82.0248 98.235 82.9219C99.0488 83.8383 100.051 84.2972 101.244 84.2972Z" fill="#5F6368"/>
<path d="M113.449 68.0423C113.449 68.5369 113.277 68.9587 112.934 69.3077C112.592 69.6566 112.176 69.8297 111.687 69.8297C111.199 69.8297 110.784 69.6552 110.44 69.3077C110.096 68.9601 109.926 68.5369 109.926 68.0423C109.926 67.5477 110.098 67.1259 110.44 66.777C110.783 66.428 111.2 66.2549 111.687 66.2549C112.175 66.2549 112.59 66.4294 112.934 66.777C113.277 67.1259 113.449 67.5463 113.449 68.0423ZM112.934 72.6902V86.1666H110.44V72.6902H112.934Z" fill="#5F6368"/>
<path d="M120.437 72.251C122.28 72.251 123.734 72.7511 124.801 73.7499C125.866 74.7501 126.4 76.1198 126.4 77.8619V86.1684H124.014V84.2986H123.906C122.876 85.8387 121.503 86.6094 119.786 86.6094C118.322 86.6094 117.098 86.1698 116.114 85.2891C115.128 84.4085 114.637 83.3094 114.637 81.9891C114.637 80.5959 115.155 79.4858 116.195 78.6615C117.234 77.8358 118.621 77.4236 120.356 77.4236C121.837 77.4236 123.057 77.6984 124.014 78.2494V77.6723C124.014 76.7917 123.67 76.0456 122.984 75.4315C122.297 74.8174 121.493 74.5096 120.571 74.5096C119.179 74.5096 118.077 75.1059 117.265 76.2971L115.07 74.8943C116.28 73.1344 118.069 72.2537 120.437 72.2537V72.251ZM117.212 82.0413C117.212 82.7007 117.487 83.2517 118.039 83.6913C118.59 84.1309 119.236 84.3508 119.977 84.3508C121.025 84.3508 121.959 83.9565 122.782 83.1679C123.604 82.3792 124.016 81.4532 124.016 80.3899C123.238 79.7661 122.154 79.4542 120.763 79.4542C119.751 79.4542 118.907 79.7015 118.229 80.1975C117.552 80.6921 117.212 81.3076 117.212 82.0399V82.0413Z" fill="#5F6368"/>
<path d="M128.719 72.6906H131.104V74.5605H131.213C131.592 73.901 132.175 73.3501 132.961 72.9104C133.747 72.4708 134.564 72.251 135.414 72.251C137.04 72.251 138.291 72.7236 139.169 73.6675C140.045 74.6127 140.483 75.955 140.483 77.6971V86.1684H137.989V77.8619C137.935 75.6623 136.841 74.5618 134.71 74.5618C133.716 74.5618 132.885 74.9699 132.216 75.786C131.547 76.6021 131.213 77.5789 131.213 78.7151V86.1684H128.719V72.692V72.6906Z" fill="#5F6368"/>
<path d="M147.724 86.3865C146.64 86.3865 145.741 86.0471 145.027 85.3684C144.314 84.6897 143.947 83.7459 143.929 82.5355V74.9997H141.598V72.6902H143.929V68.5645H146.423V72.6902H149.675V74.9997H146.423V81.7098C146.423 82.6083 146.595 83.2183 146.938 83.5384C147.28 83.8599 147.67 84.0193 148.103 84.0193C148.302 84.0193 148.496 83.9959 148.686 83.9506C148.875 83.9052 149.051 83.8448 149.214 83.772L150 86.0279C149.35 86.2656 148.591 86.3851 147.724 86.3851V86.3865Z" fill="#5F6368"/>
</svg>
