<svg width="150" height="150" viewBox="0 0 150 150" fill="none" xmlns="http://www.w3.org/2000/svg">
<g clip-path="url(#clip0_258_651)">
<mask id="mask0_258_651" style="mask-type:luminance" maskUnits="userSpaceOnUse" x="0" y="55" width="173" height="40">
<path d="M172.811 55.9434H0V94.1292H172.811V55.9434Z" fill="white"/>
</mask>
<g mask="url(#mask0_258_651)">
<mask id="mask1_258_651" style="mask-type:luminance" maskUnits="userSpaceOnUse" x="0" y="56" width="173" height="39">
<path d="M0 56V94.1295H172.811V56" fill="white"/>
</mask>
<g mask="url(#mask1_258_651)">
<path d="M67.217 67.2021V85.452H64.064V71.1489H64.0118L58.3808 85.452H56.2908L50.5195 71.1489H50.4804V85.452H47.5654V67.2021H52.0846L57.3015 80.7318H57.3765L62.8837 67.2021H67.217Z" fill="#737474"/>
<path d="M69.848 68.5931C69.8432 68.3521 69.89 68.113 69.9851 67.8923C70.0803 67.6716 70.2215 67.4746 70.399 67.3151C70.7521 66.9785 71.2195 66.7941 71.7033 66.8006C71.9487 66.7932 72.1931 66.8357 72.4221 66.9258C72.6511 67.0159 72.8601 67.1516 73.0368 67.3251C73.2068 67.4868 73.3418 67.6828 73.4333 67.9005C73.5248 68.1182 73.5708 68.353 73.5683 68.5898C73.5732 68.8264 73.5283 69.0614 73.4367 69.279C73.345 69.4966 73.2087 69.6916 73.0368 69.8511C72.6749 70.1897 72.1979 70.3718 71.7065 70.359C71.2158 70.3722 70.7399 70.1872 70.3827 69.8445C70.2111 69.686 70.0747 69.4922 69.9825 69.2758C69.8903 69.0595 69.8444 68.8256 69.848 68.5898M73.2292 85.4521H70.1643V72.3705H73.2292V85.4521Z" fill="#737474"/>
<path d="M82.4696 83.2118C82.9873 83.1949 83.4977 83.0825 83.976 82.8799C84.5166 82.6779 85.0277 82.4021 85.4954 82.06V84.9246C84.9731 85.2176 84.4119 85.4322 83.8293 85.5619C83.1579 85.7117 82.4721 85.7841 81.7849 85.7777C80.9256 85.8125 80.0683 85.6685 79.2655 85.3546C78.4627 85.0407 77.7312 84.5635 77.1157 83.952C76.5213 83.3428 76.0553 82.6163 75.7464 81.8172C75.4374 81.0181 75.292 80.1633 75.3191 79.3049C75.245 77.3919 75.9017 75.5241 77.1516 74.0936C78.3754 72.7304 80.1144 72.0488 82.3685 72.0488C82.9556 72.0505 83.5404 72.1252 84.1097 72.2712C84.5901 72.3764 85.0557 72.5425 85.4954 72.7658V75.7167C85.0487 75.3841 84.5608 75.1129 84.0445 74.9101C83.5615 74.7218 83.0487 74.625 82.5316 74.6246C81.988 74.6007 81.4457 74.6939 80.94 74.8981C80.4343 75.1023 79.9767 75.413 79.597 75.8097C79.214 76.2411 78.9184 76.7452 78.727 77.2932C78.5357 77.8411 78.4524 78.4221 78.4819 79.0029C78.4478 79.5672 78.5255 80.1327 78.7104 80.6659C78.8952 81.1991 79.1834 81.689 79.5579 82.1065C79.9418 82.4837 80.3978 82.7765 80.8976 82.9667C81.3974 83.1568 81.9303 83.2403 82.4631 83.2118" fill="#737474"/>
<path d="M94.231 72.1549C94.4493 72.1529 94.6675 72.1696 94.8831 72.2047C95.0506 72.2316 95.2154 72.2738 95.3754 72.3308V75.4477C95.1588 75.3031 94.9226 75.1912 94.6744 75.1158C94.3125 75.0018 93.9348 74.9479 93.556 74.9564C93.1877 74.9554 92.8241 75.0412 92.4938 75.207C92.1634 75.3729 91.8753 75.6143 91.6519 75.9124C91.0677 76.7711 90.7925 77.8087 90.8726 78.85V85.4556H87.8076V72.3707H90.8726V74.4253H90.9215C91.1727 73.7569 91.6129 73.1793 92.1866 72.7657C92.7877 72.3472 93.503 72.1323 94.231 72.1516" fill="#737474"/>
<path d="M95.535 79.1024C95.4864 78.1649 95.6226 77.227 95.9356 76.3439C96.2487 75.4609 96.7322 74.6505 97.3577 73.9607C98.0286 73.3078 98.8245 72.8025 99.6957 72.4764C100.567 72.1503 101.495 72.0104 102.421 72.0654C103.297 72.0141 104.174 72.15 104.995 72.4644C105.816 72.7788 106.563 73.2648 107.188 73.891C108.379 75.2389 108.996 77.013 108.903 78.8236C108.949 79.7492 108.812 80.6748 108.498 81.5451C108.185 82.4153 107.703 83.2125 107.081 83.8889C106.424 84.532 105.645 85.0309 104.791 85.3547C103.938 85.6784 103.028 85.8201 102.118 85.771C101.24 85.8176 100.363 85.6832 99.5372 85.3757C98.7119 85.0683 97.9561 84.5942 97.3153 83.9819C96.7067 83.3356 96.2347 82.5692 95.9285 81.7299C95.6223 80.8907 95.4884 79.9964 95.535 79.1024ZM98.7239 78.9995C98.649 80.1222 98.9769 81.2344 99.6466 82.1297C99.9806 82.4988 100.391 82.7875 100.849 82.9747C101.306 83.1619 101.799 83.2429 102.291 83.2118C102.769 83.2435 103.247 83.1623 103.689 82.9746C104.131 82.7869 104.524 82.4977 104.837 82.1297C105.482 81.195 105.79 80.0622 105.708 78.9232C105.789 77.7849 105.467 76.6547 104.802 75.7366C104.485 75.3746 104.093 75.0899 103.654 74.9037C103.215 74.7175 102.74 74.6346 102.265 74.6611C101.775 74.6346 101.285 74.7222 100.833 74.9172C100.381 75.1122 99.9787 75.4094 99.6564 75.7864C98.9824 76.7115 98.653 77.8502 98.7271 78.9995" fill="#737474"/>
<path d="M113.468 75.8063C113.459 75.9995 113.492 76.1922 113.564 76.3711C113.637 76.55 113.746 76.7107 113.886 76.842C114.458 77.2495 115.087 77.5693 115.751 77.7913C116.73 78.1204 117.615 78.6905 118.326 79.451C118.826 80.0825 119.088 80.8744 119.067 81.6849C119.082 82.258 118.962 82.8265 118.716 83.3424C118.47 83.8583 118.106 84.3065 117.655 84.6491C116.542 85.449 115.197 85.8432 113.837 85.7677C113.235 85.7615 112.636 85.6959 112.047 85.5719C111.476 85.4662 110.919 85.2982 110.384 85.0707V82.0434C110.939 82.4331 111.543 82.7457 112.18 82.9728C112.74 83.1822 113.331 83.2944 113.928 83.3048C114.455 83.34 114.982 83.2395 115.46 83.0127C115.627 82.9112 115.761 82.7637 115.848 82.5874C115.936 82.4111 115.972 82.2133 115.953 82.0169C115.949 81.8122 115.899 81.6112 115.807 81.429C115.716 81.2467 115.585 81.088 115.425 80.9646C114.823 80.5389 114.164 80.2035 113.468 79.9688C112.55 79.6407 111.725 79.0905 111.062 78.3656C110.575 77.7122 110.33 76.9045 110.371 76.0852C110.362 75.5225 110.484 74.9656 110.727 74.4601C110.97 73.9547 111.327 73.5151 111.769 73.1774C112.812 72.3823 114.094 71.9799 115.395 72.0389C115.909 72.0446 116.422 72.0957 116.928 72.1916C117.417 72.269 117.897 72.4003 118.359 72.5832V75.5142C117.916 75.2236 117.439 74.9885 116.941 74.8138C116.425 74.6233 115.882 74.5245 115.333 74.5217C114.858 74.4903 114.384 74.606 113.974 74.8537C113.819 74.9547 113.693 75.0945 113.608 75.2597C113.522 75.4248 113.479 75.6097 113.484 75.7964" fill="#737474"/>
<path d="M120.397 79.1024C120.349 78.1649 120.485 77.2269 120.798 76.3438C121.111 75.4608 121.594 74.6504 122.22 73.9607C122.891 73.3078 123.687 72.8025 124.558 72.4764C125.429 72.1503 126.357 72.0104 127.284 72.0654C128.16 72.0136 129.037 72.1493 129.859 72.4637C130.68 72.7782 131.428 73.2644 132.054 73.891C133.245 75.2389 133.862 77.013 133.769 78.8236C133.815 79.7492 133.677 80.6748 133.364 81.5451C133.051 82.4153 132.569 83.2125 131.946 83.8889C131.29 84.532 130.511 85.0309 129.657 85.3547C128.803 85.6784 127.893 85.8201 126.984 85.771C126.106 85.8176 125.228 85.6832 124.403 85.3757C123.578 85.0683 122.822 84.5942 122.181 83.9819C121.573 83.3353 121.102 82.5688 120.796 81.7295C120.49 80.8903 120.357 79.9962 120.404 79.1024M123.593 78.9995C123.518 80.1222 123.846 81.2344 124.515 82.1297C124.85 82.4998 125.261 82.7894 125.719 82.9772C126.177 83.165 126.67 83.2463 127.163 83.2151C127.641 83.2468 128.119 83.1657 128.561 82.9779C129.003 82.7902 129.396 82.501 129.71 82.133C130.354 81.1983 130.662 80.0655 130.58 78.9265C130.661 77.7882 130.34 76.658 129.674 75.7399C129.358 75.3779 128.965 75.0932 128.526 74.907C128.087 74.7208 127.612 74.6379 127.137 74.6644C126.647 74.6377 126.157 74.7252 125.705 74.9202C125.253 75.1152 124.851 75.4125 124.529 75.7897C123.846 76.7116 123.509 77.8507 123.576 79.0028" fill="#737474"/>
<path d="M140.955 65.8547C141.282 65.8523 141.608 65.8712 141.933 65.9111C142.191 65.9428 142.446 66.0006 142.693 66.0837V68.7392C142.522 68.6524 142.344 68.5813 142.161 68.5267C141.879 68.4385 141.586 68.3959 141.291 68.4006C141.015 68.3834 140.74 68.4287 140.484 68.5331C140.228 68.6376 139.998 68.7987 139.81 69.0047C139.431 69.5177 139.247 70.1533 139.292 70.7939V72.3739H142.191V74.8899H139.292V85.4521H136.194V74.8899H134.01V72.3706H136.188V70.5515C136.167 69.9246 136.275 69.3001 136.505 68.7182C136.736 68.1362 137.083 67.6097 137.525 67.1724C137.98 66.7299 138.517 66.3845 139.105 66.1565C139.693 65.9284 140.319 65.8224 140.948 65.8447" fill="#737474"/>
<path d="M148.777 83.2153C149 83.2093 149.22 83.1667 149.429 83.0892C149.658 83.0142 149.877 82.9117 150.081 82.7838V85.3297C149.771 85.4778 149.442 85.5806 149.103 85.6351C148.663 85.7271 148.216 85.7738 147.766 85.7745C147.238 85.816 146.707 85.7453 146.207 85.5671C145.707 85.3888 145.249 85.1068 144.861 84.7389C144.15 83.8658 143.8 82.7462 143.883 81.6154V74.8903H141.744V72.3676H143.883V69.4466L146.958 68.5039V72.371H150.059V74.8937H146.958V81.0146C146.903 81.6203 147.061 82.2263 147.405 82.724C147.585 82.9021 147.801 83.0388 148.038 83.1246C148.275 83.2105 148.527 83.2437 148.777 83.2219" fill="#737474"/>
<path d="M0 57.2344H17.3952V74.7207H0V57.2344Z" fill="#F05226"/>
<path d="M19.2051 57.2344H36.6003V74.7207H19.2051V57.2344Z" fill="#7FBB42"/>
<path d="M0 76.54H17.3952V94.0264H0V76.54Z" fill="#33A0DA"/>
<path d="M19.2051 76.54H36.6003V94.0264H19.2051V76.54Z" fill="#FDB716"/>
</g>
</g>
</g>
<defs>
<clipPath id="clip0_258_651">
<rect width="150" height="38" fill="white" transform="translate(0 56)"/>
</clipPath>
</defs>
</svg>
