<svg width="500" height="500" viewBox="0 0 500 500" fill="none" xmlns="http://www.w3.org/2000/svg">
<mask id="mask0_4357_20" style="mask-type:luminance" maskUnits="userSpaceOnUse" x="0" y="171" width="500" height="158">
<path d="M500 171.875H0V328.125H500V171.875Z" fill="white"/>
</mask>
<g mask="url(#mask0_4357_20)">
<path d="M86.0865 310.264C86.0865 320 93.7559 327.965 103.303 327.965C112.851 327.965 120.52 320.08 120.52 310.264C120.755 305.517 119.033 300.851 115.747 297.391C112.46 294.012 107.921 292.161 103.225 292.322C93.6772 292.403 86.0078 300.448 86.0865 310.264ZM92.5815 310.264C92.3472 303.828 97.199 298.437 103.382 298.115C109.329 298.035 114.182 302.943 114.26 309.057C114.26 309.46 114.26 309.862 114.26 310.264C114.416 313.402 113.242 316.46 111.129 318.712C109.173 320.965 106.277 322.253 103.303 322.253C96.8859 322.333 92.5034 317.345 92.5034 310.264" fill="#CB2026"/>
<path d="M48.5997 310.263C48.1302 319.516 55.017 327.401 63.9383 327.883C64.4864 327.883 65.1127 327.883 65.7383 327.883C70.9039 328.044 75.8339 325.55 78.8864 321.205L79.0427 321.044L74.2689 316.941L74.112 317.343C72.4689 320.561 69.1039 322.573 65.5039 322.331C59.4778 322.331 54.5474 317.182 54.6257 310.987C54.6257 310.746 54.6257 310.504 54.6257 310.183C54.6257 307.125 55.643 304.148 57.5995 301.814C59.6343 299.481 62.5302 298.114 65.582 298.114C69.0252 298.194 72.1558 300.044 74.0339 303.021L74.1908 303.183L78.9645 299.24L78.8077 299.079C75.5208 294.976 70.5908 292.643 65.4258 292.643C60.8865 292.643 56.5822 294.413 53.4518 297.711C50.3214 301.091 48.5997 305.516 48.5215 310.183" fill="#CB2026"/>
<path d="M290.109 312.999V327.079H296.212V312.999L308.186 293.447H301.534L293.16 306.964L285.178 293.447H278.135L290.109 312.999Z" fill="#CB2026"/>
<path d="M178.668 293.367V327.079H184.929V314.608C185.32 314.608 185.867 314.769 186.494 314.769C194.476 314.769 200.032 311.229 200.032 304.229C200.032 297.229 195.259 293.367 186.337 293.367H178.668ZM184.929 298.436H186.494C191.659 298.436 193.772 300.367 193.772 303.907C193.772 307.448 191.502 309.378 186.494 309.378C185.946 309.378 185.476 309.378 184.929 309.218V298.436Z" fill="#CB2026"/>
<path d="M137.189 308.897L147.441 328.045L157.536 308.897L161.527 327.08H168.023L159.493 292.805L147.676 315.575L135.467 292.805L127.25 327.322H133.354L137.189 308.897Z" fill="#CB2026"/>
<path d="M289.325 234.23L232.273 180.162V270.678H247.769V218.219L305.368 272.769V181.691H289.325V234.23Z" fill="#CB2026"/>
<path d="M194.71 181.691H178.197V270.195H194.71V181.691Z" fill="#CB2026"/>
<path d="M157.223 270.196L115.198 179.6L73.1719 270.196H89.685L98.3719 251.207H131.241L139.301 270.196H157.301H157.223ZM104.084 237.288L115.119 211.542L125.136 237.288H104.163H104.084Z" fill="#CB2026"/>
<path d="M44.0597 223.369C51.1031 220.07 55.5639 212.829 55.5639 204.863C55.5639 189.415 43.5119 181.691 23.0079 181.691H2.50391V270.195H27.0774C49.1466 270.195 61.1203 260.943 61.1203 244.529C60.729 234.311 53.7639 225.622 44.0597 223.449M26.06 232.702C37.5642 232.702 44.0597 235.92 44.0597 245.012C44.0597 253.219 38.0337 256.839 26.06 256.839H19.0949V232.702H26.06ZM19.0949 219.265V195.128H22.2253C34.199 195.128 40.225 198.346 40.225 207.438C40.225 216.53 34.199 219.265 22.6949 219.265H19.0949Z" fill="#CB2026"/>
<path d="M21.9129 327.322H29.1128C29.1128 327.322 23.6347 320.885 22.6173 319.678C23.3998 318.712 28.1737 311.23 28.1737 311.23H22.226L19.4087 315.897L14.2435 309.782C18.626 307.448 21.2868 304.15 21.2868 300.609C21.2868 295.943 17.2956 292.805 12.1305 292.805C6.41753 292.805 2.73935 296.345 2.73935 301.012C2.89587 304.069 4.22628 306.965 6.33928 309.057C2.58283 310.747 0.0785288 314.448 -0.15625 318.712C-0.0779906 324.023 4.22628 328.287 9.3914 328.207C9.62621 328.207 9.86097 328.207 10.0957 328.207C13.6174 328.207 16.9043 326.758 19.2521 324.103L21.7564 327.482L21.9129 327.322ZM8.37403 301.092C8.37403 300.046 8.76534 299.081 9.5479 298.357C10.2523 297.632 11.1914 297.15 12.2088 297.15C13.1478 297.15 14.1652 297.472 14.8696 298.115C15.6522 298.678 16.0435 299.644 15.8087 300.609C15.8087 302.943 13.5392 304.713 11.2697 305.92C9.70447 304.793 8.60884 303.023 8.37403 301.012M15.8087 320.322C14.5565 321.931 12.6783 322.897 10.6436 322.897C9.3914 323.057 8.13928 322.575 7.20015 321.77C6.26103 320.885 5.71322 319.598 5.63495 318.23C5.86973 315.977 7.1219 313.885 9.0784 312.758H9.2349L15.7304 320.402L15.8087 320.322Z" fill="#CB2026"/>
<path d="M264.596 313.402L242.918 292.805V327.08H249.022V307.287L270.7 328.045V293.448H264.596V313.402Z" fill="#CB2026"/>
<path d="M234.858 327.079L218.893 292.643L202.85 327.079H209.11L212.241 319.838H224.762L227.893 327.079H234.858ZM214.667 314.608L218.893 304.953L222.728 314.608H214.745H214.667Z" fill="#CB2026"/>
<path d="M450.853 254.023L436.923 190.702L398.732 241.874L450.853 254.023ZM500 249.919C500 293.045 465.957 328.044 424.01 328.044C382.063 328.044 348.02 293.045 348.02 249.919C348.02 206.794 382.063 171.875 424.088 171.875C428.079 171.955 432.07 172.277 435.983 172.921L429.645 181.61H424.166C407.419 181.61 391.297 188.208 379.01 199.955C367.037 212.104 360.306 228.598 360.228 245.897C360.228 279.931 389.028 308.896 424.245 308.896C459.461 308.896 488.261 278.562 488.261 245.897C488.183 219.265 471.983 195.449 447.644 186.197L445.14 175.496C477.618 184.829 500 215.322 499.921 250" fill="#CB2026"/>
</g>
</svg>
