<svg width="500" height="500" viewBox="0 0 500 500" fill="none" xmlns="http://www.w3.org/2000/svg">
<path d="M462.263 205.308L461.125 203.907L432.538 195L403.95 203.907L402.812 205.308H0V297.058H405.988L417.625 305H447.425L459.062 297.058H500V205.308H462.263Z" fill="#008350"/>
<mask id="mask0_4357_21" style="mask-type:luminance" maskUnits="userSpaceOnUse" x="0" y="195" width="500" height="110">
<path d="M500 195H0V305H500V195Z" fill="white"/>
</mask>
<g mask="url(#mask0_4357_21)">
<path d="M40.9625 271.817C51.8877 271.817 59.0253 265.897 59.0253 250.475C59.0253 236.983 52.2128 230.838 41.25 230.838H26.3125V271.817H40.9625ZM37.4625 240.405H39.5875C45.55 240.405 47.8625 242.678 47.8625 251.215C47.8625 258.959 45.025 262.249 39.825 262.249H37.4625V240.392" fill="#FEE60E"/>
<path d="M79.6883 229.768C69.1008 229.768 61.8633 238.133 61.8633 251.004C61.8633 264.946 69.0008 272.914 79.6883 272.914C89.7633 272.914 97.5633 265.065 97.5633 251.123C97.5633 240.313 91.8383 229.781 79.6883 229.781M79.6008 239.798C84.5133 239.626 86.4008 245.546 86.4008 251.123C86.4008 257.889 84.5133 262.897 79.6883 262.897C74.3383 262.897 73.0258 256.356 73.0258 251.123C73.0258 245.89 74.5383 239.798 79.6008 239.798Z" fill="#FEE60E"/>
<path d="M102.986 271.817V230.838H114.149V262.249H129.461V271.817H102.986Z" fill="#FEE60E"/>
<path d="M134.525 271.817V230.838H145.688V262.249H161V271.817H134.525Z" fill="#FEE60E"/>
<path d="M173.911 271.817L175.186 266.412H186.299L187.624 271.817H198.736L186.536 230.838H175.186L162.986 271.817H173.911ZM184.361 257.875H177.311L180.761 243.194L184.349 257.875" fill="#FEE60E"/>
<path d="M216.699 257.546C221.899 257.546 222.662 259.303 222.662 264.655C222.662 268.303 222.949 270.919 223.224 271.831H234.524V270.575C233.199 270.575 233.349 268.752 233.349 263.4C233.349 255.141 231.174 254.123 227.574 252.537C231.549 251.229 233.299 247.238 233.299 242.52C233.299 234.552 229.562 230.852 218.212 230.852H202.137V271.831H213.287V257.546H216.687H216.699ZM213.299 240.419H218.499C221.099 240.419 222.987 241.78 222.987 244.687C222.987 247.595 221.137 248.56 217.687 248.56H213.287V240.419" fill="#FEE60E"/>
<path d="M247.476 271.817L248.751 266.412H259.863L261.188 271.817H272.301L260.101 230.838H248.751L236.551 271.817H247.463H247.476ZM257.926 257.875H250.876L254.326 243.194L257.913 257.875" fill="#FEE60E"/>
<path d="M275.65 271.817V230.838H289.125L295.138 256.395L301.138 230.838H314.613V271.817H304.588V259.303L304.725 252.933L305.288 245.533H305.2L299 271.83H291.25L285.05 245.533H284.963L285.438 251.572L285.675 257.941V271.83H275.65" fill="#FEE60E"/>
<path d="M328.888 271.817L330.163 266.412H341.275L342.6 271.817H353.713L341.513 230.838H330.163L317.963 271.817H328.875H328.888ZM339.338 257.875H332.288L335.738 243.194L339.338 257.875Z" fill="#FEE60E"/>
<path d="M462.262 205.308L461.125 203.907L432.537 195L403.95 203.907L402.812 205.308H0V297.058H405.988L417.625 305H447.425L459.062 297.058H500V205.308H462.262ZM5.15 291.904V210.223H398.775L384.412 227.826L380.175 259.131L392.55 287.9L398.438 291.917H5.15V291.904ZM446.037 299.846H419.025L396.3 284.346L385.075 258.26L388.913 229.874L406.6 208.202L432.525 200.127L458.45 208.202L476.138 229.874L479.975 258.26L468.75 284.346L446.025 299.846H446.037ZM495.288 291.904H466.613L472.5 287.887L484.888 259.118L480.638 227.812L466.275 210.21H495.288V291.891V291.904Z" fill="#FEE60E"/>
<path d="M405 241.463C400.9 242.164 397.025 243.869 397.025 249.617C397.025 255.365 401.25 256.357 405 257.691V263.506C403.3 263.096 402.375 261.695 402.375 259.647H396.588C396.65 265.435 400.4 268.329 405 268.514V272.109H407.663V268.514C412.3 268.329 416.2 266.294 416.2 260.215C416.2 254.652 411.65 253.053 407.663 251.652V246.498C409.288 246.459 410.25 247.939 410.35 249.432H415.888C415.95 243.723 411.863 241.715 407.663 241.463V239.164H405V241.463ZM407.663 258.326C409.225 258.696 410.438 259.66 410.438 261.286C410.438 262.911 408.963 263.73 407.663 263.73V258.326ZM405 251.097C403.975 250.621 402.6 250.317 402.6 248.547C402.6 247.146 404.1 246.208 405 246.287V251.097Z" fill="#FEE60E"/>
<path d="M448.713 270.035C449.676 267.947 450.213 265.264 450.126 263.824C449.288 264.788 448.813 267.286 448.651 269.995L448.713 270.021V270.035ZM454.188 271.25C453.488 272.995 452.313 276.074 450.501 276.814C448.951 277.448 448.038 275.994 447.551 274.673C446.701 272.321 446.738 269.4 447.463 267.048C448.438 263.85 449.701 260.943 450.376 260.678C450.738 260.533 451.013 261.035 451.101 261.339C451.726 263.533 451.888 265.726 449.001 272.294C448.951 272.757 449.113 273.404 449.413 273.906C449.788 274.343 450.251 274.673 450.826 274.435C451.988 273.959 453.101 271.871 453.651 270.708L454.188 271.263" fill="#FEE60E"/>
<path d="M458.862 266.321C459.149 265.713 460.462 262.74 460.987 262.528C461.162 262.462 461.412 262.436 461.924 263.559C462.162 264.074 461.774 264.827 461.549 265.277C461.112 266.202 460.249 268.58 460.612 269.585C460.737 269.942 460.974 269.994 461.324 269.862C462.124 269.532 463.387 267.219 463.824 266.426L464.299 267.338C463.612 268.871 462.312 272.36 460.737 272.994C459.949 273.311 459.237 272.809 458.949 272.03C458.699 271.356 458.712 270.629 458.712 269.968L458.649 269.942C458.099 271.038 457.412 273.629 456.249 274.104C455.212 274.527 454.187 273.51 453.837 272.545C453.049 270.378 453.824 267.484 454.837 265.99C455.062 265.673 455.324 265.515 455.687 265.369C455.987 265.25 456.987 264.603 457.149 265.316C457.237 265.686 456.887 266.545 456.737 266.849C456.362 267.906 456.312 268.158 455.712 269.122C455.237 269.876 454.899 270.576 455.249 271.514C455.287 271.633 455.399 271.845 455.537 271.778C455.912 271.62 456.849 270.497 457.499 269.149L458.874 266.308" fill="#FEE60E"/>
<path d="M464.074 267.166C464.874 266.888 465.587 267.404 466.212 267.813C467.187 266.466 467.387 265.95 466.974 264.629C466.737 264.179 466.437 263.611 466.037 262.911L464.087 267.166H464.074ZM471.112 263.77L471.637 264.536C470.837 266.426 469.274 269.399 467.537 270.007C466.099 270.522 464.212 270.298 463.237 268.818C463.162 269.003 463.062 269.227 462.874 269.293C462.662 269.373 462.437 269.214 462.362 269.016C462.249 268.725 462.487 268.276 462.587 268.025L465.562 261.695C465.337 260.942 465.474 260.056 466.237 259.752C466.874 259.501 467.074 259.647 467.362 260.241C467.762 261.061 468.349 261.695 468.712 262.673C469.374 264.51 468.474 266.439 467.437 267.866C468.887 267.562 469.462 266.558 470.199 265.303L471.099 263.756" fill="#FEE60E"/>
<path d="M436.651 281.742C436.651 281.742 436.651 281.729 436.651 281.716L435.213 278.558L438.788 269.149C439.038 268.448 439.363 267.47 440.426 267.047C441.501 266.611 442.463 266.902 442.776 267.735C442.976 268.276 442.838 268.937 442.463 269.928C442.676 269.743 442.901 269.585 443.113 269.453V214.215H424.238L416.801 235.623H421.951V279.654H417.376V285.773H436.488C436.213 284.676 436.251 283.394 436.651 281.729V281.742Z" fill="#FEE60E"/>
<path d="M441.638 280.791C441.388 280.949 441.125 281.108 440.813 281.24C440.675 281.293 440.55 281.333 440.425 281.372L440 285.601C440 285.601 439.975 285.72 439.963 285.786H448.25V279.668H444.9C444.45 280.011 443.963 280.328 443.413 280.553C442.75 280.817 442.175 280.844 441.65 280.804L441.638 280.791Z" fill="#FEE60E"/>
<path d="M450.354 262.092C450.354 262.092 450.354 262.132 450.354 262.145L450.25 262.251C450.25 262.251 450.315 262.132 450.341 262.092H450.354Z" fill="#FEE60E"/>
<path d="M442.938 274.817C443.063 274.408 443.213 273.906 443.063 273.509C443.013 273.351 442.888 273.218 442.713 273.284C442.375 273.417 441.613 274.527 441.4 274.844C440.838 275.769 440.513 276.773 440.238 277.804C440.838 277.513 441.45 277.341 442.1 277.302L442.925 274.804L442.938 274.817ZM439.1 285.468C439.05 285.878 438.888 286.631 438.488 286.79C438 286.988 437.65 286.433 437.513 286.024C437.088 284.913 437.15 283.605 437.538 281.953C437.975 280.103 438.375 277.83 438.863 274.817L438.8 274.791L436.675 279.535L436.213 278.518L439.513 269.849C439.813 269.056 439.95 268.263 440.763 267.932C441.063 267.814 441.775 267.642 441.938 268.078C442.113 268.567 441.413 270.1 441.2 270.615C440.775 271.712 440.413 272.809 440.363 273.985L440.425 274.011C441.088 272.941 442.688 270.602 443.825 270.139C444.4 269.901 444.888 270.245 445.1 270.826C445.55 272.055 445.05 274.038 443.488 277.209C445.363 276.601 445.65 276.073 447.175 273.099L447.7 274.064C446.725 276.311 445.4 278.703 443.113 279.628C442.538 279.865 442.05 279.852 441.45 279.786C441.163 279.984 440.863 280.183 440.525 280.315C440.225 280.434 439.925 280.473 439.625 280.526L439.125 285.455" fill="#FEE60E"/>
<path d="M448.713 270.035C449.676 267.947 450.213 265.264 450.126 263.824C449.288 264.788 448.813 267.286 448.651 269.995L448.713 270.021V270.035ZM454.188 271.25C453.488 272.995 452.313 276.074 450.501 276.814C448.951 277.448 448.038 275.994 447.551 274.673C446.701 272.321 446.738 269.4 447.463 267.048C448.438 263.85 449.701 260.943 450.376 260.678C450.738 260.533 451.013 261.035 451.101 261.339C451.726 263.533 451.888 265.726 449.001 272.294C448.951 272.757 449.113 273.404 449.413 273.906C449.788 274.343 450.251 274.673 450.826 274.435C451.988 273.959 453.101 271.871 453.651 270.708L454.188 271.263" fill="#FEE60E"/>
<path d="M458.862 266.321C459.149 265.713 460.462 262.74 460.987 262.528C461.162 262.462 461.412 262.436 461.924 263.559C462.162 264.074 461.774 264.827 461.549 265.277C461.112 266.202 460.249 268.58 460.612 269.585C460.737 269.942 460.974 269.994 461.324 269.862C462.124 269.532 463.387 267.219 463.824 266.426L464.299 267.338C463.612 268.871 462.312 272.36 460.737 272.994C459.949 273.311 459.237 272.809 458.949 272.03C458.699 271.356 458.712 270.629 458.712 269.968L458.649 269.942C458.099 271.038 457.412 273.629 456.249 274.104C455.212 274.527 454.187 273.51 453.837 272.545C453.049 270.378 453.824 267.484 454.837 265.99C455.062 265.673 455.324 265.515 455.687 265.369C455.987 265.25 456.987 264.603 457.149 265.316C457.237 265.686 456.887 266.545 456.737 266.849C456.362 267.906 456.312 268.158 455.712 269.122C455.237 269.876 454.899 270.576 455.249 271.514C455.287 271.633 455.399 271.845 455.537 271.778C455.912 271.62 456.849 270.497 457.499 269.149L458.874 266.308" fill="#FEE60E"/>
<path d="M464.074 267.166C464.874 266.888 465.587 267.404 466.212 267.813C467.187 266.466 467.387 265.95 466.974 264.629C466.737 264.179 466.437 263.611 466.037 262.911L464.087 267.166H464.074ZM471.112 263.77L471.637 264.536C470.837 266.426 469.274 269.399 467.537 270.007C466.099 270.522 464.212 270.298 463.237 268.818C463.162 269.003 463.062 269.227 462.874 269.293C462.662 269.373 462.437 269.214 462.362 269.016C462.249 268.725 462.487 268.276 462.587 268.025L465.562 261.695C465.337 260.942 465.474 260.056 466.237 259.752C466.874 259.501 467.074 259.647 467.362 260.241C467.762 261.061 468.349 261.695 468.712 262.673C469.374 264.51 468.474 266.439 467.437 267.866C468.887 267.562 469.462 266.558 470.199 265.303L471.099 263.756" fill="#FEE60E"/>
</g>
</svg>
