<svg width="500" height="500" viewBox="0 0 500 500" fill="none" xmlns="http://www.w3.org/2000/svg">
<mask id="mask0_4357_24" style="mask-type:luminance" maskUnits="userSpaceOnUse" x="0" y="137" width="500" height="226">
<path d="M500 137.932H0V362.07H500V137.932Z" fill="white"/>
</mask>
<g mask="url(#mask0_4357_24)">
<path d="M496.934 359.944L495.958 357.405C496.446 357.13 496.656 356.581 496.586 356.033C496.586 355.141 495.889 354.523 494.774 354.523H493.381V359.875H494.147V357.473H495.053L496.029 359.875H496.865L496.934 359.944ZM494.217 356.856V355.141H494.704C495.471 355.141 495.75 355.484 495.75 355.964C495.75 356.444 495.541 356.856 494.704 356.856H494.217Z" fill="#828282"/>
<path d="M495.053 362.068C492.335 362.068 490.105 359.873 490.105 357.197C490.105 354.522 492.335 352.326 495.053 352.326C497.77 352.326 500 354.522 500 357.197C500 359.873 497.77 362.068 495.053 362.068ZM495.053 352.807C492.684 352.807 490.733 354.727 490.733 357.06C490.733 359.393 492.684 361.314 495.053 361.314C497.422 361.314 499.373 359.393 499.373 357.06C499.373 354.727 497.422 352.807 495.053 352.807Z" fill="#828282"/>
<path d="M233.555 311.713L220.317 352.397L204.221 311.919H200.041L219.341 361.658H221.153L234.949 317.819L249.023 361.658H250.835L270.066 311.919H265.816L249.999 352.397L236.482 311.713H233.555Z" fill="#828282"/>
<path d="M286.719 311.85V361.109H311.245V358.022H290.62V311.85H286.719Z" fill="#828282"/>
<path d="M318.354 311.85V361.109H342.88V358.022H322.256V311.85H318.354Z" fill="#828282"/>
<path d="M353.609 311.986H349.707V361.246H353.609V311.986Z" fill="#828282"/>
<path d="M279.682 311.986H275.641V361.246H279.682V311.986Z" fill="#828282"/>
<path d="M379.808 311.645L359.113 361.247H362.737L369.844 344.164H391.722L398.829 361.247H402.452L381.759 311.645H379.947H379.808ZM380.713 317.819L390.398 341.008H371.167L380.783 317.819H380.713Z" fill="#828282"/>
<path d="M449.833 311.986L430.742 334.901L411.721 311.986H407.818V361.178H411.721V317.544H411.86L430.603 340.596L449.555 317.544V361.246H453.457V311.986H449.833Z" fill="#828282"/>
<path d="M485.924 319.944C483.277 316.651 479.096 314.799 474.846 314.936C469.411 314.593 464.673 318.573 464.324 323.992C464.324 324.129 464.324 324.267 464.324 324.404C464.324 337.577 488.154 331.265 488.154 348.554C488.015 356.169 481.604 362.206 473.94 362.069C473.801 362.069 473.661 362.069 473.522 362.069C468.854 362.069 464.324 360.559 460.701 357.747V353.15C463.907 356.581 468.435 358.501 473.174 358.433C478.748 358.639 483.486 354.385 483.695 348.897C483.695 348.828 483.695 348.69 483.695 348.554C483.695 334.558 459.865 340.664 459.865 324.473C460.144 316.994 466.554 311.094 474.149 311.369C478.399 311.3 482.51 312.809 485.646 315.691L485.924 320.013V319.944Z" fill="#828282"/>
<path d="M74.7637 312.055V361.246H100.475V354.866H81.9401V311.781L74.7637 312.055Z" fill="#828282"/>
<path d="M105.143 312.055V361.246H130.853V354.866H112.319V311.781L105.143 312.055Z" fill="#828282"/>
<path d="M135.521 312.055V361.247H164.646V354.866H142.768V339.498H163.253V333.118H142.698V318.23H164.089V311.85L135.521 312.055Z" fill="#828282"/>
<path d="M201.575 361.316L192.168 338.264C196.349 335.588 198.648 330.854 198.23 325.984C198.23 317.476 191.959 312.193 181.786 312.193H169.314V361.453H176.561V339.43H185.131L194.189 361.453H201.505L201.575 361.316ZM176.561 333.599V318.231H181.159C188.127 318.231 190.914 321.044 190.984 325.709C190.984 329.826 188.894 333.736 181.159 333.736H176.561V333.599Z" fill="#828282"/>
<path d="M41.0391 312.055V361.246H70.0944V354.934H48.2158V339.566H68.6312V333.186H48.2158V318.298H69.3973V311.918L41.0391 312.055Z" fill="#828282"/>
<path d="M28.2191 312.055L25.641 314.731L7.24638 334.626V312.123H0V361.314H7.24638V344.437L15.1895 335.861L25.7107 361.314H33.0964L30.4487 355.002L20.3456 330.372L31.2848 318.641L37.1377 312.26L28.2191 312.055Z" fill="#828282"/>
<path d="M0 137.932V287.151H21.1817V252.162L36.7893 236.999L58.3195 287.151H79.7103L51.1427 220.603L71.1396 198.786L109.95 287.151H118.032L147.157 218.819L176.7 287.151H184.783L229.028 186.505H207.358L180.672 247.565L154.682 186.505H139.841L113.782 247.565L86.9563 186.505H58.8069L21.1817 223.553V137.932H0Z" fill="#B40101"/>
</g>
</svg>
