<svg width="500" height="500" viewBox="0 0 500 500" fill="none" xmlns="http://www.w3.org/2000/svg">
<path d="M226.892 282.258C222.477 284.411 219.296 288.519 214.268 289.841C206.467 291.89 203.492 291.072 199.286 284.307C197.746 281.948 196.618 282.359 194.872 283.795C192.783 285.549 190.551 287.125 188.2 288.509C175.984 294.77 163.668 288.815 162.644 275.186C161.551 264.703 162.911 254.111 166.616 244.242C170.321 234.373 176.27 225.497 183.995 218.314C188.758 214.066 194.773 211.477 201.137 210.936C207.708 210.115 212.018 212.884 216.118 220.773C217.531 218.114 219.847 216.045 222.65 214.937C225.454 213.829 228.561 213.754 231.414 214.727C237.469 216.161 239.428 220.056 236.957 225.796C231.878 236.584 227.557 247.712 224.024 259.098C223.202 262.274 221.46 266.887 224.331 268.424C227.118 269.962 229.557 265.641 231.822 263.401C234.982 259.788 237.297 255.517 238.598 250.9C241.985 241.063 245.682 231.327 249.887 221.9C253.685 213.395 261.792 211.141 268.977 216.981C271.234 218.825 272.262 218.314 274.008 216.776C275.707 215.338 277.567 214.101 279.551 213.089C292.279 206.428 303.672 212.783 304.39 227.128C305.313 242.91 299.568 256.844 291.561 269.962C290.843 271.089 290.021 272.216 289.202 273.44C295.258 272.623 302.236 265.44 305.229 256.841C309.128 245.362 313.442 234.092 318.264 223.024C322.678 212.877 329.35 210.932 338.472 217.489C340.318 218.822 341.04 218.206 342.27 217.183C344.445 215.252 346.903 213.662 349.558 212.47C361.669 206.936 372.038 213.086 373.268 226.405C374.603 242.082 368.854 255.815 361.258 268.932C360.541 270.163 359.823 271.287 359.206 272.41C358.899 272.821 357.771 273.026 358.488 273.743C359 274.254 359.722 273.847 360.129 273.231C363.752 271.285 366.946 268.631 369.52 265.426C372.094 262.222 373.995 258.533 375.111 254.58C378.58 242.823 383.259 231.456 389.072 220.662C390.194 218.134 392.195 216.098 394.705 214.93C397.214 213.761 400.063 213.54 402.723 214.307C410.009 215.639 412.064 219.43 409.19 226.192C404.151 236.821 399.93 247.816 396.563 259.085C395.741 262.159 394.205 266.772 396.563 268.101C399.744 269.739 402.312 265.436 404.577 263.081C407.205 260.169 409.64 257.089 411.866 253.86C413.608 251.401 415.663 250.382 418.332 252.016C421.12 253.756 419.977 256.013 418.538 258.166C412.531 268.138 404.899 277.038 395.957 284.501C395.043 285.276 394.083 285.995 393.083 286.654C381.383 294.544 372.658 290.651 370.808 276.101C364.807 280.293 358.414 283.896 351.719 286.86C344.023 289.741 335.795 290.927 327.598 290.338C323.8 290.133 321.542 287.468 318.361 284.498C315.692 293.924 313.135 302.84 310.665 311.654C310.358 312.781 310.153 314.009 309.842 315.133C308.201 322.409 306.557 324.048 301.425 323.536C298.497 323.398 295.716 322.215 293.588 320.203C291.459 318.191 290.125 315.484 289.826 312.573C290.033 307.299 291.027 302.085 292.774 297.104C294.213 291.364 295.955 285.729 297.7 279.364C281.997 287.663 267.113 295.657 249.357 285.921C246.46 294.19 243.993 302.604 241.967 311.129C241.661 312.256 241.351 313.484 241.145 314.607C239.194 323.008 237.759 324.347 231.599 323.303C224.209 322.072 219.693 316.541 221.146 309.675C222.787 301.675 225.15 293.893 227.202 285.9C227.508 284.773 227.613 283.545 227.818 282.421C228.23 282.112 228.435 281.806 227.919 281.499C227.549 281.712 227.204 281.966 226.892 282.258ZM281.805 230.92C281.394 228.666 282.422 226.398 280.572 225.591C278.621 224.669 277.492 226.613 276.468 227.845C265.813 240.348 259.099 255.718 257.169 272.021C256.963 273.663 256.758 275.812 258.604 276.543C260.144 277.158 261.392 275.621 262.402 274.494C272.716 261.999 279.424 246.935 281.805 230.92ZM350.576 231.33C350.165 228.871 351.294 226.411 349.346 225.49C347.398 224.568 345.959 226.721 344.816 228.053C334.614 240.68 328.05 255.843 325.828 271.913C325.521 273.551 325.521 275.805 327.061 276.626C328.803 277.548 330.141 275.499 331.166 274.372C341.443 262.059 348.158 247.175 350.576 231.33ZM206.879 232.457C206.161 229.893 208.108 226.307 205.237 225.385C202.67 224.568 201.029 227.845 199.694 229.907C191.329 241.978 186.3 256.037 185.113 270.668C185.008 272.511 184.291 275.28 186.653 275.997C188.604 276.612 189.939 274.459 190.963 273.026C199.783 261.155 205.276 247.151 206.875 232.457H206.879Z" fill="#FF4940"/>
<path d="M114.193 266.789C112.552 273.346 110.807 279.802 109.166 286.362C109.096 287.383 108.802 288.377 108.304 289.271C107.806 290.166 107.117 290.939 106.285 291.537C105.453 292.135 104.499 292.543 103.492 292.731C102.484 292.918 101.447 292.882 100.455 292.624C98.4256 292.589 96.4306 292.092 94.6227 291.171C92.8148 290.249 91.2419 288.927 90.024 287.306C88.8061 285.684 87.9755 283.807 87.5957 281.816C87.2158 279.825 87.2966 277.774 87.8321 275.819C93.1216 251.848 101.002 228.522 111.336 206.25C113.287 201.843 116.981 201.127 120.984 200.716C135.558 199.384 137.61 202.149 132.067 215.371C128.781 223.371 125.796 231.459 122.52 239.863C136.994 236.276 149.721 219.162 149.105 205.022C149.038 203.139 148.595 201.287 147.802 199.576C147.009 197.866 145.882 196.331 144.486 195.061C143.09 193.791 141.455 192.813 139.675 192.183C137.895 191.554 136.008 191.285 134.123 191.394C118.726 190.983 108.051 199.078 99.8421 211.169C96.5664 215.782 94.4859 221.134 93.7865 226.745C93.0688 233.007 88.4488 235.25 82.9055 232.074C80.1147 230.341 77.9893 227.721 76.8718 224.636C75.7544 221.55 75.7099 218.179 76.7455 215.065C78.7222 208.115 82.7244 201.908 88.2432 197.234C108.256 179.713 131.147 175.32 155.986 184.527C177.131 192.417 181.441 214.244 165.742 231.358C158.639 238.84 149.733 244.379 139.875 247.445C139.17 247.54 138.494 247.784 137.892 248.162C137.29 248.541 136.776 249.044 136.387 249.638C135.997 250.232 135.74 250.903 135.633 251.605C135.526 252.307 135.572 253.024 135.767 253.707C137.102 265.697 139.464 277.277 147.059 287.214C150.606 292.529 155.994 296.347 162.189 297.936C168.384 299.525 174.949 298.773 180.622 295.824C182.295 295.019 184.008 294.3 185.754 293.67C186.577 293.38 187.476 293.397 188.287 293.716C189.099 294.036 189.767 294.637 190.169 295.41C190.602 296.153 190.776 297.019 190.665 297.871C190.553 298.724 190.162 299.516 189.552 300.123C180.11 311.908 158.042 318.976 144.286 314.367C130.328 309.654 123.552 298.485 119.137 285.368C117.169 279.291 116.35 273.036 114.193 266.789Z" fill="#FF4940"/>
<path d="M423.04 192.392C422.888 196.521 421.127 200.427 418.134 203.279C415.14 206.131 411.15 207.704 407.013 207.663C405.002 207.571 403.03 207.084 401.208 206.229C399.387 205.375 397.752 204.17 396.398 202.683C395.044 201.197 393.997 199.458 393.318 197.567C392.638 195.675 392.34 193.669 392.438 191.662C392.669 187.616 394.474 183.819 397.467 181.081C400.461 178.344 404.408 176.882 408.465 177.007C412.405 177.223 416.113 178.938 418.824 181.8C421.535 184.662 423.044 188.453 423.04 192.392Z" fill="#FF4940"/>
<path d="M359.813 273.551C359.402 274.167 358.58 274.473 358.172 274.063C357.454 273.346 358.583 273.141 358.89 272.73C359.095 272.936 359.493 273.242 359.813 273.551Z" fill="#FF4940"/>
</svg>
