<svg width="500" height="500" viewBox="0 0 500 500" fill="none" xmlns="http://www.w3.org/2000/svg">
<g clip-path="url(#clip0_4357_18)">
<path d="M493.36 337.093L477.176 318.619H466.283V320.064C469.603 320.064 470.018 320.477 470.018 323.264V338.745C470.018 344.318 468.877 344.834 466.18 344.834V346.279H476.243V344.834C473.027 344.834 471.989 344.112 471.989 340.912V322.747L493.671 347.105H495.331V323.986C495.331 320.58 497.199 320.167 498.962 320.167V318.722H488.899V320.167C491.389 320.167 493.36 320.683 493.36 323.883V337.093Z" fill="#121212"/>
<path d="M445.639 317.896C438.169 317.896 430.492 322.747 430.492 332.449C430.492 342.15 438.169 347.001 445.639 347.001C453.108 347.001 460.785 342.15 460.785 332.449C460.785 322.747 453.108 317.896 445.639 317.896ZM445.639 345.763C440.451 345.763 438.065 341.118 438.065 332.552C438.065 323.986 440.451 319.341 445.639 319.341C450.826 319.341 453.212 323.986 453.212 332.552C453.212 341.118 450.826 345.763 445.639 345.763Z" fill="#121212"/>
<path d="M408.915 342.563C408.915 344.524 408.292 344.73 405.387 344.73V346.175H419.289V344.73C416.384 344.73 415.762 344.524 415.762 342.563V321.405C415.762 320.373 416.28 319.96 417.214 319.96C419.6 319.96 423.646 322.128 425.928 326.359L426.966 325.946L425.306 317.793H424.268C423.542 318.206 422.505 318.515 421.467 318.515H403.105C402.586 318.515 402.171 318.412 401.653 318.309C401.134 318.103 400.719 317.999 400.408 317.793H399.37L397.71 325.946L398.748 326.359C401.03 322.025 405.076 319.96 407.462 319.96C408.396 319.96 408.915 320.373 408.915 321.405V342.563ZM375.51 342.563C375.51 344.524 374.887 344.73 371.982 344.73V346.175H398.229L400.304 338.125H399.059C395.221 343.698 392.731 344.73 386.091 344.73C382.979 344.73 382.46 344.214 382.46 342.769V322.231C382.46 320.27 383.083 320.064 385.988 320.064V318.619H372.086V320.064C374.991 320.064 375.613 320.27 375.613 322.231V342.563" fill="#121212"/>
<path d="M363.475 342.048L358.911 334.926C357.769 333.172 356.732 332.553 355.28 332.449V332.346C359.74 332.037 362.438 329.766 362.438 326.36C362.438 322.851 359.325 318.723 350.3 318.723H336.398V320.168C339.303 320.168 339.926 320.374 339.926 322.335V342.667C339.926 344.628 339.303 344.834 336.398 344.834V346.279H350.3V344.834C347.395 344.834 346.773 344.628 346.773 342.667V332.965C349.677 332.965 350.715 333.378 351.441 334.72L357.873 346.279H367.417V344.834C365.965 344.834 365.135 344.628 363.475 342.048ZM349.262 331.624H346.876V320.064H348.433C354.138 320.064 355.591 323.367 355.591 325.844C355.591 330.179 352.582 331.624 349.262 331.624Z" fill="#121212"/>
<path d="M328.722 341.841L316.999 319.445C316.481 318.619 316.273 318.309 316.066 318.309C315.651 318.309 314.821 320.477 311.397 322.747C311.916 322.954 312.227 323.47 312.227 323.986C312.227 324.295 312.123 324.605 311.812 325.327L304.758 339.88C302.994 343.595 301.853 344.834 299.259 344.834V346.279H309.322V344.834C306.625 344.834 305.588 344.111 305.588 342.976C305.588 342.357 305.899 341.222 307.247 339.157H319.904C321.668 341.738 321.979 343.183 321.979 343.595C321.979 344.524 321.149 344.731 318.244 344.731V346.176H333.287V344.731C330.693 344.834 330.071 344.215 328.722 341.841ZM307.87 337.506L313.368 325.947L319.074 337.506H307.87ZM293.554 336.784C291.167 341.738 287.433 345.556 282.868 345.556C278.615 345.556 273.946 342.357 273.946 332.449C273.946 323.367 277.681 319.341 283.076 319.341C288.159 319.341 291.271 322.747 293.45 326.876H294.591V318.206H293.657C293.242 318.929 292.309 319.341 291.582 319.341C289.923 319.341 286.499 317.896 282.453 317.896C272.598 317.896 266.373 324.399 266.373 332.965C266.373 340.602 272.701 347.001 281.623 347.001C286.707 347.001 290.337 345.144 291.582 345.144C292.516 345.144 293.242 345.763 293.657 347.001H294.591V336.784H293.554Z" fill="#121212"/>
<path d="M207.965 346.279H232.137L235.042 337.919H233.9C229.855 343.285 227.365 344.937 223.422 344.937H216.576L234.108 319.341V318.619H210.351L207.757 326.359H208.691C211.907 322.128 215.227 320.064 218.962 320.064H225.29L207.861 345.246V346.279M186.49 342.563C186.49 344.524 185.868 344.73 182.963 344.73V346.175H196.864V344.73C193.96 344.73 193.337 344.524 193.337 342.563V321.405C193.337 320.373 193.856 319.96 194.79 319.96C197.176 319.96 201.222 322.128 203.504 326.359L204.541 325.946L202.882 317.793H201.74C201.014 318.206 199.977 318.515 198.939 318.515H180.577C180.058 318.515 179.643 318.412 179.125 318.309C178.606 318.103 178.191 317.999 177.88 317.793H176.739L175.079 325.946L176.116 326.359C178.398 322.025 182.444 319.96 184.83 319.96C185.764 319.96 186.283 320.373 186.283 321.405V342.563M161.385 342.563C161.385 344.524 160.762 344.73 157.857 344.73V346.175H171.759V344.73C168.854 344.73 168.232 344.524 168.232 342.563V322.231C168.232 320.27 168.854 320.064 171.759 320.064V318.619H157.857V320.064C160.762 320.064 161.385 320.27 161.385 322.231V342.563Z" fill="#121212"/>
<path d="M150.078 342.047L145.513 334.926C144.372 333.171 143.334 332.552 141.882 332.449V332.345C146.343 332.036 149.04 329.765 149.04 326.359C149.04 322.85 145.928 318.722 136.902 318.722H123.001V320.167C125.906 320.167 126.528 320.373 126.528 322.334V342.666C126.528 344.627 125.906 344.834 123.001 344.834V346.279H136.902V344.834C133.998 344.834 133.375 344.627 133.375 342.666V332.965C136.28 332.965 137.317 333.377 138.043 334.719L144.475 346.279H154.02V344.834C152.567 344.834 151.737 344.627 150.078 342.047ZM135.865 331.623H133.479V320.064H135.035C140.741 320.064 142.193 323.366 142.193 325.843C142.193 330.178 139.185 331.623 135.865 331.623ZM78.9104 342.563C78.9104 344.524 78.2879 344.73 75.3832 344.73V346.175H101.007L103.186 338.125H101.941C98.8289 343.285 95.7166 344.73 90.1146 344.73C86.3798 344.73 85.8611 344.214 85.8611 343.079V332.655H87.7285C92.7081 332.655 94.9904 333.997 95.8204 337.919H96.9615V325.637H95.8204C94.6792 329.765 92.8119 331.21 87.7285 331.21H85.8611V321.818C85.8611 320.27 86.3798 320.064 88.3509 320.064C94.5755 320.064 97.584 321.818 101.526 326.153H102.667L99.8663 318.619H75.3832V320.064C78.2879 320.064 78.9104 320.27 78.9104 322.231V342.563ZM59.1994 342.563C59.1994 344.524 58.5769 344.73 55.6721 344.73V346.175H69.5736V344.73C66.6688 344.73 66.0464 344.524 66.0464 342.563V322.231C66.0464 320.27 66.6688 320.064 69.5736 320.064V318.619H55.6721V320.064C58.5769 320.064 59.1994 320.27 59.1994 322.231V330.694H44.9867V322.231C44.9867 320.27 45.6091 320.064 48.5139 320.064V318.619H34.6125V320.064C37.5173 320.064 38.1397 320.27 38.1397 322.231V342.563C38.1397 344.524 37.5173 344.73 34.6125 344.73V346.175H48.5139V344.73C45.6091 344.73 44.9867 344.524 44.9867 342.563V332.655H59.0956V342.563M12.3079 342.563C12.3079 344.524 11.6854 344.73 8.78067 344.73V346.175H22.6821V344.73C19.7773 344.73 19.1549 344.524 19.1549 342.563V321.405C19.1549 320.373 19.6736 319.96 20.6073 319.96C22.9933 319.96 27.0393 322.128 29.3216 326.359L30.359 325.946L28.6992 317.793H27.558C26.8318 318.206 25.7944 318.515 24.757 318.515H6.60208C6.08337 318.515 5.6684 318.412 5.14969 318.309C4.63098 318.103 4.21601 317.999 3.90478 317.793H2.65988L1 326.05L2.03742 326.462C4.31975 322.128 8.3657 320.064 10.7518 320.064C11.6854 320.064 12.2042 320.476 12.2042 321.508V342.563M243.964 334.41H253.301L257.14 328.836H247.906L243.964 334.41Z" fill="#121212"/>
<path d="M233.591 265.465C233.591 264.846 235.147 263.298 235.562 263.298C235.769 263.298 237.325 264.846 237.325 265.465C237.325 265.672 235.769 267.426 235.562 267.426C235.147 267.426 233.591 265.672 233.591 265.465ZM263.987 265.465C263.987 264.846 265.543 263.298 265.958 263.298C266.166 263.298 267.722 264.846 267.722 265.465C267.722 265.672 266.166 267.426 265.958 267.426C265.543 267.426 263.987 265.672 263.987 265.465ZM248.633 265.465C248.633 264.846 250.189 263.298 250.604 263.298C250.812 263.298 252.368 264.846 252.368 265.465C252.368 265.672 250.812 267.426 250.604 267.426C250.293 267.426 248.633 265.672 248.633 265.465ZM231.62 268.562H239.297C239.919 268.562 240.23 268.149 240.23 267.633V263.298C240.23 262.679 239.815 262.369 239.297 262.369C237.74 262.369 234.006 262.576 231.62 262.782C231.205 262.782 230.79 262.988 230.79 263.608V267.942C230.79 268.355 231.205 268.562 231.62 268.562ZM226.536 265.878C226.536 265.465 227.677 264.33 227.885 264.33C228.092 264.33 229.234 265.465 229.234 265.878C229.234 266.085 228.092 267.426 227.885 267.426C227.677 267.426 226.536 266.085 226.536 265.878ZM241.579 265.465C241.579 265.053 242.72 263.917 242.928 263.917C243.135 263.917 244.276 265.053 244.276 265.465C244.276 265.672 243.135 267.014 242.928 267.014C242.824 267.014 241.579 265.672 241.579 265.465ZM254.339 268.768C254.962 268.768 255.273 268.355 255.273 267.839V263.195C255.273 262.576 254.858 262.266 254.339 262.266H246.87C246.247 262.266 245.936 262.679 245.936 263.195V267.839C245.936 268.458 246.351 268.768 246.87 268.768H254.339ZM269.693 268.562C270.108 268.562 270.523 268.355 270.523 267.736V263.401C270.523 262.782 270.108 262.576 269.693 262.576C267.307 262.369 263.572 262.163 262.016 262.163C261.394 262.163 261.082 262.576 261.082 263.092V267.426C261.082 268.046 261.497 268.355 262.016 268.355H269.693V268.562ZM274.776 265.878C274.776 266.085 273.635 267.426 273.428 267.426C273.22 267.426 272.079 266.085 272.079 265.878C272.079 265.465 273.22 264.33 273.428 264.33C273.635 264.33 274.776 265.465 274.776 265.878ZM259.63 265.465C259.63 265.672 258.489 267.014 258.281 267.014C258.074 267.014 256.933 265.672 256.933 265.465C256.933 265.053 258.074 263.917 258.281 263.917C258.489 263.917 259.63 265.053 259.63 265.465ZM239.608 174.848H239.815C240.749 178.564 245.106 178.977 246.144 183.208L245.936 183.415C243.757 180.318 240.853 179.906 239.608 178.357C239.089 177.635 239.089 176.603 239.608 174.848ZM246.87 224.904C246.87 230.994 241.786 233.677 236.496 233.677C243.342 226.246 238.052 215.512 244.691 208.494C244.172 214.687 246.87 220.57 246.87 224.904ZM279.445 241.418C286.707 241.418 290.441 237.702 290.441 232.026C290.441 230.065 289.819 228.723 289.819 228.723C287.848 230.271 285.462 230.684 284.113 230.684C281.208 230.684 277.266 228.93 277.266 224.285C277.266 218.196 283.698 215.1 283.698 208.288C283.698 206.327 282.868 205.604 282.868 205.604C285.773 201.683 286.81 197.967 286.81 195.077C286.81 189.607 283.906 186.098 283.906 186.098L287.018 187.646C285.669 182.383 282.661 178.873 282.661 178.873C282.661 178.873 284.217 179.699 285.047 179.286C283.491 178.461 281.105 175.571 281.105 170.307C281.105 165.044 279.963 162.154 269.693 160.399C268.552 158.025 265.751 155.548 264.402 154.723C262.016 155.858 258.489 157.303 257.348 158.232C257.348 158.232 254.443 158.438 253.198 158.438C251.434 158.438 250.086 157.819 249.256 157.819C246.87 157.819 245.314 160.193 245.314 160.193C245.314 160.193 240.23 160.193 236.496 161.018C234.524 161.431 233.383 162.979 231.931 166.282L222.283 171.546C220.519 172.475 219.378 173.094 219.378 174.642C219.378 175.468 220 176.809 221.142 178.564C222.075 184.447 223.113 185.376 224.461 185.376C224.876 185.376 225.603 185.169 225.603 185.169C226.018 185.582 226.951 187.13 227.159 187.749C225.603 188.575 223.631 186.821 221.245 186.821C219.897 186.821 217.718 187.646 217.718 189.917C217.718 190.742 218.133 190.846 218.548 190.846C219.171 190.846 219.689 190.639 221.142 190.639C222.905 190.639 224.254 192.187 227.055 192.187C227.989 192.187 228.611 191.981 229.026 192.187C227.677 193.116 226.847 193.735 227.262 195.077C227.885 197.657 230.167 200.547 231.412 200.547C232.346 200.547 234.109 199.928 234.109 199.928L232.968 200.857C225.084 207.462 226.847 214.893 226.847 222.324C226.847 228.001 225.291 231.51 220.727 231.51C217.822 231.51 213.672 229.755 210.56 225.833C210.145 226.969 209.938 228.723 209.938 230.375C209.938 237.186 216.266 241.727 222.49 241.727C227.989 241.727 231.931 240.179 235.873 237.083C247.077 236.877 250.604 229.446 250.604 229.446C255.895 237.083 265.751 236.464 267.307 236.464C270.627 240.076 275.71 241.418 279.445 241.418ZM280.275 200.031C280.275 208.185 269.693 209.217 269.693 217.164C269.693 220.26 270.627 222.427 270.108 224.388C270.108 224.388 272.287 222.015 272.494 220.26C272.494 226.349 275.606 233.368 283.698 233.368C284.839 233.368 286.603 233.161 288.263 232.232C288.263 232.232 287.848 237.909 281.416 237.909C273.22 237.909 265.751 231.097 265.751 218.402C265.751 216.029 266.166 213.345 267.514 211.384C267.514 211.384 263.572 213.552 263.157 220.363C263.157 220.363 261.601 217.989 261.601 215.1C261.394 205.295 273.428 208.804 280.275 200.031ZM271.042 163.186C278.304 164.734 277.37 169.481 278.719 172.784C275.606 168.862 271.457 166.385 271.457 166.385C271.872 164.527 271.042 163.186 271.042 163.186ZM227.055 182.692C227.47 182.486 228.819 182.279 228.819 182.279C229.234 183.105 229.234 184.447 229.026 185.582C227.262 185.582 226.744 183.827 227.055 182.692ZM231.205 188.575C230.375 189.71 229.856 191.258 227.47 191.258C225.084 191.258 223.113 189.504 221.557 189.504C220.727 189.504 220.415 189.71 220.001 189.71C219.586 189.71 219.378 189.504 219.378 189.298C219.378 188.678 220.208 188.162 221.349 188.162C222.49 188.162 223.528 188.781 225.291 189.091C227.885 189.917 229.441 187.749 230.375 186.924C231.516 185.995 232.553 185.788 233.487 185.788C235.458 185.788 236.807 186.717 236.807 186.717C235.873 186.717 233.694 187.646 232.138 188.678C231.62 188.575 231.412 188.369 231.205 188.575ZM233.383 191.052C232.553 191.878 231.827 191.878 231.412 191.878C230.997 190.949 231.412 189.504 231.412 189.504C232.242 189.504 233.383 190.123 233.383 191.052ZM220.83 234.09C230.063 234.09 229.856 223.563 229.856 220.054C229.856 204.263 234.524 200.341 245.521 195.284C253.717 191.362 261.186 189.814 261.186 181.97C261.186 179.286 260.356 176.293 257.244 176.293C257.244 176.293 258.385 177.429 258.385 179.39C258.385 180.215 258.178 180.938 257.763 181.97C257.763 181.144 257.555 180.215 256.933 179.39C255.999 180.938 256.103 183.311 255.584 184.24C255.584 184.24 255.169 185.169 252.472 186.614C252.472 186.614 252.057 187.027 253.405 187.027C253.405 187.027 256.725 187.027 257.97 185.685C257.036 188.369 255.792 189.401 254.028 189.401C253.094 189.401 251.434 189.194 250.086 189.194C247.7 189.194 242.201 190.33 240.126 194.045C238.57 196.625 234.006 198.896 232.45 198.896C231.101 198.896 229.13 195.8 229.13 194.355C229.13 192.807 231.827 193.735 234.006 191.671C237.533 188.162 238.882 187.337 242.616 187.337C242.616 187.337 244.795 187.337 242.824 185.376L236.703 179.699C235.873 178.873 235.354 178.564 234.524 178.564C234.109 178.564 233.383 178.77 231.62 180.318C228.092 180.731 226.744 181.247 225.706 181.867C225.084 182.279 224.773 182.692 224.358 182.692C223.735 182.692 223.009 179.596 223.009 178.977C223.009 177.429 224.773 176.396 224.773 175.468C224.773 174.848 224.15 174.642 224.15 174.642L221.557 175.777C221.557 175.777 220.208 174.229 221.764 173.403C221.764 173.403 225.706 171.236 233.176 167.727C233.591 169.894 234.109 170.307 235.873 170.101L235.043 170.307L234.628 170.926C235.251 171.133 236.392 170.926 237.533 170.514C238.467 170.101 239.712 170.101 239.919 169.894C240.126 169.688 240.749 169.069 240.749 168.965C240.334 168.965 239.193 169.172 238.363 169.378C239.504 168.553 240.126 168.037 240.126 167.624C240.126 167.417 239.919 167.211 239.919 167.211C239.297 167.211 238.985 167.624 238.363 167.417C237.948 167.211 237.533 166.798 237.533 166.282C237.533 165.869 237.948 165.456 239.297 165.456H240.23C240.23 164.631 238.259 164.321 237.533 164.321C236.599 164.321 235.147 164.734 234.006 165.25C234.006 165.25 234.213 163.702 235.977 162.876C236.91 162.463 242.098 161.947 246.973 161.947C254.028 161.947 259.319 168.037 260.356 168.037C260.771 168.037 261.186 167.624 260.564 167.211C257.97 165.456 256.414 164.115 256.414 162.36C256.414 161.741 256.414 158.025 264.506 156.684C268.033 159.573 269.174 161.741 269.174 163.702C269.174 167.004 265.44 167.417 265.025 168.759C274.258 169.378 281.105 181.454 281.105 187.543C281.105 198.483 270.73 202.921 264.195 204.366C273.635 197.348 277.162 190.33 277.162 185.479C277.162 177.429 269.901 172.784 268.137 171.855C272.287 176.396 273.22 181.041 273.22 184.55C273.22 191.362 268.863 194.664 268.863 194.664C269.693 193.116 269.797 191.775 269.797 190.536C269.797 189.607 269.589 188.781 269.589 188.781C265.855 197.554 257.244 203.644 256.621 211.075C255.999 209.32 255.792 207.565 255.792 206.017C255.792 199.722 259.734 195.903 259.734 195.903C252.057 201.167 250.293 207.256 250.293 211.9C250.293 216.545 252.264 220.054 252.264 220.054C251.849 218.299 252.057 215.409 252.472 213.035C253.302 219.641 256.622 227.898 265.855 233.161C249.775 233.161 243.135 214.068 249.775 201.889C238.57 204.779 237.222 216.338 237.014 222.944C236.184 219.434 236.081 216.648 236.081 214.584C236.081 202.715 246.04 199.515 253.509 196.212C264.506 191.362 268.967 187.44 268.967 180.422C268.967 172.991 260.149 168.346 253.613 169.688L255.999 172.062C256.414 172.475 256.933 172.887 256.933 172.887C263.78 176.396 264.817 180.318 264.817 182.692C264.817 188.988 257.763 192.291 252.679 194.458C236.184 201.476 233.279 204.572 233.279 214.79C233.279 222.221 235.458 233.884 227.574 234.916C228.196 235.845 230.893 236.257 230.893 236.257C228.507 238.218 226.018 238.838 223.009 238.838C220.312 238.838 214.813 238.012 213.154 232.232C215.332 232.852 217.511 234.09 220.83 234.09ZM263.78 166.695L264.402 167.108C264.402 167.108 267.929 165.56 267.929 162.979C267.929 162.979 267.929 161.638 267.099 160.812C266.684 160.812 266.684 161.638 266.684 161.947C266.684 162.773 266.062 163.289 265.128 163.289C264.298 163.289 262.95 162.463 262.95 161.122C262.95 159.78 263.572 159.161 263.572 158.748C263.572 158.748 263.572 158.541 263.365 158.541C260.252 159.677 260.045 161.122 260.045 162.05C260.045 163.599 260.667 164.94 263.78 166.695ZM225.914 174.642C226.121 175.055 226.744 175.468 227.055 175.468C227.885 174.642 228.611 173.713 228.611 172.784C227.677 172.887 225.914 173.3 225.914 174.642ZM289.715 239.663L289.093 239.457C288.263 240.592 285.566 243.172 281.416 243.172L281.208 243.585C282.972 245.34 282.557 249.262 280.378 249.262C279.03 249.262 278.407 248.126 278.2 247.094L277.785 246.888C277.162 247.301 275.606 248.436 275.191 248.849C275.191 249.984 275.399 251.532 275.606 252.564H276.021C276.436 251.739 277.162 251.635 277.577 251.635C278.511 251.635 279.341 252.461 279.341 253.596C279.341 255.557 277.992 257.312 275.191 257.312C272.287 257.312 269.693 255.97 269.693 252.771C269.693 251.223 270.523 249.468 272.598 248.436V248.023C271.042 246.888 269.693 244.927 269.278 243.895H268.863C268.241 244.721 266.27 246.475 264.506 246.785V247.198C266.062 248.746 266.27 250.294 266.27 251.326C266.27 253.906 264.091 255.454 259.63 255.454C256.31 255.454 252.991 254.525 252.991 251.119C252.991 249.365 254.132 248.436 255.584 248.436C256.518 248.436 257.763 248.849 258.489 249.984H258.904C259.734 249.055 260.045 248.436 261.497 247.301V246.888C260.875 246.475 259.941 245.34 258.904 243.998H258.489C257.14 245.546 256.103 245.753 254.962 245.753C254.132 245.753 252.991 245.34 252.991 243.998C252.991 242.244 255.169 241.418 256.933 240.902V240.489C254.028 239.354 251.227 236.154 250.604 234.193H250.189C249.567 236.154 246.87 239.25 243.861 240.489V240.902C245.625 241.521 247.803 242.244 247.803 243.998C247.803 245.34 246.662 245.753 245.832 245.753C244.691 245.753 243.654 245.546 242.305 243.998H241.89C240.956 245.34 239.919 246.578 239.297 246.888V247.301C240.645 248.436 241.06 249.055 241.89 249.984H242.305C243.135 248.849 244.276 248.436 245.21 248.436C246.558 248.436 247.803 249.365 247.803 251.119C247.803 254.422 244.484 255.454 241.164 255.454C236.599 255.454 234.524 253.906 234.524 251.326C234.524 250.397 234.732 248.746 236.288 247.198V246.888C234.524 246.475 232.553 244.721 231.931 243.998H231.516C231.101 244.927 229.752 246.888 228.196 248.126V248.539C230.375 249.468 231.101 251.223 231.101 252.874C231.101 255.97 228.507 257.415 225.603 257.415C222.905 257.415 221.453 255.661 221.453 253.7C221.453 252.564 222.283 251.739 223.217 251.739C223.631 251.739 224.358 251.945 224.773 252.668H225.188C225.395 251.739 225.603 250.087 225.603 248.952C225.188 248.539 223.631 247.404 223.009 246.991L222.594 247.198C222.387 248.126 221.764 249.365 220.415 249.365C218.237 249.365 217.822 245.443 219.586 243.688L219.378 243.276C215.228 243.276 212.531 240.695 211.701 239.56L211.597 239.663L219.793 258.447C219.793 258.447 218.029 259.273 218.444 260.615C219.274 263.298 221.557 266.91 221.557 271.142C221.557 272.896 221.349 273.103 221.349 273.825C221.349 274.651 221.972 274.961 222.698 274.961H278.407C279.237 274.961 279.756 274.548 279.756 273.825C279.756 273 279.549 272.896 279.549 271.142C279.549 266.807 281.935 263.298 282.661 260.615C283.076 259.273 281.312 258.447 281.312 258.447L289.715 239.663ZM250.604 270.523C235.251 270.523 225.084 270.316 225.084 270.316L222.905 262.163C222.905 262.163 236.807 260.202 250.604 260.202C264.298 260.202 278.304 262.163 278.304 262.163L276.125 270.316C276.125 270.316 265.958 270.523 250.604 270.523Z" fill="#121212"/>
</g>
<defs>
<clipPath id="clip0_4357_18">
<rect width="499" height="193" fill="white" transform="translate(1 154)"/>
</clipPath>
</defs>
</svg>
