<svg width="500" height="500" viewBox="0 0 500 500" fill="none" xmlns="http://www.w3.org/2000/svg">
<path d="M374.705 193.724C369.79 219.226 364.967 246.59 360.144 272.109C358.304 281.843 356.476 291.583 354.723 301.34C354.369 303.301 353.748 304.195 351.456 304.148C342.768 303.974 334.074 304.049 325.38 304.102C323.732 304.113 322.902 303.922 322.612 301.891C320.07 283.972 317.36 266.081 314.713 248.179C314.069 243.799 313.489 239.414 312.868 235.028C312.775 234.378 312.711 233.694 311.893 233.125C310.552 235.829 310.645 238.752 310.233 241.514C307.209 261.696 304.29 281.889 301.405 302.095C301.173 303.736 300.488 304.119 298.968 304.107C290.274 304.049 281.58 304.049 272.892 304.107C271.36 304.119 270.809 303.701 270.513 302.106C265.8 276.86 260.995 251.631 256.218 226.396C254.181 215.624 252.162 204.845 250.078 193.782L278.586 193.719C279.851 201.509 281.058 211.609 282.294 219.406C284.65 234.239 287.007 249.067 289.398 263.894C289.491 264.474 289.653 264.886 290.129 268.205C290.413 266.58 291.266 262.316 291.504 260.681C294.633 239.054 297.761 215.351 300.831 193.719L326.425 193.707C329.628 216.296 332.937 241.143 336.239 263.72C336.337 264.376 336.442 265.611 337.156 267.868C337.434 265.931 337.794 264.324 337.893 263.709C340.139 249.838 342.385 235.968 344.619 222.092C346.03 213.35 347.469 202.49 348.775 193.73H374.717L374.705 193.724Z" fill="#121212"/>
<path d="M388.523 193.725H417.832C417.727 212.05 417.774 233.178 417.774 251.498V254.868L478.851 193.939L499.953 214.62L438.063 275.955C457.151 275.955 480.906 276.001 499.994 275.897V305.018C464.452 304.96 424.065 304.96 388.523 305.018V193.725Z" fill="#121212"/>
<path d="M180.591 265.543C183.968 265.543 187.358 265.659 190.73 265.496C192.593 265.409 192.947 266.059 192.935 267.782C192.906 274.03 194.374 279.709 200.311 283.05C205.981 286.241 211.942 286.003 217.92 283.955C219.225 283.509 220.131 282.441 220.81 281.229C224.245 275.068 221.674 267.736 215.076 265.462C208.082 263.054 200.956 261.012 193.956 258.616C187.125 256.278 180.794 252.983 176.261 247.147C160.818 227.273 172.686 196.91 197.479 192.71C206.858 191.121 216.167 191.295 225.087 194.735C239.567 200.321 246.543 211.465 247.843 226.583C248.435 233.474 248.516 233.469 241.575 233.469C236.166 233.469 230.757 233.399 225.354 233.509C223.601 233.544 223.125 233.097 223.056 231.293C222.824 225.643 222.232 219.888 217.008 216.39C211.594 212.764 205.622 212.701 199.609 215.004C198.582 215.398 197.88 216.222 197.276 217.104C193.887 222.052 196.011 230.516 201.414 233.086C208.042 236.236 215.285 237.634 222.168 240.082C228.552 242.356 234.849 244.839 239.851 249.572C249.178 258.396 250.844 269.528 247.797 281.217C243.421 298.006 226.381 309.173 207.943 308.256C195.837 307.653 185.083 303.969 176.812 294.647C169.744 286.676 167.561 277.127 167.886 266.773C167.933 265.374 168.734 265.543 169.599 265.543C173.266 265.543 176.94 265.543 180.608 265.543H180.591Z" fill="#121212"/>
<path d="M67.4091 233.468C63.8341 233.468 60.2591 233.387 56.6898 233.503C55.0126 233.555 54.3394 233.224 54.3162 231.327C54.2871 228.844 54.0028 226.338 53.3063 223.913C51.5884 217.927 47.5665 214.504 41.3741 213.808C37.9905 213.425 34.6477 213.425 31.3686 214.539C29.819 215.061 28.6525 215.978 27.9329 217.428C25.2458 222.823 27.6775 229.883 33.2142 232.354C39.0236 234.953 45.2625 236.328 51.2751 238.335C58.5122 240.754 65.6274 243.457 71.3266 248.783C82.0691 258.819 83.4446 278.014 74.2168 290.62C64.6698 303.667 51.3505 308.319 35.7039 306.921C23.969 305.871 13.9635 301.248 6.90632 291.363C1.70046 284.082 0 275.827 0 267.068C0 265.699 0.568756 265.513 1.71787 265.519C8.9608 265.554 16.2037 265.565 23.4467 265.507C24.7583 265.496 25.031 265.96 25.031 267.166C25.031 269.765 25.2864 272.347 26.0989 274.853C27.8632 280.259 31.4963 283.653 37.0736 284.784C41.3683 285.654 45.6687 285.776 49.8532 284.065C51.7742 283.282 53.1264 281.971 53.5617 279.952C55.3086 271.894 53.9737 267.294 46.5683 265.101C39.4705 263.001 32.3204 261.035 25.3444 258.587C16.8131 255.593 9.07107 251.109 4.86344 242.697C-4.51522 223.96 2.22279 197.762 30.1673 192.669C39.9174 190.894 49.5862 191.422 58.8372 195.331C71.8083 200.819 78.3258 211.052 79.9334 224.685C80.2584 227.441 81.6396 230.973 80.0727 232.818C78.4709 234.698 74.803 233.276 72.0462 233.445C70.5083 233.537 68.9587 233.462 67.4091 233.462V233.468Z" fill="#121212"/>
<path d="M125.092 225.011C128.847 218.003 132.381 211.419 135.898 204.829C137.616 201.609 139.34 198.384 141 195.135C141.487 194.178 142.044 193.749 143.193 193.754C151.957 193.807 160.726 193.783 169.896 193.783C166.199 200.095 162.676 206.122 159.142 212.138C152.804 222.916 146.513 233.712 140.071 244.427C138.974 246.254 139.009 247.565 140.042 249.381C149.937 266.744 159.71 284.182 169.611 301.544C170.877 303.766 170.482 304.161 168.05 304.12C160.134 303.998 152.212 304.004 144.29 304.12C142.352 304.149 141.429 303.447 140.518 301.811C134.836 291.555 129.027 281.368 123.043 270.775C119.811 277.023 116.729 282.975 113.659 288.927C111.192 293.707 108.685 298.47 106.294 303.29C105.708 304.468 105.11 305.019 103.711 305.008C94.733 304.944 85.7548 304.973 76.2949 304.973C78.39 301.243 80.3226 297.774 82.2727 294.316C90.6241 279.5 98.9523 264.667 107.379 249.892C108.267 248.331 108.163 247.264 107.321 245.767C98.0237 229.274 88.7959 212.741 79.5566 196.214C79.1909 195.559 78.8659 194.874 78.2972 193.772H82.7428C90.566 193.772 98.3893 193.824 106.213 193.731C107.89 193.708 108.766 194.236 109.544 195.721C114.576 205.339 119.718 214.905 125.098 225.005L125.092 225.011Z" fill="#121212"/>
<path d="M366.836 297.877H364.781V301.984H366.836V297.877Z" fill="#121212"/>
<path d="M365.808 303.841C363.649 303.841 361.896 302.084 361.896 299.931C361.896 297.779 363.655 296.021 365.808 296.021C367.961 296.021 369.72 297.779 369.72 299.931C369.72 302.084 367.961 303.841 365.808 303.841ZM365.808 296.892C364.131 296.892 362.767 298.255 362.767 299.931C362.767 301.608 364.131 302.971 365.808 302.971C367.485 302.971 368.849 301.608 368.849 299.931C368.849 298.255 367.485 296.892 365.808 296.892Z" fill="#121212"/>
</svg>
